<svg width="30" height="30" viewBox="0 0 30 30" fill="none" xmlns="http://www.w3.org/2000/svg">
    <path
        d="M25.5382 22.2619C25.1576 23.1449 24.6874 23.9869 24.1349 24.7748C23.3969 25.824 22.7908 26.5491 22.3262 26.9526C21.6047 27.6119 20.8295 27.9512 20.0008 27.9703C19.407 27.9703 18.6896 27.8021 17.8539 27.4601C17.0156 27.1195 16.2459 26.9526 15.5408 26.9526C14.8028 26.9526 14.0111 27.1195 13.1631 27.4601C12.3165 27.8021 11.632 27.9813 11.1084 27.9977C10.3154 28.0319 9.52233 27.6844 8.73205 26.9526C8.22765 26.5149 7.5968 25.7625 6.83951 24.6982C6.02861 23.5642 5.36203 22.2441 4.83976 20.7435C4.28038 19.1198 4 17.5494 4 16.0282C4 14.2868 4.37796 12.7835 5.13525 11.525C5.70803 10.5366 6.5269 9.71167 7.51296 9.1297C8.48531 8.54924 9.5953 8.2367 10.7291 8.22413C11.3613 8.22413 12.19 8.41838 13.2167 8.8014C14.2434 9.18442 14.9031 9.37867 15.1904 9.37867C15.4075 9.37867 16.1373 9.15022 17.3798 8.69744C18.5521 8.27748 19.5417 8.10375 20.3526 8.17215C22.5516 8.34861 24.2023 9.21041 25.3004 10.7644C23.335 11.9504 22.3633 13.6097 22.3826 15.7396C22.3991 17.3989 23.0052 18.7792 24.1927 19.8749C24.7176 20.3749 25.3302 20.775 26 21.0554C25.8543 21.4754 25.7004 21.8762 25.5382 22.2619ZM20.4983 2.52119C20.4983 3.82073 20.02 5.03546 19.0703 6.15854C17.9213 7.49365 16.5331 8.26653 15.0282 8.14479C15.0085 7.98137 14.9989 7.81691 14.9993 7.65233C14.9993 6.4034 15.5436 5.06829 16.5153 3.97531C16.9991 3.42266 17.6148 2.96166 18.3611 2.59505C19.106 2.23392 19.8097 2.0342 20.4722 2C20.49 2.1751 20.4983 2.34882 20.4983 2.52119Z"
        fill="#444444" />
</svg>
