<svg width="20" height="20" viewBox="0 0 20 20" fill="none" xmlns="http://www.w3.org/2000/svg">
    <g clip-path="url(#clip0_641_2553)">
        <path
            d="M9.14172 1.6665H7.47506C3.30839 1.6665 1.64172 3.33317 1.64172 7.49984V12.4998C1.64172 16.6665 3.30839 18.3332 7.47506 18.3332H12.4751C16.6417 18.3332 18.3084 16.6665 18.3084 12.4998V10.8332"
            stroke="white" stroke-linecap="round" stroke-linejoin="round" />
        <path
            d="M18.2334 2.96669C17.2084 5.52502 14.6334 9.00835 12.4834 10.7334L11.1667 11.7834C11 11.9084 10.8334 12.0084 10.6417 12.0834C10.6417 11.9584 10.6334 11.8334 10.6167 11.7C10.5417 11.1417 10.2917 10.6167 9.8417 10.175C9.38337 9.71669 8.83337 9.45835 8.2667 9.38335C8.13337 9.37502 8.00003 9.36669 7.8667 9.37502C7.9417 9.16669 8.05003 8.97502 8.1917 8.81669L9.2417 7.50002C10.9667 5.35002 14.4584 2.75835 17.0084 1.73335C17.4 1.58335 17.7834 1.70002 18.025 1.94169C18.275 2.19169 18.3917 2.57502 18.2334 2.96669Z"
            stroke="white" stroke-linecap="round" stroke-linejoin="round" />
        <path
            d="M10.65 12.0751C10.65 12.8084 10.3667 13.5084 9.8417 14.0417C9.43337 14.4501 8.88337 14.7334 8.22504 14.8167L6.58337 14.9917C5.6917 15.0917 4.92504 14.3334 5.02504 13.4251L5.20004 11.7834C5.35837 10.3251 6.57504 9.39173 7.87504 9.36673C8.00837 9.3584 8.1417 9.36673 8.27504 9.37507C8.8417 9.45007 9.3917 9.7084 9.85004 10.1667C10.3 10.6167 10.55 11.1334 10.625 11.6917C10.6417 11.8251 10.65 11.9584 10.65 12.0751Z"
            stroke="white" stroke-linecap="round" stroke-linejoin="round" />
        <path d="M13.1834 9.98353C13.1834 8.24186 11.775 6.8252 10.025 6.8252" stroke="white"
            stroke-linecap="round" stroke-linejoin="round" />
    </g>
    <defs>
        <clipPath id="clip0_641_2553">
            <rect width="20" height="20" fill="white" />
        </clipPath>
    </defs>
</svg>
