<svg width="18" height="19" viewBox="0 0 18 19" fill="none" xmlns="http://www.w3.org/2000/svg">
    <path
        d="M16.4775 14.2885C16.4775 14.5585 16.4175 14.836 16.29 15.106C16.1625 15.376 15.9975 15.631 15.78 15.871C15.4125 16.276 15.0075 16.5685 14.55 16.756C14.1 16.9435 13.6125 17.041 13.0875 17.041C12.3225 17.041 11.505 16.861 10.6425 16.4935C9.78 16.126 8.9175 15.631 8.0625 15.0085C7.2 14.3785 6.3825 13.681 5.6025 12.9085C4.83 12.1285 4.1325 11.311 3.51 10.456C2.895 9.60102 2.4 8.74602 2.04 7.89852C1.68 7.04352 1.5 6.22602 1.5 5.44602C1.5 4.93602 1.59 4.44852 1.77 3.99852C1.95 3.54102 2.235 3.12102 2.6325 2.74602C3.1125 2.27352 3.6375 2.04102 4.1925 2.04102C4.4025 2.04102 4.6125 2.08602 4.8 2.17602C4.995 2.26602 5.1675 2.40102 5.3025 2.59602L7.0425 5.04852C7.1775 5.23602 7.275 5.40852 7.3425 5.57352C7.41 5.73102 7.4475 5.88852 7.4475 6.03102C7.4475 6.21102 7.395 6.39102 7.29 6.56352C7.1925 6.73602 7.05 6.91602 6.87 7.09602L6.3 7.68852C6.2175 7.77102 6.18 7.86852 6.18 7.98852C6.18 8.04852 6.1875 8.10102 6.2025 8.16102C6.225 8.22102 6.2475 8.26602 6.2625 8.31102C6.3975 8.55852 6.63 8.88102 6.96 9.27102C7.2975 9.66102 7.6575 10.0585 8.0475 10.456C8.4525 10.8535 8.8425 11.221 9.24 11.5585C9.63 11.8885 9.9525 12.1135 10.2075 12.2485C10.245 12.2635 10.29 12.286 10.3425 12.3085C10.4025 12.331 10.4625 12.3385 10.53 12.3385C10.6575 12.3385 10.755 12.2935 10.8375 12.211L11.4075 11.6485C11.595 11.461 11.775 11.3185 11.9475 11.2285C12.12 11.1235 12.2925 11.071 12.48 11.071C12.6225 11.071 12.7725 11.101 12.9375 11.1685C13.1025 11.236 13.275 11.3335 13.4625 11.461L15.945 13.2235C16.14 13.3585 16.275 13.516 16.3575 13.7035C16.4325 13.891 16.4775 14.0785 16.4775 14.2885Z"
        stroke="#FF006B" stroke-miterlimit="10" />
    <path
        d="M13.875 7.29102C13.875 6.84102 13.5225 6.15102 12.9975 5.58852C12.5175 5.07102 11.88 4.66602 11.25 4.66602"
        stroke="#FF006B" stroke-linecap="round" stroke-linejoin="round" />
    <path d="M16.5 7.29102C16.5 4.38852 14.1525 2.04102 11.25 2.04102" stroke="#FF006B"
        stroke-linecap="round" stroke-linejoin="round" />
</svg>
