<svg width="25" height="25" viewBox="0 0 25 25" fill="none" xmlns="http://www.w3.org/2000/svg">
    <path fill-rule="evenodd" clip-rule="evenodd"
        d="M6.45447 15.7986C6.45447 13.9765 10.6001 12.498 15.7157 12.498C20.8299 12.498 24.9755 13.9765 24.9755 15.7986V18.8322C24.9755 20.6544 20.8299 22.1328 15.7157 22.1328C10.6001 22.1328 6.45447 20.6543 6.45447 18.8322V15.7986Z"
        fill="#FE9923" />
    <path fill-rule="evenodd" clip-rule="evenodd"
        d="M15.7158 12.498C20.83 12.498 24.9756 13.9765 24.9756 15.7986C24.9756 17.6222 20.83 19.0992 15.7158 19.0992C10.6002 19.0992 6.45459 17.6222 6.45459 15.7986C6.45454 13.9765 10.6002 12.498 15.7158 12.498Z"
        fill="#FECD3D" />
    <path fill-rule="evenodd" clip-rule="evenodd"
        d="M15.7158 14.04C19.7847 14.04 23.0825 14.8283 23.0825 15.7983C23.0825 16.7697 19.7847 17.5565 15.7158 17.5565C11.6468 17.5565 8.34766 16.7697 8.34766 15.7983C8.34766 14.8283 11.6468 14.04 15.7158 14.04Z"
        fill="#FEA832" />
    <path
        d="M11.0277 20.2878L11.8187 20.2893V21.8259C11.5539 21.7828 11.2902 21.7335 11.0277 21.6782V20.2878ZM22.4718 19.4741V21.0889C22.7572 20.9795 23.0214 20.8645 23.2642 20.7438V19.4727L22.4718 19.4741ZM13.888 22.0674C14.1493 22.0873 14.4135 22.1015 14.6804 22.1114V20.6429L13.888 20.6443V22.0674ZM8.16589 20.7438C8.40876 20.8645 8.67292 20.9795 8.95837 21.0889V19.4727L8.16589 19.4741V20.7438ZM16.7497 22.1114C17.0136 22.1012 17.2773 22.0865 17.5407 22.0674V20.6443L16.7497 20.6429V22.1114ZM19.6115 21.8259C19.8763 21.7829 20.14 21.7336 20.4025 21.6782V20.2893L19.6115 20.2878V21.8259Z"
        fill="#C85929" />
    <path
        d="M2.74346 19.4657V20.4485H3.72485V21.1501H2.74346V22.1329H2.04189V21.1501H1.05908V20.4485H2.04189V19.4657H2.74346ZM20.6979 8.7019V9.68467H21.6807V10.3849H20.6979V11.3676H19.9963V10.3849H19.0149V9.68467H19.9963V8.7019H20.6979ZM3.21499 2.86621V3.84902H4.19639V4.54917H3.21499V5.53198H2.51338V4.54917H1.53062V3.84902H2.51338V2.86621H3.21499Z"
        fill="#FEA832" />
    <path fill-rule="evenodd" clip-rule="evenodd"
        d="M0.194184 14.0826C-0.717584 12.5033 2.13422 9.15021 6.56386 6.59382C10.9935 4.036 15.3224 3.24352 16.2341 4.82136C16.7394 5.69686 17.245 6.57218 17.7509 7.44733C18.6627 9.02663 15.8109 12.3798 11.3812 14.9362C6.9516 17.494 2.62275 18.2879 1.71098 16.7086C1.20537 15.8338 0.699799 14.9575 0.194184 14.0826Z"
        fill="#FE9923" />
    <path fill-rule="evenodd" clip-rule="evenodd"
        d="M6.56386 6.59382C10.9936 4.036 15.3224 3.24352 16.2341 4.82136C17.1459 6.40065 14.2941 9.75378 9.86445 12.3102C5.43623 14.868 1.10595 15.6605 0.194184 14.0826C-0.717584 12.5033 2.13422 9.15021 6.56386 6.59382Z"
        fill="#FECD3D" />
    <path fill-rule="evenodd" clip-rule="evenodd"
        d="M7.33503 7.92928C10.8586 5.89554 14.1095 4.92835 14.5952 5.76912C15.0809 6.60989 12.6168 8.94046 9.09329 10.9757C5.5697 13.0094 2.32024 13.9766 1.83455 13.1358C1.34885 12.2951 3.81145 9.96444 7.33503 7.92928Z"
        fill="#FEA832" />
    <path
        d="M9.74092 14.1653L10.4752 15.4364C10.2411 15.56 10.0049 15.6793 9.7665 15.7943L9.05498 14.5616L9.74092 14.1653ZM3.51465 16.4093L4.14951 17.5085C4.41934 17.4929 4.70625 17.4602 5.00732 17.4119L4.20063 16.013L3.51465 16.4093ZM6.39912 15.6835L7.09502 16.8879C7.34976 16.8045 7.60262 16.7155 7.85342 16.6209L7.08506 15.2887L6.39912 15.6835ZM11.5332 13.13L12.2675 14.4011C12.491 14.2605 12.7121 14.1161 12.9307 13.9679L12.2192 12.7366L11.5332 13.13ZM16.5892 8.85938L15.9032 9.25703L16.7113 10.6545C16.9031 10.4188 17.0749 10.1858 17.224 9.96001L16.5892 8.85938ZM13.834 11.3917L14.6023 12.7238C14.8101 12.5546 15.0138 12.3803 15.213 12.2012L14.5186 10.9982L13.834 11.3917Z"
        fill="#C85929" />
</svg>
