<svg width="23" height="23" viewBox="0 0 23 23" fill="none" xmlns="http://www.w3.org/2000/svg">
    <path
        d="M15.4326 17.4913H6.94399C6.56472 17.4913 6.14028 17.1933 6.01386 16.8321L2.27524 6.37482C1.74245 4.87576 2.36555 4.41521 3.64788 5.33631L7.16976 7.85581C7.75674 8.26218 8.42499 8.05448 8.67784 7.39526L10.2672 3.15997C10.7729 1.8054 11.6127 1.8054 12.1185 3.15997L13.7078 7.39526C13.9607 8.05448 14.6289 8.26218 15.2069 7.85581L18.512 5.49886C19.9208 4.48745 20.5981 5.00219 20.0201 6.6367L16.3718 16.8502C16.2363 17.1933 15.8119 17.4913 15.4326 17.4913Z"
        stroke="#FF944C" stroke-linecap="round" stroke-linejoin="round" />
    <path d="M6.22119 20.2188H16.1547" stroke="#FF944C" stroke-linecap="round"
        stroke-linejoin="round" />
    <path d="M8.93066 12.9941H13.4459" stroke="#FF944C" stroke-linecap="round"
        stroke-linejoin="round" />
</svg>
