<svg width="13" height="12" viewBox="0 0 13 12" fill="none" xmlns="http://www.w3.org/2000/svg">
    <g clip-path="url(#clip0_67_2864)">
        <path
            d="M11.971 3.41877L10.88 2.32727L11.3535 1.85377C11.4012 1.80765 11.4393 1.75247 11.4655 1.69147C11.4917 1.63047 11.5055 1.56486 11.5061 1.49847C11.5067 1.43208 11.494 1.36624 11.4689 1.30479C11.4438 1.24334 11.4066 1.18752 11.3597 1.14057C11.3127 1.09363 11.2569 1.0565 11.1955 1.03136C11.134 1.00622 11.0682 0.993567 11.0018 0.994144C10.9354 0.994721 10.8698 1.00851 10.8088 1.03472C10.7478 1.06092 10.6926 1.09901 10.6465 1.14677L10.173 1.62027L9.08149 0.529269C8.73746 0.20143 8.28046 0.0185547 7.80524 0.0185547C7.33002 0.0185547 6.87302 0.20143 6.52899 0.529269C6.36127 0.696852 6.22822 0.895844 6.13744 1.11487C6.04666 1.3339 5.99994 1.56867 5.99994 1.80577C5.99994 2.04286 6.04666 2.27764 6.13744 2.49667C6.22822 2.71569 6.36127 2.91469 6.52899 3.08227L7.61999 4.17327L4.67299 7.12027L3.58149 6.02927C3.23746 5.70143 2.78046 5.51855 2.30524 5.51855C1.83002 5.51855 1.37302 5.70143 1.02899 6.02927C0.86127 6.19685 0.728218 6.39584 0.637441 6.61487C0.546663 6.8339 0.499939 7.06867 0.499939 7.30577C0.499939 7.54286 0.546663 7.77764 0.637441 7.99666C0.728218 8.21569 0.86127 8.41469 1.02899 8.58227L2.11999 9.67327L1.64649 10.1468C1.59874 10.1929 1.56064 10.2481 1.53444 10.3091C1.50824 10.3701 1.49444 10.4357 1.49387 10.5021C1.49329 10.5685 1.50594 10.6343 1.53108 10.6957C1.55622 10.7572 1.59335 10.813 1.64029 10.86C1.68724 10.9069 1.74307 10.944 1.80451 10.9692C1.86596 10.9943 1.9318 11.007 1.99819 11.0064C2.06458 11.0058 2.13019 10.992 2.19119 10.9658C2.2522 10.9396 2.30737 10.9015 2.35349 10.8538L2.82699 10.3803L3.91849 11.4713C4.08606 11.6389 4.28503 11.7719 4.50401 11.8626C4.72299 11.9534 4.95771 12.0001 5.19474 12.0001C5.43178 12.0001 5.66649 11.9534 5.88547 11.8626C6.10446 11.7719 6.30342 11.6389 6.47099 11.4713C6.6387 11.3037 6.77174 11.1048 6.86251 10.8858C6.95328 10.6668 7 10.4321 7 10.195C7 9.95796 6.95328 9.72323 6.86251 9.50425C6.77174 9.28526 6.6387 9.08631 6.47099 8.91877L5.37999 7.82777L8.32999 4.88027L9.42099 5.97127C9.58856 6.13892 9.78753 6.2719 10.0065 6.36264C10.2255 6.45337 10.4602 6.50007 10.6972 6.50007C10.9343 6.50007 11.169 6.45337 11.388 6.36264C11.607 6.2719 11.8059 6.13892 11.9735 5.97127C12.1412 5.80373 12.2742 5.60478 12.365 5.38579C12.4558 5.1668 12.5025 4.93207 12.5025 4.69502C12.5025 4.45796 12.4558 4.22323 12.365 4.00425C12.2742 3.78526 12.1412 3.58631 11.9735 3.41877H11.971Z"
            fill="#FF944C" />
    </g>
    <defs>
        <clipPath id="clip0_67_2864">
            <rect width="12" height="12" fill="white" transform="translate(0.5)" />
        </clipPath>
    </defs>
</svg>
