<svg width="30" height="30" viewBox="0 0 30 30" fill="none" xmlns="http://www.w3.org/2000/svg">
    <g clip-path="url(#clip0_1814_16800)">
        <path
            d="M29 15C29 7.26806 22.7319 1 15 1C7.26806 1 1 7.26806 1 15C1 21.9877 6.11962 27.7797 12.8125 28.8299V19.0469H9.25781V15H12.8125V11.9156C12.8125 8.40687 14.9027 6.46875 18.1006 6.46875C19.6323 6.46875 21.2344 6.74219 21.2344 6.74219V10.1875H19.4691C17.7299 10.1875 17.1875 11.2667 17.1875 12.3739V15H21.0703L20.4496 19.0469H17.1875V28.8299C23.8804 27.7797 29 21.9879 29 15Z"
            fill="#1877F2" />
        <path
            d="M20.4496 19.0469L21.0703 15H17.1875V12.3739C17.1875 11.2666 17.7299 10.1875 19.4691 10.1875H21.2344V6.74219C21.2344 6.74219 19.6323 6.46875 18.1005 6.46875C14.9027 6.46875 12.8125 8.40688 12.8125 11.9156V15H9.25781V19.0469H12.8125V28.8299C13.5361 28.9433 14.2675 29.0002 15 29C15.7325 29.0002 16.4639 28.9434 17.1875 28.8299V19.0469H20.4496Z"
            fill="white" />
    </g>
    <defs>
        <clipPath id="clip0_1814_16800">
            <rect width="28" height="28" fill="white" transform="translate(1 1)" />
        </clipPath>
    </defs>
</svg>
