<svg width="25" height="25" viewBox="0 0 25 25" fill="none" xmlns="http://www.w3.org/2000/svg">
    <g clip-path="url(#clip0_83_2290)">
        <path
            d="M2.64705 12.1924C2.64705 12.1924 3.63474 13.6434 5.70486 14.8716C5.70486 14.8716 4.20559 2.20063 13.9743 0C11.4715 9.1856 17.1579 11.7761 19.2307 6.92314C22.6923 11.5448 20.064 15.5769 20.064 15.5769C21.4834 15.7814 22.6757 14.2307 22.6757 14.2307C22.6863 14.4217 22.6923 14.6141 22.6923 14.8078C22.6923 20.4368 18.1291 25 12.5 25C6.87097 25 2.30774 20.4368 2.30774 14.8077C2.30774 13.9035 2.4261 13.0271 2.64705 12.1924Z"
            fill="#FF6536" />
        <path
            d="M22.6757 14.2307C22.6757 14.2307 21.4834 15.7814 20.064 15.5769C20.064 15.5769 22.6923 11.5448 19.2307 6.92314C17.1579 11.7761 11.4715 9.1856 13.9743 0C13.4511 0.117871 12.9605 0.265967 12.5 0.440332V25C18.1291 25 22.6923 20.4368 22.6923 14.8077C22.6923 14.614 22.6863 14.4217 22.6757 14.2307Z"
            fill="#FF421D" />
        <path
            d="M8.03015 20.5303C8.03015 22.9989 10.0314 25.0002 12.5001 25.0002C14.9687 25.0002 16.97 22.9989 16.97 20.5303C16.97 19.2089 16.3967 18.0215 15.4852 17.2032C13.757 19.5511 11.2942 15.9896 13.2136 13.3887C13.2136 13.3887 8.03015 14.0382 8.03015 20.5303Z"
            fill="#FBBF00" />
        <path
            d="M16.9699 20.5303C16.9699 19.2089 16.3966 18.0215 15.4852 17.2032C13.7569 19.5511 11.2941 15.9896 13.2135 13.3887C13.2135 13.3887 12.9318 13.4241 12.5 13.5604V25.0002C14.9687 25.0002 16.9699 22.9989 16.9699 20.5303Z"
            fill="#FFA900" />
    </g>
    <defs>
        <clipPath id="clip0_83_2290">
            <rect width="25" height="25" fill="white" />
        </clipPath>
    </defs>
</svg>
