<svg width="46" height="50" viewBox="0 0 46 50" fill="none" xmlns="http://www.w3.org/2000/svg">
    <path
        d="M25.5686 0.835938C33.5755 3.26348 39.4037 10.7019 39.4037 19.5016C39.4037 30.272 30.6726 39.0031 19.9021 39.0031L14.0983 34.837L7.88379 17.8422L18.425 0.835938H25.5686Z"
        fill="#FD5C6F" />
    <path
        d="M11.7327 19.5016C11.7327 10.702 17.5614 3.26465 25.5682 0.837207C23.775 0.293457 21.873 0 19.9022 0C9.13179 0 0.400635 8.73115 0.400635 19.5016C0.400635 30.272 9.13179 39.0031 19.9022 39.0031C21.873 39.0031 23.775 38.7097 25.5682 38.166C17.5614 35.7385 11.7327 28.3012 11.7327 19.5016Z"
        fill="#F6334C" />
    <path
        d="M16.1952 7.08418C17.3981 6.72495 18.6469 6.54296 19.9023 6.54395C27.0469 6.54395 32.8595 12.3565 32.8595 19.5012C32.8595 26.6458 27.0469 32.4584 19.9023 32.4584L13.4894 29.398L8.19861 19.9191L12.8378 9.42461L16.1952 7.08418Z"
        fill="#FFF1CF" />
    <path
        d="M11.7326 19.5021C11.7326 14.7847 13.4077 10.4587 16.1953 7.08594C10.8514 8.68428 6.94495 13.6451 6.94495 19.502C6.94495 25.3589 10.8514 30.3196 16.1953 31.918C13.4077 28.5454 11.7326 24.2194 11.7326 19.5021Z"
        fill="#FCE3A0" />
    <path
        d="M19.9021 25.9146C23.4439 25.9146 26.315 23.0435 26.315 19.5018C26.315 15.96 23.4439 13.0889 19.9021 13.0889C16.3604 13.0889 13.4893 15.96 13.4893 19.5018C13.4893 23.0435 16.3604 25.9146 19.9021 25.9146Z"
        fill="#FD5C6F" />
    <path
        d="M20.1194 19.5906C19.5369 18.5762 19.887 17.2814 20.9015 16.6989L37.0091 7.44922L39.1187 11.1229L23.0111 20.3727C21.9967 20.9552 20.702 20.6051 20.1194 19.5906Z"
        fill="#FFA93F" />
    <path
        d="M45.096 10.3903L41.5395 12.4325C39.4037 13.6589 36.678 12.9218 35.4515 10.786C34.2251 8.65016 34.9623 5.92447 37.098 4.69801L40.6545 2.65582C41.3707 2.24459 42.2491 2.82682 42.1493 3.64664L41.8295 6.27301C41.7973 6.537 41.8515 6.80431 41.9839 7.03494C42.1164 7.26556 42.3199 7.44711 42.5641 7.5524L44.9936 8.59996C45.752 8.92682 45.8122 9.97897 45.096 10.3903Z"
        fill="#F9EE80" />
    <path
        d="M23.3004 25.4189C28.508 26.9442 32.3112 31.7567 32.3112 37.4576C32.3112 43.1585 28.5079 47.9709 23.3004 49.4962H19.4355L12.5399 40.4138L13.7811 30.3921L19.5275 25.4189H23.3004Z"
        fill="#4A66A0" />
    <path
        d="M15.3418 37.4568C15.3418 32.051 18.6218 27.4114 23.3001 25.419C22.1529 25.0833 20.9636 24.9133 19.7684 24.9141C12.8412 24.9141 7.22559 30.5297 7.22559 37.4568C7.22559 44.384 12.8412 49.9996 19.7684 49.9996C20.9948 49.9996 22.1798 49.8228 23.3001 49.4946C18.6219 47.5023 15.3418 42.8627 15.3418 37.4568Z"
        fill="#194391" />
    <path
        d="M18.1127 29.3998C18.6575 29.2882 19.2122 29.2321 19.7683 29.2324C24.3036 29.2324 27.9934 32.9222 27.9934 37.4575C27.9934 41.9929 24.3036 45.6826 19.7683 45.6826C19.2144 45.6829 18.6619 45.6272 18.1191 45.5165L15.5974 43.9679L12.7803 36.8748L15.4968 30.8884L18.1127 29.3998Z"
        fill="#ADC0ED" />
    <path
        d="M15.3417 37.4573C15.3417 34.4172 16.3792 31.6194 18.1193 29.3984C14.3715 30.1642 11.5432 33.4866 11.5432 37.4573C11.5432 41.428 14.3714 44.7505 18.1193 45.5162C16.3792 43.2952 15.3417 40.4975 15.3417 37.4573Z"
        fill="#7293DF" />
    <path
        d="M23.0057 36.7028H20.5229V32.6227C20.5229 32.4226 20.4434 32.2306 20.3019 32.0891C20.1604 31.9477 19.9685 31.8682 19.7684 31.8682C19.5683 31.8682 19.3764 31.9477 19.2349 32.0891C19.0934 32.2306 19.0139 32.4226 19.0139 32.6227V37.4574C19.0139 37.5565 19.0334 37.6546 19.0713 37.7462C19.1092 37.8377 19.1648 37.9209 19.2349 37.991C19.3049 38.061 19.3881 38.1166 19.4797 38.1545C19.5712 38.1924 19.6693 38.2119 19.7684 38.2119L19.7704 38.2118H23.0057C23.1048 38.2118 23.2029 38.1923 23.2944 38.1544C23.386 38.1165 23.4692 38.0609 23.5392 37.9908C23.6093 37.9208 23.6649 37.8376 23.7028 37.7461C23.7407 37.6545 23.7602 37.5564 23.7602 37.4573C23.7602 37.3582 23.7407 37.2601 23.7028 37.1686C23.6649 37.0771 23.6093 36.9939 23.5392 36.9238C23.4692 36.8538 23.386 36.7982 23.2944 36.7603C23.2029 36.7223 23.1048 36.7028 23.0057 36.7028Z"
        fill="#4A66A0" />
</svg>
