<svg width="110" height="110" viewBox="0 0 110 110" fill="none" xmlns="http://www.w3.org/2000/svg">
    <g clip-path="url(#clip0_83_2860)">
        <path fill-rule="evenodd" clip-rule="evenodd"
            d="M7.55957 27.1582C9.2072 24.6368 11.8764 24.2993 14.6597 24.5887C21.134 25.2678 27.6247 25.8088 34.0736 26.6714C39.4654 27.3922 43.7977 26.689 47.2612 21.664C51.2089 15.9384 56.0204 10.8058 60.4537 5.41645C62.2201 3.26802 64.1498 1.72909 67.2743 2.35772C67.3527 2.37427 67.4249 2.39446 67.502 2.41208C67.5779 2.43099 67.6514 2.44495 67.7283 2.46643C70.8036 3.30733 71.8367 5.54794 72.4512 8.26034C73.9927 15.067 75.9879 21.8133 76.9453 28.7023C77.7849 34.7454 81.3395 37.3199 86.4809 39.0964C92.6302 41.2208 98.6744 43.6511 104.763 45.9525C107.382 46.9415 109.615 48.4411 109.955 51.4341C110.313 54.5789 108.502 56.5123 105.863 58.0448C98.9779 62.043 92.2142 66.2488 85.3506 70.2864C82.7355 71.824 81.4218 73.8055 81.3055 76.9742C81.0198 84.6826 80.5037 92.3848 79.8717 100.074C79.6377 102.921 79.3823 106.127 76.101 107.383C72.9561 108.585 70.5674 106.883 68.3002 104.855C62.6303 99.7872 56.8793 94.8089 51.1877 89.7648C49.927 88.6456 48.6688 87.9452 47.2943 87.6466C45.9324 87.2964 44.4934 87.3583 42.8648 87.7908C35.5131 89.7443 28.141 91.6096 20.798 93.5948C17.862 94.3875 14.9637 94.8366 12.6939 92.3493C10.3255 89.7547 11.5368 86.7741 12.6054 84.1262C15.4922 76.9717 18.4891 69.8563 21.6959 62.842C23.0135 59.9565 22.729 57.5981 21.0825 55.049C16.7618 48.3611 12.6065 41.5656 8.249 34.9018C6.57838 32.3478 5.82728 29.8098 7.55957 27.1582Z"
            fill="#F9D555" />
        <path
            d="M39.0303 41.0703C40.5211 37.4691 43.1577 33.7374 47.5379 34.4621C51.6159 35.1361 52.4202 40.1297 52.5186 43.4692C52.5844 45.7062 49.1209 45.8793 49.0551 43.6463C48.9982 41.7848 49.0021 38.4986 46.7853 37.8459C44.3752 37.1378 42.7806 41.0363 42.0953 42.6941C41.2421 44.7564 38.1806 43.1201 39.0303 41.0703ZM63.5339 46.0108C65.093 42.4386 67.7966 38.7538 72.1603 39.558C76.2281 40.3065 76.9401 45.3154 76.978 48.6586C77.0033 50.8929 73.5359 51.0029 73.5095 48.7673C73.488 46.9072 73.5525 43.622 71.3473 42.9278C68.9499 42.1754 67.2844 46.0473 66.5701 47.6898C65.6798 49.7373 62.65 48.0454 63.5339 46.0108ZM52.3734 52.4054C54.2107 53.4487 55.6624 54.9421 57.8197 55.1911C59.6102 55.3971 61.6347 54.865 63.4011 54.6246C65.0335 54.4069 66.6925 54.6093 67.4969 56.2178C68.616 58.4623 68.1962 61.8171 67.0013 63.9503C65.8102 66.0708 63.7616 67.7906 61.5221 68.7136C60.3561 69.1942 58.9324 69.6254 57.6667 69.6909C57.3954 69.7053 57.1597 69.715 56.8941 69.6948L45.9726 61.8132C45.7952 61.3986 45.6366 60.9763 45.4973 60.5474C43.8671 55.8599 46.8717 49.2872 52.3734 52.4054Z"
            fill="#074785" />
        <path
            d="M45.9724 61.7932C47.749 60.731 49.9644 60.2734 52.0471 60.5034C57.1355 61.0131 58.1876 65.7132 56.894 69.6951C51.9307 69.6216 47.8892 66.2922 45.9724 61.7932Z"
            fill="#FD6085" />
        <path fill-rule="evenodd" clip-rule="evenodd"
            d="M40.7565 51.5015C40.4808 53.8876 37.7912 55.5365 34.7501 55.1863C31.709 54.8348 29.4658 52.6155 29.7414 50.2307C30.0171 47.8447 32.7054 46.1957 35.7465 46.5472C38.7887 46.8976 41.0319 49.1167 40.7565 51.5015ZM83.7482 60.4934C83.2929 62.8504 80.4858 64.2907 77.4788 63.7089C74.4732 63.1274 72.407 60.7437 72.8621 58.3866C73.3186 56.0296 76.1258 54.5892 79.1314 55.171C82.1371 55.7515 84.2045 58.1352 83.7482 60.4934Z"
            fill="#FD6085" />
        <path
            d="M27.9914 75.8348C27.5868 75.444 26.7786 69.9661 26.0427 70.0116C25.3069 70.0559 24.6645 75.4869 24.3218 75.8449C23.63 76.5631 18.581 77.0701 18.6214 77.7668C18.6643 78.461 23.6225 78.7887 24.3229 79.4676C24.7137 79.8457 25.5357 85.3373 26.2715 85.2943C27.0074 85.2514 27.6373 79.8356 27.995 79.465C28.6615 78.7721 33.7498 78.2371 33.7079 77.5378C33.6675 76.84 28.6653 76.4898 27.9914 75.8348ZM58.9273 29.6096C58.7402 29.4277 58.3634 26.8835 58.0233 26.9037C57.6806 26.9252 57.3822 29.4478 57.2228 29.6135C56.9016 29.9474 54.5546 30.1839 54.5748 30.5075C54.5937 30.8299 56.8977 30.9816 57.2228 31.2979C57.4048 31.4736 57.7867 34.024 58.1294 34.0051C58.4708 33.9849 58.763 31.4685 58.9299 31.2953C59.2384 30.9741 61.603 30.7262 61.5841 30.4013C61.565 30.0776 59.2408 29.9145 58.9273 29.6096ZM59.5672 80.282C59.38 80.1001 59.0045 77.5559 58.6631 77.5761C58.3204 77.5975 58.022 80.1203 57.8626 80.2872C57.5414 80.6211 55.1957 80.8576 55.2133 81.1799C55.2335 81.5023 57.5375 81.654 57.8639 81.9703C58.0458 82.146 58.4265 84.6977 58.7692 84.6775C59.1106 84.6573 59.4028 82.1409 59.5697 81.969C59.8795 81.6465 62.2441 81.3975 62.2239 81.0724C62.2048 80.7487 59.8806 80.5869 59.5672 80.282ZM16.4426 38.0427C15.2298 35.9359 13.8151 33.9026 12.8906 31.6444C12.5581 30.8302 11.831 30.2623 10.9042 30.5152C10.1316 30.729 9.4411 31.6861 9.77626 32.5029C10.8144 35.0396 12.2914 37.3055 13.6533 39.6727C14.6912 41.4785 17.4833 39.8497 16.4426 38.0427ZM17.9283 41.7098C15.8456 41.7098 15.8456 44.942 17.9283 44.942C20.0123 44.9417 20.0123 41.7098 17.9283 41.7098ZM38.0314 70.558C35.9487 70.558 35.9487 73.7875 38.0314 73.7875C40.1152 73.7877 40.1152 70.558 38.0314 70.558ZM67.5954 20.2347C65.5127 20.2347 65.5127 23.4655 67.5954 23.4655C69.6794 23.4655 69.6794 20.2347 67.5954 20.2347ZM100.174 55.671C99.6985 54.8591 98.7615 54.7201 97.9649 55.0907C95.9329 56.0391 93.9894 57.153 91.9875 58.1609C90.1274 59.0967 91.7624 61.8835 93.6186 60.9504C95.619 59.9426 97.5638 58.8286 99.5947 57.8816C100.393 57.5084 100.587 56.3768 100.174 55.671ZM102.845 52.3936C100.761 52.3936 100.761 55.6257 102.845 55.6257C104.929 55.6255 104.929 52.3936 102.845 52.3936ZM59.3837 12.2988C58.6377 11.7271 57.7171 11.951 57.119 12.5959C55.5953 14.2397 54.2145 16.0051 52.7414 17.6931C51.3719 19.2636 53.9389 21.226 55.3044 19.6606C56.7763 17.9724 58.1571 16.2072 59.6808 14.5648C60.2802 13.9198 60.0336 12.797 59.3837 12.2988ZM60.6205 8.25609C58.6921 9.04263 59.9098 12.0345 61.8396 11.248C63.7691 10.464 62.55 7.47084 60.6205 8.25609ZM76.9693 83.8959C77.1336 81.8197 73.9129 81.5528 73.7511 83.6291C73.5223 86.5312 73.5829 89.447 73.3541 92.3492C73.191 94.4241 76.4105 94.691 76.5735 92.6147C76.8021 89.7128 76.7415 86.7967 76.9693 83.8959ZM74.7854 95.7671C72.7016 95.7671 72.7016 98.9979 74.7854 98.9979C76.8681 98.9979 76.8681 95.7671 74.7854 95.7671Z"
            fill="white" />
        <path
            d="M43.1361 106.642C44.3678 102.747 45.5982 98.8511 46.8297 94.9564C47.4594 92.9648 44.3362 92.1327 43.7115 94.1106C42.4798 98.0065 41.2483 101.901 40.0166 105.796C39.3882 107.789 42.5103 108.619 43.1361 106.642ZM87.409 32.7924C90.4589 30.0751 93.5077 27.3563 96.5577 24.6402C98.1181 23.2506 95.8583 20.9378 94.3093 22.3186C91.2594 25.0359 88.2106 27.7535 85.1606 30.4708C83.6015 31.8605 85.8599 34.172 87.409 32.7924ZM1.73014 60.3157C5.80809 60.0755 9.88604 59.8338 13.9629 59.5948C16.0493 59.4696 15.7105 56.2566 13.6391 56.3793L1.40766 57.1001C-0.678687 57.2238 -0.341168 60.437 1.73014 60.3157ZM32.3286 10.0263C33.8865 13.8022 35.4456 17.5779 37.0047 21.3537C37.8013 23.2845 40.7286 21.9151 39.9371 19.9981C38.3793 16.2222 36.8201 12.4465 35.261 8.67065C34.4642 6.73985 31.5369 8.10819 32.3286 10.0263ZM88.0058 78.279C90.9356 81.1254 93.8655 83.9704 96.7953 86.8168C98.2949 88.2711 100.437 85.8533 98.9487 84.408C96.0188 81.5603 93.089 78.7153 90.1592 75.8688C88.6596 74.4148 86.5174 76.8324 88.0058 78.279Z"
            fill="#FFA4AC" />
    </g>
    <defs>
        <clipPath id="clip0_83_2860">
            <rect width="110" height="110" fill="white" />
        </clipPath>
    </defs>
</svg>
