<svg width="24" height="24" viewBox="0 0 24 24" fill="none" xmlns="http://www.w3.org/2000/svg">
    <g clip-path="url(#clip0_331_2906)">
        <mask id="mask0_331_2906" style="mask-type:luminance" maskUnits="userSpaceOnUse" x="0" y="0"
            width="24" height="24">
            <path d="M0 6.86646e-05H23.9999V24H0V6.86646e-05Z" fill="white" />
        </mask>
        <g mask="url(#mask0_331_2906)">
            <path
                d="M1.78987 12.0883C1.78987 9.07962 3.10978 6.3387 5.19871 4.44229C5.17794 4.42443 5.15746 4.40633 5.13786 4.38674L4.14749 3.39637C4.01636 3.51576 3.88799 3.63813 3.76246 3.7634C1.56239 5.96342 0.350769 8.8886 0.350769 12V15.8573L0.554393 16.1016H1.78987V12.0883Z"
                fill="#DBEDFF" />
            <path
                d="M1.09939 12C1.09939 8.8886 2.31106 5.96347 4.51109 3.7634L4.51282 3.76171L4.14743 3.39641C4.01631 3.51577 3.88795 3.63813 3.76245 3.7634C1.56238 5.96347 0.350708 8.8886 0.350708 12V15.8573L0.554332 16.1016H1.30302L1.09939 15.8573V12Z"
                fill="#B5DCFF" />
            <path
                d="M20.2356 3.7634C20.1101 3.63813 19.9817 3.51576 19.8506 3.39637L18.8603 4.38674C18.8496 4.39738 18.8382 4.40685 18.8271 4.41697C20.9018 6.28695 22.2082 8.99365 22.2082 12V16.1016H23.3472L23.6473 15.8573V12C23.6473 8.8886 22.4358 5.96347 20.2356 3.7634Z"
                fill="#DBEDFF" />
            <path
                d="M20.2356 3.7634C20.1101 3.63813 19.9817 3.51576 19.8506 3.39637L18.8603 4.38674C18.8496 4.39738 18.8382 4.40685 18.8271 4.41697C20.9018 6.28695 22.2082 8.99365 22.2082 12V16.1016H23.3472L23.6473 15.8573V12C23.6473 8.8886 22.4358 5.96347 20.2356 3.7634Z"
                fill="#DBEDFF" />
            <path
                d="M22.9823 16.1016V12C22.9823 9.12302 21.7859 6.52043 19.8647 4.66297C19.7229 4.52586 19.7228 4.29847 19.8622 4.15902C19.9521 4.06921 20.0758 3.94532 20.2466 3.77455C20.2429 3.77085 20.2393 3.7671 20.2356 3.7634C20.1101 3.63812 19.9818 3.51576 19.8506 3.39641L18.8603 4.38674C18.8496 4.39742 18.8382 4.40685 18.8271 4.41702C20.9018 6.28695 22.2082 8.99365 22.2082 12V16.1016H22.9823Z"
                fill="#B5DCFF" />
            <path
                d="M22.2082 15.8574L22.0113 16.0079V18.6876L22.2082 18.9043C23.003 18.9043 23.6473 18.26 23.6473 17.4652V15.8574H22.2082Z"
                fill="#A5AFE7" />
            <path
                d="M22.9823 15.8574H22.2082L22.0113 16.0079V18.6876L22.2082 18.9043C22.4826 18.9046 22.7513 18.8261 22.9823 18.6781V15.8574Z"
                fill="#8896E0" />
            <path
                d="M1.78987 15.8574H0.350769V17.4652C0.350769 18.26 0.995064 18.9043 1.78987 18.9043L2.09737 18.7189V16.1017L1.78987 15.8574Z"
                fill="#8896E0" />
            <path
                d="M1.09939 17.4652V15.8574H0.350708V17.4652C0.350708 18.26 0.995003 18.9043 1.78981 18.9043L1.97778 18.791C1.4616 18.5724 1.09939 18.0611 1.09939 17.4652Z"
                fill="#6B7ED9" />
            <path
                d="M11.999 0.352055C9.06559 0.352055 6.29796 1.42947 4.14716 3.39648L5.13781 4.38709C5.51998 4.76931 6.1227 4.81435 6.5599 4.49654C8.08872 3.38514 9.96855 2.72866 11.999 2.72866C14.0295 2.72866 15.9093 3.38514 17.4382 4.49654C17.8754 4.81435 18.4781 4.76931 18.8603 4.38709L19.8509 3.39648C17.7001 1.42947 14.9325 0.352055 11.999 0.352055Z"
                fill="#FF636E" />
            <path
                d="M7.48841 2.74304C9.17314 1.45013 11.1636 0.651621 13.2798 0.421372C12.8545 0.375013 12.4269 0.351713 11.9991 0.351575C9.06561 0.351575 6.29798 1.42899 4.14722 3.396L5.13782 4.38661C5.52004 4.76883 6.12271 4.81387 6.55991 4.49602C6.80596 4.31723 7.06063 4.15061 7.32299 3.99675C7.02815 3.61102 7.09157 3.04758 7.48841 2.74304Z"
                fill="#FF4654" />
            <path
                d="M21.2049 14.0151H20.4747L20.2066 14.4609V22.4061L20.4747 22.6885H21.2049C21.7567 22.6885 22.2082 22.237 22.2082 21.6852V15.0184C22.2082 14.4665 21.7567 14.0151 21.2049 14.0151Z"
                fill="#6B7ED9" />
            <path
                d="M3.52338 14.0151H2.79317C2.24131 14.0151 1.78986 14.4665 1.78986 15.0184V21.6852C1.78986 22.237 2.24131 22.6885 2.79317 22.6885H3.52338L3.90977 22.4413V14.3905L3.52338 14.0151Z"
                fill="#6B7ED9" />
            <path
                d="M21.4775 14.0539C21.3889 14.0284 21.2972 14.0153 21.2049 14.0151H20.4747L20.2066 14.4609V22.4061L20.4747 22.6885H21.2049C21.2994 22.6885 21.3906 22.6743 21.4775 22.6496V14.0539Z"
                fill="#4D66D2" />
            <path
                d="M2.84984 21.6857V15.0189C2.84984 14.5664 3.15354 14.1819 3.56698 14.0579L3.52338 14.0156H2.79317C2.24135 14.0156 1.78986 14.467 1.78986 15.0189V21.6857C1.78986 22.2375 2.24135 22.689 2.79317 22.689H3.52338L3.5831 22.6508C3.16151 22.532 2.84984 22.1439 2.84984 21.6857Z"
                fill="#4D66D2" />
            <path
                d="M17.0051 13.0555H19.7883C20.1659 13.0555 20.4747 13.3644 20.4747 13.7419V22.962C20.4747 23.3396 20.1659 23.6484 19.7883 23.6484H17.0051C16.6276 23.6484 16.3187 23.3396 16.3187 22.962V13.7419C16.3187 13.3644 16.6276 13.0555 17.0051 13.0555Z"
                fill="#FF636E" />
            <path
                d="M6.99301 13.0555H4.20976C3.83223 13.0555 3.52338 13.3644 3.52338 13.7419V22.962C3.52338 23.3396 3.83223 23.6484 4.20976 23.6484H6.99301C7.37054 23.6484 7.6794 23.3396 7.6794 22.962V13.7419C7.6794 13.3644 7.37054 13.0555 6.99301 13.0555Z"
                fill="#FF636E" />
            <path
                d="M18.0457 22.962V13.7419C18.0457 13.3644 18.3545 13.0555 18.7321 13.0555H17.0051C16.6276 13.0555 16.3187 13.3644 16.3187 13.7419V22.962C16.3187 23.3395 16.6276 23.6484 17.0051 23.6484H18.7321C18.3545 23.6484 18.0457 23.3395 18.0457 22.962Z"
                fill="#FF4654" />
            <path
                d="M5.25034 22.962V13.7419C5.25034 13.3644 5.5592 13.0555 5.93673 13.0555H4.20977C3.83223 13.0555 3.52338 13.3644 3.52338 13.7419V22.962C3.52338 23.3395 3.83223 23.6484 4.20977 23.6484H5.93673C5.5592 23.6484 5.25034 23.3395 5.25034 22.962Z"
                fill="#FF4654" />
        </g>
    </g>
    <defs>
        <clipPath id="clip0_331_2906">
            <rect width="24" height="24" fill="white" />
        </clipPath>
    </defs>
</svg>
