<svg width="18" height="19" viewBox="0 0 18 19" fill="none" xmlns="http://www.w3.org/2000/svg">
    <path
        d="M13.5 14.6863H12.93C12.33 14.6863 11.76 14.9188 11.34 15.3388L10.0575 16.6063C9.4725 17.1838 8.51999 17.1838 7.93499 16.6063L6.6525 15.3388C6.2325 14.9188 5.655 14.6863 5.0625 14.6863H4.5C3.255 14.6863 2.25 13.6888 2.25 12.4588V4.27631C2.25 3.04631 3.255 2.04883 4.5 2.04883H13.5C14.745 2.04883 15.75 3.04631 15.75 4.27631V12.4588C15.75 13.6813 14.745 14.6863 13.5 14.6863Z"
        stroke="#FF8137" stroke-miterlimit="10" stroke-linecap="round" stroke-linejoin="round" />
    <path
        d="M9.21 11.761C9.0975 11.7985 8.91 11.7985 8.79 11.761C7.815 11.4235 5.625 10.036 5.625 7.67352C5.625 6.63102 6.465 5.79102 7.5 5.79102C8.115 5.79102 8.655 6.08352 9 6.54102C9.345 6.08352 9.885 5.79102 10.5 5.79102C11.535 5.79102 12.375 6.63102 12.375 7.67352C12.3675 10.036 10.185 11.4235 9.21 11.761Z"
        stroke="#FF8137" stroke-linecap="round" stroke-linejoin="round" />
</svg>
