<svg width="134" height="120" viewBox="0 0 134 120" fill="none" xmlns="http://www.w3.org/2000/svg">
    <g clip-path="url(#clip0_4_5519)">
        <path
            d="M132.506 45.8904C132.458 45.8905 132.411 45.8758 132.372 45.8484L67.5125 0.678263C67.3151 0.541442 67.0805 0.468322 66.8404 0.468732C66.6002 0.469141 66.3659 0.54306 66.169 0.680553L1.77649 45.8479C1.72556 45.8837 1.66253 45.8977 1.60125 45.8869C1.53998 45.8762 1.48548 45.8415 1.44976 45.7906C1.41403 45.7397 1.4 45.6766 1.41076 45.6154C1.42151 45.5541 1.45617 45.4996 1.5071 45.4639L65.8996 0.296474C66.1753 0.104012 66.5034 0.000554795 66.8396 2.22506e-06C67.1758 -0.000550345 67.5042 0.101828 67.7805 0.293383L132.64 45.4634C132.681 45.492 132.712 45.5328 132.728 45.5801C132.744 45.6274 132.745 45.6785 132.73 45.7262C132.715 45.7738 132.685 45.8154 132.645 45.845C132.605 45.8745 132.556 45.8904 132.506 45.8904Z"
            fill="#4D4D4D" />
        <path
            d="M5.45605 47.4916L66.9042 1.95105L128.818 50.732L70.0702 85.5588L38.175 78.2886L5.45605 47.4916Z"
            fill="white" />
        <path
            d="M40.8673 107.07H10.5104C10.324 107.07 10.1394 107.034 9.96711 106.962C9.79482 106.891 9.63826 106.787 9.50637 106.655C9.37448 106.523 9.26986 106.367 9.19847 106.195C9.12708 106.023 9.09033 105.838 9.09033 105.652C9.09033 105.465 9.12708 105.281 9.19847 105.108C9.26986 104.936 9.37448 104.78 9.50637 104.648C9.63826 104.516 9.79482 104.412 9.96711 104.341C10.1394 104.27 10.324 104.233 10.5104 104.233H40.8673C41.0537 104.233 41.2383 104.27 41.4106 104.341C41.5828 104.412 41.7394 104.516 41.8713 104.648C42.0032 104.78 42.1078 104.936 42.1792 105.108C42.2506 105.281 42.2873 105.465 42.2873 105.652C42.2873 105.838 42.2506 106.023 42.1792 106.195C42.1078 106.367 42.0032 106.523 41.8713 106.655C41.7394 106.787 41.5828 106.891 41.4106 106.962C41.2383 107.034 41.0537 107.07 40.8673 107.07Z"
            fill="url(#paint0_linear_4_5519)" />
        <path
            d="M21.4018 100.972H10.5104C10.324 100.972 10.1394 100.936 9.96711 100.865C9.79482 100.794 9.63826 100.689 9.50637 100.557C9.37448 100.426 9.26986 100.269 9.19847 100.097C9.12708 99.925 9.09033 99.7404 9.09033 99.554C9.09033 99.3676 9.12708 99.183 9.19847 99.0108C9.26986 98.8386 9.37448 98.6822 9.50637 98.5505C9.63826 98.4188 9.79482 98.3143 9.96711 98.2432C10.1394 98.172 10.324 98.1355 10.5104 98.1357H21.4018C21.5882 98.1355 21.7728 98.172 21.9451 98.2432C22.1174 98.3143 22.2739 98.4188 22.4058 98.5505C22.5377 98.6822 22.6423 98.8386 22.7137 99.0108C22.7851 99.183 22.8219 99.3676 22.8219 99.554C22.8219 99.7404 22.7851 99.925 22.7137 100.097C22.6423 100.269 22.5377 100.426 22.4058 100.557C22.2739 100.689 22.1174 100.794 21.9451 100.865C21.7728 100.936 21.5882 100.972 21.4018 100.972Z"
            fill="url(#paint1_linear_4_5519)" />
        <path
            d="M67.768 72.8571C67.5373 72.8573 67.3087 72.8125 67.0952 72.7253L29.1982 57.0007V7.78022C29.1987 7.34498 29.3719 6.92771 29.6796 6.61994C29.9874 6.31218 30.4047 6.13906 30.8399 6.13855H103.542C103.978 6.13906 104.395 6.31218 104.703 6.61994C105.01 6.92771 105.183 7.34498 105.184 7.78022V57.0351L105.113 57.0655L68.4613 72.7176C68.2418 72.8098 68.0061 72.8572 67.768 72.8571Z"
            fill="white" />
        <path
            d="M67.7681 72.9743C67.5221 72.9746 67.2784 72.9269 67.0506 72.8339L29.0811 57.0791V7.78029C29.0816 7.31396 29.2671 6.86687 29.5968 6.53712C29.9266 6.20738 30.3736 6.02189 30.84 6.02136H103.542C104.009 6.02189 104.456 6.20738 104.786 6.53712C105.115 6.86687 105.301 7.31396 105.301 7.78029V57.1125L68.5074 72.8254C68.2734 72.9239 68.022 72.9745 67.7681 72.9743ZM29.5501 56.7658L67.2294 72.4002C67.5809 72.5428 67.9745 72.5405 68.3242 72.3937L104.832 56.8029V7.78029C104.832 7.43832 104.696 7.11047 104.454 6.86866C104.212 6.62684 103.884 6.49082 103.542 6.49041H30.84C30.498 6.49082 30.1702 6.62684 29.9284 6.86866C29.6865 7.11047 29.5505 7.43832 29.5501 7.78029L29.5501 56.7658Z"
            fill="#4D4D4D" />
        <path
            d="M132.037 45.4214H131.99L105.067 56.9178L68.2301 72.6473C68.0862 72.7078 67.9317 72.7394 67.7756 72.7402C67.6194 72.741 67.4646 72.711 67.3201 72.652L29.3155 56.8849L1.73076 45.4402L1.68862 45.4214H1.64167C1.20642 45.4219 0.789133 45.595 0.481365 45.9028C0.173597 46.2105 0.000482944 46.6278 0 47.0631V118.358C0.000483563 118.794 0.173598 119.211 0.481365 119.519C0.789133 119.826 1.20642 120 1.64167 120H132.037C132.472 120 132.89 119.826 133.197 119.519C133.505 119.211 133.678 118.794 133.679 118.358V47.0631C133.678 46.6278 133.505 46.2105 133.197 45.9028C132.89 45.595 132.472 45.4219 132.037 45.4214ZM133.21 118.358C133.209 118.669 133.086 118.967 132.866 119.187C132.646 119.407 132.348 119.531 132.037 119.531H1.64167C1.33071 119.531 1.03252 119.407 0.812639 119.187C0.592757 118.967 0.469172 118.669 0.469048 118.358V47.0631C0.469473 46.7598 0.587098 46.4685 0.79733 46.2499C1.00756 46.0314 1.29413 45.9026 1.59712 45.8904L29.3155 57.3915L67.1396 73.0858C67.549 73.2524 68.0078 73.2499 68.4154 73.0788L105.067 57.4267L132.084 45.8904C132.386 45.9035 132.672 46.0327 132.882 46.2511C133.092 46.4695 133.209 46.7603 133.21 47.0631V118.358Z"
            fill="#4D4D4D" />
        <path
            d="M67.3892 58.9C65.9901 58.9027 64.6282 58.4503 63.5088 57.6111L63.4394 57.559L48.826 46.3704C48.1492 45.8519 47.5812 45.2051 47.1543 44.467C46.7275 43.729 46.4503 42.914 46.3384 42.0688C46.2265 41.2236 46.2822 40.3646 46.5023 39.5409C46.7224 38.7172 47.1025 37.9449 47.6211 37.2682C48.1396 36.5914 48.7864 36.0234 49.5245 35.5965C50.2625 35.1697 51.0774 34.8925 51.9227 34.7806C52.7679 34.6687 53.6269 34.7244 54.4506 34.9445C55.2743 35.1645 56.0466 35.5447 56.7233 36.0633L66.1888 43.3213L88.5572 14.1496C89.076 13.473 89.723 12.9052 90.4612 12.4786C91.1994 12.0521 92.0144 11.7751 92.8597 11.6635C93.7049 11.5519 94.5639 11.6079 95.3875 11.8283C96.2111 12.0487 96.9833 12.4292 97.6598 12.948L97.5208 13.1368L97.6635 12.9507C99.0282 13.9997 99.9212 15.5471 100.146 17.2536C100.372 18.9601 99.9109 20.6863 98.865 22.0534L72.5544 56.3663C71.9459 57.157 71.1634 57.7969 70.2676 58.2363C69.3719 58.6757 68.3869 58.9028 67.3892 58.9Z"
            fill="url(#paint2_linear_4_5519)" />
    </g>
    <defs>
        <linearGradient id="paint0_linear_4_5519" x1="25.6888" y1="104.233" x2="25.6888" y2="107.07"
            gradientUnits="userSpaceOnUse">
            <stop stop-color="#FFDA58" />
            <stop offset="1" stop-color="#FF924D" />
        </linearGradient>
        <linearGradient id="paint1_linear_4_5519" x1="15.9561" y1="98.1357" x2="15.9561"
            y2="100.972" gradientUnits="userSpaceOnUse">
            <stop stop-color="#FFDA58" />
            <stop offset="1" stop-color="#FF924D" />
        </linearGradient>
        <linearGradient id="paint2_linear_4_5519" x1="73.2423" y1="11.6077" x2="73.2423"
            y2="58.9001" gradientUnits="userSpaceOnUse">
            <stop stop-color="#FFDA58" />
            <stop offset="1" stop-color="#FF924D" />
        </linearGradient>
        <clipPath id="clip0_4_5519">
            <rect width="133.679" height="120" fill="white" />
        </clipPath>
    </defs>
</svg>
