<svg width="41" height="41" viewBox="0 0 41 41" fill="none" xmlns="http://www.w3.org/2000/svg">
    <g clip-path="url(#clip0_11_2291)">
        <g opacity="0.75">
            <path
                d="M29.1866 27.4896C30.1214 27.6339 30.3593 27.6064 31.0032 27.5343C31.8209 27.4455 32.1683 26.8844 32.0632 26.3598C31.8163 25.1295 30.9575 24.1974 30.4784 23.7051C31.697 23.9042 32.8585 23.6257 33.7814 22.7533C33.8027 22.7329 33.8228 22.7112 33.8416 22.6884C35.7667 20.3876 34.1465 16.751 30.4874 17.2922C31.1864 16.5854 32.307 15.0837 32.0214 14.1498C31.7445 13.2445 30.1193 13.366 29.181 13.5107C35.5203 7.58382 32.2869 3.74741 25.9834 10.293C26.118 9.47773 26.2136 7.88585 25.4503 7.50874C24.5629 7.07046 22.9074 8.28421 22.1914 9.00421C22.5893 6.48343 20.9032 4.66358 18.709 4.84554C16.7612 5.00741 15.3888 6.72491 15.7946 9.00937C14.6859 7.9003 12.5105 6.5971 12.0421 8.1003C11.8063 8.85765 11.8954 9.68452 11.9984 10.3183C5.65087 3.67593 2.48634 7.64374 8.79267 13.513C7.96845 13.3779 6.63415 13.2427 6.08267 13.9234C5.41571 14.7469 6.73829 16.5332 7.49931 17.3027C6.93329 17.2077 6.36931 17.1997 5.71673 17.3762C2.83181 18.1564 2.57728 21.8749 4.78642 23.2268C5.5522 23.6953 6.55478 23.8701 7.49399 23.7032C6.8211 24.3661 6.07446 25.4135 5.91446 26.3305C5.8472 26.7153 5.96477 27.0401 6.25431 27.2697C6.78384 27.6897 8.11915 27.6088 8.78423 27.4928C8.0311 28.2307 7.47829 28.7771 6.75423 29.7558C6.29751 30.373 5.5097 31.5666 5.36392 32.6244C5.27329 33.2824 5.52243 33.8195 6.01438 34.0259C6.19946 34.1037 6.40149 34.1384 6.61501 34.1384C8.33032 34.1381 10.8164 31.9601 11.9952 30.7018C11.9275 31.0719 11.8474 31.6592 11.9425 32.4441C12.1689 34.3126 14.1716 33.5898 15.784 31.9933C15.4402 33.9374 16.4829 35.8548 18.514 36.1386C20.7563 36.4519 22.6039 34.6357 22.1885 31.9962C23.2748 33.0994 25.4524 34.385 25.927 32.9116C26.1788 32.1294 26.0622 31.226 25.9747 30.6952C27.2242 32.0644 30.4866 34.8781 32.0907 33.9583C32.4118 33.7741 32.6183 33.3828 32.6295 32.937C32.6614 31.6585 31.3149 29.7883 30.5985 28.978C30.3871 28.7389 30.1043 28.3655 29.1866 27.4896ZM18.9871 32.6323C18.6891 31.6864 18.0363 30.8594 17.0912 30.5095C17.3441 30.1668 17.4725 30.1444 18.9874 27.8249C19.3336 28.3376 19.7255 29.0493 20.8784 30.5079C20.1067 30.7775 19.3676 31.4676 18.9871 32.6323ZM16.2359 32.2921C16.2641 32.0094 16.3859 31.3813 16.4491 31.2871C16.6076 31.097 16.7257 30.9551 16.7733 30.9147C16.7981 30.9173 16.8227 30.9203 16.838 30.9255C17.4798 31.1459 17.9556 31.5676 18.2926 32.2148C18.7589 33.1105 18.7177 34.0114 18.7446 34.1873C18.7632 34.3084 18.8799 34.4026 19.005 34.3919C19.2472 34.3712 19.2476 34.1014 19.2478 33.9863C19.2478 31.5958 21.1331 30.8276 21.2161 30.9268C21.5157 31.2814 21.5245 31.2749 21.5374 31.3176C22.2619 33.7517 21.0792 35.3865 19.5511 35.6277C19.3395 35.6619 19.1368 35.6984 18.9441 35.6891C18.0348 35.6458 17.4277 35.1544 17.0785 34.7498C16.4955 34.0741 16.1569 33.0864 16.2359 32.2921ZM18.9791 27.1188C18.7535 27.133 18.7807 27.3527 17.7379 28.8448C16.7699 30.2295 15.4783 31.9198 14.0711 32.7064C13.4736 33.0403 13.0075 33.1684 12.7581 33.0673C12.4491 32.942 12.4219 32.4023 12.3914 32.0499C12.3546 31.6314 12.4095 31.4315 12.4135 31.3359C12.4559 30.2987 12.9587 28.3885 13.9865 26.4587C14.4425 25.6023 14.9681 24.9163 15.0184 24.8231C15.1331 24.6109 14.8934 24.3579 14.6787 24.4623C14.4874 24.555 14.5431 24.5926 13.6071 25.1686C11.2243 26.6351 7.75774 27.5069 6.60899 26.9284C5.86196 26.5523 7.14767 24.7414 7.7754 24.1005C9.55837 22.2802 12.0552 20.8638 12.2846 20.6691C12.382 20.5866 12.3839 20.4143 12.2847 20.3323C11.8431 19.9652 7.00173 17.3098 6.3879 14.5748C6.33993 14.3617 6.42313 14.1536 6.72782 14.0241C8.21087 13.3941 12.2453 14.8019 14.4484 16.3876C14.6573 16.5379 14.808 16.646 14.9708 16.4791C15.1311 16.3146 15.0245 16.1687 14.877 15.9668C13.3359 13.8581 11.9461 9.99202 12.4988 8.26257C12.5534 8.09155 12.638 7.98335 12.757 7.93194C13.4204 7.64522 15.2115 9.01562 15.6698 9.5739C15.9542 9.9203 16.9304 10.8408 18.5184 13.3433C19.2809 14.5448 18.8003 13.7846 21.5359 10.4525C22.393 9.40866 23.5539 8.17491 24.9364 7.89741C26.227 7.6389 25.6616 12.3913 23.0424 16.0455C22.999 16.106 22.9714 16.1454 22.9616 16.1624C22.8277 16.3948 23.0941 16.6581 23.3169 16.5282C23.4328 16.461 25.5012 14.8563 28.4266 14.1537C29.4604 13.9054 31.7891 13.5582 31.5779 14.6091C31.3795 15.5977 30.6234 16.3975 30.1968 16.8995C29.9867 17.1494 29.8898 17.1871 29.8062 17.2728C29.5143 17.5727 28.9532 18.0221 28.6322 18.2809C25.7355 20.6246 24.9224 20.1878 26.2051 21.0088C27.5529 21.8718 31.1333 24.1641 31.5856 26.4325C31.862 27.8201 26.8081 27.047 23.3934 24.5187C23.109 24.3082 22.8439 24.5817 22.9472 24.8005C22.9589 24.8253 22.9766 24.8505 23.0421 24.9431C25.0488 27.7785 25.9376 31.3019 25.4711 32.7474C25.3057 33.2594 24.8214 33.143 24.3152 32.9132C21.7545 31.7506 19.4759 27.5982 19.1631 27.2084C19.116 27.1505 19.053 27.1139 18.9791 27.1188ZM7.92048 31.544C7.85837 31.2106 8.73712 29.3695 10.9574 27.273C11.9895 26.2985 12.1313 26.6598 14.008 25.4823C12.7467 27.5775 13.2494 27.232 12.4438 28.2609C11.7018 29.2087 8.93899 31.6112 7.92048 31.544ZM9.6929 27.333C9.7697 27.2676 10.0568 27.2228 10.425 27.1073C9.39899 28.0726 7.71063 30.0409 7.44423 31.4174C7.41407 31.5728 7.4586 31.7055 7.50063 31.8037C7.54063 31.8969 7.63118 32.0142 7.83548 32.0447C8.63056 32.1636 10.808 30.7021 12.3812 29.0559C12.2039 29.6241 12.2404 29.6891 12.1228 29.8331C10.9386 31.283 8.47642 33.4273 6.7104 33.6548C6.54595 33.6759 6.37548 33.6525 6.20321 33.5852C5.89024 33.463 5.79188 33.0791 5.83329 32.7528C6.0711 30.8781 8.37118 28.4639 9.6929 27.333ZM3.8054 20.4596C3.83509 18.4536 5.74235 17.1653 8.16407 17.9479C8.22665 17.9681 8.26024 18.0219 8.5447 18.2548C8.57524 18.2798 8.58173 18.2939 8.56524 18.3391C8.08501 19.6619 6.8579 20.1887 5.43423 20.2425C5.39071 20.2441 5.3586 20.2455 5.33962 20.2473C5.02134 20.278 5.01345 20.7064 5.32173 20.7497C5.5811 20.786 6.85985 20.735 7.79884 21.5364C8.29649 21.9611 8.53095 22.4669 8.57142 22.7148C8.5361 22.7577 8.39977 22.8702 8.22048 23.0217C8.08837 23.1066 7.01954 23.3652 6.39227 23.2526C6.33058 23.2421 6.26857 23.2336 6.20634 23.2272C4.77618 23.0657 3.78399 21.9006 3.8054 20.4596ZM8.97759 18.606C10.8076 20.0313 11.122 20.1308 11.6658 20.4964C11.0166 20.9476 10.824 20.9671 8.97907 22.394C8.53946 21.1744 7.48399 20.7082 6.84282 20.5039C7.84899 20.1848 8.63352 19.5381 8.97759 18.606ZM7.94032 9.45421C8.47899 9.43163 9.59845 10.1099 11.0384 11.325C11.4627 11.683 11.8514 12.0873 12.2134 12.4707C13.1713 13.4852 12.8403 13.6616 13.9941 15.5053C12.8968 14.8127 12.1122 14.5503 11.8052 14.3734C10.2833 13.4969 7.87727 10.2954 7.94032 9.45421ZM7.50306 9.1928C7.46259 9.28124 7.41243 9.41772 7.44415 9.5821C7.6897 10.8588 9.21462 12.7252 10.4409 13.901C9.77626 13.6986 9.77977 13.7391 9.65352 13.636C8.06423 12.3381 5.37267 9.16733 5.89431 7.73437C6.33767 6.51687 9.4511 8.20733 11.7914 10.7942C12.2853 11.3408 12.1303 11.0956 12.3831 11.9369C11.2067 10.6659 7.97915 8.15437 7.50306 9.1928ZM21.5383 9.67835C21.5192 9.7371 21.2192 10.0776 21.1988 10.0879C21.1977 10.0876 21.1804 10.0903 21.1226 10.07C20.5105 9.85499 20.0535 9.46257 19.7256 8.87022C19.3482 8.18905 19.2314 7.35483 19.2464 6.98897C19.2577 6.71476 19.1277 6.60686 18.98 6.60686C18.7299 6.60686 18.7299 6.88897 18.7228 7.06257C18.6731 8.29085 18.138 9.56952 17.0032 10.0083C16.9347 10.0347 16.7999 10.0941 16.772 10.0874C16.5983 9.88218 16.4484 9.72483 16.4382 9.69046L16.4381 9.6903C15.7174 7.26866 16.8968 5.6228 18.4149 5.37366C20.9194 4.96327 22.3531 7.17655 21.5383 9.67835ZM18.9881 8.3564C19.3116 9.39312 19.9742 10.1507 20.8827 10.4895C20.663 10.7885 20.5912 10.7588 19.0124 13.1237L18.9825 13.1685C18.4984 12.4558 18.4193 12.1988 17.0861 10.4896C17.2671 10.4267 18.6281 9.51108 18.9881 8.3564ZM27.0159 13.7266C26.012 14.6744 25.7797 14.3787 23.9652 15.5173C25.2258 13.4232 24.724 13.7676 25.5295 12.7387C26.3641 11.6727 29.0162 9.45452 30.0135 9.45452C30.0261 9.45452 30.0384 9.45491 30.0504 9.45562C30.1113 9.79194 29.2339 11.6323 27.0159 13.7266ZM28.7088 13.2884C28.6424 13.3485 28.5863 13.4001 28.5377 13.4446C28.1756 13.7769 28.2945 13.6713 27.5163 13.9067C30.9091 10.6335 31.7465 7.4821 28.305 9.68538C27.6 10.1366 26.5945 10.8766 25.5874 11.9462C25.8751 10.9942 25.6602 11.3922 26.3251 10.6419C27.5895 9.21437 30.4913 6.91491 31.77 7.4146C31.972 7.49343 32.0907 7.64304 32.1327 7.87202C32.3341 8.96929 30.7981 11.3991 28.7088 13.2884ZM28.9949 22.3936C28.5374 22.0574 28.7184 22.0717 26.3113 20.4989C26.9437 20.0741 27.4165 19.8419 28.9959 18.6023C29.2465 19.3567 29.9577 20.1247 31.1287 20.4987C30.957 20.553 29.3515 21.5098 28.9949 22.3936ZM29.7616 23.0274C29.7082 22.9835 29.6559 22.9383 29.6035 22.8931C29.3895 22.7083 29.3829 22.728 29.4081 22.6606C29.6575 21.9928 30.0358 21.551 30.6347 21.2282C31.2341 20.9051 32.025 20.7426 32.4985 20.7598C32.8926 20.7754 32.9428 20.4776 32.8241 20.3417C32.743 20.249 32.6224 20.244 32.4225 20.2358C31.1945 20.1853 29.9167 19.6512 29.4783 18.5162C29.4509 18.4456 29.3927 18.3148 29.3991 18.2851C29.5677 18.1376 29.7689 17.9593 29.7963 17.9512C35.2358 16.3325 35.6504 23.7539 30.7649 23.2487C30.4104 23.2123 29.847 23.0874 29.7616 23.0274ZM30.0306 31.5668C29.6982 31.623 27.8216 30.713 25.7599 28.529C24.7932 27.5051 25.1324 27.333 23.9722 25.4832C25.3972 26.3526 25.7917 26.4095 26.1681 26.6263C27.4377 27.3576 30.0937 30.5169 30.0306 31.5668ZM25.5902 29.0629C26.762 30.329 29.9938 32.8462 30.4701 31.8069C30.5106 31.7186 30.5608 31.5821 30.5292 31.4176C30.2836 30.1406 28.7581 28.2737 27.5316 27.098C28.4939 27.3894 28.09 27.17 28.8448 27.8384C30.2587 29.0905 32.5487 31.975 32.079 33.2653C31.6517 34.4387 28.7359 32.9823 26.0288 30.0379C25.7199 29.7022 25.8151 29.8101 25.5902 29.0629Z"
                fill="#006F54" />
            <path
                d="M34.0305 17.251L34.0414 17.2515C34.0526 17.2476 34.8798 17.2358 35.1646 16.4603C35.3239 16.0264 35.2204 15.5234 34.9068 15.2085C34.0772 14.3753 32.7821 15.0422 32.8368 16.0431C32.8183 16.6872 33.3411 17.2171 34.0305 17.251ZM34.5521 15.5254C34.735 15.7086 34.7938 15.973 34.7175 16.2699C34.6626 16.4838 34.3861 16.7073 34.1981 16.7402C33.5108 16.8607 33.1127 16.1721 33.4217 15.6497C33.5136 15.4943 34.2566 15.2297 34.5521 15.5254ZM3.91348 17.2516C3.9245 17.2491 4.44098 17.2702 4.82778 16.8542C5.22575 16.4261 5.28418 15.6704 4.78442 15.1764C3.88747 14.2899 2.39043 15.2232 2.79801 16.4292C3.07075 17.2364 3.90215 17.2474 3.91348 17.2516ZM3.30817 16.3931C3.07059 15.9702 3.33739 15.3121 3.94161 15.3121C4.34332 15.3121 4.65411 15.6225 4.63348 16.0595C4.62153 16.3135 3.64575 16.9944 3.30817 16.3931ZM24.5406 5.96729C24.9804 5.02768 24.0868 3.96174 23.0557 4.31135C22.2487 4.58495 22.2391 5.41534 22.2343 5.42815L22.2347 5.43948C22.2834 6.79409 24.016 7.08799 24.5406 5.96729ZM24.1657 5.33924C24.2607 5.98901 23.5887 6.3594 23.0915 6.07862C22.7067 5.86159 22.6097 5.33721 22.889 4.99229C23.2457 4.55214 24.0743 4.71323 24.1657 5.33924ZM13.665 34.6999C12.9107 35.4606 13.4668 36.7535 14.5218 36.7535C15.1476 36.7535 15.675 36.2988 15.7375 35.5666L15.7385 35.5556L15.7379 35.5446C15.6827 34.3987 14.3827 33.9764 13.665 34.6999ZM14.4943 36.2631C14.0098 36.2345 13.603 35.6898 13.8704 35.2336C14.2734 34.546 15.155 34.8037 15.2247 35.4948C15.2721 35.9634 14.9182 36.2892 14.4943 36.2631ZM15.7383 5.43862L15.7387 5.42729L15.7375 5.41604C15.6125 4.1976 14.2986 3.93581 13.6649 4.60979C13.1744 5.13128 13.2227 5.85112 13.6631 6.29706C14.3827 7.02565 15.6977 6.6012 15.7383 5.43862ZM14.7493 4.76628C14.9725 4.82276 15.1891 5.09018 15.2263 5.28245C15.2898 5.61018 15.1576 5.92198 14.8897 6.07682C14.3426 6.39323 13.518 5.81885 13.8804 5.12417C13.9858 4.92253 14.3517 4.66565 14.7493 4.76628ZM34.0453 23.7475L34.0343 23.748C33.3448 23.7796 32.8204 24.3078 32.8368 24.9522C32.7822 25.9394 34.0454 26.6192 34.8856 25.8119C35.2156 25.4949 35.3272 25.0014 35.1698 24.5548C34.9029 23.7974 34.0568 23.7517 34.0453 23.7475ZM34.7347 24.8285C34.8028 25.3322 34.3529 25.8197 33.8362 25.6702C33.4621 25.5617 33.3345 25.221 33.3388 24.9622C33.3547 24.0077 34.6304 24.0571 34.7347 24.8285ZM3.76598 23.7687C3.31379 23.848 2.93036 24.186 2.78895 24.6299C2.52551 25.4573 3.21489 26.1706 3.94278 26.1706C4.59911 26.1704 5.17176 25.6117 5.13653 24.9585C5.15809 24.2442 4.47184 23.6445 3.76598 23.7687ZM3.67223 25.6329C3.46715 25.5492 3.24395 25.3507 3.23301 25.0442C3.22848 24.9223 3.22786 24.8041 3.26723 24.6985C3.47598 24.1384 4.29551 24.0661 4.58481 24.6411C4.74793 24.9654 4.34668 25.9076 3.67223 25.6329ZM22.2351 35.5443L22.2346 35.5553L22.2355 35.5664C22.2992 36.3143 22.8307 36.7514 23.444 36.7514C24.3163 36.7514 24.9182 35.8492 24.5473 35.0455C24.3434 34.6033 22.3 34.2082 22.2351 35.5443ZM23.9476 36.0263C23.7647 36.2246 23.4911 36.3009 23.2161 36.2304C23.0022 36.1755 22.7787 35.8989 22.7458 35.7109C22.6684 35.2678 22.9817 34.9446 23.3312 34.8543C24.0736 34.662 24.3689 35.5693 23.9476 36.0263ZM18.0759 38.3859C18.2597 38.785 18.6585 38.9978 19.0332 38.9978C19.8125 38.9978 20.3316 37.9864 19.7633 37.4023C19.0465 36.4666 17.6175 37.3905 18.0759 38.3859ZM18.8367 37.5223C19.1043 37.4155 19.4365 37.632 19.4964 37.9171C19.5664 38.2521 19.1514 38.6497 18.7646 38.4463C18.6237 38.3721 18.5154 38.2352 18.4818 38.089C18.4374 37.895 18.5298 37.6446 18.8367 37.5223ZM19.7155 3.65307C20.4075 2.90448 19.6233 1.85971 18.8518 2.01924C18.188 2.15729 17.8796 2.76737 18.0153 3.21424C18.2722 4.06026 19.2075 4.20268 19.7155 3.65307ZM19.1212 2.51917C19.6032 2.68753 19.6498 3.27948 19.1329 3.47768C18.7182 3.63698 18.1776 3.04503 18.6589 2.62471C18.7883 2.5119 19.072 2.50198 19.1212 2.51917ZM37.2788 19.9261C37.0266 19.5624 36.5589 19.4361 36.2694 19.5282C35.4008 19.8046 35.2676 20.802 35.8896 21.277C36.0803 21.4225 36.2884 21.4975 36.4986 21.4975C36.8155 21.4975 37.0987 21.3266 37.2754 21.0767C37.5438 20.697 37.545 20.3099 37.2788 19.9261ZM36.14 20.8604C35.8835 20.5971 35.96 20.1923 36.2979 20.0267C36.5943 19.8812 36.9325 20.1195 36.9894 20.447C37.056 20.8308 36.5117 21.2416 36.14 20.8604ZM0.7602 19.8331C0.48895 20.1318 0.367309 20.6372 0.707465 21.0928C0.967309 21.4409 1.5359 21.5854 1.90075 21.3941C2.25145 21.2102 2.45903 20.8962 2.47036 20.5326C2.49668 19.6817 1.41637 19.1112 0.7602 19.8331ZM1.40278 19.993C1.64707 19.9383 1.87723 20.1242 1.96489 20.3539C2.06825 20.6253 1.85004 20.9537 1.56395 21.0103C1.45629 21.0314 1.32832 21 1.22106 20.9262C0.802856 20.6383 0.98434 20.0868 1.40278 19.993ZM20.2565 23.263C20.0433 23.1997 19.7897 23.3181 19.6795 23.533C19.5461 23.7935 19.6135 24.0454 19.6741 24.3606C19.9255 25.7123 20.635 27.3732 20.6418 27.3921C21.1518 28.6479 22.3256 31.6103 23.6775 31.6103C24.085 31.6103 24.43 31.3318 24.4174 30.6524C24.4171 30.6314 24.4156 30.4831 24.415 30.4266H24.4108C24.301 28.2486 22.0761 25.1486 20.8857 23.7834C20.6048 23.4606 20.5129 23.3392 20.2565 23.263ZM20.1393 23.7348C20.3466 23.7348 22.4589 26.4849 23.045 27.7589C22.3948 28.5137 21.6074 28.3986 21.5964 28.4018C21.0903 27.2271 20.2192 25.1635 20.0851 23.8802C20.0793 23.8251 20.1005 23.7348 20.1393 23.7348ZM23.2739 28.2351C23.5957 28.9662 23.8761 29.6442 23.9332 30.4685C23.9363 30.8821 23.9396 31.2266 23.5397 31.1071C22.8072 30.8873 22.1588 29.5658 21.8165 28.8799C22.4033 28.8475 22.954 28.5459 23.2739 28.2351ZM17.3677 23.4708C15.9334 24.9208 13.3816 28.7306 13.5586 30.8406C13.6024 31.3614 13.9189 31.6117 14.2967 31.6117C16.1131 31.6117 18.0507 25.7906 18.3585 24.0131C18.47 23.3695 17.8574 22.976 17.3677 23.4708ZM14.0368 30.7613C13.9979 29.9433 14.3239 29.0657 14.7004 28.2265C15.1123 28.6398 15.7263 28.8748 16.1578 28.8858C15.6594 29.9634 14.0923 31.9316 14.0368 30.7613ZM17.8469 23.7407C17.9877 23.7933 17.6562 24.9824 17.6147 25.1287C17.2697 26.3446 16.8354 27.3434 16.3808 28.4011C15.812 28.4134 15.3089 28.2048 14.9311 27.7624C15.6132 26.4383 16.7715 24.8356 17.5327 24.0138C17.6929 23.8411 17.7803 23.7167 17.8469 23.7407ZM22.2518 21.1224C21.8388 21.1824 21.6737 21.5263 21.7486 21.7669V21.767C21.9907 22.5449 26.8298 26.0995 29.3154 25.9284C30.215 25.866 30.3334 24.9882 29.7004 24.303C28.3055 22.7935 23.0443 21.0082 22.2518 21.1224ZM28.4643 25.3831C27.7972 25.2583 27.3122 25.0513 26.7179 24.7882C27.1341 24.3617 27.3575 23.7521 27.374 23.3301C28.0202 23.6311 29.6565 24.4991 29.6189 25.2103C29.6058 25.4606 29.2783 25.4465 29.0393 25.4464C28.8645 25.4587 28.6618 25.4203 28.4643 25.3831ZM26.8868 23.1049C26.9282 23.6627 26.6132 24.2909 26.2469 24.5573C25.28 24.111 22.4238 22.0963 22.2191 21.6546C22.2178 21.4874 23.3649 21.7996 23.521 21.844C24.7509 22.1937 25.6781 22.5771 26.8868 23.1049ZM15.4806 21.1256C14.052 21.3658 12.7939 21.8599 11.524 22.3881C10.1403 22.9636 8.26106 23.8503 7.91997 24.9009C7.73559 25.4685 8.08473 25.9258 8.75051 25.9317L8.75114 25.9421L8.91247 25.9355C11.2171 25.8417 14.427 23.5961 16.0223 22.1096C16.4926 21.6713 16.1425 21.0153 15.4806 21.1256ZM10.6028 23.3263C10.6379 23.9079 10.9329 24.4646 11.2529 24.7909C10.6846 25.047 8.98012 25.7147 8.5034 25.4116C7.74028 24.9255 9.78317 23.6864 10.6028 23.3263ZM11.7264 24.5562C11.2929 24.1941 11.0492 23.6416 11.0864 23.1053C12.4252 22.5152 13.9849 21.866 15.5789 21.5999C15.6724 21.5842 15.734 21.616 15.7479 21.6437C15.8372 21.8227 13.1736 23.8464 11.7264 24.5562ZM21.7512 19.2259C21.687 19.4392 21.8033 19.6934 22.0161 19.8045C22.8029 20.2145 27.3114 18.3771 28.7507 17.4664C29.4145 17.0465 29.8389 16.6242 30.0126 16.2113C30.189 15.7917 30.0924 15.3976 29.7666 15.2072C29.1843 14.8671 28.3807 15.1111 27.7422 15.3043C25.8312 15.8817 23.664 17.3846 22.2731 18.5983C21.9477 18.8816 21.8281 18.9714 21.7512 19.2259ZM29.5219 15.6223C29.6592 15.6938 29.6095 15.896 29.5911 15.9564C29.3675 16.6844 28.0486 17.3292 27.3665 17.669C27.3297 17.0771 27.0367 16.5338 26.7239 16.2117C27.3817 15.9217 28.8827 15.2896 29.5219 15.6223ZM26.246 16.4411C26.9707 17.0589 26.8871 17.8674 26.8911 17.8896C26.8515 17.9231 23.852 19.2437 22.3684 19.4009C22.2394 19.4143 22.1679 19.3428 22.2698 19.2564C22.5255 19.0394 22.7858 18.7378 23.7303 18.0423C24.8406 17.2246 26.0942 16.511 26.246 16.4411ZM16.2107 19.1887C15.974 18.5579 11.3514 14.9161 8.66973 15.0696C7.75825 15.1224 7.63989 16.0091 8.28106 16.7056C9.48254 18.0109 13.4742 19.5264 15.4761 19.8721C16.0106 19.9642 16.3456 19.5481 16.2107 19.1887ZM8.47536 15.6096C8.56645 15.5699 8.63551 15.552 8.69942 15.5516H8.69934C9.63723 15.5452 10.3979 15.8196 11.2504 16.2123C10.8597 16.6149 10.6218 17.2214 10.5987 17.6687C10.1489 17.4639 8.87739 16.8012 8.50286 16.2143C8.38059 16.0228 8.2634 15.7021 8.47536 15.6096ZM15.6826 19.3961C15.0615 19.4324 13.386 18.8856 11.0843 17.8928C11.0693 17.7406 11.1255 17.3324 11.2816 16.9999C11.4145 16.7172 11.6636 16.4831 11.7255 16.4414C12.9377 17.0008 15.8222 19.1617 15.7502 19.3569C15.7442 19.3735 15.7132 19.3942 15.6826 19.3961ZM20.1416 17.7558C20.4736 17.7558 20.7553 17.3614 20.9577 17.1349C23.2914 14.5167 25.2432 10.3439 24.095 9.51534C22.2724 8.19885 19.4579 16.182 19.6094 17.2338C19.6597 17.5827 19.9001 17.7558 20.1416 17.7558ZM23.0447 13.2384C22.5741 14.3042 20.3165 17.3596 20.126 17.2627C20.1049 17.2524 20.0728 17.1854 20.0901 17.0703C20.3112 15.6029 21.0014 13.9753 21.5747 12.6387C21.5804 12.6253 21.5873 12.6084 21.593 12.5969C22.1867 12.5639 22.8161 12.9063 23.0447 13.2384ZM23.8668 9.96979C23.937 10.1098 23.936 10.1762 23.9339 10.3367C23.9209 11.2521 23.6332 11.9596 23.2752 12.7684C22.8503 12.3535 22.2434 12.1301 21.8211 12.1122C22.1763 11.3893 22.9873 9.79534 23.7229 9.87471C23.7943 9.88237 23.8374 9.91088 23.8668 9.96979ZM18.3636 17.0152C18.1471 15.3927 16.8429 12.1648 15.9667 10.7583V10.7582C15.5584 10.1031 14.9278 9.33448 14.2179 9.3926C12.5907 9.52745 14.0243 13.8559 17.3635 17.5225C17.8 18.0018 18.4517 17.676 18.3636 17.0152ZM16.1563 12.1187C15.5824 12.1539 15.0169 12.446 14.6972 12.7652C14.3007 11.8581 14.0235 11.1377 14.037 10.2377C14.0382 10.1645 14.0546 10.0907 14.0886 10.0053C14.1321 9.89651 14.3909 9.88479 14.4489 9.89698C15.1728 10.1223 15.8196 11.4407 16.1563 12.1187ZM16.3801 12.5967C17.0246 14.0685 17.5825 15.4244 17.8878 17.0984C17.891 17.1292 17.8721 17.2606 17.8411 17.2637C17.5882 17.2854 15.388 14.2968 14.9285 13.2383C14.9299 13.2365 15.9297 12.5454 16.3801 12.5967Z"
                fill="#006F54" />
            <path
                d="M21.1383 20.504C21.4292 20.061 21.6459 19.668 21.4838 19.0547C21.2201 18.0575 20.0193 17.5349 18.9853 18.3523C17.5338 17.1911 15.6111 18.7708 16.8379 20.5067L16.8381 20.5069C16.7953 20.5722 16.7406 20.6221 16.6879 20.7098C15.8114 22.1675 17.4083 23.8151 18.9889 22.6436C19.2567 22.8335 19.5045 23.0402 20.0351 23.0418C21.3053 23.0418 22.0234 21.6513 21.1383 20.504ZM17.2635 20.234C16.684 19.648 16.8688 18.6607 17.6735 18.4647C18.8221 18.3087 18.7271 19.2827 19.2556 18.7738C20.1467 17.9135 21.541 18.8427 20.8864 20.0162C20.7743 20.2171 20.4578 20.39 20.6061 20.6297C20.7356 20.839 20.8605 20.8403 20.9967 21.2303C21.0328 21.3333 21.0375 21.3847 21.0358 21.6532C21.0303 22.5082 19.9064 22.8751 19.2692 22.2364C19.0521 22.019 18.8916 22.0341 18.6756 22.2648C18.5456 22.4038 18.2517 22.5511 18.0126 22.549C17.9388 22.5482 17.8874 22.5498 17.8285 22.5489C17.0369 22.5378 16.6789 21.5786 17.1102 20.9472C17.1487 20.8908 17.5932 20.5678 17.2635 20.234Z"
                fill="#FFBBEC" />
            <path
                d="M20.6951 22.0528C20.8207 21.8335 20.8162 21.5424 20.7645 21.4166C20.5487 20.8898 19.6223 20.5362 19.2745 20.5012C19.1976 20.4934 19.1193 20.5227 19.063 20.5789C18.9682 20.6733 18.9753 20.7934 19.0141 20.94C19.4164 22.4613 20.3896 22.586 20.6951 22.0528ZM20.3309 21.7694C20.2893 21.9188 20.0352 21.8515 19.9193 21.7103C19.7674 21.525 19.6504 21.3161 19.5645 21.0766C19.8627 21.1834 20.4162 21.4666 20.3309 21.7694Z"
                fill="#FFBBEC" />
            <path
                d="M18.2243 22.1881C18.7114 21.849 18.9648 21.0307 18.9834 20.762C18.9935 20.6164 18.8509 20.4851 18.7087 20.5017C18.3114 20.5469 17.653 20.8408 17.3666 21.1665C17.1787 21.3799 17.1059 21.6634 17.1763 21.9064C17.2958 22.3181 17.8079 22.478 18.2243 22.1881ZM18.4082 21.0774C18.3214 21.3192 18.2045 21.5274 18.0537 21.7089L18.0537 21.709C17.9818 21.7956 17.783 21.8379 17.7134 21.8427C17.5398 21.7873 17.5793 21.3729 18.4082 21.0774ZM19.2498 20.4959C19.7369 20.4619 21.0419 19.9171 20.7943 19.0834C20.6555 18.6163 19.9386 18.4149 19.4469 19.115C19.177 19.4992 19.0093 19.9742 18.9884 20.2264C18.9829 20.2958 19.0105 20.3667 19.0641 20.4209C19.1139 20.4714 19.1808 20.5005 19.2498 20.4959ZM19.5619 19.9218C19.6485 19.6845 19.7809 19.4524 19.9351 19.2731C20.0055 19.1912 20.1929 19.1574 20.259 19.1554C20.3959 19.1988 20.3448 19.4389 20.2242 19.5421C20.0317 19.7071 19.8096 19.8344 19.5619 19.9218Z"
                fill="#FFBBEC" />
            <path
                d="M18.7304 20.4983C18.8783 20.4983 19.0063 20.3561 18.9834 20.2026C18.8722 19.4662 18.2663 18.4167 17.5437 18.701C17.0798 18.8835 16.9314 19.5658 17.6002 20.0374C17.9853 20.3088 18.5481 20.4983 18.7304 20.4983ZM17.6346 19.2951C17.631 19.0333 18.092 19.0316 18.411 19.9225C18.1633 19.8351 17.95 19.7136 17.7632 19.554C17.6779 19.4812 17.6358 19.3966 17.6346 19.2952V19.2951Z"
                fill="#FFBBEC" />
        </g>
        <path
            d="M3.18899 34.1503C3.07172 34.2416 2.88492 34.1719 2.86024 34.0262C2.77688 33.5347 3.25266 32.9344 3.54977 32.5346L3.53992 32.5463C3.32602 32.4888 3.24508 32.3395 3.23758 32.1286C3.21289 31.4292 3.61899 30.8959 3.58016 30.7606C3.43727 30.2631 3.51 29.8229 3.99297 29.5749C4.47766 29.3261 4.99203 29.22 5.535 29.2021C7.23211 29.1464 7.86836 30.2896 6.58735 32.1478C6.20219 32.7065 5.27086 33.7511 4.61735 33.8741C4.50453 33.8954 4.46063 33.8292 4.42039 33.7211L4.43297 33.7128L4.42157 33.7226C4.26117 33.9136 3.91235 34.3662 3.70649 34.4561C3.54875 34.525 3.40492 34.3054 3.41 34.112C3.41196 34.0382 3.43016 33.965 3.44102 33.8914L3.45196 33.8819C3.26555 34.0782 3.23328 34.1158 3.18899 34.1503Z"
            fill="#FF967F" />
        <path
            d="M4.87854 33.9094C4.48081 34.0873 4.43674 33.8392 4.25721 34.0704C3.99502 34.408 3.6751 34.7812 3.41229 34.4451C3.38393 34.4089 3.36721 34.3636 3.34471 34.3227C3.28768 34.2189 3.29096 34.2411 3.16643 34.2772C2.97377 34.333 2.80674 34.2433 2.75667 34.0504C2.64073 33.6034 3.06338 33.0383 3.30596 32.6854C3.41338 32.5291 3.12073 32.4936 3.12862 32.1273C3.15018 31.1294 3.55229 31.0169 3.42002 30.5812C3.34448 30.3324 3.37963 29.8194 3.78417 29.5711C5.00018 28.8245 7.12229 28.892 7.32557 30.1205C7.56487 31.5672 5.80112 33.4969 4.87854 33.9094ZM5.90112 29.3118C5.3712 29.2237 4.63924 29.3117 3.87807 29.7346C3.6069 29.8852 3.53417 30.2521 3.60745 30.5561C3.6476 30.7226 3.7351 30.7333 3.84612 30.8128C3.92198 30.8672 3.99627 30.9239 4.07135 30.9796C4.10206 31.0024 4.14549 30.9905 4.16479 30.954C4.3701 30.5662 4.11643 30.3337 4.28885 30.2709C4.42159 30.2226 4.42268 30.4503 4.7069 30.6466C4.95331 30.8168 5.2201 30.861 5.50674 30.7594C5.76706 30.6672 5.9519 30.3858 6.05432 30.4853C6.18495 30.6121 5.76018 30.8811 5.52018 30.9547C5.21674 31.0477 4.92948 31.0172 4.65901 30.8492C4.60346 30.8148 4.55167 30.7743 4.49784 30.7371C4.4251 30.6869 4.41643 30.8728 4.31909 31.0828C4.27042 31.1878 4.2376 31.2942 4.25401 31.4081C4.29752 31.7108 4.10088 32.0609 3.86424 32.3049C3.69409 32.4804 3.54729 32.6744 3.40213 32.8693C3.16206 33.1916 2.90831 33.6149 2.9394 33.9869C2.94346 34.0351 2.97182 34.0735 3.01682 34.0963C3.15948 34.1687 3.30971 33.9297 4.35112 32.4881C4.47221 32.3205 4.4726 32.2895 4.54479 32.2533C4.59292 32.229 4.63792 32.2862 4.64323 32.3165C4.65549 32.3861 4.66526 32.373 3.97221 33.3422C3.54917 33.934 3.37034 34.0267 3.56401 34.3241C3.59917 34.3782 3.66073 34.3954 3.70846 34.3575C3.86838 34.2305 3.9376 34.194 4.26479 33.7684C5.23471 32.5066 5.00463 32.7197 5.18346 32.5291C5.2137 32.4969 5.26831 32.4944 5.28417 32.5093C5.30284 32.5269 5.32792 32.5562 5.32401 32.5753C5.28471 32.7683 4.89893 33.1959 4.56354 33.7133C4.55213 33.7309 4.57987 33.778 4.60221 33.7779C5.22354 33.7751 7.45674 31.6065 7.12143 30.0773C7.0669 29.8285 6.92409 29.6187 6.47565 29.4322C6.29042 29.3551 6.09534 29.3371 5.90112 29.3118ZM3.32002 32.1401C3.31792 32.3319 3.45752 32.4562 3.52909 32.3858C3.89331 32.0274 4.07526 31.798 4.05495 31.3884C4.04534 31.1937 3.87706 31.0248 3.70448 30.9569C3.6712 30.9437 3.6062 30.9693 3.57917 31.0376C3.40002 31.4908 3.32588 31.6136 3.32002 32.1401Z"
            fill="#000E3F" />
        <path
            d="M34.5254 33.8819L34.5363 33.8914C34.5472 33.965 34.5654 34.0382 34.5674 34.112C34.5724 34.3054 34.4286 34.525 34.2709 34.4561C34.065 34.3662 33.7162 33.9136 33.5558 33.7226L33.5444 33.7128L33.557 33.7211C33.5167 33.8292 33.4728 33.8954 33.36 33.8741C32.7065 33.7511 31.7753 32.7065 31.39 32.1478C30.109 30.2896 30.7452 29.1464 32.4423 29.2021C32.9853 29.22 33.4996 29.3261 33.9843 29.5749C34.4673 29.8229 34.54 30.2631 34.3971 30.7606C34.3583 30.8959 34.7645 31.4292 34.7397 32.1286C34.7322 32.3395 34.6513 32.4888 34.4374 32.5463L34.4275 32.5346C34.7246 32.9343 35.2004 33.5346 35.1171 34.0262C35.0924 34.1719 34.9056 34.2416 34.7883 34.1503C34.7442 34.1157 34.712 34.0781 34.5254 33.8819Z"
            fill="#FF967F" />
        <path
            d="M30.6521 30.1205C30.8554 28.892 32.9775 28.8245 34.1935 29.5711C34.598 29.8194 34.6332 30.3324 34.5577 30.5812C34.4253 31.0169 34.8274 31.1294 34.8491 32.1273C34.857 32.4936 34.5644 32.529 34.6717 32.6854C34.9143 33.0383 35.337 33.6033 35.221 34.0504C35.1709 34.2433 35.0039 34.333 34.8112 34.2772C34.6866 34.2411 34.69 34.2189 34.633 34.3227C34.6105 34.3637 34.5937 34.4089 34.5654 34.4451C34.3026 34.7812 33.9827 34.4079 33.7205 34.0704C33.5409 33.8392 33.4968 34.0873 33.0991 33.9094C32.1765 33.497 30.4127 31.5673 30.6521 30.1205ZM31.502 29.4322C31.0536 29.6187 30.9108 29.8285 30.8562 30.0773C30.5209 31.6065 32.7541 33.7751 33.3754 33.7779C33.3977 33.778 33.4255 33.7309 33.4141 33.7133C33.0787 33.1959 32.693 32.7683 32.6536 32.5753C32.6497 32.5562 32.6748 32.5269 32.6934 32.5093C32.7093 32.4944 32.7639 32.4969 32.7941 32.5291C32.9729 32.7197 32.7429 32.5067 33.7128 33.7684C34.04 34.194 34.1092 34.2305 34.2691 34.3575C34.3169 34.3954 34.3784 34.3782 34.4136 34.3241C34.6073 34.0267 34.4284 33.934 34.0054 33.3423C33.3124 32.373 33.3222 32.3861 33.3344 32.3165C33.3397 32.2862 33.3847 32.229 33.4328 32.2533C33.505 32.2896 33.5053 32.3205 33.6265 32.4881C34.6679 33.9298 34.8181 34.1687 34.9608 34.0963C35.0058 34.0735 35.0341 34.0351 35.0382 33.9869C35.0693 33.6149 34.8155 33.1916 34.5755 32.8693C34.4303 32.6744 34.2834 32.4804 34.1134 32.3049C33.8767 32.0609 33.6801 31.7108 33.7236 31.4081C33.74 31.2941 33.7072 31.1878 33.6585 31.0828C33.5612 30.8728 33.5524 30.6869 33.4798 30.7371C33.4259 30.7743 33.3741 30.8147 33.3186 30.8492C33.0481 31.0173 32.7609 31.0477 32.4574 30.9547C32.2174 30.8811 31.7927 30.6121 31.9233 30.4853C32.0257 30.3859 32.2105 30.6672 32.4709 30.7594C32.7575 30.861 33.0243 30.8168 33.2707 30.6466C33.5549 30.4503 33.556 30.2226 33.6887 30.2709C33.8612 30.3337 33.6075 30.5662 33.8128 30.954C33.8321 30.9905 33.8755 31.0024 33.9062 30.9796C33.9812 30.9239 34.0555 30.8673 34.1315 30.8128C34.2425 30.7332 34.33 30.7226 34.3702 30.5561C34.4434 30.2522 34.3707 29.8853 34.0995 29.7346C33.3384 29.3117 32.6064 29.2237 32.0765 29.3118C31.8823 29.3372 31.6872 29.3551 31.502 29.4322ZM34.3984 31.0376C34.3715 30.9693 34.3064 30.9437 34.2731 30.9569C34.1005 31.0248 33.9323 31.1938 33.9227 31.3884C33.9024 31.798 34.0843 32.0274 34.4485 32.3858C34.52 32.4562 34.6597 32.3319 34.6576 32.1401C34.6517 31.6137 34.5776 31.4908 34.3984 31.0376Z"
            fill="#000E3F" />
        <path
            d="M18.5238 33.3453C18.3823 33.3457 18.2456 33.3155 18.1098 33.2802C18.0745 33.271 18.0455 33.2156 18.0595 33.1849C18.0717 33.1578 18.0827 33.1296 18.0981 33.1044C18.4837 32.4774 18.7051 31.5925 18.6784 31.0483C18.6702 30.8785 18.7442 30.7607 18.8747 30.6678C19.3659 30.3183 19.8338 30.3935 20.3195 30.7321C21.2783 31.4003 22.4237 31.1016 22.6612 31.1182C23.6177 31.1854 24.4321 31.4781 24.7042 31.6631C24.7313 31.6815 24.7312 31.757 24.7027 31.77C24.6484 31.7946 24.5947 31.8236 24.5375 31.8377C23.9633 31.9792 23.4018 32.1625 22.842 32.3514C21.5462 32.789 21.4302 32.9969 20.2566 33.2211C19.4406 33.377 19.1278 33.3439 18.5238 33.3453ZM18.9975 15.336C20.2494 15.336 20.5941 15.3585 21.93 15.7069C22.0669 15.7426 22.0609 15.8303 22.015 15.9338C21.9087 16.1741 21.7559 16.3846 21.5837 16.5803C20.036 18.3393 16.858 17.9428 15.9495 15.9138C15.9184 15.8441 15.9141 15.8146 15.9577 15.7507C16.016 15.6651 16.953 15.4861 17.0562 15.4681C17.8706 15.3253 18.1204 15.336 18.9975 15.336Z"
            fill="#FF967F" />
        <path
            d="M17.482 35.349C16.0488 35.5987 15.5217 35.5667 14.8838 35.5781C14.2932 35.5886 13.2327 35.3803 13.4213 34.7839C13.542 34.4024 13.9286 34.1474 14.3199 34.0673C14.5577 34.0186 16.2895 33.8957 17.6141 33.4203C18.2226 33.2019 18.3814 33.4742 19.3701 33.3626C20.9532 33.1839 20.9977 33.0434 21.6191 32.8618C21.676 32.8452 21.7441 32.8915 21.7526 32.9513C21.9495 34.3374 21.9791 34.0948 22.4655 35.3832C22.1904 35.4002 21.8871 35.3113 21.6051 35.2689C20.2216 35.061 18.8495 35.1108 17.482 35.349Z"
            fill="#FF967F" />
        <path
            d="M18.9897 29.3807C17.2685 29.3807 15.2116 28.9712 13.9417 28.0744C13.5634 27.8072 13.9026 27.9061 14.1701 26.028C14.3057 25.0762 14.2693 25.3629 14.285 25.0446C14.3378 23.9675 14.3378 25.2019 14.3369 23.2737C14.3369 23.2436 14.3401 23.2126 14.3343 23.1836C14.2597 22.8151 14.3287 22.4679 14.1916 21.874C14.1888 21.8619 14.1506 21.8544 14.1447 21.8669C14.1385 21.8799 13.8462 25.3689 10.4008 29.0996C10.2226 29.2925 10.1318 29.2727 9.41051 29.5847C7.12817 30.5719 7.48418 30.8192 7.07973 30.6397C6.07278 30.1926 5.04098 29.3407 4.57934 28.7544C4.37262 28.4919 6.55325 27.3576 9.68325 22.2103C10.2002 21.3601 12.5383 16.8223 15.6263 15.8354C15.9536 15.7308 15.7965 15.8617 16.2604 16.4616C17.614 18.2126 20.811 18.235 22.0398 15.9658C22.0968 15.8605 22.1194 15.8133 22.1973 15.8039C22.3907 15.7805 25.1942 16.6801 27.7741 21.3222C28.586 22.7832 29.8237 24.6464 31.1883 26.2971C33.192 28.7208 33.6558 28.519 33.3103 28.8612C32.7819 29.3844 32.6254 29.5591 32.2962 29.799C31.3881 30.4609 30.9739 30.5969 30.8803 30.6466C30.7628 30.709 30.6573 30.6995 30.5436 30.6221C30.0115 30.2598 29.4325 29.9819 28.8521 29.7092C28.0022 29.3101 27.8024 29.3479 27.5407 29.0662C26.0361 27.4469 24.4975 24.9604 24.0106 22.8215C23.7698 21.764 23.8732 21.6932 23.8343 21.5761C23.8282 21.5837 23.818 21.5906 23.8168 21.599C23.6126 22.9273 23.7183 22.899 23.6471 23.2101C23.6255 23.3043 23.6341 24.3769 23.6416 24.4119C23.7252 24.8027 23.5986 25.3109 24.0283 27.1732C24.1608 27.7475 24.2871 27.8301 24.1493 27.9722C23.6364 28.5011 21.5662 29.38 18.9897 29.38V29.3807Z"
            fill="#00D9A5" />
        <path
            d="M21.5491 31.1236C21.0335 31.097 20.6663 30.9358 20.3453 30.7101C19.7462 30.2888 19.1867 30.2916 18.6791 30.8356C18.5846 30.9369 18.7334 31.2413 18.5131 32.0463C18.3272 32.7251 18.1657 32.9235 18.0567 33.1202C17.9949 33.2315 17.9021 33.3016 17.7821 33.3394C15.7117 33.9913 14.9247 33.9223 14.4038 34.0197C14.1029 34.076 13.8255 34.1937 13.612 34.4202C13.4244 34.6193 13.4295 34.6655 13.0705 34.6781C12.766 34.7471 12.4517 34.7215 12.1452 34.7759C12.0377 34.7949 11.9253 34.7891 11.8152 34.7896C10.3635 34.797 10.2716 34.796 10.0742 34.7481C10.0454 34.741 10.0145 34.7409 9.98446 34.7404C9.70267 34.7365 9.42806 34.6788 9.15087 34.6369C7.84196 34.4392 6.00845 33.7949 5.97134 32.4715C5.96204 32.1399 6.0797 31.8649 6.28931 31.6211C8.12524 29.4857 13.8598 28.0754 14.1917 28.2738C15.8146 29.244 18.0499 29.357 18.3006 29.4074C18.3901 29.4255 19.1744 29.4199 19.4125 29.4185C19.8383 29.416 19.7695 29.3764 19.9503 29.37C20.9321 29.3352 22.6849 28.9318 23.7635 28.2844C23.8461 28.2347 23.9257 28.2256 24.0206 28.2444C26.2902 28.693 29.2216 29.5931 31.0417 31.0028C31.3634 31.252 31.7217 31.5732 31.9012 31.9518C32.1517 32.4802 32.1356 33.1381 31.6933 33.7352C30.7402 35.0223 28.566 35.4932 26.9728 35.6474C26.6935 35.6745 26.4123 35.6784 26.1349 35.711C25.5845 35.7758 25.0342 35.7438 24.4837 35.7444C24.4241 35.7445 24.3644 35.7321 24.3047 35.7259C23.5707 35.6491 24.3007 35.7752 22.9035 35.5671C22.2967 35.4767 21.9284 34.0847 21.8524 33.4923C21.7812 32.9362 21.7728 32.7881 21.9164 32.731C22.6846 32.426 23.473 32.135 24.7427 31.8088C24.9045 31.7672 24.8946 31.7675 24.9211 31.7343C24.94 31.7105 24.1872 31.3506 23.4374 31.1852C23.0505 31.1 22.2477 31.1596 21.5491 31.1236Z"
            fill="#156753" />
        <g opacity="0.25">
            <path
                d="M17.4561 29.2824C17.327 29.266 16.6032 29.1539 16.4868 29.0938C16.2807 28.9874 17.4747 28.9033 18.5493 28.4742C19.8442 27.9572 20.9879 26.9452 21.5668 25.6661C22.4417 23.7325 22.4069 21.174 24.1123 19.9477C24.8109 19.4454 24.8555 21.911 24.9164 22.7896C24.9759 23.6767 25.1682 24.6701 25.0998 25.5371C24.3343 24.7401 24.0154 23.0612 23.8616 22.0197C23.833 21.8263 23.8574 21.6273 23.8313 21.5797C23.7827 21.6556 23.4006 23.8785 23.8306 26.2643C23.8877 26.5813 24.4197 27.7833 24.0799 28.0393C22.2692 29.4034 19.7068 29.5703 17.4561 29.2824ZM12.7317 25.4297C12.845 24.8262 12.7013 23.3003 12.9438 21.5385C12.9646 21.3874 13.4797 19.7816 13.6635 19.9719C13.7938 20.1068 13.9946 20.9151 14.0613 21.224C14.1365 21.5726 14.176 21.6891 14.1013 22.1441C13.7873 24.0574 12.8514 25.6616 12.8243 25.6835C12.7782 25.7206 12.7379 25.6963 12.7323 25.6689C12.7188 25.6021 12.7234 25.4739 12.7317 25.4297Z"
                fill="#000E3F" />
        </g>
        <g opacity="0.5">
            <path
                d="M11.176 34.7908C10.4585 34.7908 10.296 34.7991 10.0964 34.7516C10.0901 34.7501 7.22431 34.6104 6.24462 33.2769C6.00416 32.9497 5.93775 32.5872 5.98798 32.1952C6.0008 32.0951 6.04236 32.003 6.0997 31.9187C6.25423 31.6916 6.62931 32.5716 8.14525 32.9214C9.33478 33.1958 10.5386 33.0197 11.7299 32.8685C13.716 32.6163 16.0281 32.2258 17.9526 33.0926C18.0053 33.1164 18.0093 33.2086 17.9572 33.2437C17.9079 33.2769 17.8569 33.3119 17.8014 33.3308C15.1184 34.2468 14.2899 33.702 13.6056 34.4258C13.4246 34.6173 13.4388 34.6662 13.0624 34.6791C12.7585 34.7529 12.4441 34.7243 12.137 34.7757C12.0013 34.7984 11.9339 34.7955 11.1759 34.7955L11.176 34.7908ZM24.2573 35.718C24.0455 35.667 24.474 35.7837 22.9745 35.5805C22.656 35.5374 22.4714 35.3151 22.3206 35.02C22.1093 34.6067 21.9705 34.1687 21.8916 33.7117C21.881 33.6508 21.9286 33.5897 21.991 33.5858C22.0609 33.5815 22.1328 33.5718 22.2008 33.5832C22.4079 33.6179 22.6185 33.6338 22.8204 33.6983C23.7363 33.9908 24.6238 34.3106 25.5932 34.3629C27.5678 34.4694 29.3679 33.708 30.7748 32.3568C31.3345 31.8192 31.3751 31.6332 31.5096 31.5272C31.5438 31.5004 31.61 31.5415 31.6392 31.5737C31.8964 31.8585 32.0513 32.1869 32.0574 32.5762C32.0606 32.7869 32.0693 32.9995 31.9832 33.1985C31.9237 33.3362 31.8666 33.4776 31.7862 33.603C30.4741 35.6505 26.236 35.6726 25.9384 35.7365C25.8769 35.7495 24.4539 35.7652 24.2573 35.718Z"
                fill="#00EBB2" />
        </g>
        <path
            d="M23.7558 33.2559C23.9904 34.3333 24.5013 35.1044 24.4949 35.0933C24.5489 35.1878 24.4304 35.287 24.3468 35.2167C23.6421 34.6207 23.2648 33.4743 23.4661 32.5843C23.4887 32.4845 23.6335 32.4913 23.6471 32.5923C23.6471 32.5922 23.7078 33.0288 23.7558 33.2559ZM15.8214 33.4113C15.7489 33.491 15.6191 33.4115 15.6569 33.3107C15.7203 33.1417 15.8194 32.902 15.8891 32.7254C16.5161 31.1061 16.4182 30.8354 16.5973 30.8927C16.7875 30.9535 16.6423 32.5086 15.8214 33.4113Z"
            fill="#FD8A02" />
        <path
            d="M33.4187 28.7079C33.3653 28.8018 33.4613 28.7075 33.0108 29.1698C32.1684 30.0343 31.3265 30.4163 30.8462 30.661C30.6592 30.7562 30.5912 30.6349 30.1295 30.3669C28.8291 29.6121 28.0813 29.4581 28.2484 29.3495C29.1665 28.7534 28.8927 29.095 30.6734 27.6419C31.3353 27.1017 31.5297 26.7492 31.6555 26.8642C32.1434 27.3103 31.3478 26.6267 33.344 28.5711C33.4233 28.6484 33.4057 28.6459 33.4187 28.7079ZM7.24251 30.6982C7.20641 30.6865 7.16641 30.6788 7.13118 30.6614C6.25915 30.2287 5.90563 30.0931 4.69454 28.8938C4.65219 28.8519 4.61673 28.8029 4.57962 28.756C4.55766 28.7282 4.55704 28.6675 4.57923 28.6431C4.85743 28.3361 5.28587 27.9657 6.16712 27.0075C6.21415 26.9564 6.26751 26.9109 6.31993 26.865C6.41032 26.7858 6.5454 26.9453 6.76649 27.1604C8.08094 28.4398 9.32407 29.0967 9.70321 29.327C9.75259 29.357 9.75024 29.4216 9.6997 29.4466C9.21876 29.6841 8.37899 30.0071 7.46173 30.6007C7.41977 30.6278 7.37743 30.6549 7.33259 30.6766C7.30673 30.6889 7.27548 30.6907 7.24251 30.6982ZM20.0163 19.6357C20.0163 20.3371 20.0814 22.4807 18.9075 22.3346C18.1343 22.2383 17.9588 20.8362 17.9582 20.228C17.9573 19.4063 17.9831 18.5889 18.0777 17.7731C18.0877 17.686 18.1398 17.645 18.2179 17.6547C19.123 17.7677 18.8513 17.7677 19.7668 17.6534C19.8306 17.6454 19.8828 17.6835 19.8935 17.7517C20.0362 18.6585 20.0131 19.2407 20.0131 19.6357H20.0163ZM20.8101 23.387C20.5701 23.8092 20.2754 24.201 19.9453 24.5603C19.6159 24.9207 19.2478 25.2457 18.8547 25.5361C18.4594 25.8237 18.0388 26.0768 17.5961 26.2829C17.1544 26.49 16.6924 26.654 16.2177 26.7576C16.1941 26.7626 16.1694 26.7586 16.1486 26.7464C16.1277 26.7341 16.1122 26.7145 16.1051 26.6914C16.098 26.6683 16.0998 26.6433 16.1101 26.6215C16.1205 26.5996 16.1386 26.5824 16.161 26.5733C16.6008 26.3954 17.0288 26.1994 17.4413 25.9758C17.8531 25.7512 18.2509 25.5031 18.6279 25.2259C19.007 24.9517 19.3647 24.6484 19.7039 24.3244C20.0424 23.9993 20.3588 23.6506 20.6607 23.2842C20.6752 23.2668 20.6957 23.2553 20.7182 23.2522C20.7408 23.2491 20.7636 23.2545 20.7823 23.2674C20.8011 23.2802 20.8143 23.2997 20.8194 23.3218C20.8246 23.3439 20.8212 23.3672 20.8101 23.387ZM20.6994 25.9476C20.5682 26.1188 20.4174 26.2716 20.2574 26.4135C19.8213 26.8049 19.1718 27.2012 18.5941 27.3553C18.572 27.3613 18.5485 27.3594 18.5277 27.3499C18.5068 27.3404 18.4899 27.3239 18.48 27.3033C18.47 27.2826 18.4676 27.2592 18.4731 27.2369C18.4786 27.2147 18.4918 27.1951 18.5102 27.1815C18.6792 27.0549 18.8515 26.9404 19.0232 26.8264L19.537 26.4857C20.0919 26.1194 20.3456 25.9479 20.5792 25.8118C20.5977 25.801 20.6193 25.797 20.6405 25.8004C20.6616 25.8038 20.6809 25.8144 20.6951 25.8304C20.7092 25.8464 20.7174 25.8668 20.7182 25.8882C20.719 25.9096 20.7123 25.9306 20.6994 25.9476Z"
            fill="#007E60" />
        <g opacity="0.65">
            <path
                d="M18.8928 33.345C18.4621 33.345 18.5734 33.365 18.1123 33.2807C18.0648 33.272 18.0416 33.2055 18.0669 33.1588C18.2079 32.8986 18.4574 32.5224 18.6185 31.7083C18.7035 31.279 18.6697 31.1264 18.6885 30.9329C18.6974 30.8408 18.7775 30.7992 18.8649 30.8447C19.6364 31.2472 19.6657 32.631 21.3324 32.7282C21.5592 32.7414 21.6281 32.7408 21.6228 32.7607C21.618 32.7786 21.6137 32.8047 21.6009 32.811C21.121 33.0455 20.4878 33.1978 19.9621 33.2734C19.6167 33.3232 19.2683 33.3729 18.8928 33.345Z"
                fill="#DB5E43" />
            <path
                d="M18.1354 33.3302C18.2072 33.3359 18.2778 33.3368 18.3467 33.3478C18.9947 33.4514 19.3931 33.3435 19.572 33.3391C20.0993 33.3264 21.0372 33.0925 21.5238 32.8888C21.6753 32.8254 21.7453 32.8796 21.7578 32.9714C21.8468 33.6311 21.9127 34.3127 22.2958 35.0189C22.3842 35.1817 22.398 35.1757 22.4691 35.3334C22.4837 35.3658 22.4438 35.4228 22.4085 35.4182C22.0971 35.3786 21.9358 35.3063 21.5835 35.2666C21.4668 35.2535 21.379 35.1962 21.3133 35.098C20.9195 34.5095 20.1886 34.3545 19.4442 34.1994C18.9006 34.0861 18.4135 34.009 18.0351 33.5455C17.9941 33.4953 17.9228 33.4375 17.9685 33.3635C18.0034 33.3073 18.079 33.337 18.1354 33.3302Z"
                fill="#DB5E43" />
        </g>
        <path
            d="M33.5489 28.6184C33.489 28.5433 32.4252 27.502 32.4188 27.4958C31.7399 26.8328 31.044 25.9244 30.8436 25.6818C29.971 24.625 29.1833 23.3891 28.8858 22.946C27.8236 21.3638 26.6372 18.5878 24.0897 16.6581C22.3842 15.3661 20.3421 15.1326 18.1874 15.2264C16.8632 15.284 15.5083 15.6173 14.3741 16.3187C11.7948 17.9137 10.0822 21.3739 9.20239 22.7755C7.48146 25.5173 5.40357 27.7355 5.07661 28.0002C4.91794 28.1287 4.46279 28.57 4.42286 28.6197C4.402 28.6457 4.39755 28.7037 4.41896 28.7334C5.26818 29.9065 6.90443 30.6864 6.95404 30.7151C6.98771 30.7345 6.99318 30.7919 6.96302 30.8207C6.64919 31.1202 6.79685 30.9093 6.28107 31.4533C6.15646 31.5847 6.06404 31.7398 5.97622 31.8984C5.81505 32.1897 5.82708 32.4994 5.88997 32.8059C5.97364 33.2136 6.33693 33.6025 6.66935 33.8426C6.9099 34.0165 7.17318 34.1574 7.44474 34.276C8.01763 34.5261 8.63154 34.6822 9.2481 34.778C9.93411 34.8848 10.6251 34.8861 11.3206 34.9087C11.9788 34.9301 13.002 34.8024 13.1674 34.8031C13.3362 34.8039 13.2185 35.1998 13.6018 35.4101C14.2291 35.7543 14.9229 35.7004 15.72 35.6915C16.3165 35.6848 18.3208 35.3203 18.7028 35.2875C20.2683 35.1533 21.6941 35.3289 22.5901 35.6057C25.7952 36.4069 32.904 35.4783 32.1276 32.2262C32.0582 31.9354 31.9025 31.6896 31.7076 31.4721C31.2582 30.9707 31.1815 30.9889 31.007 30.8159C30.9814 30.7905 30.9907 30.7291 31.024 30.711C31.9479 30.209 32.4482 29.9412 33.499 28.8342C33.5406 28.7904 33.6026 28.6857 33.5489 28.6184ZM16.0653 15.793C16.5751 15.6616 16.8036 15.5759 17.7421 15.4659C18.2319 15.4085 19.5376 15.3961 20.1108 15.4551C20.6116 15.5068 20.9648 15.528 21.9072 15.7931C21.946 15.8041 21.9653 15.853 21.9471 15.8902C21.6824 16.4322 21.1798 16.9123 20.689 17.1863C19.1038 18.0705 16.9094 17.5512 16.0297 15.8901C16.0097 15.8521 16.0261 15.803 16.0653 15.793ZM22.3024 35.2795C22.1667 35.3683 22.2201 35.1735 20.2916 35.029C18.5074 34.8953 17.4115 35.4435 15.2502 35.4992L15.2501 35.4955C14.7843 35.4955 14.0199 35.4837 13.6533 35.1933C13.2579 34.88 13.7243 34.2157 14.484 34.1307C17.4202 33.8019 17.744 33.3288 18.1844 33.4231C18.5711 33.5059 19.6108 33.5199 20.8009 33.213C21.4322 33.0502 21.6598 32.8987 21.6748 33.0138C21.6967 33.1823 21.7185 33.3509 21.7401 33.5195C21.885 34.6549 22.3579 35.2433 22.3024 35.2795ZM18.3004 32.9242C18.5261 32.4938 18.6571 32.0321 18.7395 31.556C18.7618 31.4271 18.764 31.0597 18.7657 30.9857C18.7672 30.9223 18.7923 30.8673 18.8379 30.8256C19.2735 30.4273 19.7833 30.4491 20.2355 30.7795C20.9753 31.3201 21.6562 31.2509 22.24 31.2427C22.7897 31.2351 23.2327 31.1716 24.1861 31.5262C24.2892 31.5645 24.3898 31.6097 24.4904 31.6545C24.5055 31.6612 24.5224 31.6834 24.5227 31.6987C24.523 31.7144 24.5072 31.739 24.4926 31.7448C24.4275 31.7703 24.3608 31.7925 24.2936 31.8123C23.9436 31.9151 22.964 32.171 21.7301 32.6727C21.6903 32.689 21.0676 33.0003 20.0924 33.1572C19.6739 33.2245 18.856 33.318 18.4779 33.2487C18.1581 33.1901 18.1273 33.2541 18.3004 32.9242ZM31.9045 32.1843C32.313 33.4777 31.049 34.4602 29.7815 34.9464C28.3221 35.5062 25.6076 35.8794 23.1987 35.5201C22.944 35.4821 22.8067 35.511 22.6256 35.3078C22.209 34.8404 21.961 33.8536 21.8971 33.1739C21.8622 32.803 21.8554 32.8451 22.1825 32.7161C22.9103 32.4292 23.6558 32.1949 24.4102 31.9876C27.2151 31.2171 28.0485 31.3889 28.0243 31.144C28.0177 31.0764 27.9214 31.0523 27.8571 31.0624C25.0804 31.4988 25.0847 31.7066 24.7944 31.567C23.1957 30.7985 22.3637 31.0742 21.7737 31.0578C21.3058 31.0448 20.8117 30.9374 20.4249 30.6619C20.0222 30.3751 19.5498 30.1978 19.1044 30.4126C18.9958 30.4651 18.8849 30.5152 18.7972 30.5991C18.6968 30.695 18.5865 30.6987 18.463 30.6605C16.6915 30.1124 11.8072 30.3036 11.216 30.6176C11.145 30.6553 11.1729 30.7722 11.2475 30.7721C11.4901 30.7717 11.63 30.7066 12.1676 30.6427C14.1064 30.4124 17.574 30.4919 18.4713 30.8833C18.5212 30.9051 18.5533 30.9461 18.5532 30.999C18.5515 31.7105 18.377 32.4849 17.9726 33.0816C17.9132 33.1691 17.8383 33.2282 17.739 33.26C17.2541 33.4156 16.6021 33.6216 15.6983 33.7602C14.6237 33.925 14.6639 33.8669 14.3298 33.9448C13.4855 34.1417 13.5658 34.5409 13.1688 34.5866C7.17794 35.2694 5.20833 32.9823 6.36857 31.6694C7.63739 30.2337 10.4433 29.2037 12.2968 28.7137C13.0629 28.5112 13.6954 28.3844 13.7886 28.3636C13.9913 28.3182 14.1858 28.3164 14.3514 28.4691C16.6854 29.7548 21.0331 29.9864 23.7802 28.3816C23.8542 28.3384 23.9239 28.3236 24.0084 28.3406C24.1752 28.3743 24.3452 28.3925 24.5112 28.4291C25.6158 28.6723 25.9468 28.7768 26.889 29.0724C27.9876 29.4171 29.4228 30.0254 30.4907 30.7151C31.0118 31.052 31.7186 31.5956 31.9045 32.1843ZM13.7441 28.0793C13.7657 28.1087 13.7586 28.1453 13.7304 28.1544C13.6734 28.173 13.6171 28.1958 13.5586 28.2071C11.9795 28.5124 10.9432 28.9378 10.7461 28.9473C10.7539 28.886 10.7858 28.837 10.8258 28.7921C11.7379 27.7655 12.7601 26.1938 13.2186 25.2007C14.1256 23.2359 14.0528 22.7357 14.1449 22.605C14.1496 22.61 14.1576 22.6145 14.1583 22.6201C14.317 23.717 14.244 25.7498 13.6403 27.8138C13.6044 27.9363 13.6822 27.9946 13.7441 28.0793ZM23.9315 26.0919C23.674 24.4351 23.7653 23.4526 23.8144 22.6198C23.8148 22.6137 23.8227 22.608 23.8272 22.6021C23.9005 22.6937 24.1658 25.0194 26.7078 28.2612C26.8746 28.4738 27.0556 28.6754 27.229 28.8829C27.2408 28.8969 27.2435 28.9186 27.2504 28.9367C27.2434 28.943 27.2349 28.9557 27.2298 28.9544C27.1529 28.9355 27.0752 28.9181 27 28.8936C25.2894 28.336 24.6874 28.2872 24.2441 28.156C24.2161 28.1477 24.2083 28.1095 24.228 28.0812C24.4929 27.6983 24.2365 28.055 23.9315 26.0919ZM33.1122 28.9322C32.3929 29.6955 31.6345 30.2128 30.8042 30.5812C30.6743 30.6388 30.6428 30.5608 30.3297 30.3756C28.6691 29.3937 27.9544 29.3487 27.6466 29.0411C26.8179 28.213 25.3428 26.1741 24.5915 24.3208C24.0408 22.9621 23.9988 22.2707 23.9386 21.922C23.9003 21.7002 23.9548 21.4874 23.9983 21.2709C24.0437 21.0442 24.0932 20.8178 24.1653 20.5979C24.3281 20.1015 24.3766 20.0459 24.3379 19.9691C24.0417 19.3809 22.9839 23.4046 23.9697 27.303C24.0065 27.4486 24.0458 27.5944 24.0975 27.7351C24.1367 27.842 24.0978 27.9101 24.0188 27.9687C21.6249 29.7437 16.4412 29.6687 14.089 28.0667C13.6616 27.7756 13.9866 27.8627 14.2513 26.096C14.5471 24.1215 14.4773 21.9337 13.8499 20.0714C13.828 20.0064 13.7741 19.9001 13.7002 19.9145C13.6763 19.9192 13.6536 19.9465 13.6375 19.9689C13.5615 20.0745 13.738 20.0924 14.0115 21.4445C14.1546 22.1522 13.6842 23.5949 13.4068 24.2651C12.8133 25.6987 12.0972 26.8664 11.1849 28.0326C10.5654 28.8246 10.3084 29.128 10.001 29.2437C8.97177 29.631 7.90154 30.1926 7.34161 30.5683C7.28755 30.6045 7.23341 30.6106 7.17208 30.5824C6.78896 30.4066 6.41404 30.2165 6.07341 29.9652C5.24677 29.3553 5.45161 29.5111 4.77966 28.8474C4.75154 28.8196 4.72904 28.7858 4.70513 28.7539C4.68497 28.727 4.68818 28.6687 4.71286 28.6412C5.02607 28.2933 7.38833 26.2459 9.87864 22.0676C10.3006 21.3595 10.7938 20.3643 11.861 18.9866C12.0142 18.7888 12.1864 18.6058 12.3429 18.4105C12.6322 18.0494 12.9605 17.7255 13.2985 17.4123C14.2007 16.5765 14.8922 16.2145 15.6429 15.9251C15.7283 15.8921 15.8022 15.9178 15.8523 15.9934C15.965 16.1634 15.9773 16.2614 16.348 16.7087C16.4572 16.8405 16.5931 16.9439 16.7261 17.0511C18.2715 18.2965 20.9048 18.0131 21.9858 16.2303C22.0428 16.1361 22.1023 16.0435 22.1643 15.9526C22.1884 15.9173 22.2336 15.9034 22.2719 15.9137C22.8083 16.0571 23.5172 16.4876 23.961 16.8139C24.6025 17.2855 25.4218 18.076 26.2943 19.225C27.3724 20.6447 27.8099 21.6834 28.8124 23.2133C29.3069 23.968 29.823 24.7077 30.3734 25.4224C32.2334 27.838 33.2617 28.5224 33.3074 28.7065C33.2633 28.8 33.1803 28.86 33.1122 28.9322Z"
            fill="#000E3F" />
        <path
            d="M18.9908 18.4023C18.8716 18.4023 18.7572 18.4497 18.6729 18.534C18.5886 18.6183 18.5413 18.7326 18.5413 18.8518C18.5413 18.971 18.5886 19.0854 18.6729 19.1697C18.7572 19.254 18.8716 19.3013 18.9908 19.3013C19.11 19.3013 19.2243 19.254 19.3086 19.1697C19.3929 19.0854 19.4403 18.971 19.4403 18.8518C19.4403 18.7326 19.3929 18.6183 19.3086 18.534C19.2243 18.4497 19.11 18.4023 18.9908 18.4023ZM18.9908 20.1873C18.9313 20.1866 18.8722 20.1976 18.817 20.2198C18.7618 20.2421 18.7115 20.275 18.6691 20.3169C18.6268 20.3587 18.5931 20.4085 18.5702 20.4634C18.5472 20.5183 18.5354 20.5772 18.5354 20.6368C18.5354 20.6963 18.5472 20.7552 18.5702 20.8101C18.5931 20.865 18.6268 20.9148 18.6691 20.9567C18.7115 20.9985 18.7618 21.0314 18.817 21.0537C18.8722 21.0759 18.9313 21.087 18.9908 21.0862C19.1089 21.0846 19.2217 21.0366 19.3048 20.9525C19.3878 20.8684 19.4343 20.7549 19.4343 20.6368C19.4343 20.5186 19.3878 20.4052 19.3048 20.321C19.2217 20.2369 19.1089 20.1889 18.9908 20.1873Z"
            fill="#000E3F" />
        <path
            d="M19.9496 15.0155C19.8491 15.0155 19.756 15.0059 19.6651 14.9863C19.4964 14.9496 19.4246 14.9015 19.4175 14.698C19.3798 13.6347 20.7219 11.5806 21.8308 11.3287C21.8645 11.3209 21.8991 11.3167 21.9337 11.3164C22.1001 11.3164 22.2131 11.4222 22.2433 11.6064C22.2503 11.6483 22.2577 11.6903 22.2652 11.7324C22.2951 11.9009 22.3261 12.0751 22.3228 12.251C22.296 13.6675 21.5507 14.7304 20.4239 14.9587C20.286 14.9869 20.1214 15.0155 19.9496 15.0155Z"
            fill="#DB5E43" />
        <path
            d="M21.9338 11.4266C22.0437 11.4266 22.1133 11.4923 22.1351 11.6247C22.1693 11.8317 22.217 12.0416 22.2131 12.2493C22.1844 13.7732 21.3553 14.6584 20.4023 14.8516C20.2529 14.8819 20.1019 14.906 19.9497 14.906C19.863 14.906 19.776 14.8982 19.6885 14.8792C19.5571 14.8508 19.5323 14.8354 19.5273 14.6946C19.4909 13.6659 20.824 11.6705 21.8553 11.4363C21.881 11.4301 21.9074 11.4269 21.9338 11.4266ZM21.9338 11.207C21.8934 11.207 21.8505 11.2121 21.8066 11.222C20.6586 11.4828 19.2689 13.6045 19.3078 14.7024C19.3173 14.9702 19.4427 15.0508 19.6419 15.094C19.7406 15.1153 19.8412 15.1258 19.9497 15.1258C20.1312 15.1258 20.3024 15.096 20.4459 15.067C21.6251 14.8279 22.4049 13.7236 22.4327 12.2536C22.4362 12.0669 22.4042 11.8873 22.3734 11.7136C22.366 11.672 22.3586 11.6305 22.3518 11.5891C22.313 11.3534 22.1529 11.207 21.9338 11.207Z"
            fill="#000E3F" />
        <path
            d="M17.8076 15.0055C17.1467 15.0055 16.5386 14.7034 16.0951 14.1549C15.5464 13.4763 15.3212 12.5145 15.5076 11.6448C15.5269 11.5545 15.5783 11.3145 15.8293 11.3145C15.8785 11.3145 15.9341 11.3239 15.9991 11.3433C16.9182 11.6175 18.2278 13.2771 18.3591 14.6639C18.3824 14.9108 18.2186 14.9705 18.1188 14.9841C18.0157 14.9983 17.9117 15.0054 17.8076 15.0055Z"
            fill="#DB5E43" />
        <path
            d="M15.8294 11.4237C15.8687 11.4237 15.9144 11.432 15.9678 11.4479C16.8219 11.7028 18.1222 13.3246 18.2499 14.6738C18.2616 14.7977 18.2201 14.859 18.1042 14.8748C18.006 14.8883 17.9069 14.8951 17.8077 14.8952C16.2512 14.8952 15.2938 13.1672 15.615 11.6672C15.651 11.4988 15.7112 11.4237 15.8294 11.4237ZM15.8294 11.2041C15.6744 11.2041 15.4741 11.2764 15.4002 11.6212C15.2072 12.5226 15.4408 13.5197 16.0098 14.2235C16.4745 14.7983 17.113 15.1149 17.8077 15.1149C17.915 15.1149 18.0247 15.1074 18.1339 15.0925C18.3666 15.0607 18.4916 14.8965 18.4686 14.6531C18.3337 13.2282 16.9808 11.521 16.0306 11.2375C15.9553 11.215 15.8894 11.2041 15.8294 11.2041Z"
            fill="#000E3F" />
        <path
            d="M17.3766 16.0648C17.4952 15.4893 17.5644 15.0291 17.6039 14.6832C17.6556 14.2362 17.6599 13.977 17.6687 13.9012C17.6709 13.887 17.6522 12.4307 18.4572 11.9046C19.2513 11.3852 20.0838 12.4307 20.0849 13.8991C20.0849 14.1297 20.1079 14.4054 20.1442 14.6898C20.2046 15.1763 20.3012 15.6914 20.3759 16.0648"
            fill="#FF967F" />
        <path opacity="0.35"
            d="M20.1443 14.6898C19.8324 15.1302 19.3799 15.408 18.8758 15.408C18.3695 15.408 17.9159 15.128 17.604 14.6832C17.6556 14.2362 17.66 13.977 17.6688 13.9012C17.671 13.887 17.6523 12.4307 18.4573 11.9046C19.2513 11.3852 20.0838 12.4307 20.0849 13.8991C20.085 14.1297 20.1081 14.4053 20.1443 14.6898Z"
            fill="#DB5E43" />
        <path
            d="M17.3766 16.1754C17.3603 16.1754 17.3442 16.1718 17.3295 16.1648C17.3147 16.1578 17.3018 16.1476 17.2915 16.1349C17.2811 16.1223 17.2738 16.1075 17.2699 16.0917C17.266 16.0758 17.2657 16.0593 17.269 16.0434C17.3717 15.545 17.4476 15.0834 17.4948 14.6714C17.531 14.3583 17.5437 14.1399 17.5512 14.0094C17.5545 13.9527 17.5569 13.9127 17.5596 13.8893C17.5645 13.5266 17.6408 12.3077 18.3972 11.8134C18.68 11.6284 18.993 11.6113 19.279 11.7658C19.826 12.0614 20.194 12.9189 20.1948 13.8997C20.1948 14.111 20.2144 14.3724 20.2532 14.6766C20.3006 15.0591 20.376 15.5062 20.4837 16.044C20.4894 16.0725 20.4835 16.1022 20.4674 16.1264C20.4512 16.1507 20.4261 16.1675 20.3976 16.1732C20.369 16.1789 20.3394 16.1731 20.3151 16.1569C20.2909 16.1408 20.2741 16.1157 20.2683 16.0871C20.1596 15.5439 20.0833 15.0915 20.0353 14.704C19.9954 14.3909 19.9751 14.1202 19.9751 13.8997C19.9745 13.0113 19.6454 12.2133 19.1746 11.9589C18.957 11.8414 18.7358 11.8541 18.5175 11.9971C17.8346 12.4434 17.7823 13.6535 17.7788 13.8916C17.7789 13.9008 17.7783 13.9099 17.7772 13.9189C17.7755 13.9354 17.7734 13.9713 17.7705 14.022C17.7628 14.1548 17.75 14.3771 17.713 14.6964C17.6652 15.1148 17.5882 15.5829 17.4841 16.0876C17.4791 16.1124 17.4656 16.1346 17.446 16.1506C17.4264 16.1666 17.4019 16.1754 17.3766 16.1754Z"
            fill="#000E3F" />
        <path
            d="M21.4187 11.0228C21.4187 11.4468 21.3168 11.9149 21.7131 11.9149C22.8895 11.9149 23.0627 10.2549 22.1363 10.2549C21.7399 10.2549 21.4187 10.5987 21.4187 11.0228ZM16.3338 11.0228C16.3338 11.4468 16.4357 11.9149 16.0394 11.9149C14.8631 11.9149 14.6898 10.2549 15.6163 10.2549C16.0125 10.2549 16.3338 10.5987 16.3338 11.0228Z"
            fill="#FF967F" />
        <g opacity="0.65">
            <path
                d="M22.1574 11.2586C21.9509 11.3896 21.8842 11.2997 21.926 11.2381C21.9949 11.1361 22.0842 11.0621 22.2206 10.8803C22.2896 10.7869 22.3246 10.6884 22.3856 10.7309C22.4652 10.7863 22.4148 11.0928 22.1574 11.2586ZM15.532 10.8803C15.6294 11.01 15.6817 11.0597 15.7211 11.1077C15.8058 11.2036 15.8341 11.2489 15.8266 11.2379C15.8562 11.2813 15.8182 11.3388 15.7667 11.3289C15.512 11.2792 15.2873 10.9964 15.3467 10.7605C15.3491 10.751 15.3542 10.7423 15.3614 10.7356C15.3685 10.7289 15.3775 10.7243 15.3872 10.7226C15.3968 10.7208 15.4068 10.7218 15.4159 10.7255C15.425 10.7292 15.4329 10.7355 15.4385 10.7435C15.4385 10.7435 15.5038 10.842 15.532 10.8803Z"
                fill="#DB5E43" />
        </g>
        <path
            d="M21.7132 12.0252C21.5915 12.0252 21.4943 11.9883 21.4246 11.9157C21.2816 11.7667 21.292 11.5107 21.303 11.2398C21.3059 11.168 21.3089 11.095 21.3089 11.0232C21.3089 10.5393 21.6801 10.1456 22.1364 10.1456C22.3565 10.1456 22.5399 10.2275 22.6669 10.3825C22.7779 10.5179 22.839 10.7054 22.839 10.9107C22.8389 11.4585 22.4178 12.0252 21.7132 12.0252ZM22.1364 10.3652C21.8012 10.3652 21.5285 10.6604 21.5285 11.0232C21.5285 11.0979 21.5254 11.1739 21.5224 11.2486C21.5138 11.4618 21.5049 11.6821 21.5831 11.7636C21.5931 11.7739 21.6234 11.8055 21.7132 11.8055C22.3017 11.8055 22.6193 11.3444 22.6193 10.9106C22.6193 10.7561 22.5759 10.6179 22.497 10.5216C22.4119 10.4179 22.2906 10.3652 22.1364 10.3652ZM16.0394 12.0252C15.3347 12.0252 14.9137 11.4585 14.9137 10.9106C14.9137 10.7054 14.9749 10.5178 15.0859 10.3824C15.2128 10.2274 15.3963 10.1455 15.6164 10.1455C16.0726 10.1455 16.4438 10.5393 16.4438 11.0232C16.4438 11.095 16.4468 11.1679 16.4497 11.2397C16.4607 11.5107 16.4712 11.7666 16.3281 11.9157C16.2583 11.9883 16.1612 12.0252 16.0394 12.0252ZM15.6164 10.3652C15.4621 10.3652 15.3408 10.4178 15.2558 10.5216C15.1769 10.6179 15.1335 10.756 15.1335 10.9106C15.1335 11.3444 15.451 11.8055 16.0396 11.8055C16.1295 11.8055 16.1598 11.7739 16.1698 11.7636C16.248 11.6821 16.2391 11.4618 16.2304 11.2486C16.2269 11.1735 16.2248 11.0984 16.2243 11.0232C16.2241 10.6604 15.9515 10.3652 15.6164 10.3652Z"
            fill="#000E3F" />
        <path
            d="M21.2806 13.0715C20.9058 13.681 20.0199 14.553 18.8872 14.5663H18.8653C17.7326 14.553 16.8467 13.681 16.4719 13.0715C15.7858 11.9556 15.941 9.74039 16.4459 8.67953C16.9342 7.65375 17.8149 7.11008 18.8653 7.08703C18.8694 7.08594 18.8726 7.08594 18.8768 7.08594C18.8799 7.08594 18.884 7.08594 18.8872 7.08703C19.9376 7.11008 20.8183 7.65375 21.3066 8.67953C21.8115 9.74039 21.9666 11.9556 21.2806 13.0715Z"
            fill="#FF967F" />
        <path
            d="M19.6925 9.56839C19.6943 9.0141 20.9778 9.27465 20.8473 9.79574C20.7366 10.2379 19.6911 9.99347 19.6925 9.56839ZM18.0599 9.56839C18.0581 9.0141 16.7746 9.27465 16.9051 9.79574C17.0158 10.2379 18.0613 9.99347 18.0599 9.56839Z"
            fill="#DB5E43" />
        <g opacity="0.65">
            <path
                d="M20.5359 11.2939C20.1518 11.2939 19.8391 11.5495 19.8391 11.8637C19.8391 12.1779 20.1518 12.4334 20.5359 12.4334C20.9202 12.4334 21.2329 12.1779 21.2329 11.8637C21.2329 11.5495 20.9202 11.2939 20.5359 11.2939ZM17.226 11.2939C16.8417 11.2939 16.5291 11.5495 16.5291 11.8637C16.5291 12.1779 16.8417 12.4334 17.226 12.4334C17.6101 12.4334 17.9228 12.1779 17.9228 11.8637C17.9228 11.5495 17.6102 11.2939 17.226 11.2939Z"
                fill="#DB5E43" />
        </g>
        <path
            d="M21.4058 8.63309C20.9101 7.59192 20.0183 7.00426 18.8941 6.97809C18.8807 6.97653 18.8733 6.97559 18.8542 6.97817C17.7319 7.00575 16.8417 7.59317 16.3468 8.63309C15.8606 9.65473 15.6311 11.9144 16.3784 13.1298C16.7276 13.6977 17.6442 14.6627 18.8653 14.6768H18.8885C20.1084 14.6627 21.025 13.6977 21.3742 13.1298C22.1214 11.9143 21.892 9.65465 21.4058 8.63309ZM21.1871 13.0147C20.8614 13.5443 20.0102 14.444 18.8872 14.4571H18.8666C17.7424 14.444 16.8912 13.5443 16.5655 13.0147C15.9221 11.9682 16.0283 9.81356 16.5452 8.72739C17.0038 7.76364 17.8287 7.22028 18.8677 7.19747C18.8706 7.19747 18.8735 7.19723 18.8763 7.197C18.8791 7.19723 18.882 7.19739 18.8849 7.19747C19.924 7.22036 20.7489 7.76364 21.2075 8.72739C21.7244 9.81348 21.8305 11.968 21.1871 13.0147Z"
            fill="#000E3F" />
        <path
            d="M20.586 10.3033C20.5253 10.3033 20.4762 10.3525 20.4762 10.4131C20.4762 10.6617 20.3238 10.7863 20.1822 10.7969C20.0481 10.8073 19.8794 10.7197 19.8377 10.4418C19.8333 10.413 19.8177 10.3871 19.7943 10.3698C19.7709 10.3525 19.7415 10.3452 19.7127 10.3495C19.6839 10.3539 19.658 10.3695 19.6407 10.3929C19.6234 10.4163 19.6161 10.4457 19.6204 10.4745C19.6774 10.8537 19.9268 11.0174 20.1612 11.0174C20.1737 11.0174 20.1862 11.017 20.1985 11.016C20.4458 10.9975 20.6959 10.7845 20.6959 10.4131C20.6959 10.3524 20.6467 10.3033 20.586 10.3033ZM18.0396 10.3496C18.0253 10.3474 18.0108 10.3481 17.9968 10.3516C17.9828 10.3551 17.9696 10.3613 17.958 10.3698C17.9464 10.3784 17.9366 10.3892 17.9292 10.4015C17.9218 10.4139 17.9168 10.4276 17.9147 10.4418C17.8729 10.72 17.7027 10.8063 17.5703 10.7969C17.4287 10.7863 17.2763 10.6617 17.2763 10.4131C17.2763 10.384 17.2648 10.356 17.2442 10.3354C17.2236 10.3148 17.1956 10.3033 17.1665 10.3033C17.1374 10.3033 17.1094 10.3148 17.0888 10.3354C17.0682 10.356 17.0566 10.384 17.0566 10.4131C17.0566 10.7845 17.3067 10.9975 17.5539 11.016C17.5663 11.0169 17.5787 11.0174 17.5913 11.0174C17.8255 11.0174 18.0749 10.8537 18.132 10.4745C18.1363 10.4457 18.129 10.4163 18.1117 10.3929C18.0943 10.3695 18.0684 10.3539 18.0396 10.3496ZM19.589 12.0575C19.5295 12.0458 19.4718 12.0847 19.4602 12.1443C19.4067 12.4186 19.1615 12.6167 18.8762 12.6167H18.8728C18.5894 12.615 18.3452 12.4165 18.2923 12.1444C18.2895 12.1303 18.284 12.1168 18.276 12.1048C18.2681 12.0928 18.2578 12.0824 18.2459 12.0744C18.2339 12.0663 18.2205 12.0607 18.2064 12.0578C18.1922 12.0549 18.1777 12.0549 18.1635 12.0576C18.1494 12.0604 18.1359 12.0659 18.1239 12.0739C18.1118 12.0818 18.1015 12.0921 18.0935 12.104C18.0854 12.116 18.0798 12.1294 18.0769 12.1435C18.074 12.1577 18.074 12.1722 18.0767 12.1864C18.1495 12.5608 18.4838 12.8342 18.8716 12.8364H18.8762C19.2663 12.8364 19.6023 12.5636 19.6757 12.1864C19.6785 12.1722 19.6784 12.1577 19.6756 12.1435C19.6727 12.1294 19.6671 12.116 19.659 12.104C19.651 12.092 19.6407 12.0818 19.6286 12.0738C19.6166 12.0658 19.6031 12.0603 19.589 12.0575ZM18.9612 11.8397C18.9904 11.8397 19.0183 11.8281 19.0389 11.8075C19.0595 11.7869 19.0711 11.7589 19.0711 11.7298C19.0711 11.7007 19.0595 11.6727 19.0389 11.6521C19.0183 11.6315 18.9904 11.62 18.9612 11.62C18.8496 11.62 18.6077 11.5641 18.547 11.4729C18.5364 11.4568 18.5288 11.4365 18.5456 11.3965L18.98 10.3691C18.9899 10.3426 18.9892 10.3132 18.978 10.2872C18.9668 10.2611 18.946 10.2404 18.9199 10.2294C18.8938 10.2184 18.8644 10.2178 18.8379 10.2279C18.8115 10.238 18.7899 10.2579 18.7777 10.2835L18.3431 11.3115C18.2895 11.4383 18.3249 11.5352 18.3639 11.5942C18.4991 11.798 18.8695 11.8397 18.9612 11.8397Z"
            fill="#000E3F" />
        <path
            d="M21.9211 10.6936C21.7868 10.6936 21.6849 10.5916 21.6185 10.3904C21.5017 10.0374 21.3487 9.6691 21.0228 9.36691C20.6071 8.9816 20.2251 8.80449 19.8559 8.63316C19.6451 8.53543 19.446 8.44309 19.2453 8.31621C19.1868 8.27954 19.1297 8.24079 19.074 8.20004C19.1903 8.4941 19.3516 8.74551 19.4411 8.88504C19.4685 8.92777 19.4901 8.96152 19.5033 8.9848C19.5742 9.10949 19.5542 9.19574 19.5247 9.24613C19.4946 9.29793 19.427 9.35965 19.2761 9.35965C18.8685 9.35965 18.0107 8.89902 17.6565 7.98121C17.5828 8.17254 17.4482 8.50348 17.1516 8.87879C16.9946 9.07746 16.8768 9.20598 16.773 9.31934C16.5634 9.54824 16.3978 9.72902 16.0244 10.3629C15.9614 10.4697 15.8501 10.5311 15.7191 10.5311C15.5227 10.5311 15.2477 10.3846 15.119 9.97215C14.5223 8.05707 15.0786 6.89395 15.4633 6.37105C15.8943 5.78512 16.53 5.43535 17.1636 5.43535C17.4271 5.43535 17.6793 5.49387 17.9134 5.60926C18.0917 5.69723 18.2021 5.78426 18.2752 5.84176C18.2977 5.85957 18.3245 5.88066 18.3416 5.89145C18.3449 5.88846 18.348 5.88536 18.3511 5.88215C18.7555 5.46629 19.3114 5.2373 19.9168 5.2373C20.778 5.2373 21.6488 5.6991 22.1894 6.44254C22.8448 7.34387 22.9756 8.5502 22.5579 9.83957C22.5296 9.92699 22.2711 10.6936 21.9214 10.6937L21.9211 10.6936Z"
            fill="#DB5E43" />
        <g opacity="0.45">
            <path
                d="M19.3275 6.44977C19.2718 6.37273 19.1524 6.4443 19.1942 6.52961C19.7251 7.61484 20.97 7.37453 21.9139 9.72484C21.9216 9.74398 21.9362 9.75956 21.9547 9.76858C21.9732 9.77759 21.9945 9.77938 22.0143 9.7736C22.0341 9.76782 22.051 9.75489 22.0618 9.73731C22.0726 9.71974 22.0764 9.69878 22.0726 9.67852C22.0031 9.31766 21.8814 8.96258 21.7033 8.63398C20.9365 7.20938 19.9095 7.25273 19.3275 6.44977ZM17.1184 6.15711L17.1197 6.15648C17.2045 6.11711 17.1599 5.9882 17.0689 6.00977C16.1105 6.23625 15.081 7.91734 15.454 9.47602C15.4589 9.49604 15.471 9.51354 15.4881 9.52511C15.5051 9.53669 15.5259 9.5415 15.5463 9.53863C15.5667 9.53576 15.5853 9.5254 15.5985 9.50957C15.6117 9.49373 15.6185 9.47356 15.6177 9.45297C15.6053 9.12938 15.6307 8.80992 15.6871 8.49789C15.8412 7.68273 16.3663 6.50648 17.1184 6.15711ZM19.546 6.0568L19.5477 6.05703C20.9981 6.29367 21.6476 6.7643 21.9303 8.24711C21.9239 8.23609 21.9406 8.3132 22.0094 8.31555C22.0553 8.31711 22.0937 8.28117 22.0953 8.23531C22.1464 6.72133 21.0808 5.80336 19.5536 5.90172C19.4612 5.90766 19.4549 6.04195 19.546 6.0568ZM18.0202 6.88922C17.9732 6.68938 17.9078 6.30914 17.9078 6.30914C17.8926 6.22281 17.7678 6.2225 17.7525 6.30914C17.6078 7.12813 17.9586 8.10508 18.645 8.55727C18.7232 8.60859 18.8145 8.5118 18.7579 8.4368C18.7662 8.44773 18.2629 7.89406 18.0202 6.88922Z"
                fill="#000E3F" />
            <path
                d="M17.0877 6.81505C16.3559 7.41349 16.188 8.65716 16.3796 8.71943C16.5173 8.76412 16.5051 8.53279 16.6355 8.2099C17.0351 7.06709 17.2843 6.92982 17.1995 6.82623C17.1862 6.80994 17.1669 6.79962 17.1459 6.79752C17.125 6.79543 17.104 6.80173 17.0877 6.81505ZM18.5947 6.23677C18.4073 6.16365 18.3387 6.8592 18.6883 7.34349L18.6891 7.34459C18.703 7.36373 18.7244 7.37724 18.7498 7.38045C19.0037 7.41201 18.7416 6.52279 18.6412 6.28232C18.637 6.27196 18.6307 6.26258 18.6226 6.25475C18.6146 6.24692 18.6051 6.2408 18.5947 6.23677Z"
                fill="#000E3F" />
        </g>
        <path
            d="M19.9166 5.34656C21.5491 5.34656 23.3413 7.06445 22.4533 9.80516C22.3294 10.1877 22.106 10.5833 21.9212 10.5833C21.8453 10.5833 21.776 10.5167 21.7226 10.3553C21.5854 9.94023 21.416 9.58109 21.0973 9.28578C20.4339 8.67086 19.8538 8.57039 19.3039 8.22281C18.9302 7.98672 18.9465 7.9018 18.8872 7.9018C18.8812 7.9018 18.8747 7.90258 18.8668 7.90422C18.9869 8.43961 19.3343 8.9093 19.4078 9.03859C19.487 9.17812 19.4212 9.2493 19.2761 9.2493C18.9059 9.2493 18.0198 8.78562 17.713 7.80961C17.7037 7.78023 17.6908 7.74375 17.659 7.74344H17.6588C17.5791 7.74344 17.5394 8.21031 17.0653 8.81016C16.5943 9.40609 16.4941 9.34836 15.9296 10.3066C15.8857 10.3811 15.8082 10.4206 15.7189 10.4206C15.5455 10.4206 15.3274 10.2714 15.2237 9.93875C14.3757 7.21766 15.8108 5.54477 17.1633 5.54453C17.4043 5.54453 17.6423 5.5975 17.8646 5.70711C18.1749 5.86016 18.2617 6.00602 18.3449 6.00602C18.3712 6.00602 18.3971 5.99148 18.4296 5.95812C18.8348 5.54164 19.3666 5.34656 19.9166 5.34656ZM19.9166 5.12695C19.3105 5.12695 18.7512 5.34617 18.3318 5.74617C18.2551 5.68586 18.1415 5.59891 17.9619 5.51031C17.7137 5.38768 17.4405 5.32427 17.1637 5.32508C16.495 5.32516 15.8262 5.69188 15.3745 6.30586C14.9776 6.84539 14.403 8.04336 15.0141 10.0044C15.1605 10.4739 15.4853 10.6405 15.719 10.6405C15.8873 10.6405 16.0369 10.5575 16.1189 10.4184C16.4865 9.79445 16.6486 9.61742 16.8538 9.39328C16.959 9.27852 17.0781 9.14844 17.2376 8.94656C17.4057 8.7351 17.5474 8.50404 17.6598 8.25844C18.0894 9.09938 18.8994 9.46922 19.2761 9.46922C19.4899 9.46922 19.5831 9.36391 19.6197 9.30109C19.6555 9.23945 19.7005 9.10938 19.5988 8.93031C19.5779 8.89488 19.5561 8.85993 19.5336 8.82547C19.4837 8.74766 19.4107 8.63398 19.3364 8.49773C19.4948 8.58641 19.6543 8.66039 19.8098 8.7325C20.1713 8.90016 20.5451 9.07359 20.9481 9.44711C21.1968 9.67766 21.3608 9.96078 21.5141 10.4245C21.6176 10.7375 21.7926 10.8032 21.9212 10.8032C22.3292 10.8032 22.5916 10.0913 22.6623 9.87313C23.0912 8.54945 22.9547 7.30805 22.278 6.37758C21.7172 5.60609 20.8123 5.12695 19.9166 5.12695Z"
            fill="#000E3F" />
        <path
            d="M38.0292 35.3427L38.7846 34.9475C38.8084 34.9351 38.8348 34.9286 38.8616 34.9287C38.8884 34.9287 38.9148 34.9353 38.9385 34.9478L39.6922 35.3461C39.8134 35.4101 39.9553 35.3074 39.9324 35.1723L39.7901 34.3318C39.7856 34.3054 39.7877 34.2783 39.796 34.2528C39.8043 34.2273 39.8188 34.2042 39.838 34.1856L40.4497 33.5918C40.5481 33.4963 40.4942 33.3296 40.3587 33.3096L39.5153 33.1853C39.4888 33.1814 39.4636 33.1711 39.442 33.1553C39.4203 33.1395 39.4028 33.1186 39.391 33.0946L39.0153 32.3293C38.9549 32.2063 38.7797 32.206 38.7189 32.3287L38.34 33.0924C38.328 33.1164 38.3105 33.1371 38.2888 33.1529C38.267 33.1686 38.2418 33.1787 38.2153 33.1825L37.3714 33.3034C37.2357 33.3228 37.1812 33.4893 37.2791 33.5852L37.8883 34.1815C37.9272 34.2196 37.9449 34.2743 37.9356 34.3279L37.7897 35.1678C37.7663 35.3029 37.9078 35.4062 38.0292 35.3427ZM2.8869 6.59385L3.45002 6.09369C3.46772 6.07795 3.48898 6.06676 3.51197 6.06108C3.53496 6.05541 3.55899 6.05542 3.58198 6.06111L4.31323 6.2415C4.43073 6.27049 4.53057 6.15213 4.48206 6.04119L4.18041 5.35111C4.17091 5.32941 4.16683 5.30572 4.16854 5.28209C4.17024 5.25846 4.17767 5.2356 4.19018 5.21549L4.58768 4.5758C4.65159 4.47299 4.56979 4.3415 4.44932 4.35338L3.69979 4.42697C3.67622 4.42927 3.65245 4.42582 3.63051 4.41691C3.60858 4.40799 3.58913 4.39389 3.57385 4.3758L3.0883 3.80002C3.01026 3.70752 2.85995 3.74463 2.83401 3.86283L2.67237 4.59846C2.66729 4.62159 2.65667 4.64314 2.64141 4.66126C2.62615 4.67937 2.60672 4.69351 2.58479 4.70244L1.88721 4.98635C1.7751 5.03197 1.76393 5.18635 1.86838 5.2476L2.51807 5.62861C2.55955 5.65291 2.58635 5.69611 2.58987 5.74408L2.64432 6.49525C2.65299 6.61596 2.79635 6.67424 2.8869 6.59385ZM1.7551 13.2385L2.31143 12.8967C2.32892 12.886 2.34876 12.8797 2.36925 12.8783C2.38973 12.8769 2.41024 12.8805 2.42901 12.8888L3.02596 13.1533C3.1219 13.1958 3.22502 13.1099 3.20034 13.0078L3.04713 12.3731C3.04232 12.3532 3.04244 12.3324 3.04746 12.3124C3.05248 12.2925 3.06226 12.2741 3.07596 12.2588L3.51198 11.7728C3.58205 11.6947 3.53213 11.5701 3.42752 11.562L2.77659 11.5116C2.75612 11.51 2.73635 11.5034 2.71897 11.4925C2.70159 11.4816 2.68712 11.4666 2.67682 11.4488L2.34932 10.884C2.29666 10.7932 2.16276 10.8022 2.12276 10.8992L1.87362 11.5028C1.86579 11.5217 1.85346 11.5385 1.8377 11.5517C1.82194 11.5648 1.80322 11.5739 1.78315 11.5782L1.14471 11.7151C1.04213 11.7371 1.00924 11.8672 1.08916 11.9353L1.58612 12.3588C1.61784 12.3858 1.63424 12.4267 1.62995 12.4681L1.56291 13.1176C1.55205 13.222 1.66565 13.2935 1.7551 13.2385ZM9.3876 6.60525L9.94393 6.26346C9.96142 6.25272 9.98127 6.24639 10.0017 6.24501C10.0222 6.24364 10.0427 6.24726 10.0615 6.25557L10.6585 6.52002C10.7544 6.56252 10.8574 6.47658 10.8328 6.37455L10.6796 5.73986C10.6748 5.7199 10.6749 5.69907 10.6799 5.67916C10.685 5.65925 10.6948 5.64086 10.7085 5.62557L11.1445 5.13955C11.2146 5.06143 11.1646 4.93682 11.06 4.92877L10.4091 4.8783C10.3886 4.87672 10.3688 4.87018 10.3515 4.85925C10.3341 4.84832 10.3196 4.83333 10.3093 4.81557L9.98182 4.25072C9.92916 4.15994 9.79526 4.16893 9.75526 4.26596L9.50612 4.86947C9.49827 4.88844 9.48595 4.90523 9.47019 4.91839C9.45443 4.93155 9.43572 4.94069 9.41565 4.94502L8.77721 5.08189C8.67455 5.10393 8.64174 5.234 8.72166 5.30205L9.21862 5.72549C9.25034 5.75252 9.26674 5.79338 9.26245 5.83486L9.19541 6.48432C9.18456 6.58877 9.29815 6.66018 9.3876 6.60525ZM31.7616 38.6739L32.3179 38.3321C32.3354 38.3213 32.3553 38.315 32.3757 38.3136C32.3962 38.3122 32.4167 38.3159 32.4355 38.3242L33.0324 38.5886C33.1284 38.6311 33.2314 38.5452 33.2068 38.4431L33.0536 37.8084C33.0488 37.7884 33.0489 37.7676 33.0539 37.7477C33.059 37.7278 33.0687 37.7094 33.0824 37.6941L33.5185 37.2081C33.5885 37.1299 33.5386 37.0053 33.434 36.9972L32.7831 36.9467C32.7626 36.9452 32.7428 36.9386 32.7254 36.9277C32.7081 36.9168 32.6936 36.9018 32.6833 36.884L32.3558 36.3192C32.3032 36.2284 32.1692 36.2374 32.1292 36.3344L31.8801 36.9379C31.8723 36.9569 31.8599 36.9737 31.8442 36.9868C31.8284 36.9999 31.8097 37.0091 31.7896 37.0134L31.1512 37.1503C31.0485 37.1723 31.0157 37.3024 31.0957 37.3705L31.5926 37.7939C31.6243 37.821 31.6407 37.8619 31.6364 37.9033L31.5694 38.5528C31.5585 38.6574 31.6721 38.7289 31.7616 38.6739ZM37.2631 28.9479L37.8194 28.606C37.8369 28.5953 37.8567 28.589 37.8772 28.5876C37.8977 28.5862 37.9182 28.5898 37.937 28.5981L38.5339 28.8627C38.6299 28.9052 38.7329 28.8192 38.7083 28.7171L38.5551 28.0824C38.5503 28.0625 38.5504 28.0416 38.5554 28.0217C38.5605 28.0018 38.5702 27.9834 38.5839 27.9681L39.02 27.4821C39.09 27.404 39.0401 27.2794 38.9355 27.2713L38.2845 27.2209C38.264 27.2193 38.2442 27.2128 38.2268 27.2018C38.2095 27.1909 38.195 27.1759 38.1847 27.1581L37.8572 26.5933C37.8046 26.5025 37.6707 26.5115 37.6307 26.6085L37.3815 27.2121C37.3737 27.231 37.3614 27.2478 37.3456 27.261C37.3298 27.2741 37.3111 27.2832 37.291 27.2875L36.6526 27.4244C36.55 27.4464 36.5171 27.5765 36.5971 27.6446L37.0941 28.0681C37.1258 28.0951 37.1422 28.136 37.1379 28.1774L37.0709 28.8269C37.06 28.9313 37.1736 29.0028 37.2631 28.9479Z"
            fill="#FD8A02" />
    </g>
    <defs>
        <clipPath id="clip0_11_2291">
            <rect width="40" height="40" fill="white" transform="translate(0.5 0.5)" />
        </clipPath>
    </defs>
</svg>
