<svg width="21" height="20" viewBox="0 0 21 20" fill="none" xmlns="http://www.w3.org/2000/svg">
    <path
        d="M12.3067 4.16667C12.3067 3.25 11.5567 2.5 10.64 2.5C9.72334 2.5 8.97334 3.25 8.97334 4.16667C8.97334 5.08333 9.72334 5.83333 10.64 5.83333C11.5567 5.83333 12.3067 5.08333 12.3067 4.16667Z"
        stroke="#656464" />
    <path
        d="M12.3067 15.8337C12.3067 14.917 11.5567 14.167 10.64 14.167C9.72334 14.167 8.97334 14.917 8.97334 15.8337C8.97334 16.7503 9.72334 17.5003 10.64 17.5003C11.5567 17.5003 12.3067 16.7503 12.3067 15.8337Z"
        stroke="#656464" />
    <path
        d="M12.3067 9.99967C12.3067 9.08301 11.5567 8.33301 10.64 8.33301C9.72334 8.33301 8.97334 9.08301 8.97334 9.99967C8.97334 10.9163 9.72334 11.6663 10.64 11.6663C11.5567 11.6663 12.3067 10.9163 12.3067 9.99967Z"
        stroke="#656464" />
</svg>
