<svg width="56" height="53" viewBox="0 0 56 53" fill="none" xmlns="http://www.w3.org/2000/svg">
    <path fill-rule="evenodd" clip-rule="evenodd"
        d="M11.9624 37.7399C11.9624 33.5611 21.2851 30.1763 32.7886 30.1763C44.2921 30.1763 53.6179 33.5609 53.6179 37.7399V44.689C53.6179 48.8679 44.2921 52.2527 32.7886 52.2527C21.2851 52.2527 11.9624 48.868 11.9624 44.689V37.7399Z"
        fill="#FE9923" />
    <path fill-rule="evenodd" clip-rule="evenodd"
        d="M32.7886 30.1763C44.292 30.1763 53.6179 33.5609 53.6179 37.7399C53.6179 41.9156 44.2921 45.3036 32.7886 45.3036C21.2851 45.3036 11.9624 41.9158 11.9624 37.7399C11.9624 33.5611 21.2851 30.1763 32.7886 30.1763Z"
        fill="#FECD3D" />
    <path fill-rule="evenodd" clip-rule="evenodd"
        d="M32.7885 30.1763C36.2899 30.1763 39.5903 30.4883 42.4856 31.0429V31.5441C42.4856 35.7229 33.1597 39.1077 21.6594 39.1077C18.1765 39.1077 14.8947 38.7989 12.0088 38.2505C11.978 38.0821 11.9625 37.9112 11.9624 37.7399C11.9623 33.5611 21.285 30.1763 32.7885 30.1763Z"
        fill="#CEA732" />
    <path fill-rule="evenodd" clip-rule="evenodd"
        d="M32.7883 33.709C41.9409 33.709 49.3583 35.5148 49.3583 37.7397C49.3583 39.9648 41.9409 41.7674 32.7883 41.7674C23.6388 41.7674 16.2183 39.9647 16.2183 37.7397C16.2183 35.5148 23.6387 33.709 32.7883 33.709Z"
        fill="#FEA832" />
    <path fill-rule="evenodd" clip-rule="evenodd"
        d="M32.7883 33.709C35.8195 33.709 38.6621 33.9076 41.1088 34.2542C38.1054 37.0937 30.5303 39.1075 21.6591 39.1075C20.0321 39.1075 18.4515 39.0413 16.9328 38.9122C16.4688 38.5403 16.2183 38.1464 16.2183 37.7398C16.2183 35.5148 23.6387 33.709 32.7883 33.709Z"
        fill="#CE8829" />
    <path
        d="M47.985 46.1609V49.8607C48.6253 49.6117 49.2223 49.3502 49.7667 49.0697V46.1577L47.985 46.1609ZM43.3298 51.2128C42.7393 51.3385 42.1463 51.452 41.5513 51.5532V48.0267L43.3298 48.0299V51.2128ZM36.8961 52.1046C36.3115 52.1487 35.7176 52.1802 35.1175 52.2055V48.8396L36.8961 48.8459V52.1046ZM30.4623 52.2055C29.8591 52.1802 29.2652 52.1487 28.6807 52.1046V48.8428H30.4623V52.2055ZM24.0255 51.5531C23.4304 51.4519 22.8374 51.3384 22.2469 51.2127V48.0265L24.0255 48.0296V51.5531ZM17.5917 49.8608C16.9514 49.6118 16.3544 49.3503 15.8101 49.0698V46.161L17.5917 46.1578V49.8608Z"
        fill="#C85929" />
    <path fill-rule="evenodd" clip-rule="evenodd"
        d="M0.830078 22.7792C0.830078 18.6003 10.1559 15.2124 21.6594 15.2124C33.1597 15.2124 42.4856 18.6003 42.4856 22.7792V29.7283C42.4856 33.904 33.1598 37.2919 21.6594 37.2919C10.1559 37.2919 0.830078 33.904 0.830078 29.7283V22.7792Z"
        fill="#FE9923" />
    <path fill-rule="evenodd" clip-rule="evenodd"
        d="M21.6594 15.2124C33.1597 15.2124 42.4856 18.6003 42.4856 22.7792C42.4856 26.9549 33.1598 30.3427 21.6594 30.3427C10.1559 30.3428 0.830078 26.955 0.830078 22.7792C0.830078 18.6003 10.1559 15.2124 21.6594 15.2124Z"
        fill="#FECD3D" />
    <path fill-rule="evenodd" clip-rule="evenodd"
        d="M21.6592 15.2124C33.1595 15.2124 42.4854 18.6003 42.4854 22.7792C42.4854 23.1889 42.3956 23.5922 42.2194 23.9862C40.0202 24.2415 37.6756 24.377 35.2413 24.377C22.544 24.377 12.25 20.6393 12.25 16.0287C15.0739 15.5086 18.2721 15.2124 21.6592 15.2124Z"
        fill="#CEA732" />
    <path fill-rule="evenodd" clip-rule="evenodd"
        d="M21.6594 18.749C30.8089 18.749 38.2294 20.5549 38.2294 22.7798C38.2294 25.0047 30.8089 26.8074 21.6594 26.8074C12.5068 26.8074 5.08936 25.0047 5.08936 22.7798C5.08936 20.5549 12.5067 18.749 21.6594 18.749Z"
        fill="#FEA832" />
    <path fill-rule="evenodd" clip-rule="evenodd"
        d="M21.659 18.749C30.8085 18.749 38.229 20.5549 38.229 22.7798C38.229 23.3376 37.7588 23.8733 36.9082 24.3555C36.3577 24.3713 35.8009 24.3776 35.241 24.3776C25.6429 24.3776 17.4214 22.244 13.9756 19.2091C16.2737 18.916 18.8844 18.749 21.659 18.749Z"
        fill="#CE8829" />
    <path
        d="M36.8558 31.1999V34.8998C37.4961 34.6508 38.0931 34.3861 38.6374 34.1087V31.1968L36.8558 31.1999ZM32.2006 36.2517C31.6101 36.3775 31.0171 36.4909 30.422 36.5921V33.0656L32.2006 33.0687V36.2517ZM25.7637 37.1437C25.1792 37.1878 24.5883 37.2193 23.9852 37.2445V33.8787L25.7637 33.8819V37.1437ZM19.33 37.2444C18.7299 37.2192 18.136 37.1877 17.5483 37.1436V33.8819L19.33 33.8787V37.2444ZM12.8931 36.5921C12.2981 36.4906 11.7052 36.3771 11.1146 36.2517V33.0656L12.8931 33.0687V36.5921ZM6.46246 34.8998C5.8191 34.6508 5.22518 34.3861 4.67773 34.1087V31.1999L6.46246 31.1968V34.8998Z"
        fill="#C85929" />
    <path
        d="M53.5744 23.9677V25.597H55.1705V27.1539H53.5744V28.7801H52.0464V27.1539H50.4503V25.597H52.0464V23.9677H53.5744ZM5.67698 40.4942V42.1204H7.27306V43.6772H5.67698V45.3034H4.14897V43.6772H2.5498V42.1204H4.14897V40.4942H5.67698ZM5.67698 6.47363V8.09983H7.27306V9.65668H5.67698V11.286H4.14897V9.65668H2.5498V8.09983H4.14897V6.47363H5.67698Z"
        fill="#FEA832" />
    <path fill-rule="evenodd" clip-rule="evenodd"
        d="M11.9624 7.81609C11.9624 3.64037 21.2851 0.252441 32.7886 0.252441C44.2921 0.252441 53.6179 3.64026 53.6179 7.81609V14.7683C53.6179 18.9441 44.2921 22.332 32.7886 22.332C21.2851 22.332 11.9624 18.9442 11.9624 14.7683V7.81609Z"
        fill="#FE9923" />
    <path fill-rule="evenodd" clip-rule="evenodd"
        d="M32.7886 0.252441C44.292 0.252441 53.6179 3.64026 53.6179 7.81609C53.6179 11.995 44.2921 15.3829 32.7886 15.3829C21.2851 15.3829 11.9624 11.995 11.9624 7.81609C11.9624 3.64037 21.2851 0.252441 32.7886 0.252441Z"
        fill="#FECD3D" />
    <path fill-rule="evenodd" clip-rule="evenodd"
        d="M32.7883 3.78857C41.9409 3.78857 49.3583 5.59127 49.3583 7.81619C49.3583 10.0444 41.9409 11.8469 32.7883 11.8469C23.6388 11.8469 16.2183 10.0443 16.2183 7.81619C16.2183 5.59127 23.6387 3.78857 32.7883 3.78857Z"
        fill="#FEA832" />
    <path
        d="M47.985 16.24V19.9398C48.6253 19.6908 49.2223 19.4261 49.7667 19.1488V16.2368L47.985 16.24ZM43.3298 21.2918C42.7396 21.418 42.1466 21.5304 41.5513 21.629V18.1056L43.3298 18.1087V21.2918ZM36.8961 22.1837C36.3115 22.2247 35.7176 22.2593 35.1175 22.2846V18.9187L36.8961 18.9219V22.1837ZM30.4623 22.2846C29.868 22.2593 29.2741 22.2257 28.6807 22.1837V18.9219L30.4623 18.9187V22.2846ZM24.0255 21.629C23.4302 21.5303 22.8372 21.4179 22.2469 21.2918V18.1056L24.0255 18.1087V21.629ZM17.5917 19.9398C16.9514 19.6908 16.3544 19.4261 15.8101 19.1488V16.24L17.5917 16.2368V19.9398Z"
        fill="#C85929" />
</svg>
