<svg width="20" height="21" viewBox="0 0 20 21" fill="none" xmlns="http://www.w3.org/2000/svg">
    <path d="M10 5.90723V8.68223" stroke="#0ACD00" stroke-miterlimit="10" stroke-linecap="round" />
    <path
        d="M10.0171 2.20703C6.9504 2.20703 4.46707 4.69036 4.46707 7.75703V9.50703C4.46707 10.0737 4.23374 10.9237 3.94207 11.407L2.88374 13.1737C2.23374 14.2654 2.68374 15.482 3.88374 15.882C7.86707 17.207 12.1754 17.207 16.1587 15.882C17.2837 15.507 17.7671 14.1904 17.1587 13.1737L16.1004 11.407C15.8087 10.9237 15.5754 10.0654 15.5754 9.50703V7.75703C15.5671 4.70703 13.0671 2.20703 10.0171 2.20703Z"
        stroke="#0ACD00" stroke-miterlimit="10" stroke-linecap="round" />
    <path
        d="M12.7746 16.2246C12.7746 17.7496 11.5246 18.9996 9.99961 18.9996C9.24128 18.9996 8.54128 18.6829 8.04128 18.1829C7.54128 17.6829 7.22461 16.9829 7.22461 16.2246"
        stroke="#0ACD00" stroke-miterlimit="10" />
</svg>
