<svg width="50" height="50" viewBox="0 0 50 50" fill="none" xmlns="http://www.w3.org/2000/svg">
    <path
        d="M45 0.833008H5.00004C2.69885 0.833008 0.833374 2.69849 0.833374 4.99967V29.9997C0.833374 32.3009 2.69885 34.1663 5.00004 34.1663H45C47.3012 34.1663 49.1667 32.3009 49.1667 29.9997V4.99967C49.1667 2.69849 47.3012 0.833008 45 0.833008Z"
        fill="#B0D3F0" />
    <path
        d="M49.1667 9.8242V29.9992C49.1667 30.5464 49.0589 31.0882 48.8495 31.5937C48.6401 32.0992 48.3332 32.5586 47.9463 32.9455C47.5594 33.3324 47.1 33.6393 46.5945 33.8487C46.089 34.0581 45.5472 34.1659 45 34.1659H5.00833C5 33.8909 5 33.6075 5 33.3325C5.00239 28.1931 6.40199 23.151 9.04906 18.7457C11.6961 14.3404 15.4911 10.7376 20.0279 8.32283C24.5647 5.90805 29.6727 4.77213 34.8053 5.03658C39.9379 5.30104 44.9021 6.95593 49.1667 9.8242Z"
        fill="#90BAE1" />
    <path
        d="M17.0258 23.333H18.3333V27.4997H17.0258C16.4887 27.4997 15.9735 27.2864 15.5936 26.9066C15.2138 26.5269 15.0002 26.0118 15 25.4747V25.3588C15 24.8216 15.2134 24.3063 15.5934 23.9264C15.9733 23.5464 16.4885 23.333 17.0258 23.333ZM31.6667 23.333H32.9742C33.5115 23.333 34.0267 23.5464 34.4066 23.9264C34.7866 24.3063 35 24.8216 35 25.3588V25.4747C34.9998 26.0118 34.7862 26.5269 34.4064 26.9066C34.0265 27.2864 33.5113 27.4997 32.9742 27.4997H31.6667V23.333Z"
        fill="#F9C795" />
    <path
        d="M29.5834 32.4994C30.2393 31.9029 30.7634 31.176 31.1221 30.3652C31.4809 29.5545 31.6664 28.6777 31.6667 27.7911V23.0578C31.975 22.4161 33.3334 21.2911 33.3334 19.3911C33.3334 16.2078 29.825 14.7744 28.625 14.3828C28.5777 14.3663 28.535 14.3389 28.5002 14.3028C28.4655 14.2667 28.4398 14.2229 28.4252 14.175C28.4106 14.1271 28.4075 14.0764 28.4161 14.0271C28.4248 13.9778 28.445 13.9312 28.475 13.8911C28.6915 13.5834 28.9884 13.3413 29.3334 13.1911C29.3895 13.1637 29.4365 13.1207 29.4688 13.0673C29.5011 13.0139 29.5174 12.9523 29.5156 12.8899C29.5139 12.8275 29.4942 12.7669 29.4589 12.7154C29.4236 12.6639 29.3742 12.6236 29.3167 12.5994C22.275 9.55778 19.3167 14.9078 19.3167 14.9078C15.3334 16.9078 17.5 21.2494 18.3334 23.0578V27.7911C18.3337 28.6777 18.5192 29.5545 18.8779 30.3652C19.2367 31.176 19.7608 31.9029 20.4167 32.4994H29.5834Z"
        fill="#FDD7AD" />
    <path
        d="M33.3334 19.3911C33.3334 21.2911 31.975 22.4161 31.6667 23.0578V25.8328C31.6667 27.4994 29.1667 29.1661 25 29.1661C20.8334 29.1661 18.3334 27.4994 18.3334 25.8328V23.0578C17.5 21.2494 15.3334 16.9078 19.3167 14.9078C19.3167 14.9078 22.275 9.55778 29.3167 12.5994C29.3742 12.6236 29.4236 12.6639 29.4589 12.7154C29.4942 12.7669 29.5139 12.8275 29.5156 12.8899C29.5174 12.9523 29.5011 13.0139 29.4688 13.0673C29.4365 13.1207 29.3895 13.1637 29.3334 13.1911C28.9884 13.3413 28.6915 13.5834 28.475 13.8911C28.445 13.9312 28.4248 13.9778 28.4161 14.0271C28.4075 14.0764 28.4106 14.1271 28.4252 14.175C28.4398 14.2229 28.4655 14.2667 28.5002 14.3028C28.535 14.3389 28.5777 14.3663 28.625 14.3828C29.825 14.7744 33.3334 16.2078 33.3334 19.3911Z"
        fill="#CB8252" />
    <path
        d="M29.5834 32.4999H30.4334C31.4533 32.484 32.4641 32.694 33.3934 33.1146C34.3226 33.5353 35.1473 34.1563 35.8084 34.9332C36.941 36.3339 37.5404 38.0907 37.5001 39.8915C37.5059 40.3564 37.3294 40.8052 37.0084 41.1415C36.8597 41.3058 36.6785 41.4373 36.4762 41.5277C36.2739 41.6181 36.055 41.6654 35.8334 41.6665H14.1667C13.711 41.6502 13.2802 41.4545 12.968 41.1221C12.6559 40.7897 12.4877 40.3474 12.5001 39.8915C12.4598 38.0907 13.0592 36.3339 14.1917 34.9332C14.8528 34.1563 15.6775 33.5353 16.6068 33.1146C17.536 32.694 18.5468 32.484 19.5667 32.4999H29.5834Z"
        fill="#F0C419" />
    <path
        d="M32.5001 42.4993C32.2791 42.4993 32.0671 42.4116 31.9108 42.2553C31.7545 42.099 31.6667 41.887 31.6667 41.666V39.9993C31.6667 39.7783 31.7545 39.5664 31.9108 39.4101C32.0671 39.2538 32.2791 39.166 32.5001 39.166C32.7211 39.166 32.9331 39.2538 33.0893 39.4101C33.2456 39.5664 33.3334 39.7783 33.3334 39.9993V41.666C33.3334 41.887 33.2456 42.099 33.0893 42.2553C32.9331 42.4116 32.7211 42.4993 32.5001 42.4993ZM17.5001 42.4993C17.2791 42.4993 17.0671 42.4116 16.9108 42.2553C16.7545 42.099 16.6667 41.887 16.6667 41.666V39.9993C16.6667 39.7783 16.7545 39.5664 16.9108 39.4101C17.0671 39.2538 17.2791 39.166 17.5001 39.166C17.7211 39.166 17.9331 39.2538 18.0893 39.4101C18.2456 39.5664 18.3334 39.7783 18.3334 39.9993V41.666C18.3334 41.887 18.2456 42.099 18.0893 42.2553C17.9331 42.4116 17.7211 42.4993 17.5001 42.4993Z"
        fill="#F29C1F" />
    <path
        d="M10.8334 41.666H39.1667C40.2718 41.666 41.3316 42.105 42.113 42.8864C42.8944 43.6678 43.3334 44.7276 43.3334 45.8327V48.3327C43.3334 48.5537 43.2456 48.7657 43.0893 48.9219C42.9331 49.0782 42.7211 49.166 42.5001 49.166H7.50008C7.27907 49.166 7.06711 49.0782 6.91083 48.9219C6.75455 48.7657 6.66675 48.5537 6.66675 48.3327V45.8327C6.66675 44.7276 7.10573 43.6678 7.88714 42.8864C8.66854 42.105 9.72835 41.666 10.8334 41.666Z"
        fill="#547580" />
</svg>
