<svg width="50" height="50" viewBox="0 0 50 50" fill="none" xmlns="http://www.w3.org/2000/svg">
    <g clip-path="url(#clip0_67_2272)">
        <path
            d="M25 50C19.2981 50 13.9285 48.1305 9.47158 44.5936C5.14785 41.1623 2.04258 36.3379 0.728028 31.0092C0.470292 29.9661 0.280537 28.9074 0.159961 27.8397C0.0532617 26.8969 -0.000143568 25.9488 2.89851e-07 25C2.89851e-07 18.3223 2.60049 12.0442 7.32236 7.32236C12.0443 2.60049 18.3224 0 25 0C31.6777 0 37.9557 2.60049 42.6776 7.32236C47.3995 12.0442 50 18.3223 50 25C50 31.6938 47.3887 37.983 42.6471 42.7089C42.2138 43.1407 41.7648 43.5564 41.3009 43.9551C36.7729 47.853 30.9837 50 25 50Z"
            fill="white" />
        <path
            d="M49.0385 25.0004C49.0385 26.9601 48.8039 28.8658 48.3607 30.6898C48.3549 30.7158 48.3482 30.7408 48.3414 30.7668C47.6443 33.6014 44.8931 31.9669 43.2902 34.3054C41.4536 36.9852 39.7005 32.7046 36.9563 34.4526C33.2303 36.8257 29.4756 31.433 24.7304 31.433C12.2073 31.433 2.19036 39.463 1.06448 27.2332L1.05002 27.0678C0.990926 26.3803 0.961407 25.6905 0.961548 25.0005C0.961548 20.0352 2.46731 15.4207 5.04807 11.5899C5.40364 11.0613 8.13186 16.7589 8.52737 16.2612C9.04202 15.6138 7.23743 8.78232 7.81536 8.19189C8.28362 7.71309 8.77112 7.25439 9.27786 6.81592C10.1471 6.06354 11.069 5.37428 12.0365 4.75342C15.777 2.35332 20.226 0.961914 25 0.961914C32.976 0.961914 40.0443 4.84658 44.4173 10.8264C44.8326 11.3941 41.2313 16.2461 41.5961 16.8503C41.9611 17.4545 46.2923 13.8109 46.6038 14.4484C48.1635 17.6341 49.0385 21.2148 49.0385 25.0004Z"
            fill="#F8BDFF" />
        <path
            d="M46.424 22.8431C46.0845 24.8027 45.397 26.7499 44.1047 28.2614C43.4942 28.9749 42.7672 29.5719 42.0143 30.1364C41.7595 30.3287 41.5008 30.5162 41.2432 30.7027C39.923 30.5882 38.2865 30.9421 36.896 31.0181C36.7353 31.0276 36.5743 31.0324 36.4133 31.0326H7.06537C5.94135 30.0278 5.11342 28.8229 4.52592 27.497C3.79135 25.8413 3.43266 23.997 3.3394 22.1163C3.17211 18.7297 3.76147 16.5893 4.58744 13.3008C4.67875 12.9354 4.7769 12.3153 5.14418 11.6258C5.11147 11.6143 5.07973 11.6018 5.04799 11.5893C5.8651 10.3748 6.79137 9.23739 7.81528 8.19127C8.24125 8.51724 8.60082 8.89029 8.81147 9.28931C10.8874 8.6316 13.023 8.23736 15.1855 8.023C18.3518 7.70767 21.5778 7.77681 24.7663 7.9692C25.0038 7.98365 25.2413 7.99898 25.4788 8.01441C31.3143 8.39713 37.3585 9.18746 42.2787 12.3471C42.9089 11.7329 43.6302 11.2197 44.4172 10.8259C45.2516 11.9663 45.9833 13.1784 46.6037 14.448C46.469 14.5621 46.3281 14.6687 46.1816 14.7672C46.8711 17.322 46.8759 20.2354 46.424 22.8431Z"
            fill="#F7EDE5" />
        <path
            d="M48.3413 30.7663C47.6441 33.6009 46.4441 36.2365 44.8413 38.575C43.0012 41.2585 40.6383 43.543 37.8941 45.2913C34.1681 47.6644 29.7451 49.0384 24.9999 49.0384C12.4768 49.0384 2.19021 39.4624 1.06433 27.2326L4.52585 27.4971L8.0864 27.7701L8.14509 27.7509L10.4413 26.9971L23.3759 28.2836L24.2547 28.3711L32.3787 29.1788L37.1383 29.6519L42.0142 30.1364L48.3413 30.7663Z"
            fill="#B5E1E8" />
        <path
            d="M31.3857 10.0332C31.3857 10.0332 34.2381 10.83 33.8958 12.3099C33.5535 13.7896 32.3746 13.9035 32.3746 13.9035C32.3746 13.9035 33.1732 14.7003 32.4507 15.5352C31.7281 16.3699 28.7997 16.0284 28.7997 16.0284L28.1151 13.4103L31.3857 10.0332Z"
            fill="#412945" />
        <path
            d="M31.5002 19.9362L29.7597 20.1915C29.579 20.5737 29.3924 20.9531 29.2 21.3295C29.1803 21.3676 28.9985 21.2639 28.9791 21.3015C28.9644 21.3299 29.1122 21.4996 29.0973 21.5279C28.4404 22.7863 27.7556 23.8675 27.3065 23.9589C26.8451 24.0536 25.8855 23.9065 24.8722 23.5465L24.3227 23.6314L24.3079 24.6308L22.525 28.0562L17.4666 23.0861L20.2941 18.7414C19.5903 17.7461 19.1781 16.5322 19.1781 15.2227C19.1781 11.8432 21.9229 9.10352 25.3101 9.10352C28.6973 9.10352 31.4433 11.8432 31.4433 15.2227C31.4439 16.2956 31.1606 17.3496 30.6222 18.2777C30.5267 18.501 30.4295 18.7236 30.3306 18.9454L31.5002 19.9362ZM38.7732 19.8606C38.5165 19.6045 37.8034 22.2227 37.8034 22.2227C37.8034 22.2227 38.5165 17.4702 38.0316 17.3849C37.5467 17.2995 36.8907 21.7674 36.8907 21.7674C36.8907 21.7674 37.4612 16.702 37.0904 16.645C36.7196 16.5881 35.8069 21.8243 35.8069 21.8243C35.8069 21.8243 36.5485 16.5597 36.1207 16.5597C35.6928 16.5597 34.2096 22.5643 34.2096 22.5643C34.2096 22.5643 33.4965 19.8607 33.0402 19.9462C32.5838 20.0315 32.869 24.3856 32.9546 25.0686C33.0402 25.7516 32.8121 27.5444 32.8121 27.5444L30.7013 35.5126L25.8524 31.187L20.8894 35.7402C20.8894 35.7402 30.8155 44.7898 33.4396 41.3749C36.0637 37.96 37.3757 28.1136 37.3757 28.1136C37.3757 28.1136 39.0299 20.1168 38.7732 19.8606Z"
            fill="#FF9582" />
        <path
            d="M8.10022 27.7476C8.10022 27.7476 15.1847 22.4794 16.2115 22.1379C17.2383 21.7964 17.9229 21.6066 17.9229 21.6066C17.9229 21.6066 19.1779 19.9371 19.4441 20.0889C19.7103 20.2406 23.9698 28.0001 23.9698 28.0001L26.5178 31.3202L19.7103 38.4916L13.7156 28.1993L8.10022 27.7476Z"
            fill="#6E72FF" />
        <path
            d="M26.4037 31.4312C26.3751 31.4312 26.3475 31.4202 26.3268 31.4004C26.2868 31.3624 22.3275 27.5777 21.0973 25.8056C19.8813 24.054 18.0196 22.389 18.0008 22.3724C17.9793 22.3526 17.9664 22.3251 17.965 22.2958C17.9635 22.2666 17.9736 22.238 17.9931 22.2161C18.0126 22.1942 18.0398 22.1809 18.069 22.179C18.0983 22.177 18.1271 22.1866 18.1493 22.2057C18.1681 22.2225 20.0492 23.9045 21.2806 25.6783C22.498 27.432 26.4411 31.2011 26.4808 31.2389C26.497 31.2543 26.5082 31.2741 26.513 31.2959C26.5178 31.3178 26.5159 31.3405 26.5076 31.3612C26.4993 31.3819 26.4849 31.3997 26.4664 31.4122C26.4479 31.4246 26.4261 31.4313 26.4037 31.4312Z"
            fill="#412945" />
        <path
            d="M28.4764 19.5572C28.4764 20.3326 27.8464 20.9611 27.0692 20.9611C26.2921 20.9611 25.6621 20.3326 25.6621 19.5572C25.6621 18.7818 26.2921 18.1533 27.0692 18.1533C27.8464 18.1533 28.4764 18.7819 28.4764 19.5572Z"
            fill="#F8BDFF" />
        <path
            d="M31.3853 9.81514C31.0725 9.50303 27.2786 8.76299 25.2253 8.59238C25.0769 8.57998 24.9152 8.56787 24.7447 8.55674C24.7603 8.3998 24.7685 8.24072 24.7685 8.07969C24.7685 5.43926 22.6231 3.29883 19.9766 3.29883C17.3301 3.29883 15.1847 5.43926 15.1847 8.07969C15.1847 9.98945 16.3073 11.6371 17.9299 12.403C17.8995 14.2386 18.4665 15.9572 18.7503 16.9585C19.1212 18.267 19.4441 20.0895 19.4441 20.0895L21.1936 18.5914C21.138 18.4927 21.092 18.389 21.0562 18.2815C20.8305 17.6027 20.9713 16.8426 21.2952 16.2039C21.4316 15.9331 21.6047 15.6733 21.8504 15.495C22.3698 15.1183 23.1385 15.2019 23.639 15.602C24.3607 16.1794 24.5473 17.2395 24.2746 18.1133L25.5951 15.28C25.5951 15.28 27.9635 14.8531 29.503 13.4019C31.0435 11.9496 31.6992 10.1283 31.3853 9.81514ZM29.2001 21.3301C29.1655 21.397 29.132 21.4627 29.0974 21.5285C28.5086 21.2086 28.0898 20.5956 28.0149 19.9302C28.0131 19.9156 28.0142 19.9008 28.0182 19.8866C28.0222 19.8725 28.029 19.8592 28.0381 19.8477C28.0473 19.8362 28.0586 19.8266 28.0715 19.8195C28.0844 19.8125 28.0986 19.808 28.1132 19.8064C28.1746 19.7986 28.2294 19.8432 28.2361 19.9045C28.3031 20.4985 28.6762 21.0447 29.2001 21.3301ZM29.013 18.7649C28.9424 18.765 28.8721 18.7553 28.8041 18.7359C28.5452 18.6621 28.3199 18.4598 28.1861 18.1809C28.1736 18.1542 28.1723 18.1236 28.1822 18.0959C28.1922 18.0682 28.2127 18.0456 28.2393 18.0329C28.2658 18.0202 28.2963 18.0186 28.3241 18.0283C28.3519 18.0379 28.3748 18.0582 28.3877 18.0847C28.4923 18.3027 28.671 18.4661 28.8657 18.5217C29.0747 18.5813 29.3124 18.5054 29.4185 18.3449C29.4349 18.3203 29.4603 18.3031 29.4894 18.2972C29.5184 18.2913 29.5485 18.2971 29.5733 18.3134C29.5855 18.3214 29.596 18.3318 29.6042 18.3439C29.6125 18.356 29.6182 18.3696 29.6212 18.384C29.6241 18.3983 29.6242 18.4131 29.6214 18.4275C29.6187 18.4419 29.6131 18.4556 29.605 18.4678C29.4809 18.6551 29.2513 18.7649 29.013 18.7649ZM29.6349 16.3898C29.6182 16.3898 29.6013 16.3861 29.5854 16.3782C29.2031 16.1891 28.7474 16.1438 28.3355 16.2544C28.3213 16.2582 28.3066 16.2592 28.2921 16.2573C28.2776 16.2554 28.2636 16.2507 28.2509 16.2434C28.2382 16.2361 28.2271 16.2264 28.2181 16.2148C28.2092 16.2032 28.2027 16.1899 28.1989 16.1758C28.195 16.1616 28.1941 16.1469 28.1959 16.1324C28.1978 16.1179 28.2026 16.1039 28.2099 16.0912C28.2172 16.0785 28.2269 16.0674 28.2385 16.0585C28.2501 16.0495 28.2633 16.043 28.2775 16.0392C28.7414 15.9147 29.2544 15.9656 29.6847 16.1785C29.74 16.2059 29.7626 16.2728 29.7351 16.3279C29.7156 16.3672 29.676 16.3898 29.6349 16.3898Z"
            fill="#412945" />
        <path
            d="M23.1531 18.1317C23.0945 18.1317 23.0453 18.0862 23.0417 18.0271C23.013 17.5664 22.8847 16.9304 22.4346 16.518C22.3227 16.4154 22.1529 16.2932 21.9548 16.2962H21.9533C21.9239 16.2962 21.8958 16.2847 21.8749 16.2641C21.854 16.2435 21.842 16.2156 21.8416 16.1862C21.8412 16.1567 21.8526 16.1281 21.8733 16.107C21.8939 16.0858 21.9221 16.0737 21.9517 16.0732H21.9607C22.1692 16.0732 22.3851 16.1701 22.5857 16.3538C23.0905 16.8165 23.2336 17.5116 23.2646 18.0135C23.2684 18.0749 23.2216 18.1277 23.16 18.1315C23.1578 18.1317 23.1554 18.1317 23.1531 18.1317ZM24.8723 23.5463C24.8723 23.5463 23.7239 22.5412 23.2166 21.6247L24.3081 24.6306L24.8723 23.5463Z"
            fill="#412945" />
        <path
            d="M30.8614 5.04571L32.4039 5.51729C32.5685 5.56759 32.5663 5.80138 32.4008 5.84864L30.8645 6.28731C30.8368 6.29523 30.8115 6.30994 30.791 6.33012C30.7704 6.3503 30.7552 6.37529 30.7467 6.40284L30.2404 8.0546C30.1912 8.21514 29.9651 8.21827 29.9115 8.05919L29.4038 6.55372C29.3955 6.52912 29.3817 6.5067 29.3636 6.48814C29.3454 6.46957 29.3233 6.45534 29.2989 6.44649L27.7043 5.86944C27.5467 5.81241 27.5544 5.58712 27.7153 5.54093L29.3372 5.07472C29.3652 5.06664 29.3907 5.05162 29.4114 5.03105C29.432 5.01048 29.4472 4.98502 29.4553 4.95704L29.9228 3.35675C29.9708 3.19259 30.2025 3.19044 30.2536 3.35362L30.747 4.93194C30.764 4.98653 30.8068 5.02901 30.8614 5.04571ZM9.35573 15.0621L10.8983 15.5337C11.063 15.584 11.0607 15.8178 10.8953 15.8651L9.35886 16.3038C9.33115 16.3117 9.30587 16.3264 9.2853 16.3466C9.26473 16.3668 9.24953 16.3918 9.24108 16.4193L8.73473 18.0712C8.68552 18.2316 8.45944 18.2349 8.40583 18.0758L7.89811 16.5703C7.88981 16.5457 7.87607 16.5233 7.85791 16.5047C7.83975 16.4862 7.81764 16.4719 7.79323 16.4631L6.1986 15.886C6.04108 15.829 6.0487 15.6037 6.20964 15.5575L7.83151 15.0913C7.85951 15.0833 7.88503 15.0682 7.90568 15.0477C7.92634 15.0271 7.94147 15.0017 7.94968 14.9737L8.41716 13.3734C8.46511 13.2093 8.69684 13.207 8.74792 13.3703L9.24137 14.9486C9.24979 14.9754 9.2646 14.9997 9.28452 15.0195C9.30445 15.0393 9.32889 15.0539 9.35573 15.0621ZM42.7927 14.9148L44.3353 15.3863C44.5 15.4366 44.4977 15.6704 44.3323 15.7177L42.7959 16.1565C42.7395 16.1725 42.6953 16.216 42.6781 16.272L42.1717 17.9237C42.1225 18.0842 41.8965 18.0874 41.8428 17.9283L41.3351 16.4229C41.3268 16.3982 41.3131 16.3758 41.2949 16.3572C41.2768 16.3387 41.2547 16.3244 41.2302 16.3155L39.6356 15.7385C39.4781 15.6815 39.4857 15.4562 39.6466 15.41L41.2685 14.9438C41.2965 14.9357 41.3221 14.9207 41.3427 14.9001C41.3634 14.8795 41.3785 14.8541 41.3867 14.8261L41.8542 13.2258C41.9021 13.0616 42.1339 13.0595 42.1849 13.2227L42.6784 14.801C42.6953 14.8556 42.7382 14.8982 42.7927 14.9148ZM41.6126 35.7221L43.1551 36.1937C43.3198 36.244 43.3175 36.4777 43.1521 36.525L41.6157 36.9637C41.588 36.9716 41.5627 36.9863 41.5421 37.0065C41.5216 37.0267 41.5064 37.0517 41.4979 37.0792L40.9916 38.731C40.9424 38.8915 40.7163 38.8946 40.6627 38.7356L40.155 37.2301C40.1466 37.2055 40.1329 37.1831 40.1147 37.1645C40.0966 37.1459 40.0745 37.1317 40.0501 37.1229L38.4554 36.5458C38.2979 36.4888 38.3055 36.2635 38.4665 36.2173L40.0883 35.7511C40.1164 35.743 40.1419 35.728 40.1625 35.7074C40.1832 35.6868 40.1983 35.6614 40.2065 35.6334L40.674 34.0331C40.7219 33.869 40.9537 33.8668 41.0048 34.03L41.4982 35.6083C41.5066 35.6351 41.5214 35.6595 41.5413 35.6793C41.5612 35.6992 41.5857 35.7138 41.6126 35.7221ZM12.0349 35.7221L13.5774 36.1937C13.7421 36.244 13.7398 36.4777 13.5744 36.525L12.038 36.9637C12.0103 36.9716 11.985 36.9863 11.9644 37.0065C11.9438 37.0267 11.9286 37.0517 11.9202 37.0792L11.4138 38.731C11.3646 38.8915 11.1385 38.8946 11.0849 38.7356L10.5772 37.2301C10.5689 37.2055 10.5552 37.1831 10.537 37.1645C10.5189 37.1459 10.4967 37.1317 10.4723 37.1229L8.8777 36.5458C8.72018 36.4888 8.7278 36.2635 8.88874 36.2173L10.5106 35.7511C10.5386 35.743 10.5641 35.728 10.5848 35.7074C10.6055 35.6868 10.6206 35.6614 10.6288 35.6334L11.0963 34.0331C11.1442 33.869 11.3759 33.8668 11.427 34.03L11.9205 35.6083C11.9376 35.6628 11.9803 35.7054 12.0349 35.7221Z"
            fill="white" />
    </g>
    <defs>
        <clipPath id="clip0_67_2272">
            <rect width="50" height="50" fill="white" />
        </clipPath>
    </defs>
</svg>
