<svg width="18" height="19" viewBox="0 0 18 19" fill="none" xmlns="http://www.w3.org/2000/svg">
    <path
        d="M10.2975 3.17398L11.6175 5.81398C11.7975 6.18148 12.2775 6.53398 12.6825 6.60148L15.075 6.99898C16.605 7.25398 16.965 8.36398 15.8625 9.45898L14.0025 11.319C13.6875 11.634 13.515 12.2415 13.6125 12.6765L14.145 14.979C14.565 16.8015 13.5975 17.5065 11.985 16.554L9.74249 15.2265C9.33749 14.9865 8.66999 14.9865 8.25749 15.2265L6.01499 16.554C4.40999 17.5065 3.43499 16.794 3.85499 14.979L4.38749 12.6765C4.48499 12.2415 4.31249 11.634 3.99749 11.319L2.13749 9.45898C1.04249 8.36398 1.39499 7.25398 2.92499 6.99898L5.31749 6.60148C5.71499 6.53398 6.19499 6.18148 6.37499 5.81398L7.69499 3.17398C8.41499 1.74148 9.58499 1.74148 10.2975 3.17398Z"
        stroke="#FF006B" stroke-linecap="round" stroke-linejoin="round" />
</svg>
