<svg width="41" height="41" viewBox="0 0 41 41" fill="none" xmlns="http://www.w3.org/2000/svg">
    <g clip-path="url(#clip0_11_2657)">
        <path
            d="M12.3353 21.2381C11.8609 21.4168 11.3397 21.2188 10.8479 21.0959C10.3561 20.9729 9.73858 20.9713 9.45335 21.3903C9.28562 21.6367 9.28796 21.957 9.29655 22.255C9.39015 25.5194 8.79038 31.557 8.88398 34.8214C8.88858 34.9817 8.89648 35.1524 8.98929 35.2833C9.15671 35.5194 9.5028 35.5128 9.79062 35.4827C16.6751 34.7617 24.3104 34.937 31.2221 35.3175C32.2861 35.3761 33.557 35.3507 34.1437 34.4612C34.6659 33.6695 34.3519 32.6277 34.1938 31.6926C33.8201 29.4827 34.4384 24.1232 34.9193 21.9341C35.0429 21.3713 35.1507 20.752 34.8785 20.2442C34.5805 19.6882 33.8918 19.4353 33.2621 19.4723C32.6324 19.5092 32.0437 19.7811 31.4723 20.0485L12.3353 21.2381Z"
            fill="#0A9C79" />
        <path
            d="M34.9194 21.9341C34.4382 24.1226 33.8197 29.4823 34.1929 31.6928C34.3522 32.6279 34.6651 33.669 34.1436 34.4614C33.5562 35.3507 32.2862 35.3763 31.2213 35.3178C24.3099 34.9372 16.6757 34.7615 9.7899 35.4825C9.50264 35.5118 9.15678 35.5191 8.98842 35.283C8.89693 35.1513 8.88779 34.9811 8.88412 34.8201C8.87131 34.3608 8.87131 33.8465 8.88412 33.294C9.29951 32.8566 9.821 32.5218 10.3956 32.3351C11.9619 31.8246 13.7315 32.4066 15.2905 31.8704C17.5925 31.0817 18.5623 28.2143 20.7454 27.1347C21.8524 26.5876 23.1407 26.5692 24.3776 26.6168C25.6128 26.6626 26.8772 26.7595 28.0629 26.4119C29.2487 26.0623 30.3631 25.1456 30.5333 23.9214C30.601 23.4328 30.5022 22.8985 30.1673 22.5344C29.2652 21.5499 27.3438 22.302 26.4728 21.2901C26.2551 21.0376 26.1508 20.7155 26.1361 20.3788L31.4719 20.0476C32.0429 19.7805 32.6321 19.5078 33.2615 19.4712C33.891 19.4347 34.5808 19.6872 34.8791 20.2434C35.15 20.752 35.042 21.3705 34.9194 21.9341Z"
            fill="black" fill-opacity="0.0627451" />
        <path
            d="M9.29642 22.3427C9.27364 22.3427 9.25176 22.3338 9.23543 22.3179C9.2191 22.302 9.20959 22.2804 9.20892 22.2576C9.20118 21.9888 9.19071 21.6207 9.38087 21.341C9.63673 20.9653 10.1929 20.8422 10.8692 21.011C10.9463 21.0303 11.0241 21.0514 11.1024 21.0726C11.5096 21.183 11.9308 21.297 12.3045 21.1563C12.3126 21.1532 12.3213 21.1513 12.3299 21.1508L31.4503 19.962C31.9935 19.7078 32.6079 19.4229 33.257 19.385C33.999 19.3404 34.6661 19.6624 34.9558 20.2028C35.2395 20.7322 35.1356 21.3578 35.0049 21.9529C34.9992 21.9749 34.9852 21.9938 34.9659 22.0056C34.9466 22.0175 34.9234 22.0214 34.9013 22.0165C34.8791 22.0116 34.8597 21.9983 34.8471 21.9795C34.8346 21.9606 34.8298 21.9376 34.8338 21.9153C34.9575 21.3521 35.0569 20.7624 34.8014 20.2856C34.5085 19.7393 33.8209 19.5285 33.2674 19.5598C32.6459 19.596 32.0422 19.8786 31.5097 20.1278C31.4997 20.1324 31.489 20.1351 31.4781 20.1358L12.3538 21.3248C11.931 21.4786 11.4867 21.3583 11.0567 21.2418C10.9796 21.2208 10.9029 21.2001 10.8269 21.181C10.6013 21.1244 9.84103 20.9765 9.52595 21.4396C9.37954 21.6547 9.37517 21.935 9.38431 22.2525C9.38571 22.301 9.34759 22.3414 9.29915 22.3427H9.29642ZM9.79048 35.5703C9.76825 35.5699 9.74697 35.5612 9.73096 35.5457C9.71495 35.5303 9.7054 35.5094 9.70425 35.4872C9.70309 35.465 9.71043 35.4431 9.72475 35.4261C9.73908 35.4091 9.75934 35.3982 9.78142 35.3956C17.3342 34.6048 25.6379 34.9222 31.2269 35.2301C32.3271 35.291 33.5245 35.2409 34.0706 34.4129C34.4966 33.7671 34.3377 32.9328 34.1842 32.1261C34.1573 31.985 34.1306 31.845 34.1073 31.7072C34.1034 31.6843 34.1088 31.6608 34.1223 31.6419C34.1358 31.623 34.1562 31.6102 34.1791 31.6063C34.1904 31.6042 34.2021 31.6045 34.2134 31.607C34.2246 31.6095 34.2353 31.6143 34.2447 31.621C34.2541 31.6277 34.2621 31.6362 34.2682 31.646C34.2742 31.6558 34.2783 31.6667 34.2801 31.6782C34.3032 31.8146 34.3295 31.9535 34.3563 32.0935C34.5163 32.9346 34.6819 33.8042 34.2168 34.5095C33.6217 35.4114 32.3663 35.4682 31.2172 35.405C25.6342 35.0978 17.3399 34.7804 9.79962 35.5698C9.79658 35.5701 9.79353 35.5703 9.79048 35.5703Z"
            fill="#020305" />
        <path
            d="M32.3439 33.3308C24.8244 34.1986 18.2474 32.6534 10.7295 33.4536C11.6879 32.1985 12.8443 31.2397 14.3446 30.7471C15.8449 30.2544 17.4944 30.2269 19.0103 30.6694C19.9578 30.946 20.9524 31.5248 21.16 32.4897C21.7173 31.6115 22.6543 31.2046 23.6487 30.8998C24.6432 30.5951 25.6972 30.5463 26.7373 30.5514C27.7192 30.5562 28.7311 30.6143 29.6178 31.036C30.6983 31.5499 31.6207 32.3775 32.3439 33.3308Z"
            fill="#FFD22A" />
        <path
            d="M32.3429 33.3304C26.6941 33.9819 21.5779 33.2719 16.1943 33.2189C17.3819 32.6827 18.7324 32.6315 20.0352 32.7102C21.3527 32.7907 22.6665 32.9957 23.984 32.9261C24.3664 32.9042 24.7562 32.8584 25.0966 32.6828C25.4351 32.509 25.7169 32.1796 25.7425 31.799C25.7682 31.3616 25.4718 30.9847 25.2521 30.6022C25.7462 30.5583 26.2439 30.5492 26.738 30.551C27.7188 30.5565 28.7307 30.6151 29.6182 31.0359C30.6979 31.55 31.6201 32.3771 32.3429 33.3304Z"
            fill="black" fill-opacity="0.0627451" />
        <path
            d="M21.1599 32.4899C20.9522 31.525 19.9577 30.9461 19.0102 30.6696C17.4943 30.2271 15.8448 30.2545 14.3445 30.7472C12.8442 31.24 11.6878 32.1987 10.7294 33.4537C10.3391 29.9764 10.4072 24.0212 10.9314 20.5615C11.7849 19.9435 12.546 19.3353 13.5351 18.9721C16.35 17.9385 19.6277 18.2553 22.1924 19.8091C23.7531 18.515 25.7866 17.7446 27.8109 17.8576C29.8352 17.9705 31.8051 18.8733 33.2122 20.3329C32.3448 23.723 32.0623 29.843 32.3438 33.3309C31.6206 32.3775 30.6983 31.55 29.6177 31.0361C28.731 30.6143 27.719 30.5563 26.7372 30.5514C25.6971 30.5464 24.6431 30.5952 23.6486 30.8999C22.6542 31.2047 21.7172 31.6116 21.1599 32.4899Z"
            fill="white" />
        <path
            d="M32.343 33.3308C31.6201 32.3775 30.6979 31.5504 29.6183 31.0362C28.7308 30.6154 27.7189 30.5568 26.738 30.5513C25.6969 30.5458 24.6428 30.5952 23.6492 30.9008C22.6537 31.2046 21.7169 31.6126 21.1606 32.491C20.952 31.5248 19.9584 30.9465 19.0105 30.6703C17.4936 30.2275 15.8449 30.2549 14.3444 30.7471C12.908 31.2193 11.7862 32.1177 10.8512 33.2961C10.8109 33.3474 10.7688 33.4004 10.7286 33.4535C10.6964 33.163 10.6683 32.872 10.6444 32.5807C10.6444 32.5789 10.6426 32.577 10.6444 32.5752C10.6021 32.0672 10.5698 31.5584 10.5475 31.0491C10.6848 29.7755 11.4057 28.5386 12.564 28.0043C13.4643 27.5889 14.5091 27.6291 15.4826 27.8139C16.4561 27.9988 17.4021 28.3208 18.3848 28.4507C20.2219 28.6941 22.1469 28.2257 23.6676 27.1643C25.0216 26.2201 26.0794 24.8239 27.6073 24.2036C28.3429 23.9054 29.2669 23.7022 29.5359 22.9557C29.7738 22.2951 29.2889 21.5467 28.6503 21.2521C28.0135 20.9575 27.2761 21.0032 26.5752 21.0709C24.6108 21.2644 22.6638 21.6057 20.7508 22.092C20.1505 22.2439 19.457 22.3957 18.9557 22.0316C18.4488 21.6657 18.3811 20.9392 18.4397 20.3171C18.4968 19.7124 18.6296 19.1173 18.8349 18.5457C20.0188 18.7617 21.1625 19.1862 22.1927 19.8102C23.7536 18.5146 25.7865 17.7443 27.8104 17.8577C29.836 17.9711 31.805 18.8732 33.2122 20.3335C32.3448 23.724 32.063 29.8431 32.343 33.3308Z"
            fill="black" fill-opacity="0.0627451" />
        <path d="M22.1925 19.8096C21.0862 23.5151 20.8177 27.7938 21.16 32.4903L22.1925 19.8096Z"
            fill="white" />
        <path
            d="M10.7294 33.5421C10.7078 33.5422 10.687 33.5342 10.6709 33.5199C10.6549 33.5055 10.6447 33.4857 10.6423 33.4642C10.2376 29.8587 10.3303 23.9442 10.8448 20.5492C10.8465 20.5378 10.8504 20.5269 10.8564 20.517C10.8623 20.5072 10.8701 20.4986 10.8794 20.4917C10.8887 20.4849 10.8992 20.48 10.9103 20.4772C10.9215 20.4745 10.9331 20.474 10.9445 20.4757C10.9559 20.4774 10.9668 20.4814 10.9767 20.4873C10.9865 20.4932 10.9951 20.5011 11.0019 20.5103C11.0088 20.5196 11.0137 20.5301 11.0165 20.5413C11.0192 20.5525 11.0197 20.5641 11.018 20.5755C10.5155 23.8917 10.4169 29.6206 10.7932 33.2301C11.8138 31.9477 12.9683 31.1076 14.3171 30.6647C15.8302 30.1677 17.5057 30.1399 19.0347 30.586C19.5825 30.746 20.8423 31.222 21.1944 32.2844C21.7896 31.4698 22.7101 31.0966 23.6229 30.8167C24.6633 30.4981 25.7826 30.4602 26.7377 30.4645C27.6573 30.469 28.7169 30.5113 29.6554 30.9576C30.6764 31.4431 31.6301 32.2457 32.4136 33.2786C32.4206 33.2878 32.4256 33.2982 32.4285 33.3094C32.4315 33.3205 32.4321 33.3321 32.4306 33.3435C32.429 33.3549 32.4252 33.3659 32.4194 33.3758C32.4136 33.3857 32.4058 33.3944 32.3967 33.4013C32.3875 33.4083 32.377 33.4134 32.3659 33.4163C32.3548 33.4192 32.3432 33.4199 32.3318 33.4183C32.3204 33.4167 32.3094 33.4129 32.2995 33.4071C32.2896 33.4013 32.2809 33.3936 32.2739 33.3844C31.5074 32.3738 30.5758 31.5892 29.5801 31.1157C28.6742 30.685 27.6375 30.6442 26.7368 30.6398C25.7941 30.6362 24.6921 30.6727 23.6742 30.9845C22.7361 31.272 21.7911 31.6591 21.2339 32.5375C21.2246 32.5522 21.2111 32.5637 21.1952 32.5707C21.1792 32.5777 21.1616 32.5799 21.1445 32.5769C21.1274 32.5739 21.1116 32.5658 21.099 32.5537C21.0865 32.5417 21.0779 32.5261 21.0742 32.5092C20.837 31.4066 19.5346 30.9145 18.9856 30.7542C17.4902 30.3178 15.8517 30.3452 14.3718 30.8311C12.9986 31.2822 11.83 32.1578 10.799 33.5078C10.7908 33.5184 10.7803 33.5271 10.7682 33.5331C10.7562 33.539 10.7429 33.5421 10.7294 33.5421ZM33.2123 20.4213C33.1893 20.4213 33.1664 20.4124 33.1492 20.3945C31.7568 18.9501 29.8094 18.0575 27.8061 17.9457C25.885 17.8398 23.858 18.5426 22.2485 19.8773C22.2345 19.889 22.2172 19.896 22.199 19.8973C22.1808 19.8987 22.1626 19.8943 22.1471 19.8848C19.6233 18.3559 16.3349 18.0379 13.5653 19.0552C13.5435 19.0632 13.5194 19.0622 13.4983 19.0524C13.4772 19.0426 13.4609 19.0249 13.4528 19.0031C13.4448 18.9812 13.4458 18.9571 13.4556 18.936C13.4654 18.9149 13.4831 18.8986 13.505 18.8906C16.3467 17.8474 19.5864 18.1513 22.1846 19.7029C23.8199 18.3659 25.867 17.6613 27.8159 17.7709C29.8628 17.885 31.8527 18.797 33.2754 20.273C33.309 20.3077 33.308 20.3631 33.2732 20.3969C33.256 20.4131 33.2342 20.4213 33.2123 20.4213Z"
            fill="#020305" />
        <path
            d="M21.1599 32.5772C21.1378 32.5772 21.1165 32.5688 21.1003 32.5538C21.0841 32.5387 21.0742 32.518 21.0727 32.496C20.7083 27.4972 21.0472 23.3391 22.1086 19.784C22.1115 19.7726 22.1167 19.7618 22.1238 19.7524C22.131 19.743 22.1399 19.7351 22.1502 19.7293C22.1605 19.7234 22.1719 19.7197 22.1836 19.7183C22.1953 19.717 22.2072 19.718 22.2186 19.7214C22.2299 19.7248 22.2404 19.7304 22.2495 19.738C22.2586 19.7455 22.2661 19.7548 22.2715 19.7653C22.2769 19.7758 22.2802 19.7873 22.281 19.7991C22.2819 19.8109 22.2803 19.8228 22.2765 19.8339C21.2212 23.3685 20.8847 27.5061 21.2474 32.4832C21.2491 32.5064 21.2415 32.5293 21.2263 32.5469C21.2111 32.5645 21.1896 32.5753 21.1664 32.577C21.1642 32.5772 21.162 32.5772 21.1599 32.5772Z"
            fill="#020305" />
        <path
            d="M31.7855 16.9628C30.4568 18.9527 27.7661 19.4889 25.7762 18.1602C23.7863 16.8316 23.2483 14.1397 24.577 12.1498C25.9068 10.158 28.5993 9.62305 30.5893 10.9517C32.5792 12.2804 33.1153 14.9711 31.7855 16.9628Z"
            fill="#5CEED9" />
        <path
            d="M31.7855 16.9628C30.4568 18.9527 27.7661 19.4889 25.7762 18.1602C25.2585 17.8155 24.8215 17.3629 24.4954 16.8333C24.6793 16.3521 25.0915 15.9638 25.5812 15.8087C26.2372 15.5987 26.945 15.7966 27.6343 15.8551C28.3206 15.9141 29.1379 15.7497 29.4319 15.127C29.7271 14.5024 29.3426 13.7817 29.303 13.0917C29.2528 12.2236 29.7807 11.4097 30.4901 10.8906C30.5248 10.9086 30.5571 10.9302 30.5893 10.9516C32.5792 12.2804 33.1154 14.9711 31.7855 16.9628Z"
            fill="black" fill-opacity="0.0627451" />
        <path
            d="M24.5768 12.2373C24.5609 12.2373 24.5454 12.233 24.5318 12.2249C24.5182 12.2167 24.5071 12.205 24.4996 12.191C24.4921 12.1771 24.4886 12.1613 24.4894 12.1455C24.4901 12.1297 24.4952 12.1143 24.504 12.1012C25.8582 10.0731 28.6098 9.52475 30.6379 10.879C30.6475 10.8854 30.6557 10.8936 30.6621 10.9031C30.6685 10.9127 30.6729 10.9234 30.6752 10.9347C30.6774 10.946 30.6774 10.9576 30.6752 10.9689C30.6729 10.9802 30.6685 10.991 30.6621 11.0005C30.6557 11.0101 30.6475 11.0183 30.6379 11.0247C30.6284 11.0311 30.6176 11.0356 30.6063 11.0378C30.595 11.0401 30.5834 11.0401 30.5721 11.0378C30.5608 11.0356 30.5501 11.0311 30.5405 11.0247C28.5928 9.72396 25.9501 10.2505 24.6498 12.1983C24.6418 12.2104 24.6309 12.2202 24.6182 12.227C24.6054 12.2338 24.5912 12.2373 24.5768 12.2373ZM28.1728 18.9787C27.3082 18.9787 26.4629 18.7243 25.7275 18.2333C25.7179 18.2269 25.7097 18.2187 25.7033 18.2091C25.6969 18.1995 25.6925 18.1888 25.6902 18.1775C25.688 18.1662 25.688 18.1546 25.6902 18.1433C25.6924 18.132 25.6969 18.1213 25.7033 18.1117C25.7097 18.1021 25.7179 18.0939 25.7274 18.0875C25.737 18.0811 25.7477 18.0767 25.759 18.0744C25.7703 18.0722 25.7819 18.0722 25.7932 18.0744C25.8045 18.0766 25.8153 18.0811 25.8248 18.0875C26.7678 18.7172 27.8999 18.9422 29.0116 18.7201C30.1237 18.4985 31.0829 17.8571 31.7125 16.9142C31.7254 16.8949 31.7454 16.8814 31.7682 16.8769C31.791 16.8723 31.8146 16.877 31.834 16.8899C31.8533 16.9028 31.8667 16.9228 31.8713 16.9456C31.8758 16.9684 31.8712 16.9921 31.8583 17.0114C31.2026 17.9933 30.2039 18.6612 29.0459 18.8921C28.7584 18.9495 28.466 18.9785 28.1728 18.9787ZM29.893 12.0799C29.8772 12.0799 29.8616 12.0756 29.848 12.0675C29.8344 12.0593 29.8233 12.0476 29.8158 12.0336C29.8084 12.0196 29.8048 12.0039 29.8056 11.9881C29.8064 11.9722 29.8115 11.9569 29.8203 11.9437L29.918 11.7976C29.9308 11.7782 29.9509 11.7648 29.9736 11.7603C29.9964 11.7558 30.0201 11.7605 30.0394 11.7733C30.0587 11.7862 30.0721 11.8063 30.0766 11.829C30.0812 11.8518 30.0765 11.8754 30.0636 11.8947L29.9659 12.0409C29.9491 12.0662 29.9214 12.0799 29.893 12.0799ZM26.3727 17.3523C26.3569 17.3523 26.3413 17.348 26.3277 17.3399C26.3141 17.3317 26.303 17.32 26.2955 17.306C26.2881 17.2921 26.2845 17.2763 26.2853 17.2605C26.2861 17.2446 26.2912 17.2293 26.3 17.2162L26.3976 17.07C26.404 17.0604 26.4122 17.0522 26.4218 17.0458C26.4313 17.0394 26.4421 17.035 26.4533 17.0327C26.4646 17.0305 26.4762 17.0305 26.4875 17.0327C26.4988 17.0349 26.5095 17.0394 26.5191 17.0458C26.5286 17.0521 26.5368 17.0603 26.5432 17.0699C26.5496 17.0795 26.5541 17.0902 26.5563 17.1014C26.5586 17.1127 26.5586 17.1243 26.5563 17.1356C26.5541 17.1469 26.5497 17.1576 26.5433 17.1672L26.4456 17.3133C26.4376 17.3253 26.4268 17.3352 26.4141 17.342C26.4013 17.3488 26.3871 17.3523 26.3727 17.3523ZM31.2042 14.0408C31.1826 14.0406 31.1617 14.0324 31.1458 14.0178C31.1298 14.0032 31.1198 13.9832 31.1177 13.9616C31.1156 13.9401 31.1215 13.9185 31.1344 13.9011C31.1472 13.8837 31.166 13.8716 31.1873 13.8672L31.3597 13.833C31.371 13.8307 31.3826 13.8307 31.3939 13.8329C31.4052 13.8351 31.4159 13.8396 31.4255 13.846C31.4351 13.8524 31.4433 13.8606 31.4497 13.8702C31.456 13.8798 31.4605 13.8905 31.4626 13.9019C31.4649 13.9131 31.4649 13.9248 31.4627 13.9361C31.4604 13.9474 31.456 13.9581 31.4496 13.9677C31.4432 13.9773 31.435 13.9855 31.4254 13.9919C31.4158 13.9982 31.405 14.0027 31.3937 14.0049L31.2213 14.0391C31.2157 14.0402 31.21 14.0407 31.2042 14.0408ZM24.9868 15.2797C24.9651 15.2796 24.9443 15.2714 24.9283 15.2568C24.9123 15.2422 24.9023 15.2222 24.9002 15.2007C24.8981 15.1791 24.904 15.1575 24.9168 15.1401C24.9297 15.1227 24.9485 15.1106 24.9698 15.1062L25.1422 15.0719C25.1535 15.0696 25.1651 15.0696 25.1764 15.0718C25.1877 15.0741 25.1984 15.0785 25.208 15.0849C25.2175 15.0913 25.2257 15.0995 25.2321 15.1091C25.2385 15.1187 25.243 15.1294 25.2452 15.1407C25.2475 15.152 25.2475 15.1636 25.2452 15.1749C25.243 15.1862 25.2385 15.1969 25.2322 15.2065C25.2258 15.216 25.2175 15.2242 25.208 15.2306C25.1984 15.237 25.1877 15.2415 25.1764 15.2437L25.004 15.2781C24.9983 15.2792 24.9926 15.2797 24.9868 15.2797ZM30.891 16.4519C30.8743 16.4519 30.8574 16.4472 30.8425 16.4372L30.6963 16.3397C30.6867 16.3333 30.6785 16.3251 30.6721 16.3155C30.6657 16.306 30.6613 16.2952 30.659 16.284C30.6568 16.2727 30.6567 16.2611 30.659 16.2498C30.6612 16.2385 30.6656 16.2278 30.672 16.2182C30.6784 16.2086 30.6866 16.2004 30.6962 16.194C30.7057 16.1876 30.7165 16.1831 30.7277 16.1809C30.739 16.1786 30.7506 16.1786 30.7619 16.1808C30.7732 16.1831 30.7839 16.1875 30.7935 16.1939L30.9397 16.2915C30.9554 16.3019 30.9673 16.317 30.9737 16.3348C30.9801 16.3525 30.9806 16.3718 30.9751 16.3898C30.9697 16.4079 30.9585 16.4236 30.9434 16.4348C30.9282 16.446 30.9098 16.452 30.891 16.4519ZM25.6186 12.9318C25.6018 12.9318 25.585 12.927 25.57 12.9171L25.4238 12.8194C25.4056 12.806 25.3933 12.7861 25.3893 12.7639C25.3854 12.7416 25.3902 12.7187 25.4028 12.6999C25.4153 12.6811 25.4346 12.6679 25.4567 12.663C25.4787 12.6581 25.5018 12.6619 25.5212 12.6736L25.6673 12.7713C25.6829 12.7818 25.6947 12.797 25.7009 12.8147C25.7072 12.8324 25.7077 12.8516 25.7022 12.8695C25.6968 12.8875 25.6857 12.9032 25.6706 12.9144C25.6556 12.9256 25.6373 12.9317 25.6186 12.9318Z"
            fill="#020305" />
        <path
            d="M28.8184 17.8385C28.7981 17.8385 28.7785 17.8315 28.7628 17.8186C28.7472 17.8058 28.7365 17.7879 28.7325 17.768L28.6982 17.5957C28.6959 17.5844 28.6959 17.5728 28.6982 17.5615C28.7004 17.5502 28.7048 17.5395 28.7112 17.5299C28.7176 17.5203 28.7259 17.5121 28.7354 17.5057C28.745 17.4993 28.7557 17.4949 28.767 17.4926C28.7783 17.4903 28.79 17.4903 28.8013 17.4925C28.8126 17.4947 28.8233 17.4992 28.8329 17.5056C28.8425 17.512 28.8507 17.5202 28.8571 17.5298C28.8635 17.5394 28.8679 17.5502 28.8701 17.5615L28.9044 17.7338C28.9069 17.7465 28.9066 17.7597 28.9035 17.7722C28.9003 17.7848 28.8944 17.7965 28.8862 17.8066C28.878 17.8166 28.8676 17.8246 28.8559 17.8302C28.8441 17.8357 28.8313 17.8385 28.8184 17.8385ZM27.5794 11.6212C27.5591 11.6212 27.5395 11.6142 27.5238 11.6013C27.5082 11.5884 27.4975 11.5706 27.4935 11.5507L27.4592 11.3784C27.457 11.3671 27.4569 11.3554 27.4592 11.3441C27.4614 11.3329 27.4659 11.3221 27.4723 11.3125C27.4787 11.303 27.4869 11.2948 27.4964 11.2884C27.506 11.282 27.5168 11.2775 27.5281 11.2753C27.5394 11.2729 27.551 11.2728 27.5623 11.275C27.5737 11.2772 27.5845 11.2816 27.5941 11.288C27.6037 11.2944 27.6119 11.3027 27.6182 11.3123C27.6246 11.322 27.629 11.3328 27.6311 11.3441L27.6654 11.5165C27.6679 11.5292 27.6676 11.5423 27.6645 11.5549C27.6613 11.5675 27.6554 11.5792 27.6472 11.5892C27.639 11.5992 27.6286 11.6073 27.6169 11.6128C27.6052 11.6183 27.5924 11.6212 27.5794 11.6212Z"
            fill="#020305" />
        <path
            d="M29.0603 13.9093C28.6881 14.4668 28.0768 14.7118 28.0768 14.7118C28.0768 14.7118 28.0701 14.0542 28.4424 13.4966C28.8158 12.9373 29.4257 12.6914 29.4257 12.6914C29.4257 12.6914 29.4338 13.3499 29.0603 13.9093ZM27.1797 14.6206C27.6467 14.5276 28.0767 14.7116 28.0767 14.7116C28.0767 14.7116 27.7498 15.0452 27.2828 15.1382C26.8144 15.2316 26.3846 15.0487 26.3846 15.0487C26.3846 15.0487 26.7113 14.7139 27.1797 14.6206Z"
            fill="white" />
        <path
            d="M28.0768 14.7993C28.0537 14.7993 28.0315 14.7902 28.0151 14.7739C27.9987 14.7577 27.9894 14.7356 27.9891 14.7125C27.9889 14.6846 27.9866 14.0215 28.3694 13.4481C28.3758 13.4385 28.384 13.4303 28.3936 13.4239C28.4031 13.4175 28.4139 13.413 28.4251 13.4108C28.4364 13.4085 28.448 13.4085 28.4593 13.4107C28.4706 13.413 28.4813 13.4174 28.4909 13.4238C28.5005 13.4301 28.5087 13.4384 28.5151 13.4479C28.5215 13.4575 28.526 13.4682 28.5282 13.4795C28.5305 13.4908 28.5305 13.5024 28.5283 13.5137C28.526 13.5249 28.5216 13.5357 28.5152 13.5453C28.1632 14.0725 28.1642 14.7045 28.1643 14.7108C28.1645 14.734 28.1554 14.7564 28.1391 14.773C28.1228 14.7896 28.1006 14.799 28.0774 14.7992L28.0768 14.7993ZM29.0603 13.9969C29.0444 13.9969 29.0289 13.9926 29.0153 13.9844C29.0017 13.9763 28.9906 13.9646 28.9831 13.9506C28.9756 13.9366 28.9721 13.9209 28.9729 13.9051C28.9736 13.8892 28.9787 13.8739 28.9875 13.8607C29.3406 13.3319 29.3382 12.6988 29.3381 12.6924C29.3378 12.6692 29.3468 12.6468 29.363 12.6302C29.3793 12.6136 29.4014 12.6041 29.4247 12.6038C29.4689 12.5999 29.5126 12.6419 29.5133 12.6903C29.5137 12.7182 29.5172 13.3828 29.1333 13.9579C29.1253 13.9699 29.1144 13.9798 29.1017 13.9866C29.0889 13.9934 29.0747 13.9969 29.0603 13.9969ZM26.3847 15.1363C26.3626 15.1363 26.3404 15.1279 26.3234 15.1113C26.3069 15.095 26.2974 15.0728 26.2971 15.0496C26.2968 15.0264 26.3058 15.004 26.3219 14.9874C26.3361 14.973 26.6732 14.6321 27.1626 14.5347C27.2102 14.5242 27.2562 14.556 27.2657 14.6035C27.2679 14.6148 27.268 14.6264 27.2657 14.6377C27.2635 14.649 27.259 14.6598 27.2527 14.6693C27.2463 14.6789 27.238 14.6871 27.2285 14.6935C27.2189 14.6999 27.2081 14.7043 27.1969 14.7066C26.7621 14.7931 26.4504 15.1069 26.4473 15.1099C26.4392 15.1183 26.4294 15.1249 26.4187 15.1294C26.4079 15.134 26.3963 15.1363 26.3847 15.1363Z"
            fill="#020305" />
        <path
            d="M27.2828 15.2258C27.2611 15.2256 27.2403 15.2175 27.2243 15.2029C27.2083 15.1883 27.1983 15.1682 27.1962 15.1467C27.194 15.1251 27.2 15.1036 27.2128 15.0861C27.2257 15.0687 27.2445 15.0566 27.2658 15.0523C27.7011 14.9655 28.0111 14.6534 28.0142 14.6503C28.0304 14.6337 28.0526 14.6243 28.0758 14.624C28.099 14.6238 28.1214 14.6328 28.138 14.649C28.1546 14.6653 28.164 14.6874 28.1643 14.7106C28.1645 14.7339 28.1555 14.7562 28.1393 14.7728C28.1251 14.7873 27.7879 15.1269 27.3 15.2241C27.2943 15.2252 27.2886 15.2258 27.2828 15.2258ZM12.2925 22.3178C12.2738 22.3179 12.2556 22.3121 12.2405 22.3011C12.2254 22.2902 12.2142 22.2747 12.2086 22.2569C12.2029 22.2391 12.2031 22.22 12.209 22.2024C12.215 22.1847 12.2264 22.1694 12.2417 22.1587C14.4688 20.5813 17.4483 20.1729 20.0176 21.0934C20.0633 21.1096 20.0869 21.1598 20.0706 21.2055C20.0626 21.2272 20.0464 21.245 20.0254 21.2549C20.0045 21.2648 19.9804 21.266 19.9586 21.2584C17.4422 20.3573 14.5241 20.7569 12.343 22.3017C12.3282 22.3122 12.3106 22.3178 12.2925 22.3178ZM12.281 24.9447C12.2625 24.9446 12.2445 24.9388 12.2296 24.9279C12.2147 24.917 12.2035 24.9017 12.1978 24.8842C12.1921 24.8666 12.192 24.8477 12.1977 24.8301C12.2033 24.8125 12.2144 24.7972 12.2293 24.7862C14.0943 23.427 16.6602 23.1591 18.7661 24.1036C18.7864 24.1136 18.8021 24.1312 18.8098 24.1525C18.8175 24.1739 18.8166 24.1974 18.8073 24.2181C18.798 24.2388 18.781 24.2551 18.76 24.2635C18.7389 24.272 18.7154 24.272 18.6943 24.2634C16.6444 23.3437 14.1474 23.6048 12.3325 24.928C12.3169 24.9392 12.2989 24.9447 12.281 24.9447ZM12.4528 27.079C12.4334 27.079 12.4146 27.0726 12.3993 27.0608C12.3839 27.0491 12.3729 27.0325 12.368 27.0138C12.363 26.9951 12.3644 26.9753 12.3719 26.9575C12.3794 26.9396 12.3926 26.9248 12.4094 26.9152C14.5058 25.7238 17.1729 25.6015 19.3693 26.5962C19.3797 26.601 19.3892 26.6077 19.397 26.6161C19.4049 26.6245 19.411 26.6344 19.4151 26.6451C19.4192 26.6559 19.4211 26.6673 19.4207 26.6788C19.4203 26.6903 19.4177 26.7016 19.4129 26.7121C19.4082 26.7226 19.4014 26.732 19.3931 26.7399C19.3847 26.7477 19.3748 26.7539 19.3641 26.7579C19.3533 26.762 19.3418 26.7639 19.3304 26.7635C19.3189 26.7631 19.3076 26.7605 19.2971 26.7558C17.1505 25.7839 14.5447 25.9032 12.4961 27.0676C12.4823 27.0754 12.4675 27.079 12.4528 27.079ZM12.7065 29.487C12.6893 29.4869 12.6725 29.4819 12.6582 29.4724C12.6439 29.4629 12.6327 29.4495 12.6259 29.4337C12.6192 29.4179 12.6173 29.4005 12.6203 29.3836C12.6234 29.3668 12.6313 29.3512 12.6432 29.3387C13.3841 28.5659 14.4833 28.0852 15.7383 27.9849C16.7104 27.9076 17.7829 28.0453 19.1137 28.4192C19.1604 28.4324 19.1875 28.4806 19.1744 28.5273C19.1713 28.5384 19.1661 28.5488 19.159 28.5578C19.1519 28.5669 19.143 28.5745 19.133 28.5801C19.1229 28.5857 19.1119 28.5893 19.1005 28.5906C19.089 28.592 19.0774 28.591 19.0664 28.5879C17.7563 28.2196 16.7032 28.0841 15.7523 28.1594C14.5401 28.2562 13.4808 28.7181 12.7697 29.4598C12.7525 29.4779 12.7294 29.487 12.7065 29.487ZM31.1371 22.2841C31.1197 22.2841 31.1022 22.2789 31.0869 22.2683C29.0047 20.8118 26.0247 20.7021 23.8404 22.0005C23.8204 22.0115 23.797 22.0143 23.775 22.0083C23.7531 22.0024 23.7343 21.9881 23.7226 21.9685C23.711 21.949 23.7074 21.9256 23.7127 21.9035C23.718 21.8813 23.7316 21.8621 23.7508 21.8498C25.9925 20.5173 29.0504 20.6304 31.1873 22.1245C31.2026 22.1352 31.2141 22.1505 31.2201 22.1682C31.2261 22.1858 31.2264 22.2049 31.2208 22.2227C31.2151 22.2405 31.204 22.2561 31.189 22.2671C31.1739 22.2781 31.1557 22.2841 31.1371 22.2841ZM30.8641 25.2246C30.8472 25.2246 30.8302 25.2198 30.8153 25.2097C28.9197 23.9315 26.403 23.6103 24.2476 24.3716C24.2368 24.3755 24.2253 24.3772 24.2137 24.3766C24.2022 24.376 24.191 24.3731 24.1806 24.3681C24.1702 24.3631 24.1609 24.3561 24.1532 24.3476C24.1455 24.339 24.1396 24.3289 24.1358 24.318C24.1281 24.2961 24.1294 24.2721 24.1395 24.2511C24.1495 24.2302 24.1674 24.2141 24.1893 24.2063C26.3965 23.4272 28.9727 23.7559 30.9133 25.0642C30.9289 25.0747 30.9407 25.0899 30.947 25.1077C30.9532 25.1254 30.9537 25.1447 30.9481 25.1626C30.9426 25.1806 30.9315 25.1963 30.9164 25.2075C30.9012 25.2187 30.8829 25.2247 30.8641 25.2246ZM30.7679 27.4514C30.7494 27.4514 30.7308 27.4456 30.715 27.4334C29.7716 26.7155 28.5993 26.3151 27.414 26.3059C27.3999 26.3057 27.3858 26.3057 27.3717 26.3057C26.2005 26.3057 25.0387 26.687 24.0956 27.3814C24.0863 27.3882 24.0758 27.3931 24.0647 27.3959C24.0535 27.3987 24.0419 27.3992 24.0305 27.3975C24.0192 27.3957 24.0083 27.3918 23.9984 27.3858C23.9886 27.3799 23.98 27.3721 23.9732 27.3628C23.9664 27.3536 23.9614 27.343 23.9587 27.3319C23.9559 27.3207 23.9554 27.3091 23.9571 27.2977C23.9588 27.2864 23.9628 27.2755 23.9687 27.2656C23.9747 27.2558 23.9825 27.2472 23.9918 27.2404C24.9765 26.5152 26.1922 26.1205 27.4154 26.1306C28.6384 26.1402 29.848 26.5533 30.8212 27.2941C30.8358 27.3053 30.8465 27.3207 30.8518 27.3382C30.8571 27.3558 30.8568 27.3745 30.851 27.3919C30.8451 27.4092 30.8339 27.4243 30.819 27.435C30.8041 27.4457 30.7863 27.4514 30.7679 27.4514ZM30.7485 30.2083C30.7279 30.2083 30.708 30.201 30.6922 30.1877C29.2933 29.0133 27.326 28.5691 25.5584 29.0291C25.5359 29.0349 25.512 29.0315 25.492 29.0198C25.472 29.008 25.4575 28.9888 25.4515 28.9663C25.4393 28.9195 25.4675 28.8717 25.5143 28.8594C27.3362 28.3862 29.3633 28.8431 30.8049 30.0535C30.8137 30.0609 30.821 30.07 30.8263 30.0802C30.8316 30.0904 30.8349 30.1015 30.8359 30.113C30.8369 30.1244 30.8356 30.136 30.8321 30.1469C30.8287 30.1579 30.8231 30.1681 30.8157 30.1769C30.8075 30.1867 30.7972 30.1947 30.7856 30.2001C30.774 30.2056 30.7613 30.2083 30.7485 30.2083Z"
            fill="#020305" />
        <path
            d="M2.20838 22.1459C2.33604 22.1456 2.45166 22.1108 2.55494 22.0415C2.6583 21.9722 2.75674 21.8799 2.85033 21.7649C2.94401 21.6498 3.03565 21.5187 3.12541 21.3715C3.21816 21.2197 3.31254 21.069 3.40854 20.9192C3.50842 20.7636 3.61584 20.6128 3.73041 20.4676C3.84525 20.3219 3.9766 20.19 4.12182 20.0745C4.26721 19.9589 4.43026 19.8666 4.61112 19.7974C4.79198 19.7283 4.99643 19.6931 5.22455 19.6917L5.26104 19.6925C5.51026 19.6977 5.72698 19.7328 5.91096 19.7973C6.0951 19.8621 6.25299 19.946 6.38455 20.049C6.51627 20.1522 6.62385 20.2715 6.70776 20.407C6.79062 20.5406 6.85726 20.6836 6.90627 20.8329C6.95432 20.9789 6.98781 21.1294 7.00627 21.282C7.02375 21.4237 7.03295 21.5663 7.03385 21.7091L7.03291 21.7546C7.02744 22.0131 6.99682 22.2389 6.94112 22.4323C6.88541 22.6257 6.81268 22.7915 6.72315 22.9294C6.63354 23.0674 6.53166 23.1815 6.41713 23.2718C6.30283 23.3622 6.18502 23.4334 6.06377 23.4856C5.94821 23.536 5.82735 23.5733 5.70346 23.5967C5.58448 23.6185 5.4733 23.6283 5.36994 23.6261C5.26362 23.6239 5.17127 23.6037 5.09299 23.5656C5.01479 23.5275 4.95119 23.4783 4.90229 23.4179C4.85295 23.3567 4.81641 23.2861 4.79487 23.2105C4.77201 23.131 4.76144 23.0485 4.76354 22.9658C4.76518 22.8869 4.77908 22.8058 4.8051 22.7226C4.83037 22.6412 4.86981 22.5648 4.92158 22.4971C4.97415 22.429 5.04062 22.3728 5.11658 22.3325C5.19502 22.29 5.28604 22.2685 5.3894 22.2675C5.61744 22.2663 5.77424 22.2178 5.85994 22.1223C5.94557 22.0268 5.99026 21.8878 5.99408 21.7056C5.99369 21.6202 5.984 21.5351 5.96518 21.4518C5.94713 21.3739 5.91346 21.3071 5.86455 21.2513C5.81549 21.1957 5.74963 21.1508 5.66666 21.1171C5.58385 21.0836 5.47854 21.0654 5.3508 21.0627C5.19283 21.0592 5.04916 21.0921 4.9201 21.1607C4.79096 21.2296 4.67041 21.3206 4.55862 21.4337C4.44682 21.547 4.34002 21.6769 4.23799 21.8237C4.13467 21.9727 4.03271 22.1226 3.93213 22.2735C3.8305 22.4259 3.72394 22.5749 3.6126 22.7204C3.50174 22.8657 3.38104 22.9961 3.25088 23.112C3.12073 23.2278 2.97744 23.3199 2.82088 23.388C2.6644 23.4561 2.48744 23.4896 2.28979 23.4885L2.21682 23.4871C1.89174 23.4771 1.62213 23.4282 1.40815 23.34C1.19408 23.2519 1.02502 23.1253 0.900725 22.9599C0.776429 22.7946 0.690335 22.5928 0.642054 22.3546C0.59385 22.1166 0.572913 21.844 0.579397 21.537L0.581897 21.4185C0.587835 21.1389 0.623147 20.9024 0.687991 20.7092C0.752913 20.516 0.833772 20.3558 0.930725 20.2286C1.02768 20.1013 1.13612 20.0019 1.25619 19.9298C1.37627 19.8578 1.49448 19.8049 1.61073 19.7708C1.72698 19.7367 1.83533 19.7162 1.93588 19.7092C2.03635 19.7021 2.11705 19.6992 2.17776 19.7006C2.26885 19.7024 2.35135 19.7216 2.4251 19.7581C2.49662 19.793 2.56004 19.8425 2.61127 19.9034C2.66174 19.9638 2.70049 20.0346 2.72768 20.1157C2.75494 20.1968 2.76744 20.2845 2.76549 20.3788C2.76352 20.4538 2.74727 20.5277 2.7176 20.5966C2.68868 20.6665 2.64968 20.7318 2.60182 20.7903C2.55695 20.8454 2.5027 20.8921 2.44158 20.9283C2.38158 20.9635 2.32119 20.9805 2.26033 20.9793C2.01119 20.974 1.83705 21.0153 1.73776 21.1029C1.63869 21.1906 1.58721 21.321 1.58362 21.4941C1.58178 21.5741 1.58468 21.6542 1.59229 21.7339C1.59971 21.8115 1.62346 21.8803 1.66323 21.9406C1.70291 22.0007 1.76502 22.0491 1.8494 22.0859C1.93369 22.1226 2.05346 22.1426 2.20838 22.1459ZM3.90588 16.9617L3.21854 16.5476C3.11147 16.4832 3.00808 16.4129 2.90885 16.337C2.81182 16.2625 2.73471 16.1797 2.67783 16.0887C2.62096 15.9977 2.59065 15.8977 2.58698 15.789C2.5833 15.6803 2.62143 15.5596 2.70143 15.4267C2.77987 15.2967 2.86799 15.2077 2.9658 15.1603C3.06069 15.1133 3.16667 15.0933 3.27213 15.1026C3.37838 15.1117 3.48721 15.1416 3.59838 15.1928C3.71187 15.245 3.82233 15.3035 3.92924 15.3682L4.61658 15.7823L4.80955 15.4621C4.85042 15.3943 4.89454 15.3284 4.94174 15.2648C4.98908 15.2011 5.04432 15.152 5.10783 15.1174C5.17112 15.0829 5.24401 15.0682 5.32604 15.0733C5.40815 15.0785 5.50518 15.1147 5.61713 15.1821C5.72393 15.2465 5.79869 15.3137 5.84159 15.3839C5.88448 15.4542 5.90541 15.5255 5.90455 15.5975C5.90362 15.6697 5.88729 15.7424 5.85565 15.8157C5.82401 15.889 5.78768 15.9593 5.74698 16.0269L5.55393 16.3473L6.9208 17.171C6.97291 17.2024 7.0294 17.2338 7.09034 17.2653C7.15127 17.2966 7.21354 17.3156 7.27713 17.3219C7.34073 17.3282 7.40291 17.3178 7.46369 17.2906C7.52455 17.2634 7.5808 17.2067 7.6326 17.1208C7.68909 17.0271 7.74455 16.9514 7.79877 16.8935C7.85323 16.8359 7.91143 16.7964 7.97385 16.7755C8.03619 16.7545 8.10612 16.7532 8.18385 16.7716C8.26143 16.7901 8.35104 16.8298 8.4526 16.891C8.55674 16.9537 8.63205 17.0321 8.67846 17.1257C8.72502 17.2192 8.74862 17.3214 8.7494 17.4318C8.75026 17.5425 8.73026 17.6582 8.68932 17.779C8.64838 17.8998 8.59268 18.0188 8.52205 18.136C8.41065 18.321 8.2958 18.4673 8.1776 18.5753C8.05924 18.6831 7.93807 18.7592 7.81385 18.8032C7.69138 18.8471 7.56107 18.8647 7.43135 18.8549C7.30057 18.8453 7.16518 18.8153 7.02526 18.7646C6.88534 18.7141 6.74127 18.6485 6.59283 18.5679C6.43727 18.4832 6.28361 18.395 6.13198 18.3034L4.84323 17.5268L4.71143 17.7455C4.67065 17.8132 4.62573 17.8774 4.57658 17.9384C4.52744 17.9993 4.47151 18.0464 4.40893 18.0796C4.34619 18.1129 4.27393 18.127 4.19182 18.1218C4.10971 18.1167 4.01533 18.082 3.90854 18.0176C3.79658 17.9502 3.71916 17.8814 3.67635 17.811C3.63346 17.7409 3.61205 17.6703 3.61229 17.5996C3.61237 17.5285 3.62924 17.458 3.66268 17.3877C3.69619 17.3174 3.73338 17.2484 3.77416 17.1807L3.90588 16.9617ZM7.39034 14.2658C7.32878 14.1535 7.27415 14.0376 7.22674 13.9186C7.18034 13.8021 7.15596 13.6889 7.1533 13.5796C7.15033 13.4718 7.17642 13.3651 7.22885 13.2707C7.28182 13.1744 7.37776 13.0882 7.51643 13.0125C7.6526 12.9382 7.77479 12.9053 7.88323 12.9136C7.98987 12.9212 8.09243 12.9577 8.17987 13.0192C8.26909 13.0814 8.34963 13.1639 8.42135 13.2665C8.49441 13.3715 8.5617 13.4805 8.62291 13.5928L9.47494 15.1537C9.51522 15.228 9.55905 15.3003 9.60627 15.3703C9.65143 15.4376 9.70112 15.4918 9.75502 15.5335C9.80647 15.574 9.8681 15.5997 9.93315 15.6075C9.99799 15.6154 10.0705 15.5974 10.1506 15.5538C10.2572 15.4956 10.3249 15.4117 10.3537 15.3025C10.3824 15.1933 10.3818 15.0657 10.3521 14.919C10.3223 14.7725 10.2678 14.611 10.1887 14.4342C10.1096 14.2574 10.0168 14.0717 9.91041 13.877L9.49533 13.1165C9.43268 13.0018 9.37815 12.8862 9.33174 12.7695C9.28533 12.6528 9.26096 12.5398 9.2583 12.4303C9.25533 12.3224 9.28142 12.2158 9.33385 12.1215C9.38682 12.025 9.48276 11.9389 9.62143 11.8631C9.7576 11.7888 9.87987 11.7558 9.98823 11.7642C10.0948 11.7719 10.1973 11.8084 10.2849 11.8698C10.3741 11.9319 10.4546 12.0144 10.5264 12.1172C10.5995 12.2222 10.6667 12.3312 10.7279 12.4435L11.9209 14.6287C11.9835 14.7435 12.0403 14.857 12.0914 14.9694C12.1424 15.0818 12.1707 15.191 12.1766 15.297C12.1825 15.4029 12.1588 15.504 12.1059 15.6004C12.0529 15.6969 11.9531 15.7853 11.8063 15.8653C11.6596 15.9454 11.5314 15.9834 11.4217 15.9792C11.3121 15.975 11.2177 15.9496 11.1385 15.9027C11.061 15.8576 10.9935 15.7972 10.9402 15.7252C10.8873 15.6536 10.8456 15.5898 10.815 15.5339C10.8359 15.6228 10.8455 15.7197 10.8439 15.8246C10.8419 15.9307 10.8229 16.0357 10.7878 16.1357C10.752 16.2384 10.696 16.3373 10.6199 16.4326C10.5438 16.5279 10.4403 16.6111 10.3096 16.6824C10.1628 16.7625 10.003 16.8187 9.83002 16.8508C9.65698 16.8828 9.48127 16.8749 9.30268 16.8268C9.12409 16.7789 8.94862 16.6842 8.77619 16.5429C8.60377 16.4016 8.44471 16.1974 8.29909 15.9306L7.39034 14.2658ZM16.3785 14.0043C16.4054 14.1269 16.4279 14.2504 16.4458 14.3746C16.4632 14.497 16.4602 14.6104 16.4365 14.7152C16.4136 14.8187 16.3615 14.9136 16.2864 14.9885C16.2101 15.066 16.0917 15.1223 15.9314 15.1575C15.7681 15.1933 15.6343 15.194 15.5303 15.1592C15.4262 15.1245 15.3433 15.0727 15.2815 15.0037C15.221 14.9373 15.1746 14.8593 15.1449 14.7746C15.1155 14.6909 15.0944 14.6192 15.0814 14.5598C15.0724 14.6573 15.0536 14.7537 15.0254 14.8474C14.9955 14.9482 14.9494 15.0435 14.8889 15.1295C14.8273 15.2178 14.7474 15.2968 14.6492 15.3665C14.5509 15.4365 14.429 15.4873 14.2835 15.5192C14.1202 15.5551 13.951 15.5642 13.776 15.5465C13.601 15.5289 13.4345 15.4721 13.2764 15.376C13.1184 15.28 12.9766 15.1407 12.851 14.9583C12.7253 14.7757 12.6302 14.5375 12.5656 14.2437L12.2821 12.952C12.2169 12.6551 12.2031 12.3975 12.2409 12.1792C12.2785 11.9608 12.3491 11.7757 12.4528 11.6239C12.5563 11.4719 12.6839 11.3513 12.8355 11.2621C12.9871 11.1728 13.1446 11.1101 13.3078 11.0743C13.4533 11.0423 13.5852 11.0368 13.7033 11.0575C13.8215 11.0782 13.9269 11.1157 14.0198 11.1701C14.1107 11.2228 14.1925 11.29 14.2618 11.3689C14.3276 11.4434 14.3853 11.5247 14.4341 11.6113L14.0998 10.0882C14.0721 9.96252 14.0512 9.83541 14.0371 9.70745C14.0235 9.58136 14.0293 9.46636 14.0549 9.36276C14.0803 9.25909 14.1321 9.16839 14.2099 9.09065C14.2878 9.01276 14.4054 8.95667 14.5628 8.92206C14.7112 8.88956 14.8364 8.89245 14.9382 8.93081C15.0375 8.9674 15.1248 9.03056 15.1906 9.11339C15.2572 9.1969 15.3107 9.2987 15.3511 9.41901C15.3916 9.53932 15.4258 9.66323 15.4538 9.79089L16.3785 14.0043ZM13.9121 13.8268C13.9296 13.9069 13.9498 13.9849 13.9728 14.061C13.9956 14.1367 14.0273 14.203 14.0678 14.2595C14.1081 14.316 14.1584 14.3571 14.2185 14.3827C14.2786 14.4085 14.3547 14.4113 14.4467 14.391C14.5625 14.3656 14.651 14.319 14.7124 14.2509C14.7738 14.1832 14.8133 14.0903 14.8311 13.9728C14.8489 13.8553 14.8479 13.7123 14.8281 13.5439C14.8082 13.3757 14.7748 13.1768 14.7275 12.9475C14.7074 12.8555 14.6758 12.751 14.6331 12.6346C14.5921 12.5213 14.5379 12.4133 14.4715 12.3128C14.4064 12.2151 14.3286 12.1373 14.2381 12.0792C14.1476 12.0214 14.0444 12.0052 13.9287 12.0305C13.8367 12.0507 13.7687 12.0851 13.7249 12.1335C13.6813 12.1817 13.6515 12.2407 13.6386 12.3043C13.625 12.3696 13.6235 12.4407 13.6342 12.5178C13.6448 12.5948 13.6586 12.6717 13.6756 12.7489L13.9121 13.8268ZM20.4311 15.5528C20.1461 15.7499 19.9155 15.8494 19.7393 15.8513C19.5631 15.853 19.4205 15.7751 19.3116 15.6175C19.2579 15.54 19.2236 15.4678 19.2085 15.4005C19.1935 15.3334 19.1935 15.2704 19.2085 15.2121C19.2234 15.1537 19.2513 15.0994 19.2899 15.0532C19.3309 15.0041 19.3784 14.9609 19.4313 14.9249C19.4688 14.8989 19.5046 14.876 19.5389 14.8559C19.5731 14.836 19.6015 14.8182 19.624 14.8027C19.6715 14.7698 19.6977 14.7101 19.7024 14.6237C19.7073 14.5371 19.701 14.437 19.6835 14.3235C19.6646 14.2029 19.6434 14.0827 19.6197 13.963C19.5961 13.8443 19.5763 13.7248 19.5605 13.6048L19.3967 13.4963L18.7698 13.0787C18.5484 12.9314 18.3281 12.7826 18.1089 12.6322C17.8874 12.4804 17.6677 12.3285 17.4496 12.1761C17.2316 12.0238 17.0247 11.8731 16.8291 11.7239C16.7485 11.6648 16.6708 11.6019 16.5963 11.5354C16.526 11.4734 16.4635 11.4031 16.4099 11.3261C16.3609 11.2565 16.3284 11.1766 16.3149 11.0925C16.3016 11.0103 16.3058 10.9262 16.3271 10.8457C16.3493 10.7625 16.3859 10.6837 16.4351 10.613C16.4869 10.538 16.552 10.4732 16.6272 10.4218C16.6972 10.3734 16.772 10.3439 16.8515 10.3334C16.9327 10.3228 17.0153 10.3278 17.0946 10.3481C17.1803 10.3699 17.2631 10.402 17.341 10.4437C17.4242 10.488 17.5037 10.5387 17.5789 10.5953L19.176 11.8302L18.5615 9.91573C18.5349 9.82748 18.5152 9.73732 18.5024 9.64604C18.4891 9.55622 18.4875 9.46502 18.4978 9.37479C18.5075 9.29047 18.5313 9.20839 18.5682 9.13198C18.6049 9.05667 18.6595 8.99401 18.732 8.94393C18.8032 8.89431 18.8837 8.8594 18.9686 8.84128C19.0513 8.82302 19.1369 8.82132 19.2203 8.83628C19.3045 8.85208 19.385 8.88399 19.4571 8.93026C19.5337 8.97905 19.5996 9.04293 19.6506 9.118C19.7027 9.19324 19.7451 9.27471 19.7768 9.3605C19.8093 9.44804 19.8368 9.53735 19.8592 9.628L20.6089 12.6357C20.6515 12.8151 20.6919 12.9951 20.73 13.1756C20.7698 13.3636 20.8019 13.5531 20.8264 13.7437C20.8506 13.9339 20.8648 14.1199 20.8688 14.3019C20.8727 14.484 20.8613 14.6546 20.8346 14.8136C20.8077 14.9726 20.7618 15.116 20.6971 15.244C20.6323 15.3721 20.5436 15.4752 20.4311 15.5528ZM24.8653 2.49198C24.9788 2.44831 25.0946 2.40846 25.2128 2.37268C25.331 2.3369 25.4445 2.32081 25.5534 2.3244C25.6592 2.32718 25.7622 2.35943 25.8507 2.41753C25.9399 2.47589 26.0125 2.57737 26.0683 2.72214C26.1231 2.86401 26.1368 2.98636 26.1099 3.08971C26.0833 3.19219 26.0286 3.2852 25.952 3.35823C25.8737 3.43401 25.7791 3.49909 25.668 3.55331C25.5579 3.60709 25.4456 3.65614 25.3313 3.70034L24.8973 3.86768L26.3542 7.64557C26.4003 7.76473 26.4427 7.88526 26.4815 8.00698C26.5192 8.12612 26.5357 8.23854 26.531 8.34464C26.5264 8.45073 26.4906 8.54831 26.4241 8.6376C26.3575 8.72675 26.2434 8.80261 26.0817 8.86487C25.92 8.92714 25.7846 8.94768 25.6753 8.92628C25.5661 8.90487 25.4741 8.85643 25.3994 8.78096C25.3247 8.7055 25.2614 8.61104 25.2095 8.49737C25.1564 8.38119 25.1069 8.2634 25.061 8.14417L23.6041 4.36628L23.1702 4.53362C23.0567 4.57745 22.9406 4.61643 22.8219 4.65081C22.7032 4.68518 22.5894 4.70057 22.4805 4.69682C22.3746 4.69422 22.2717 4.66204 22.1831 4.60393C22.0939 4.54557 22.0218 4.4455 21.9672 4.30362C21.9114 4.15901 21.897 4.03495 21.9239 3.93175C21.9509 3.82854 22.0036 3.73909 22.0819 3.66307C22.1602 3.58745 22.2551 3.52307 22.3667 3.47018C22.4773 3.41773 22.5899 3.36944 22.7042 3.32542L24.8653 2.49198ZM28.2373 4.73143C28.238 4.60652 28.2456 4.48175 28.2601 4.35768C28.2746 4.23636 28.3064 4.12768 28.3556 4.03237C28.4048 3.9369 28.4753 3.85971 28.5668 3.80096C28.6584 3.74221 28.7817 3.71354 28.9367 3.7144C29.0917 3.71542 29.2146 3.74589 29.3055 3.80565C29.3946 3.86361 29.4665 3.94438 29.5138 4.03956C29.5617 4.13557 29.5923 4.2444 29.6053 4.36604C29.6181 4.48768 29.6242 4.61245 29.6234 4.74011L29.6078 7.2569C29.6071 7.38262 29.5995 7.5082 29.5849 7.63307C29.5706 7.75612 29.5387 7.86526 29.4895 7.96081C29.4402 8.05628 29.3699 8.13261 29.2783 8.18979C29.1867 8.24698 29.0635 8.27503 28.9084 8.27417C28.7535 8.27315 28.6305 8.24354 28.5396 8.18518C28.4503 8.12849 28.3783 8.0484 28.3314 7.95362C28.2832 7.8576 28.2528 7.74792 28.2399 7.62471C28.2269 7.4997 28.2208 7.37407 28.2217 7.24839L28.2373 4.73143ZM29.646 2.588C29.6445 2.82214 29.5825 2.99565 29.4603 3.10893C29.338 3.22221 29.1674 3.27815 28.9485 3.27682C28.7296 3.27542 28.5597 3.21745 28.4389 3.1026C28.318 2.98776 28.2583 2.81354 28.2598 2.57948C28.2614 2.33628 28.3232 2.16018 28.4455 2.05151C28.5678 1.94284 28.7384 1.88925 28.9573 1.89065C29.1913 1.89206 29.365 1.94784 29.4783 2.058C29.5917 2.16823 29.6475 2.34479 29.646 2.588ZM32.9775 9.06526C32.8435 8.98737 32.7519 8.89995 32.7028 8.80276C32.6541 8.70763 32.6322 8.60104 32.6394 8.4944C32.6463 8.38589 32.6746 8.27503 32.7247 8.16159C32.7756 8.04673 32.8328 7.93476 32.896 7.8262L33.8032 6.26495C33.8438 6.19517 33.881 6.1235 33.9148 6.05018C33.9479 5.97815 33.9679 5.90885 33.9749 5.8426C33.982 5.77808 33.9716 5.71283 33.9449 5.6537C33.9179 5.59417 33.8651 5.54143 33.7862 5.49557C33.681 5.43448 33.575 5.42026 33.4681 5.45315C33.3611 5.48604 33.2531 5.55237 33.1439 5.65237C33.0349 5.75245 32.9249 5.8812 32.8142 6.03831C32.6956 6.20797 32.5844 6.38269 32.481 6.56198L32.0365 7.32675C31.9735 7.4355 31.9044 7.54069 31.8298 7.64182C31.7561 7.74128 31.6744 7.82136 31.5848 7.88175C31.4968 7.94165 31.3938 7.97585 31.2874 7.9805C31.1788 7.98596 31.056 7.94901 30.9195 7.86964C30.7828 7.79026 30.6899 7.7019 30.6408 7.60487C30.5917 7.50784 30.5713 7.40534 30.5795 7.29753C30.5875 7.18971 30.6167 7.07917 30.6667 6.96589C30.7167 6.85261 30.7738 6.74065 30.838 6.63026L32.0935 4.46987C32.1564 4.36122 32.2241 4.25537 32.2963 4.15261C32.3673 4.05143 32.447 3.97034 32.5353 3.90909C32.6228 3.84818 32.7261 3.81388 32.8327 3.81034C32.9425 3.80573 33.0686 3.84456 33.2104 3.92706C33.3549 4.01112 33.4531 4.10073 33.5051 4.19589C33.557 4.29104 33.5824 4.38495 33.5814 4.47761C33.581 4.56722 33.5618 4.65576 33.5252 4.73753C33.4887 4.81846 33.4553 4.88503 33.4248 4.93761C33.4927 4.87511 33.5752 4.81932 33.6722 4.77042C33.7693 4.72128 33.8756 4.68807 33.9911 4.67081C34.1067 4.65354 34.2274 4.6544 34.3537 4.67323C34.4798 4.69206 34.606 4.73807 34.7321 4.81151C34.9056 4.91229 35.0493 5.05214 35.1635 5.23081C35.2775 5.40964 35.3374 5.62729 35.3431 5.8837C35.4353 5.81685 35.5411 5.7712 35.6529 5.75003C35.7707 5.72717 35.8911 5.72164 36.0105 5.73362C36.1336 5.74542 36.257 5.77229 36.3804 5.81409C36.5009 5.85473 36.617 5.90723 36.7271 5.97081C36.8716 6.05464 37.0024 6.16245 37.1196 6.2937C37.2365 6.42495 37.3208 6.57948 37.3724 6.75714C37.4238 6.93464 37.4342 7.13307 37.4033 7.35253C37.3724 7.57198 37.2814 7.81182 37.1303 8.07198L36.1681 9.72784C36.105 9.8366 36.0353 9.9414 35.9594 10.0417C35.8843 10.1404 35.8013 10.2196 35.7105 10.2794C35.6208 10.3386 35.5166 10.372 35.4092 10.3759C35.2992 10.3805 35.1773 10.3439 35.0432 10.266C34.9066 10.1867 34.8131 10.098 34.7627 10.0001C34.7123 9.90221 34.6905 9.79917 34.6974 9.6905C34.7042 9.58198 34.7325 9.47112 34.7826 9.35784C34.8334 9.24287 34.8906 9.13083 34.9539 9.02221L35.8612 7.46096C35.9017 7.39116 35.9383 7.31912 35.9707 7.24518C36.0025 7.17229 36.0219 7.1026 36.0289 7.0362C36.036 6.97115 36.0249 6.9054 35.9968 6.84628C35.9686 6.78604 35.9151 6.73284 35.8362 6.68714C35.7521 6.63823 35.6653 6.623 35.5756 6.64112C35.4858 6.65925 35.3946 6.70292 35.3017 6.77206C35.2089 6.8412 35.1148 6.93323 35.0197 7.04862C34.9246 7.16378 34.8296 7.29401 34.7346 7.43932L34.1023 8.52737C34.0393 8.6361 33.9703 8.74121 33.8956 8.84221C33.8219 8.94182 33.7396 9.02159 33.6487 9.08112C33.5577 9.14081 33.4573 9.173 33.3474 9.17761C33.2374 9.18221 33.1142 9.14471 32.9775 9.06526ZM38.8613 13.743C38.8139 13.7545 38.7578 13.7647 38.6929 13.7739C38.6279 13.7832 38.5618 13.7748 38.4946 13.7488C38.4274 13.7226 38.3628 13.6716 38.3009 13.5958C38.2389 13.52 38.1893 13.4038 38.1518 13.2471L37.7294 11.4822L37.3037 11.584C37.2327 11.6011 37.1609 11.6277 37.0883 11.6638C37.0165 11.6992 36.9518 11.7472 36.8971 11.8057C36.8417 11.8651 36.8011 11.9366 36.7784 12.0146C36.7539 12.0954 36.7542 12.1874 36.7789 12.291C36.8073 12.4093 36.843 12.4969 36.8864 12.5537C36.9296 12.6105 36.9763 12.6524 37.0267 12.6795C37.0769 12.7065 37.1292 12.7292 37.1836 12.7474C37.2379 12.7657 37.2917 12.7943 37.3448 12.8332C37.3978 12.872 37.4488 12.9317 37.4978 13.0121C37.5467 13.0926 37.5896 13.2098 37.6264 13.3635C37.6441 13.4374 37.6553 13.5105 37.6602 13.5828C37.6649 13.655 37.6574 13.7218 37.6377 13.7827C37.6174 13.8445 37.5814 13.9 37.5332 13.9437C37.4833 13.9899 37.4126 14.0242 37.321 14.046C37.1288 14.0921 36.954 14.0698 36.7963 13.9795C36.6386 13.8889 36.4996 13.7613 36.3788 13.5965C36.258 13.4315 36.1557 13.2459 36.0719 13.0393C35.9881 12.8328 35.9239 12.6363 35.8793 12.4501C35.8235 12.204 35.7986 11.9631 35.8048 11.7271C35.8108 11.4913 35.8585 11.2727 35.9479 11.0716C36.0372 10.8703 36.1749 10.6944 36.3608 10.5439C36.5467 10.3931 36.7918 10.2812 37.0964 10.2082L38.134 9.95995C38.4149 9.89268 38.6608 9.86909 38.8719 9.88893C39.0829 9.90862 39.2662 9.9562 39.4217 10.0315C39.5773 10.1068 39.7072 10.2023 39.8115 10.318C39.9157 10.4339 40.0019 10.5553 40.0699 10.6828C40.138 10.8103 40.1911 10.9344 40.2293 11.055C40.2676 11.1755 40.2973 11.28 40.3185 11.3689C40.39 11.6673 40.4244 11.9288 40.4217 12.1528C40.4192 12.3771 40.392 12.5703 40.3402 12.7328C40.2883 12.8953 40.2162 13.0313 40.1237 13.1408C40.0311 13.2505 39.9299 13.3403 39.8202 13.4105C39.7123 13.4795 39.5966 13.5355 39.4756 13.5774C39.3641 13.616 39.2508 13.6494 39.1361 13.6773L38.8613 13.743ZM38.3946 11.323L38.6599 12.4316C38.7836 12.4025 38.9062 12.3692 39.0275 12.3318C39.1336 12.2986 39.2192 12.2546 39.2844 12.2C39.3493 12.1454 39.3918 12.0742 39.4114 11.9868C39.4311 11.8992 39.4236 11.783 39.3889 11.6382C39.3599 11.5169 39.3178 11.4262 39.2629 11.366C39.2078 11.3057 39.1472 11.2646 39.0811 11.2431C39.0168 11.2215 38.9486 11.2138 38.8811 11.2205C38.8139 11.2271 38.7553 11.2366 38.705 11.2485L38.3946 11.323Z"
            fill="#00D9A5" />
        <path
            d="M36.6921 16.4191C36.6921 16.9137 36.2914 17.3157 35.7955 17.3157C35.3008 17.3157 34.9001 16.9138 34.9001 16.4191C34.9001 15.9244 35.3008 15.5225 35.7955 15.5225C36.2914 15.5225 36.6921 15.9245 36.6921 16.4191Z"
            fill="#FFD22A" />
        <path
            d="M35.1615 17.1404C35.1391 17.1404 35.1167 17.1318 35.0996 17.1147C34.7163 16.7313 34.7167 16.1074 35.1004 15.7236C35.4843 15.3399 36.1083 15.3394 36.4915 15.7228C36.4996 15.7309 36.5061 15.7405 36.5105 15.7512C36.5149 15.7618 36.5171 15.7732 36.5171 15.7847C36.5171 15.7962 36.5149 15.8076 36.5105 15.8182C36.5061 15.8289 36.4996 15.8385 36.4915 15.8467C36.4833 15.8548 36.4737 15.8612 36.463 15.8657C36.4524 15.8701 36.441 15.8723 36.4295 15.8723C36.418 15.8723 36.4066 15.8701 36.396 15.8657C36.3853 15.8612 36.3757 15.8548 36.3676 15.8467C36.0528 15.5318 35.54 15.5323 35.2244 15.8475C34.909 16.1631 34.9085 16.676 35.2235 16.9909C35.2358 17.0031 35.2441 17.0187 35.2475 17.0357C35.2509 17.0527 35.2491 17.0703 35.2425 17.0864C35.2359 17.1024 35.2246 17.116 35.2102 17.1257C35.1958 17.1353 35.1789 17.1404 35.1615 17.1404Z"
            fill="#020305" />
        <path
            d="M21.7804 38.1134C21.7804 38.608 21.3797 39.0101 20.8837 39.0101C20.389 39.0101 19.9884 38.6081 19.9884 38.1134C19.9884 37.6188 20.3891 37.2168 20.8837 37.2168C21.3797 37.2168 21.7804 37.6188 21.7804 38.1134Z"
            fill="#2329FB" />
        <path
            d="M20.25 38.8341C20.2276 38.8341 20.2051 38.8255 20.188 38.8084C20.0964 38.7172 20.0238 38.6088 19.9745 38.4894C19.9251 38.37 19.9 38.2419 19.9005 38.1127C19.9008 37.8502 20.0032 37.6031 20.189 37.4174C20.3747 37.2317 20.6217 37.1292 20.8844 37.1289H20.8854C21.0144 37.1285 21.1423 37.1538 21.2615 37.2032C21.3807 37.2525 21.489 37.3251 21.58 37.4166C21.5881 37.4247 21.5946 37.4344 21.599 37.445C21.6034 37.4556 21.6056 37.467 21.6056 37.4785C21.6056 37.49 21.6034 37.5014 21.599 37.512C21.5946 37.5227 21.5881 37.5323 21.58 37.5405C21.5718 37.5486 21.5622 37.5551 21.5515 37.5595C21.5409 37.5639 21.5295 37.5661 21.518 37.5661C21.5065 37.5661 21.4951 37.5639 21.4845 37.5595C21.4739 37.5551 21.4642 37.5486 21.4561 37.5405C21.3813 37.4653 21.2923 37.4057 21.1944 37.3652C21.0964 37.3246 20.9914 37.3039 20.8854 37.3041H20.8845C20.6686 37.3045 20.4656 37.3887 20.3129 37.5413C20.1601 37.694 20.0759 37.8971 20.0758 38.1131C20.0753 38.2192 20.096 38.3244 20.1365 38.4225C20.177 38.5205 20.2367 38.6096 20.3119 38.6845C20.3242 38.6967 20.3326 38.7123 20.336 38.7293C20.3394 38.7463 20.3377 38.764 20.331 38.78C20.3244 38.796 20.3131 38.8097 20.2987 38.8193C20.2843 38.829 20.2673 38.8341 20.25 38.8341Z"
            fill="#020305" />
        <path
            d="M6.32125 27.2629C6.32125 27.7575 5.92055 28.1595 5.42461 28.1595C4.92992 28.1595 4.5293 27.7575 4.5293 27.2629C4.5293 26.7682 4.93 26.3662 5.42461 26.3662C5.92062 26.3662 6.32125 26.7682 6.32125 27.2629Z"
            fill="#5CEED9" />
        <path
            d="M4.79077 27.9841C4.76835 27.9841 4.74593 27.9755 4.72882 27.9584C4.34554 27.5753 4.34601 26.9511 4.72976 26.5674C4.82087 26.4758 4.92923 26.4031 5.04859 26.3536C5.16794 26.3041 5.29593 26.2787 5.42515 26.2789H5.42624C5.55526 26.2785 5.68308 26.3037 5.80228 26.3531C5.92149 26.4024 6.02972 26.4749 6.12069 26.5664C6.13712 26.5829 6.14636 26.6051 6.14636 26.6284C6.14636 26.6516 6.13712 26.6739 6.12069 26.6903C6.10426 26.7068 6.08198 26.716 6.05874 26.716C6.0355 26.716 6.01322 26.7068 5.99679 26.6903C5.84421 26.5378 5.64382 26.4501 5.4253 26.4542C5.31908 26.454 5.21387 26.4748 5.11575 26.5156C5.01764 26.5563 4.92856 26.616 4.85366 26.6913C4.53827 27.0067 4.5378 27.5196 4.85272 27.8345C4.86501 27.8467 4.87338 27.8623 4.87678 27.8793C4.88018 27.8963 4.87845 27.914 4.87182 27.93C4.86518 27.946 4.85394 27.9597 4.83951 27.9694C4.82508 27.979 4.80812 27.9841 4.79077 27.9841ZM23.5703 10.7617C23.5219 10.7617 23.4827 10.7224 23.4827 10.6741C23.4834 9.88759 23.0558 9.10564 22.3933 8.68212C22.1809 8.54642 21.9423 8.44252 21.7114 8.34212C21.6243 8.30416 21.5372 8.26634 21.4511 8.22658C21.265 8.14103 21.0474 8.03048 20.8493 7.87955C20.8334 7.8715 20.8173 7.86314 20.8011 7.85439C19.8925 7.36634 19.1167 6.60048 18.6168 5.69814C18.6067 5.6779 18.6048 5.65456 18.6115 5.63297C18.6183 5.61139 18.633 5.59322 18.6528 5.58227C18.6726 5.57132 18.6958 5.56842 18.7177 5.57419C18.7396 5.57996 18.7583 5.59394 18.7701 5.61322C19.1698 6.33439 19.7513 6.96548 20.4371 7.42947C20.2662 7.13837 20.2226 6.8072 20.3264 6.52759C20.4001 6.32892 20.5658 6.15884 20.7696 6.07275C20.9484 5.99728 21.1349 5.9947 21.2951 6.06572C21.5755 6.18978 21.7172 6.48478 21.8284 6.78533C22.0338 7.33994 21.9787 7.764 21.6773 7.94884C21.6055 7.99283 21.5266 8.01916 21.4402 8.02791C21.4688 8.04158 21.4969 8.05478 21.5244 8.06744C21.6094 8.10666 21.6954 8.14392 21.7813 8.18142C22.0184 8.28462 22.2637 8.39127 22.4877 8.53462C23.1993 8.98947 23.6586 9.82939 23.6579 10.6741C23.6579 10.6856 23.6556 10.697 23.6513 10.7076C23.6469 10.7183 23.6404 10.7279 23.6323 10.7361C23.6241 10.7442 23.6145 10.7507 23.6038 10.7551C23.5932 10.7595 23.5818 10.7617 23.5703 10.7617ZM20.9432 7.73072C21.2231 7.87017 21.4337 7.89259 21.5857 7.79955C21.903 7.60494 21.7463 7.06814 21.6641 6.84634C21.5729 6.59994 21.4562 6.32869 21.2242 6.22603C21.1084 6.17502 20.9712 6.17791 20.8378 6.23423C20.6776 6.30181 20.5479 6.43447 20.4907 6.58861C20.389 6.86291 20.4684 7.2172 20.6933 7.49119C20.767 7.58095 20.8523 7.66017 20.9432 7.73072ZM36.1426 30.5478C36.1257 30.5478 36.1091 30.5429 36.0948 30.5336C36.0806 30.5244 36.0693 30.5112 36.0625 30.4957C36.0556 30.4801 36.0534 30.463 36.0561 30.4462C36.0588 30.4294 36.0663 30.4138 36.0777 30.4013C37.0923 29.2835 37.7991 27.8497 38.0678 26.3643C38.0713 26.3452 38.0747 26.326 38.078 26.3067C38.028 26.3238 37.9773 26.338 37.926 26.3489C37.4037 26.4622 36.8423 26.2036 36.6478 25.761C36.5408 25.5174 36.565 25.2108 36.7108 24.9607C36.8418 24.7363 37.0487 24.5945 37.2786 24.5716C37.7134 24.5259 38.0796 24.875 38.2138 25.2407C38.3051 25.4894 38.3157 25.7549 38.294 26.0096C38.5266 25.8637 38.7322 25.6406 38.8859 25.3613C39.0922 24.9864 39.1908 24.5663 39.2758 24.051C39.699 21.4793 39.4903 18.9527 38.6722 16.7446C38.6641 16.7228 38.665 16.6988 38.6747 16.6777C38.6844 16.6565 38.7021 16.6402 38.7239 16.6321C38.7456 16.624 38.7697 16.6249 38.7908 16.6346C38.8119 16.6443 38.8283 16.662 38.8364 16.6838C39.6651 18.9205 39.8767 21.4778 39.4485 24.0795C39.3608 24.6128 39.2576 25.0492 39.0394 25.446C38.8458 25.7975 38.575 26.0686 38.2683 26.2257C38.2598 26.2835 38.2502 26.3404 38.2402 26.3956C37.9657 27.9131 37.2438 29.3774 36.2073 30.5192C36.1991 30.5282 36.1891 30.5354 36.178 30.5403C36.1669 30.5452 36.1548 30.5478 36.1426 30.5478ZM37.3514 24.743C37.3332 24.743 37.3148 24.744 37.2962 24.7457C37.1229 24.7631 36.9648 24.8737 36.8624 25.0492C36.7442 25.2514 36.7235 25.4972 36.8084 25.6904C36.9707 26.0597 37.4458 26.2733 37.8892 26.1777C37.9641 26.1613 38.0373 26.1379 38.1077 26.1076C38.1406 25.8399 38.1431 25.5563 38.0495 25.3009C37.9471 25.022 37.6723 24.743 37.3514 24.743ZM12.5557 39.1105C12.0221 39.1105 11.4801 39.0715 10.9417 38.9763C9.07194 38.646 7.5339 37.6665 6.72187 36.2891C6.41569 35.7699 6.29593 35.3113 6.35585 34.8867C6.37015 34.7853 6.39882 34.6828 6.44023 34.5841C6.35499 34.4131 6.29444 34.2353 6.2464 34.0746C5.92781 33.004 5.87172 31.8723 6.08288 30.7754C6.0874 30.7526 6.10072 30.7326 6.11994 30.7196C6.13916 30.7066 6.16273 30.7017 6.18554 30.706C6.23304 30.7152 6.26405 30.7613 6.25483 30.8086C6.04902 31.8778 6.10369 32.9808 6.41421 34.0243C6.44866 34.1396 6.48991 34.2645 6.54257 34.3878C6.72085 34.1072 7.00835 33.8926 7.35718 33.8835C7.63288 33.8713 7.90991 34.0424 8.06413 34.3064C8.19569 34.5318 8.20397 34.7837 8.08624 34.98C7.99179 35.1378 7.82991 35.2478 7.63054 35.2899C7.38171 35.3427 7.09835 35.2845 6.89132 35.1385C6.75452 35.042 6.64499 34.9195 6.55593 34.7852C6.54421 34.8274 6.5353 34.8696 6.52937 34.9113C6.47601 35.2895 6.59155 35.7232 6.8728 36.2001C7.65882 37.5334 9.15296 38.4823 10.9722 38.8038C12.7522 39.1182 14.5853 38.8092 15.9834 38.5045C15.9947 38.502 16.0063 38.5017 16.0177 38.5037C16.029 38.5057 16.0399 38.51 16.0496 38.5162C16.0593 38.5224 16.0676 38.5305 16.0742 38.54C16.0807 38.5495 16.0853 38.5601 16.0877 38.5714C16.0926 38.5941 16.0884 38.6179 16.0758 38.6374C16.0632 38.6569 16.0434 38.6707 16.0207 38.6756C15.0273 38.8919 13.816 39.1105 12.5557 39.1105ZM6.63608 34.5799C6.72538 34.7405 6.8403 34.888 6.99218 34.9953C7.16069 35.1138 7.3914 35.1607 7.59413 35.1183C7.70108 35.0957 7.84726 35.0377 7.93585 34.8899C8.0214 34.747 8.01304 34.5666 7.91265 34.3946C7.79218 34.1882 7.57046 34.0506 7.36163 34.0587C7.0421 34.0669 6.77866 34.2998 6.63608 34.5799ZM25.5405 38.5431C25.331 38.5431 25.1145 38.4927 24.9132 38.3927C24.8935 38.3818 24.8788 38.3636 24.8721 38.3421C24.8654 38.3205 24.8673 38.2972 24.8773 38.277C24.8873 38.2568 24.9048 38.2412 24.926 38.2335C24.9472 38.2258 24.9706 38.2266 24.9912 38.2356C25.3132 38.396 25.6771 38.4114 25.9637 38.2785C26.0174 38.2535 26.0683 38.2228 26.1155 38.187C26.0356 38.1733 25.9563 38.1557 25.878 38.1343C25.5484 38.0438 25.3309 37.8898 25.2313 37.6769C25.1505 37.5041 25.1648 37.2984 25.2705 37.1127C25.3826 36.9157 25.5797 36.7806 25.785 36.7603C25.9784 36.7398 26.1818 36.8117 26.342 36.9542C26.4981 37.0928 26.5986 37.2845 26.6178 37.4803C26.637 37.6754 26.5825 37.8762 26.4743 38.049C26.8633 38.0656 27.2862 38.0007 27.7205 37.8561C28.308 37.6606 28.8583 37.3474 29.3907 37.0442C29.4108 37.0338 29.4342 37.0315 29.456 37.038C29.4777 37.0444 29.4961 37.059 29.5073 37.0787C29.5186 37.0984 29.5217 37.1217 29.5162 37.1436C29.5106 37.1656 29.4967 37.1846 29.4775 37.1966C28.9377 37.5038 28.3797 37.8213 27.7759 38.0224C27.2759 38.1886 26.7892 38.2545 26.3444 38.2162C26.2569 38.3084 26.1529 38.3834 26.0378 38.4373C25.8854 38.5081 25.7153 38.5431 25.5405 38.5431ZM25.8482 36.9323C25.8328 36.9323 25.8175 36.9331 25.8022 36.9345C25.6526 36.9494 25.5073 37.0509 25.4228 37.1992C25.3456 37.3349 25.3337 37.482 25.3901 37.6026C25.4669 37.767 25.6467 37.8889 25.9244 37.9652C26.0366 37.996 26.1529 38.0185 26.273 38.0328C26.3959 37.8771 26.4618 37.6837 26.4434 37.4974C26.4284 37.345 26.3491 37.1948 26.2257 37.0851C26.1147 36.9867 25.9794 36.9323 25.8482 36.9323ZM20.9063 17.9856H20.8894C20.1547 17.9806 19.4455 17.7056 18.7885 17.409C18.4687 17.2645 18.1616 17.1149 17.9177 16.871C17.6364 16.5896 17.5042 16.2135 17.5726 15.8893C17.5783 15.8675 17.5922 15.8486 17.6114 15.8367C17.6306 15.8249 17.6537 15.8208 17.6758 15.8255C17.6978 15.8302 17.7173 15.8432 17.73 15.8619C17.7428 15.8805 17.7478 15.9034 17.7441 15.9256C17.6877 16.1924 17.8018 16.5071 18.0416 16.747C18.2646 16.9699 18.5563 17.1117 18.8606 17.2492C19.5001 17.5378 20.1886 17.8056 20.8908 17.8103H20.9066C21.6598 17.8103 22.3437 17.4645 22.6523 16.9263C23.0066 16.3081 22.8842 15.5451 22.7151 14.7519C22.7127 14.7406 22.7126 14.729 22.7146 14.7177C22.7167 14.7063 22.721 14.6955 22.7273 14.6859C22.7335 14.6762 22.7416 14.6679 22.7511 14.6613C22.7606 14.6548 22.7713 14.6502 22.7826 14.6478C22.8287 14.6382 22.8763 14.6678 22.8865 14.7153C23.063 15.543 23.1894 16.3417 22.8042 17.0135C22.4648 17.6051 21.7212 17.9856 20.9063 17.9856Z"
            fill="#020305" />
    </g>
    <defs>
        <clipPath id="clip0_11_2657">
            <rect width="40" height="40" fill="white" transform="translate(0.5 0.5)" />
        </clipPath>
    </defs>
</svg>
