<svg width="171" height="151" viewBox="0 0 171 151" fill="none" xmlns="http://www.w3.org/2000/svg">
    <circle cx="86" cy="74" r="59.5" fill="#FF944C" stroke="white" />
    <circle cx="23" cy="10" r="7.5" fill="#FF944C" stroke="white" />
    <circle cx="154" cy="26" r="7.5" fill="#FF944C" stroke="white" />
    <circle cx="5" cy="123" r="4.5" fill="#FF944C" stroke="white" />
    <circle cx="107" cy="3" r="2.5" fill="#FF944C" stroke="white" />
    <circle cx="168" cy="77" r="2.5" fill="#FF944C" stroke="white" />
    <circle cx="151" cy="137" r="2.5" fill="#FF944C" stroke="white" />
    <circle cx="40" cy="137" r="2.5" fill="#FF944C" stroke="white" />
    <circle cx="5.5" cy="56.5" r="1" fill="#FF944C" stroke="white" />
    <circle cx="105.5" cy="149.5" r="1" fill="#FF944C" stroke="white" />
    <path
        d="M108.069 67.1354L108.05 67.3501L108.192 67.512L114.334 74.4869L108.192 81.4617L108.05 81.6236L108.069 81.8383L108.925 91.0717L99.836 93.1296L99.6268 93.177L99.5169 93.3612L94.7582 101.342L86.1967 97.6775L85.9993 97.593L85.8021 97.6779L77.2412 101.367L72.4831 93.3875L72.3732 93.2033L72.164 93.1559L63.0746 91.098L63.9306 81.8382L63.9504 81.6235L63.808 81.4617L57.6657 74.4863L63.8086 67.485L63.9504 67.3233L63.9306 67.1091L63.0748 57.8769L72.1628 55.8444L72.3728 55.7974L72.4831 55.6125L77.2418 47.6318L85.8033 51.2963L86 51.3805L86.1967 51.2963L94.7582 47.6318L99.5169 55.6125L99.6268 55.7967L99.836 55.8441L108.925 57.902L108.069 67.1354ZM80.3743 87.98L80.7273 88.3319L81.0803 87.98L102.171 66.9576L102.525 66.6047L102.172 66.2506L98.4551 62.5191L98.1022 62.1647L97.7479 62.5178L80.7266 79.4839L74.2514 73.0547L73.8984 72.7042L73.5461 73.0553L69.8288 76.7605L69.4736 77.1147L69.8288 77.4688L80.3743 87.98Z"
        fill="white" stroke="white" />
</svg>
