<svg width="17" height="25" viewBox="0 0 17 25" fill="none" xmlns="http://www.w3.org/2000/svg">
    <path
        d="M8.49988 25C7.53577 25 6.61114 24.6255 5.92941 23.959C5.24767 23.2924 4.86468 22.3883 4.86468 21.4457V8.9829L1.36548 9.64244C0.154424 9.64244 -0.456201 8.21432 0.399221 7.37328L2.83697 4.98976L7.53634 0.394926C7.80698 0.135631 8.15241 0 8.5026 0C8.84804 0 9.19279 0.134966 9.4641 0.394926L14.1635 4.98976L16.6012 7.37328C17.456 8.21432 16.8453 9.64244 15.635 9.64244L12.1358 8.9829V21.4457C12.1354 22.3883 11.7522 23.2923 11.0704 23.9588C10.3886 24.6253 9.464 24.9998 8.49988 25Z"
        fill="url(#paint0_linear_67_1961)" />
    <defs>
        <linearGradient id="paint0_linear_67_1961" x1="8.49988" y1="22.8259" x2="8.49988"
            y2="3.90538" gradientUnits="userSpaceOnUse">
            <stop stop-color="#08EC69" />
            <stop offset="1" stop-color="#34FF90" />
        </linearGradient>
    </defs>
</svg>
