<svg width="50" height="50" viewBox="0 0 50 50" fill="none" xmlns="http://www.w3.org/2000/svg">
    <path
        d="M25.57 49.7371C23.5554 49.7371 21.8054 49.2668 20.4813 48.3735C14.8832 47.5102 9.74863 44.6876 5.99258 40.4016C2.12813 35.992 0 30.331 0 24.4612C0 23.1242 0.110645 21.7831 0.329102 20.4748C0.330469 20.4652 0.331934 20.4558 0.333496 20.4463C1.01582 16.3476 2.76699 12.4679 5.39766 9.22656C7.94365 6.0875 11.2564 3.61846 14.9774 2.08662C15.3387 1.93493 15.7044 1.79389 16.0739 1.66367C18.6715 0.735156 21.4058 0.263672 24.1976 0.263672C25.5702 0.263672 26.9353 0.378516 28.2544 0.604883C28.4781 0.641016 28.7119 0.683984 28.9458 0.731543C35.0154 1.9373 40.3448 5.39902 43.9454 10.478C46.4626 14.0251 47.9735 18.187 48.3181 22.5228C48.3691 23.1579 48.3951 23.8106 48.3951 24.4613C48.3951 25.3332 48.3454 26.2257 48.2474 27.1189L48.3318 27.3679L49.1018 27.6294C49.3654 27.7189 49.5941 27.8893 49.7553 28.1163C49.9165 28.3433 50.0021 28.6154 49.9998 28.8938C49.9975 29.1722 49.9075 29.4429 49.7426 29.6672C49.5777 29.8915 49.3462 30.0581 49.0812 30.1434L48.3524 30.3775L48.0636 31.187C47.9934 31.3836 47.8778 31.5607 47.7261 31.7041C47.5745 31.8475 47.3911 31.953 47.1909 32.012C45.2036 38.0961 40.9045 43.1248 35.1387 46.0488C34.1626 48.06 32.2062 48.7512 28.4556 49.4541C27.4509 49.6419 26.4802 49.7371 25.57 49.7371Z"
        fill="white" />
    <path
        d="M47.0195 24.4616C47.0195 33.5418 41.7281 41.3862 34.0601 45.0801C31.0613 46.5254 27.6962 47.3353 24.1458 47.3353C23.0558 47.3353 21.9833 47.258 20.9352 47.1102C9.8228 45.5501 1.27222 36.0043 1.27222 24.4616C1.27222 23.1686 1.38032 21.8997 1.58774 20.6663V20.6641L3.32397 15.7671L6.37378 10.0613C8.76138 7.11777 11.8705 4.77656 15.4296 3.31133L16.8835 3.19404L24.7532 2.06982L27.9787 1.91016C28.1971 1.94551 28.4133 1.98516 28.6296 2.0293C34.4617 3.18779 39.4971 6.56611 42.8136 11.244L45.45 16.9853L46.9466 22.6278C46.9952 23.2325 47.0195 23.8438 47.0195 24.4616Z"
        fill="#00D9A5" />
    <path
        d="M29.2299 26.2106C28.1924 26.3541 26.6323 26.5716 25.589 26.7159H25.5846C23.8934 26.9489 21.6627 27.2614 19.9754 27.4948C19.9664 27.3188 19.9456 26.8458 19.9269 26.4467C19.9042 25.9976 19.8831 25.5098 19.8496 24.9991V24.9969C19.8474 24.9881 19.8474 24.9771 19.8474 24.966C19.8425 24.9161 19.8389 24.866 19.8363 24.8159C19.8363 24.8071 19.8341 24.7982 19.8341 24.7872C19.7873 24.1063 19.6953 23.09 19.6024 22.2739V22.2717C19.5235 21.5674 19.4352 20.8642 19.3376 20.1622C19.0353 17.9799 18.5697 15.2503 17.8525 12.0021C17.0449 8.3502 16.1534 5.41104 15.4297 3.31035C15.7707 3.16714 16.1158 3.03394 16.4646 2.91094C18.8653 2.05254 21.4515 1.58691 24.1457 1.58691C25.4498 1.58691 26.7318 1.69502 27.9786 1.90908C28.025 4.91006 28.0734 8.87529 28.0734 12.7104C28.0734 14.9126 28.1705 16.9669 28.3096 18.7763C28.3294 19.0345 28.3493 19.2882 28.3691 19.5376C28.3714 19.5574 28.3735 19.5773 28.3735 19.5972C28.4907 20.9601 28.6397 22.3229 28.8215 23.6551C28.8259 23.6705 28.8259 23.6838 28.8281 23.697C28.9281 24.4219 29.0406 25.145 29.1657 25.866H29.168C29.1925 26.0198 29.2351 26.2343 29.2299 26.2106Z"
        fill="#FFAAAA" />
    <path
        d="M29.2302 26.2107L27.9386 26.3894L27.8153 26.407L25.5896 26.7166L25.4663 26.7317L21.2189 27.3208L21.093 27.3385L19.9751 27.4946L19.9097 26.0822C19.877 25.3445 19.7888 23.6828 19.4691 21.1474L19.454 21.019C19.4162 20.7446 19.3784 20.4576 19.3381 20.1629C20.7934 19.6494 24.361 18.5793 28.3087 18.7757C28.3289 19.0351 28.3491 19.2893 28.3692 19.5386C28.3742 19.5814 28.3767 19.6242 28.3792 19.6645C28.7216 23.6326 29.2302 26.2107 29.2302 26.2107Z"
        fill="white" />
    <path
        d="M28.3792 19.6651C27.9646 19.6551 27.5498 19.6576 27.1354 19.6727C27.0926 19.6727 27.0523 19.6727 27.0095 19.6776C26.1988 19.7028 25.3907 19.7733 24.59 19.8841C24.5486 19.8865 24.5074 19.8915 24.4667 19.8992C23.751 19.9982 23.0402 20.1301 22.3367 20.2945C22.2939 20.3046 22.251 20.3121 22.2108 20.3222C21.595 20.4683 20.9852 20.6389 20.383 20.8333C20.3426 20.8459 20.3024 20.8585 20.2646 20.8735C19.9972 20.9586 19.732 21.0501 19.469 21.148L19.4539 21.0195C21.1002 20.4213 22.8061 20.0018 24.5421 19.7683L24.5673 19.7633C25.672 19.6115 26.7857 19.5349 27.9007 19.5342C28.0568 19.5342 28.2129 19.5367 28.369 19.5392C28.3741 19.582 28.3766 19.6248 28.3792 19.6651Z"
        fill="#E4A7F6" />
    <path
        d="M21.2189 27.3211L21.093 27.3388C20.8498 25.1795 20.5737 23.0241 20.2647 20.8732C20.2602 20.8516 20.2568 20.8298 20.2546 20.8078L20.378 20.7902C20.3805 20.8054 20.3831 20.818 20.3831 20.833C20.6943 22.9914 20.973 25.1543 21.2189 27.3211ZM23.3205 26.8393C22.8863 24.6594 22.5142 22.4677 22.2044 20.2668L22.3291 20.2493C22.6385 22.4479 23.0103 24.6372 23.4438 26.8146L23.3205 26.8393ZM25.5896 26.7168L25.4663 26.7318C25.2494 24.4387 24.9158 22.158 24.4667 19.8988C24.4592 19.861 24.4516 19.8258 24.4441 19.7881L24.5422 19.768L24.5674 19.763L24.5901 19.8839C25.0416 22.1426 25.3752 24.4234 25.5896 26.7168ZM27.9386 26.3895L27.8153 26.407C27.6843 25.327 27.5535 24.2292 27.4225 23.1315C27.2876 21.9798 27.15 20.8284 27.0096 19.6772C27.0096 19.6621 27.0071 19.6445 27.0045 19.6294L27.1279 19.6143C27.1304 19.6344 27.133 19.6521 27.1354 19.6722C27.2739 20.8052 27.4098 21.9607 27.5483 23.1164C27.6768 24.2143 27.8103 25.3119 27.9386 26.3895Z"
        fill="#E4A7F6" />
    <path
        d="M34.7263 42.1658C34.7163 42.2866 34.7061 42.41 34.6885 42.5359C34.6659 42.7171 34.6306 42.9035 34.5878 43.0949C33.8577 46.2671 33.7621 47.1031 28.1601 48.153C22.7219 49.1702 19.2877 47.1233 19.1166 43.5657C18.9454 40.0107 19.3734 37.7372 19.1166 37.2664C18.8597 36.7956 18.2378 36.8182 18.2707 34.6958C18.2707 34.6958 18.4444 33.9429 18.5425 33.4495C18.5602 33.3714 18.5728 33.2984 18.5829 33.238C18.5929 33.1876 18.598 33.1448 18.603 33.1095C18.6458 32.7671 18.7314 27.0243 19.6302 26.5535C20.5316 26.0827 21.6872 27.0243 21.6872 27.0243C22.224 23.4236 27.8874 22.6765 29.3586 25.9115C29.3586 25.9115 29.7867 25.5238 30.0888 26.1683C30.3884 26.8103 30.4312 28.8673 30.8165 30.2395C31.2017 31.6091 32.103 33.1096 32.531 35.5518C32.9161 37.7573 34.9026 39.419 34.7263 42.1658Z"
        fill="#089170" />
    <path
        d="M34.7264 42.166C34.7163 42.2868 34.7062 42.4103 34.6886 42.5361C34.3311 43.2336 33.8023 43.8781 33.1352 44.4144C32.2993 45.0891 31.2368 45.6128 29.9779 45.9728C28.8551 46.2951 27.6717 46.4562 26.496 46.4562C26.0378 46.4562 25.5796 46.4311 25.1264 46.3832C23.6636 46.2195 21.667 45.7034 20.4661 44.1551C19.4893 42.8937 19.2878 41.2446 19.2198 39.9479C19.1771 39.0769 19.182 38.1956 19.2399 37.327L19.2575 37.0879C19.2877 36.6573 19.3205 36.2117 19.2802 35.7787C19.2071 34.9579 18.8874 34.1926 18.5425 33.4498C18.5602 33.3718 18.5728 33.2987 18.5828 33.2383C18.9479 34.0087 19.3255 34.8697 19.4061 35.766C19.4464 36.2116 19.4137 36.6599 19.3834 37.0954L19.3658 37.3346C19.3087 38.2021 19.302 39.0721 19.3457 39.9404C19.4111 41.2194 19.6101 42.8459 20.5668 44.077C21.7375 45.5902 23.7014 46.0987 25.1414 46.2574C26.7377 46.4337 28.3993 46.2927 29.9427 45.852C31.1839 45.4971 32.2338 44.981 33.0571 44.3162C33.8074 43.7119 34.3839 42.9642 34.7264 42.166Z"
        fill="#FFE4E8" />
    <path
        d="M26.8006 38.1533C26.4284 38.1533 26.0052 38.1156 25.6077 37.9639C25.026 37.7417 24.4981 37.2656 24.1211 36.6236C23.7648 36.017 23.5702 35.3303 23.4269 34.7385C23.2079 33.834 23.0504 32.8972 22.8981 31.9912C22.6154 30.3103 22.323 28.5722 21.6272 26.9957C21.5943 26.9204 21.7088 26.8695 21.7423 26.9449C22.4446 28.5357 22.7383 30.2818 23.0222 31.9703C23.1742 32.8741 23.3313 33.8087 23.5494 34.7088C23.6905 35.2917 23.8818 35.9675 24.2297 36.5598C24.5924 37.1773 25.0977 37.6344 25.6526 37.8463C26.1563 38.0388 26.7095 38.0392 27.1358 38.0185C28.1662 37.9679 28.8806 37.7024 29.3198 37.207C29.8744 36.5816 29.9264 35.6619 29.9 34.7611C29.8637 33.5289 29.7536 32.278 29.647 31.0683C29.4957 29.3512 29.3393 27.5757 29.3916 25.8228C29.3927 25.7882 29.4237 25.7646 29.4564 25.7617C29.4731 25.7622 29.4889 25.7693 29.5004 25.7815C29.5118 25.7937 29.518 25.8099 29.5175 25.8266C29.4654 27.572 29.6215 29.3438 29.7724 31.0573C29.8793 32.2688 29.9895 33.5217 30.0259 34.7575C30.053 35.6843 29.9976 36.6325 29.414 37.2906C28.9511 37.8127 28.2079 38.092 27.1419 38.1443C27.0282 38.15 26.9144 38.153 26.8006 38.1533Z"
        fill="#FFE4E8" />
    <path
        d="M23.8308 37.5228C23.8179 37.5227 23.8054 37.5188 23.7949 37.5115C23.7844 37.5042 23.7763 37.4938 23.7718 37.4818C23.7674 37.4698 23.7667 37.4567 23.7698 37.4442C23.773 37.4318 23.7799 37.4206 23.7896 37.4122C24.4981 36.8 25.7864 36.1531 27.0627 35.6019C25.1036 35.4859 23.2859 35.6133 23.2567 35.6155C23.2434 35.6165 23.2302 35.6132 23.2189 35.6062C23.2077 35.5992 23.1989 35.5888 23.1939 35.5765C23.1889 35.5642 23.1879 35.5507 23.191 35.5378C23.1942 35.5249 23.2013 35.5133 23.2114 35.5047C23.6938 35.0958 25.2979 34.3193 26.8336 33.6232C24.4405 33.5012 22.522 33.8731 22.4931 33.8789C22.48 33.8815 22.4665 33.8799 22.4545 33.8743C22.4424 33.8687 22.4324 33.8595 22.4259 33.8479C22.4194 33.8363 22.4168 33.8229 22.4183 33.8098C22.4199 33.7966 22.4256 33.7842 22.4346 33.7744C23.0375 33.1238 24.6146 32.3186 26.1954 31.6196C23.8942 31.4008 21.5965 31.3734 21.5586 31.3731C21.5463 31.373 21.5343 31.3693 21.5241 31.3624C21.5139 31.3556 21.506 31.3459 21.5012 31.3346C21.4964 31.3233 21.4951 31.3108 21.4973 31.2987C21.4995 31.2866 21.5053 31.2755 21.5138 31.2666C22.2611 30.4838 24.77 29.4765 26.905 28.7199C23.3886 27.6649 21.1787 28.3852 21.1509 28.3948C21.136 28.4003 21.1196 28.4 21.1049 28.3938C21.0903 28.3877 21.0785 28.3762 21.072 28.3618C21.0654 28.3473 21.0646 28.3309 21.0697 28.3158C21.0748 28.3008 21.0854 28.2882 21.0993 28.2807C22.38 27.55 23.7049 26.8999 25.0665 26.3341C25.554 26.0974 26.0291 26.0673 26.5317 26.2199C27.8286 26.5398 29.0824 27.0143 30.2661 27.6332C30.2772 27.639 30.2863 27.648 30.2922 27.659C30.2982 27.67 30.3007 27.6825 30.2995 27.6949C30.2984 27.7073 30.2935 27.7191 30.2856 27.7288C30.2777 27.7385 30.2671 27.7456 30.2552 27.7492C30.2243 27.7586 28.9136 28.1554 27.3096 28.7152C28.2264 29.0149 29.2242 29.434 30.2891 30.012C30.2998 30.0178 30.3085 30.0266 30.3143 30.0373C30.3201 30.048 30.3227 30.0601 30.3218 30.0722C30.3208 30.0844 30.3164 30.0959 30.309 30.1056C30.3017 30.1153 30.2916 30.1226 30.2802 30.1267C30.247 30.1385 28.5284 30.7544 26.6935 31.5442C28.0301 31.6882 29.3167 31.9014 30.1108 32.2159C30.1346 32.2253 30.1503 32.2483 30.1505 32.2738C30.1507 32.2994 30.1354 32.3226 30.1118 32.3325C30.0846 32.3439 28.8042 32.8796 27.3495 33.5307C28.4574 33.6183 29.6407 33.8179 30.7723 34.2076C30.7847 34.2119 30.7955 34.22 30.8031 34.2308C30.8107 34.2416 30.8147 34.2544 30.8146 34.2676C30.8146 34.2808 30.8103 34.2936 30.8026 34.3042C30.7948 34.3149 30.7839 34.3228 30.7714 34.327C30.7436 34.336 29.2408 34.8296 27.5931 35.5135C28.6318 35.5987 29.6706 35.7601 30.4733 36.0507C30.481 36.0535 30.4882 36.0578 30.4943 36.0634C30.5004 36.069 30.5053 36.0757 30.5088 36.0832C30.5123 36.0906 30.5143 36.0987 30.5147 36.107C30.5151 36.1152 30.5139 36.1235 30.511 36.1313C30.5082 36.139 30.5039 36.1462 30.4984 36.1523C30.4928 36.1584 30.4861 36.1633 30.4786 36.1668C30.4711 36.1704 30.463 36.1724 30.4548 36.1727C30.4465 36.1731 30.4383 36.1719 30.4305 36.1691C29.5758 35.8596 28.4474 35.6984 27.3396 35.6198C26.0013 36.1864 24.6129 36.8671 23.8721 37.5073C23.8606 37.5173 23.846 37.5228 23.8308 37.5228ZM25.3154 35.4278C25.9244 35.4278 26.6163 35.444 27.3183 35.4929C28.7308 34.8958 30.0793 34.4277 30.5534 34.2673C29.4076 33.8943 28.2143 33.7122 27.108 33.6392C25.659 34.292 24.0978 35.0353 23.457 35.4774C24.0759 35.4441 24.6956 35.4275 25.3154 35.4278ZM26.4595 31.6456C24.9323 32.312 23.3707 33.0853 22.6693 33.7202C23.2482 33.625 25.0102 33.3792 27.0809 33.5114C28.0215 33.0892 28.967 32.678 29.9171 32.2776C29.0794 31.9805 27.7831 31.7803 26.4595 31.6456ZM21.7135 31.2496C22.2887 31.2601 24.3839 31.3106 26.4301 31.5167C28.0555 30.8087 29.6338 30.2269 30.105 30.056C29.0324 29.4834 28.0302 29.0735 27.1132 28.7841C25.0484 29.5112 22.5753 30.4862 21.7135 31.2496ZM23.2199 28.021C24.2187 28.021 25.5383 28.1612 27.1045 28.6497C28.0869 28.3056 29.0757 27.9803 30.0705 27.6738C28.9361 27.0942 27.7385 26.6474 26.5016 26.3423C26.0136 26.1943 25.5833 26.2249 25.1148 26.4504C23.8981 26.9561 22.7107 27.5293 21.5579 28.1673C21.9159 28.098 22.4801 28.021 23.2199 28.021Z"
        fill="#FFE4E8" />
    <path
        d="M25.3742 25.9433C25.2352 25.8032 25.1391 25.6042 25.1753 25.4103C25.2114 25.2164 25.4138 25.0525 25.604 25.1052C25.6534 25.1188 25.7004 25.1456 25.7516 25.146C25.8334 25.1467 25.8994 25.0818 25.976 25.0534C26.1324 24.9956 26.3143 25.1091 26.3747 25.2645C26.435 25.42 26.3979 25.5979 26.3257 25.7482C26.1235 26.1685 25.7093 26.2809 25.3742 25.9433Z"
        fill="#FFE4E8" />
    <path
        d="M19.811 27.4418C19.7509 27.4419 19.6907 27.4394 19.6308 27.4342C19.1895 27.3958 18.8056 27.191 18.6039 26.8862C18.3874 26.5589 18.3695 26.0938 18.5584 25.7018C18.7201 25.366 19.0282 25.0744 19.4259 24.881C21.1753 24.1804 23.4677 24.4046 25.0176 25.1132C25.3058 25.2392 25.686 25.4003 25.8047 25.6771C25.5405 25.9561 25.0787 26.0459 24.7038 26.1616C23.4282 26.5596 22.1091 26.9713 20.785 27.292C20.4571 27.3713 20.1351 27.4418 19.811 27.4418ZM21.8979 24.5892C21.0715 24.6143 20.2918 24.64 19.4808 24.9941C19.1086 25.1752 18.8213 25.4459 18.6718 25.7564C18.5018 26.1094 18.5163 26.5257 18.7089 26.8167C18.8896 27.0897 19.2382 27.2736 19.6417 27.3087C20.0085 27.3411 20.3774 27.2608 20.7551 27.1695C22.0753 26.8498 23.3924 26.4388 24.6662 26.0413C24.9891 25.9412 25.4031 25.856 25.6467 25.6523C25.5183 25.4677 25.1899 25.3252 24.9674 25.2287C24.0353 24.8047 23.0008 24.5891 21.8979 24.5892ZM30.9481 25.9723C29.6295 25.9723 28.2943 25.8908 27.0018 25.812C26.6086 25.7893 26.1394 25.8132 25.8151 25.605C25.8711 25.279 26.2465 25.0238 26.5123 24.8169C27.6264 23.9543 29.05 23.4199 30.6293 23.2716C30.9621 23.2402 31.3984 23.2159 31.8182 23.306C32.2504 23.3986 32.6192 23.6079 32.8568 23.8954C33.1339 24.231 33.2278 24.6866 33.0958 25.0564C32.973 25.4005 32.6494 25.6913 32.23 25.8341C31.8635 25.9589 31.4747 25.9706 31.0754 25.972C31.0329 25.9723 30.9904 25.9723 30.9481 25.9723ZM25.9624 25.5432C26.2474 25.6828 26.6698 25.6663 27.0074 25.6863C28.3418 25.7677 29.7199 25.8518 31.075 25.8462C31.4634 25.8448 31.841 25.8337 32.1895 25.7151C32.5729 25.5845 32.8673 25.3226 32.9773 25.0143C33.0946 24.6853 33.0093 24.2778 32.7597 23.9759C32.5402 23.7101 32.1964 23.516 31.7918 23.4292C31.3888 23.3429 30.9651 23.3666 30.6411 23.3972C29.0858 23.5433 27.6847 24.0686 26.5897 24.9168H26.5896C26.3766 25.0816 26.0573 25.3049 25.9624 25.5432Z"
        fill="#FFE4E8" />
    <path
        d="M20.2689 27.3392C20.2733 27.3723 20.2733 27.412 20.2667 27.4539C20.2667 27.4539 20.2689 27.4562 20.2667 27.4562C20.2578 27.5466 20.2292 27.6481 20.1541 27.7563C20.1541 27.7585 20.1541 27.7585 20.1519 27.7606C20.0879 27.8555 19.9908 27.9504 19.8451 28.0431C19.6421 28.171 19.3111 28.3299 18.9581 28.4844C18.7507 28.5771 18.5345 28.6675 18.3336 28.7514C18.3248 28.7536 18.3159 28.7558 18.3071 28.7603C18.0196 28.8781 17.7305 28.9921 17.4399 29.1022L17.4355 29.1045L17.4334 29.1066C17.4312 29.111 17.429 29.1154 17.4246 29.1221C17.3451 29.2435 16.8663 29.9363 16.1713 30.3688C15.9771 30.4902 15.7675 30.5917 15.5424 30.6558H15.5336C15.2622 30.7286 14.9731 30.7462 14.6708 30.6778C14.6708 30.6778 13.8676 31.7723 12.6782 31.6752C11.4889 31.5781 6.47549 30.0688 5.60605 28.6544C5.15811 27.9218 3.28691 24.1419 1.58789 20.6665V20.6643C2.2499 16.688 3.94014 13.0604 6.37402 10.0615C6.88594 11.4627 8.90059 16.7762 10.4606 18.1112C11.6479 19.1285 15.4895 21.5844 17.9035 23.3519C18.7222 23.9521 19.3775 24.4729 19.7107 24.8303C19.7659 24.8898 19.8123 24.9473 19.8498 24.998V25.0002C19.9838 25.1753 19.9586 25.2577 19.8741 25.3996C19.6777 25.7284 19.2077 25.8432 18.5811 25.8145C18.111 25.7924 17.5506 25.6909 16.9526 25.5364C15.4434 25.1503 13.9958 24.667 13.6097 24.7642C13.2235 24.8612 13.0646 25.5034 13.6428 25.7284C14.2209 25.9535 15.9421 26.8053 17.4668 26.5537C17.8419 26.4919 18.1884 26.4478 18.5017 26.4258C18.9915 26.3904 19.3997 26.4125 19.6954 26.5229C19.7814 26.5514 19.8626 26.5931 19.9359 26.6464C20.1059 26.7655 20.2073 26.9398 20.2316 27.176C20.2313 27.1758 20.2601 27.2398 20.2689 27.3392Z"
        fill="#FFAAAA" />
    <path
        d="M19.1566 25.1395C18.9603 25.1395 18.7458 25.0982 18.5239 25.0153C18.2294 24.9053 17.8397 24.6953 17.6545 24.3198C17.487 23.9796 17.5481 23.4772 17.9059 23.2711C17.9203 23.2628 17.9375 23.2605 17.9536 23.2648C17.9697 23.2692 17.9835 23.2797 17.9918 23.2942C18.0001 23.3086 18.0024 23.3258 17.9981 23.3419C17.9938 23.358 17.9832 23.3718 17.9688 23.3801C17.6721 23.551 17.6251 23.9751 17.7675 24.264C17.9343 24.6027 18.2948 24.7953 18.5679 24.8973C18.7827 24.9776 19.3237 25.1339 19.7049 24.8519C19.7714 24.8036 19.8456 24.9037 19.7797 24.9531C19.6125 25.077 19.3982 25.1395 19.1566 25.1395ZM16.8656 29.2514C16.4683 29.2514 15.8282 29.1841 14.8165 28.9387C12.6509 28.4132 12.1438 28.2049 12.1233 28.1963C12.1157 28.1931 12.1088 28.1885 12.103 28.1826C12.0972 28.1767 12.0925 28.1698 12.0894 28.1621C12.0863 28.1545 12.0847 28.1463 12.0847 28.138C12.0847 28.1297 12.0864 28.1216 12.0896 28.1139C12.0928 28.1063 12.0975 28.0994 12.1033 28.0936C12.1092 28.0878 12.1162 28.0831 12.1238 28.08C12.1315 28.0769 12.1396 28.0753 12.1479 28.0753C12.1562 28.0753 12.1644 28.077 12.172 28.0802C12.1769 28.0822 12.6972 28.2949 14.8462 28.8164C16.9448 29.3256 17.3945 29.0537 17.3989 29.0508L17.4003 29.0528C17.4444 29.0244 17.5871 28.9611 18.0947 28.7704C18.0893 28.2732 18.193 27.9008 18.4116 27.6322C18.6312 27.3627 18.9845 27.2043 19.3302 27.2179C19.6775 27.232 20.0156 27.4183 20.2127 27.7043C20.2175 27.7113 20.2209 27.7191 20.2226 27.7274C20.2243 27.7357 20.2243 27.7442 20.2226 27.7525C20.2143 27.7935 20.103 28.1671 18.7901 28.6474C17.6466 29.0658 17.4906 29.1428 17.472 29.1532L17.4718 29.1534C17.4622 29.1604 17.3279 29.2514 16.8656 29.2514ZM19.288 27.3429C18.9919 27.3429 18.6965 27.4821 18.5093 27.7116C18.3165 27.9484 18.2218 28.2798 18.2204 28.7235C18.3957 28.6581 18.5712 28.5934 18.747 28.5293C19.808 28.141 20.0428 27.8321 20.0894 27.748C19.9119 27.5096 19.6225 27.3557 19.3253 27.3438C19.3129 27.3432 19.3004 27.3429 19.288 27.3429Z"
        fill="#2C2441" />
    <path
        d="M14.6612 30.7411C13.8803 30.7411 9.98587 29.8764 9.81975 29.8395C9.80347 29.8359 9.7893 29.8259 9.78034 29.8118C9.77139 29.7978 9.76839 29.7807 9.772 29.7644C9.77578 29.7482 9.78576 29.7341 9.7998 29.7252C9.81384 29.7163 9.83082 29.7132 9.8471 29.7167C9.88772 29.7256 13.8939 30.6151 14.6605 30.6151H14.67L14.9031 30.6131C15.7125 30.6069 15.7787 30.6065 16.19 30.2754C17.0131 29.6131 17.3788 29.0735 17.3824 29.0681C17.387 29.0612 17.3929 29.0553 17.3997 29.0507C17.4066 29.046 17.4143 29.0428 17.4224 29.0412C17.4306 29.0396 17.4389 29.0396 17.447 29.0413C17.4551 29.0429 17.4628 29.0462 17.4697 29.0508C17.4765 29.0554 17.4824 29.0613 17.487 29.0682C17.4916 29.075 17.4948 29.0827 17.4964 29.0908C17.498 29.099 17.498 29.1073 17.4964 29.1154C17.4948 29.1235 17.4916 29.1312 17.4869 29.138C17.472 29.1606 17.1085 29.6979 16.2688 30.3734C15.8234 30.7319 15.7188 30.7327 14.9039 30.7388L14.6713 30.7408C14.6679 30.741 14.6645 30.7411 14.6612 30.7411Z"
        fill="#2C2441" />
    <path
        d="M46.9467 22.628C45.8588 24.828 44.9299 26.6661 44.6319 27.1516C43.7647 28.566 38.7514 30.0753 37.562 30.1724C36.3727 30.2694 35.5673 29.175 35.5673 29.175C35.2716 29.2435 34.9869 29.228 34.7222 29.1573C34.4839 29.0955 34.261 28.9896 34.058 28.8616C33.3673 28.427 32.8951 27.7407 32.8157 27.6193C32.8124 27.6144 32.8095 27.6093 32.8069 27.6039L32.8047 27.6018L32.8003 27.5995C32.5066 27.4892 32.2145 27.3744 31.9243 27.2553C31.9177 27.253 31.9111 27.2509 31.9066 27.2486C31.3639 27.0258 30.7151 26.7434 30.3929 26.5403C30.2892 26.4741 30.2098 26.4079 30.1523 26.3396C30.1276 26.3132 30.1047 26.2852 30.0839 26.2557C30.0816 26.2535 30.0816 26.2535 30.0816 26.2513C30.0177 26.1563 29.9867 26.0615 29.9757 25.9799C29.9488 25.8866 30.0006 25.6647 30.0088 25.6731C30.0927 24.8147 31.2069 24.7949 32.7715 25.0509C32.8534 25.0646 32.9359 25.0749 33.0186 25.0817C34.4794 25.2142 36.0483 24.4396 36.5977 24.2256C37.1759 24.0005 37.0148 23.3584 36.6286 23.2613C36.2425 23.1664 34.7972 23.6475 33.2856 24.0337C33.1665 24.0646 33.0474 24.0933 32.9326 24.1175C31.5844 24.4242 30.5054 24.4242 30.2979 23.7445C30.2715 23.6606 30.3509 23.5238 30.5142 23.3474C30.8386 22.9898 31.5027 22.4603 32.3368 21.8491C34.7509 20.0816 38.5926 17.6257 39.7797 16.6084C40.7726 15.7566 41.9532 13.2853 42.8138 11.2441C45.1307 14.5077 46.6113 18.4067 46.9467 22.628Z"
        fill="#FFAAAA" />
    <path
        d="M31.0824 23.6375C30.8408 23.6375 30.6265 23.5751 30.4592 23.4513C30.4458 23.4413 30.4368 23.4265 30.4344 23.41C30.4319 23.3935 30.4361 23.3766 30.446 23.3632C30.456 23.3499 30.4708 23.341 30.4873 23.3386C30.5038 23.3361 30.5206 23.3402 30.5341 23.35C30.9151 23.6323 31.4563 23.4756 31.6712 23.3954C31.9442 23.2935 32.3049 23.1008 32.4716 22.7622C32.6139 22.4734 32.5669 22.0491 32.2702 21.8781C32.263 21.874 32.2568 21.8685 32.2517 21.862C32.2467 21.8554 32.243 21.8479 32.2409 21.84C32.2387 21.832 32.2382 21.8236 32.2393 21.8155C32.2403 21.8073 32.243 21.7994 32.2472 21.7922C32.2513 21.7851 32.2568 21.7788 32.2633 21.7738C32.2699 21.7687 32.2774 21.765 32.2854 21.7629C32.2933 21.7607 32.3017 21.7602 32.3098 21.7613C32.318 21.7624 32.3259 21.765 32.3331 21.7692C32.6909 21.9753 32.7519 22.4779 32.5846 22.8179C32.3995 23.1935 32.0097 23.4033 31.7151 23.5133C31.4933 23.5962 31.2787 23.6375 31.0824 23.6375ZM33.3733 27.7495C32.9109 27.7495 32.7766 27.6585 32.7669 27.6515L32.7668 27.6513C32.748 27.6408 32.5923 27.5639 31.4487 27.1454C30.1358 26.6652 30.0245 26.2915 30.0162 26.2506C30.0145 26.2423 30.0145 26.2337 30.0162 26.2254C30.0178 26.2171 30.0212 26.2092 30.0261 26.2023C30.2232 25.9162 30.5613 25.7299 30.9086 25.7158C31.2556 25.7009 31.6077 25.8608 31.8271 26.1301C32.046 26.3987 32.1497 26.771 32.1442 27.2684C32.6567 27.4608 32.7973 27.5237 32.84 27.5517L32.8414 27.5497C32.844 27.5517 33.294 27.8237 35.3929 27.3144C37.5418 26.793 38.0622 26.5803 38.0671 26.5781C38.0825 26.5717 38.0998 26.5716 38.1153 26.578C38.1307 26.5843 38.143 26.5965 38.1495 26.6119C38.1559 26.6273 38.156 26.6446 38.1496 26.6601C38.1433 26.6755 38.1311 26.6878 38.1157 26.6943C38.0952 26.703 37.588 26.9114 35.4225 27.4366C34.4107 27.6822 33.7708 27.7495 33.3733 27.7495ZM30.1493 26.2463C30.1942 26.3275 30.4267 26.6374 31.4921 27.0274C31.697 27.1024 31.8709 27.1664 32.0186 27.2215C32.0173 26.7778 31.9225 26.4464 31.7297 26.2097C31.5349 25.9705 31.226 25.8314 30.9137 25.8417C30.6166 25.8537 30.3267 26.0078 30.1493 26.2463Z"
        fill="#2C2441" />
    <path
        d="M35.5781 29.2383L35.5676 29.2382L35.335 29.2362C34.5202 29.2301 34.4155 29.2292 33.9701 28.8708C33.1303 28.1953 32.7668 27.658 32.7519 27.6355C32.7473 27.6286 32.7441 27.6209 32.7425 27.6128C32.7409 27.6047 32.7409 27.5964 32.7425 27.5883C32.7441 27.5802 32.7473 27.5725 32.7519 27.5656C32.7564 27.5588 32.7623 27.5529 32.7692 27.5483C32.776 27.5437 32.7837 27.5405 32.7918 27.5389C32.7999 27.5372 32.8083 27.5372 32.8164 27.5388C32.8245 27.5404 32.8322 27.5436 32.839 27.5482C32.8459 27.5528 32.8518 27.5587 32.8564 27.5655C32.86 27.5709 33.2257 28.1106 34.0489 28.7729C34.4603 29.1038 34.5265 29.1043 35.336 29.1106L35.5691 29.1125H35.5787C36.3452 29.1125 40.3513 28.2231 40.3918 28.2141C40.4078 28.2112 40.4243 28.2147 40.4378 28.2237C40.4513 28.2327 40.4608 28.2466 40.4643 28.2624C40.4678 28.2783 40.4651 28.2949 40.4567 28.3087C40.4483 28.3226 40.4349 28.3327 40.4192 28.3369C40.2533 28.3737 36.3596 29.2383 35.5781 29.2383ZM6.85668 13.0919L8.14292 11.4885C8.22895 11.4322 8.29809 11.4258 8.35024 11.4688C8.48061 11.5767 8.50151 11.6841 8.41303 11.7908C8.24184 11.9985 8.07565 12.2102 7.91459 12.4258C8.12807 12.6241 8.29145 12.7703 8.40483 12.8643C8.5184 12.9578 8.59067 13.0177 8.62202 13.0436L10.0077 14.1632C10.0886 14.23 10.1182 14.2897 10.0968 14.3421C10.0814 14.3819 10.0542 14.4257 10.0156 14.4725C9.95288 14.5481 9.87563 14.5541 9.78295 14.4909C9.56928 14.3404 9.18803 14.0383 8.63901 13.5846C8.09018 13.1309 7.76616 12.8494 7.66694 12.7412C7.60323 12.8246 7.53768 12.9065 7.47036 12.9869C7.36023 13.1198 7.24897 13.2516 7.13657 13.3825C7.1021 13.4244 7.06206 13.4462 7.01665 13.4481C6.97114 13.45 6.92944 13.4356 6.89165 13.4041C6.85385 13.3729 6.83012 13.3259 6.82055 13.2631C6.81033 13.2035 6.82326 13.1423 6.85668 13.0919ZM8.79995 10.9755C8.81293 10.9147 8.84311 10.8602 8.89096 10.8122C8.93852 10.7642 8.99614 10.7618 9.06323 10.8045C9.34389 11.0786 9.76518 11.4876 10.3268 12.0314C10.6652 12.3676 10.9424 12.6624 11.1585 12.9152C11.1898 12.9558 11.1996 13.0096 11.1876 13.0765C11.1759 13.1435 11.1498 13.1974 11.1093 13.2382C11.0424 13.3055 10.9744 13.3044 10.9047 13.2353C10.6886 12.9728 10.4029 12.6652 10.0477 12.3123L8.81655 11.1317C8.79252 11.0887 8.78696 11.0368 8.79995 10.9755ZM11.372 8.52072C11.4351 8.46975 11.513 8.48283 11.6059 8.55979C11.9978 9.01612 12.3828 9.47838 12.7607 9.94641C13.1704 10.4528 13.4045 10.7476 13.4631 10.8305C13.5216 10.9138 13.5494 10.9827 13.5459 11.0377C13.5425 11.0928 13.5027 11.1512 13.4265 11.2128C13.3581 11.2684 13.2898 11.2536 13.2217 11.1695L12.5002 10.2778C12.3797 10.1293 12.2568 9.98294 12.1315 9.83859C12.0029 9.69055 11.9225 9.5965 11.8906 9.55686C11.9248 9.77914 11.9076 10.0063 11.8404 10.2209C11.773 10.4392 11.6485 10.6211 11.467 10.768C11.2854 10.915 11.0722 10.9634 10.8273 10.9137C10.9754 11.1082 11.1266 11.3003 11.2807 11.4901C11.4583 11.7097 11.6465 11.9393 11.845 12.1793C11.8982 12.2449 11.9154 12.3106 11.8965 12.3759C11.8775 12.4412 11.8386 12.4988 11.7852 12.5408C11.7141 12.5985 11.6436 12.5837 11.5734 12.497C11.3844 12.2581 11.0824 11.8824 10.6673 11.3694L9.76059 10.249C9.72446 10.2045 9.70444 10.1488 9.70063 10.0821C9.69682 10.0156 9.71528 9.96594 9.756 9.93283C9.79584 9.90029 9.84444 9.8803 9.89565 9.87541C9.9479 9.87014 9.9934 9.88879 10.0323 9.93147C10.279 10.2148 10.5021 10.3936 10.7011 10.4675C10.9001 10.5411 11.0576 10.5314 11.1734 10.4379C11.2892 10.3444 11.373 10.2446 11.4249 10.1397C11.4769 10.0346 11.5097 9.93527 11.5232 9.84143C11.5367 9.74797 11.531 9.63469 11.5066 9.50227C11.4712 9.3133 11.4085 9.09602 11.319 8.851C11.2649 8.70324 11.2825 8.59289 11.372 8.52072ZM13.0791 9.33469C13.0229 9.33332 12.9798 9.30803 12.95 9.25852C12.9203 9.20956 12.9084 9.15185 12.9164 9.09514C12.7196 8.7971 12.5288 8.49515 12.3442 8.18947C12.3195 8.10949 12.3157 8.04309 12.3325 7.98918C12.3495 7.93557 12.3899 7.88313 12.454 7.83254C12.8785 7.59991 13.2977 7.35779 13.7113 7.10637C13.8354 7.06311 13.9194 7.07756 13.963 7.14973C14.0366 7.27111 13.9609 7.41408 13.7359 7.57805C13.6741 7.61965 13.6053 7.6632 13.5301 7.70871L13.2479 7.87951C13.1929 7.9132 13.034 7.99357 12.771 8.12102C12.9901 8.48283 13.1467 8.72824 13.2408 8.85715C13.3958 8.76701 13.6917 8.58957 14.1289 8.32512C14.2454 8.28244 14.326 8.29777 14.3706 8.37141C14.4154 8.44543 14.4079 8.52785 14.3486 8.61906C14.3434 8.6302 14.331 8.64582 14.3114 8.66525L13.5524 9.10734C13.5142 9.12959 13.4782 9.15532 13.4448 9.1842L13.9145 9.92053C14.0162 10.0882 14.0846 10.2111 14.1198 10.2886L15.1189 9.66574C15.2204 9.62414 15.2904 9.63518 15.3289 9.69895C15.3553 9.74221 15.3619 9.79729 15.3491 9.86447C15.3363 9.93176 15.3076 9.98664 15.2624 10.03L14.1617 10.7204C14.095 10.7607 14.0414 10.7767 14.0003 10.7677C13.9593 10.7588 13.9214 10.7255 13.8863 10.6676C13.8488 10.5795 13.7757 10.4457 13.6669 10.2663L13.4829 9.96252L13.0791 9.33469ZM15.607 6.20256L17.5165 5.44152C17.6191 5.43498 17.6824 5.46379 17.7065 5.52668C17.7667 5.68488 17.7321 5.7885 17.6027 5.83801C17.3513 5.9342 17.1023 6.03638 16.8558 6.14445C16.9438 6.42258 17.014 6.63 17.0664 6.7675C17.119 6.9052 17.1525 6.99309 17.1668 7.03108L17.8207 8.6882C17.8581 8.78586 17.8545 8.85256 17.81 8.88752C17.7769 8.91467 17.7319 8.93918 17.6751 8.96096C17.5832 8.99602 17.5129 8.96291 17.4636 8.86252C17.3518 8.62619 17.169 8.17541 16.9151 7.50998C16.6613 6.84465 16.5179 6.44006 16.485 6.29709C16.4199 6.32561 16.3223 6.36438 16.1926 6.41418C16.0312 6.47517 15.8694 6.5351 15.7073 6.59397C15.6568 6.61311 15.6113 6.61242 15.5706 6.59152C15.5302 6.57092 15.5011 6.53772 15.4836 6.49172C15.4663 6.44602 15.4688 6.39348 15.4914 6.3341C15.5117 6.27708 15.553 6.23 15.607 6.20256ZM19.4278 4.89084C19.6584 4.83693 19.8718 4.86496 20.0679 4.97561C20.4504 5.18508 20.7131 5.59523 20.8561 6.20627C20.9992 6.8175 20.9367 7.3385 20.6691 7.76936C20.5288 7.98654 20.3419 8.13078 20.1086 8.20266C19.7956 8.276 19.5267 8.2259 19.3021 8.05246C19.0796 7.88185 18.8952 7.66668 18.7607 7.42072C18.6247 7.17297 18.5276 6.92541 18.4699 6.67815C18.3712 6.25637 18.3905 5.88557 18.5274 5.56525C18.6697 5.22258 18.9698 4.99797 19.4278 4.89084ZM19.4892 5.3091C19.0477 5.41242 18.8215 5.68586 18.8106 6.12951C18.8038 6.24953 18.8208 6.3966 18.8616 6.57111C18.9025 6.74572 18.9829 6.94084 19.1028 7.15588C19.2642 7.44475 19.4467 7.63137 19.6506 7.71574C19.7712 7.77111 19.904 7.78147 20.049 7.74777C20.194 7.71379 20.3088 7.61838 20.3938 7.46115C20.4786 7.30412 20.5191 7.12014 20.5149 6.9091C20.5109 6.69927 20.4848 6.49044 20.4372 6.28605C20.3523 5.92365 20.235 5.65588 20.0849 5.48234C19.9348 5.3091 19.7362 5.25129 19.4892 5.3091ZM25.271 4.31057C25.342 4.3094 25.3919 4.3592 25.4208 4.45998C25.4069 4.80197 25.3895 5.04524 25.3686 5.18947C25.3391 5.39004 25.3132 5.59111 25.2909 5.7926C25.2867 5.83303 25.2737 5.91633 25.2524 6.04211C25.2311 6.1676 25.209 6.29211 25.1859 6.41633C25.1723 6.49018 25.1585 6.56397 25.1444 6.63772C25.1397 6.66154 25.1113 6.8135 25.059 7.09377C25.0068 7.37385 24.9666 7.54563 24.9393 7.60861C24.9117 7.6719 24.863 7.70422 24.7938 7.70529C24.7245 7.70656 24.6691 7.68732 24.6279 7.64738C24.4682 7.43723 24.3161 7.17629 24.1716 6.86418C24.1361 6.78352 24.0964 6.69621 24.0526 6.60227C24.0083 6.50832 23.9757 6.43791 23.9545 6.39094L23.9068 6.28508C23.8381 6.40852 23.7439 6.61672 23.6241 6.90969C23.5044 7.20324 23.3987 7.4384 23.3073 7.61623C23.2479 7.69514 23.1808 7.73518 23.1066 7.73664C22.951 7.73957 22.8247 7.32746 22.7283 6.50012C22.7258 6.48146 22.7229 6.46286 22.7195 6.44436C22.7137 6.41086 22.7059 6.35158 22.6958 6.26721C22.6858 6.18283 22.6739 6.08928 22.6601 5.98625C22.6464 5.88322 22.5954 5.45695 22.5069 4.70725C22.5056 4.63977 22.5298 4.57746 22.5796 4.52072C22.6292 4.46399 22.6845 4.43508 22.7454 4.434C22.8199 4.43254 22.8713 4.48049 22.9003 4.57824C23.0122 5.676 23.1188 6.48625 23.2199 7.00891C23.246 6.96076 23.3125 6.80334 23.4193 6.53547C23.5258 6.26779 23.6234 6.05471 23.7118 5.89563C23.8003 5.73654 23.8868 5.65608 23.9712 5.65461C24.0288 5.65354 24.0784 5.68313 24.12 5.74328C24.3445 6.34475 24.5351 6.76779 24.6919 7.01174C24.6945 6.97434 24.713 6.87258 24.7471 6.70617L24.807 6.3801C24.8066 6.35988 24.8103 6.33088 24.818 6.29357C24.8257 6.25637 24.832 6.21984 24.8363 6.184C24.8409 6.14856 24.8459 6.11545 24.8523 6.08479L24.9021 5.76418C24.9739 5.26184 25.017 4.85002 25.0312 4.52834C25.0437 4.47043 25.0742 4.42014 25.1223 4.37688C25.1706 4.33371 25.2202 4.31164 25.271 4.31057ZM27.4027 4.55861C27.6372 4.59055 27.8265 4.69289 27.9704 4.86604C28.2533 5.19787 28.3526 5.67492 28.2682 6.2967C28.1841 6.91877 27.9403 7.38342 27.5368 7.69064C27.3283 7.84318 27.1023 7.91184 26.8584 7.89563C26.5399 7.85285 26.3067 7.71027 26.1586 7.46818C26.0115 7.22961 25.9158 6.9629 25.8779 6.68518C25.8389 6.4051 25.8366 6.13908 25.8706 5.88742C25.9287 5.45832 26.0789 5.11857 26.321 4.86809C26.5759 4.59875 26.9366 4.49563 27.4027 4.55861ZM27.3108 4.9716C26.8616 4.91057 26.5528 5.08566 26.3844 5.4965C26.3357 5.60568 26.2992 5.74943 26.275 5.92717C26.2509 6.1049 26.2565 6.31584 26.2917 6.55949C26.3397 6.88684 26.4438 7.12629 26.6042 7.27766C26.6973 7.37229 26.8175 7.42961 26.9651 7.44934C27.1126 7.46955 27.254 7.42102 27.3895 7.30481C27.5246 7.18811 27.6279 7.03059 27.6993 6.83186C27.7701 6.63434 27.8201 6.42993 27.8484 6.22199C27.8982 5.85324 27.884 5.56096 27.8057 5.34582C27.7272 5.1302 27.5623 5.00529 27.3108 4.9716ZM28.6183 8.15598C28.553 8.18898 28.4903 8.19738 28.43 8.18068C28.3696 8.16408 28.3388 8.1134 28.3373 8.02873C28.4453 7.59706 28.5581 7.16663 28.6758 6.73752L28.9996 5.50031C29.0677 5.25227 29.2234 5.11272 29.4671 5.08117C29.6659 5.04807 29.8856 5.06447 30.1273 5.13068C30.2512 5.16457 30.3758 5.23147 30.5013 5.33078C30.6281 5.43177 30.7333 5.55732 30.8104 5.69992C30.8913 5.8466 30.9129 5.98791 30.8759 6.12307C30.8387 6.25842 30.7369 6.38664 30.5704 6.50774C30.4038 6.62844 30.2129 6.72365 29.9975 6.7925C29.7821 6.86154 29.5798 6.90149 29.391 6.91301C29.6362 7.20822 29.8379 7.50842 29.9964 7.8132C30.1548 8.11818 30.2156 8.33752 30.1789 8.47102C30.1672 8.51359 30.1351 8.54777 30.0825 8.57346C30.0297 8.59934 29.9732 8.60422 29.9127 8.58742C29.8524 8.57092 29.8081 8.53088 29.7801 8.46691C29.7557 8.27414 29.6695 8.055 29.5212 7.8093C29.3729 7.5632 29.1887 7.31731 28.9685 7.07063L28.7402 8.01857C28.7242 8.07717 28.6834 8.12297 28.6183 8.15598ZM29.9354 6.47287C30.2551 6.37463 30.4342 6.25617 30.4723 6.1175C30.5104 5.97883 30.4711 5.85315 30.3547 5.74035C30.2381 5.62795 30.0861 5.54582 29.8986 5.49436C29.7109 5.44289 29.5554 5.42473 29.4319 5.43977C29.383 5.60549 29.2802 5.97395 29.1236 6.54484C29.3449 6.59494 29.6154 6.57092 29.9354 6.47287ZM30.7872 8.24191C30.8877 8.00158 31.0428 7.58869 31.2527 7.00354C31.4624 6.41838 31.5884 6.04455 31.6307 5.88264C31.6592 5.81389 31.7079 5.7635 31.7762 5.73137C31.8445 5.69963 31.9082 5.69592 31.9677 5.72072C32.0427 5.75207 32.0731 5.81994 32.0589 5.92395C31.9783 6.25705 31.8215 6.71965 31.5886 7.31174C31.9781 7.17024 32.2883 7.03957 32.52 6.91984C32.7515 6.80041 33.013 6.63283 33.3048 6.4173C33.39 6.35402 33.481 6.3426 33.5778 6.38303C33.6276 6.40383 33.6635 6.43449 33.6851 6.47463C33.7068 6.51496 33.7098 6.55373 33.6941 6.59113C33.6524 6.69104 33.492 6.82678 33.2132 6.99817C32.9338 7.16974 32.6475 7.32989 32.3551 7.47824C32.5078 7.85002 32.606 8.2467 32.6498 8.66857C32.6564 8.72268 32.6662 8.79094 32.6794 8.87346C32.6925 8.95598 32.7022 9.02072 32.7085 9.06721C32.7247 9.19494 32.7178 9.29484 32.6878 9.36652C32.6577 9.4383 32.6154 9.48928 32.5606 9.51965C32.5056 9.54983 32.4517 9.55383 32.3988 9.53166C32.3456 9.50959 32.306 9.41125 32.2799 9.23723C32.2421 8.98987 32.2033 8.74267 32.1635 8.49563C32.1123 8.17502 32.0397 7.88176 31.9458 7.61516C31.7003 7.71047 31.5205 7.77258 31.4058 7.80178C31.3316 8.00539 31.2668 8.17346 31.2112 8.30627C31.1556 8.43889 31.108 8.54445 31.0678 8.62297C30.9642 8.81809 30.8391 8.88488 30.6923 8.82365C30.6019 8.78586 30.5827 8.7134 30.6345 8.60686L30.7872 8.24191ZM36.7391 8.20959C36.9349 8.3427 37.0585 8.51897 37.1102 8.73801C37.2153 9.16125 37.0913 9.63234 36.7385 10.1513C36.3857 10.6705 35.9601 10.9779 35.462 11.0728C35.2073 11.1164 34.9744 11.0768 34.7635 10.9539C34.4976 10.773 34.3523 10.5413 34.3276 10.2586C34.3025 9.97939 34.3359 9.69802 34.4257 9.43244C34.5158 9.16447 34.6325 8.92541 34.7749 8.71584C35.0184 8.35754 35.3044 8.12023 35.633 8.00402C35.9815 7.87668 36.35 7.94514 36.7391 8.20959ZM36.4729 8.53811C36.0977 8.28303 35.7433 8.30207 35.4097 8.59475C35.3169 8.67063 35.2203 8.78303 35.1193 8.93127C35.0186 9.07961 34.9296 9.27082 34.8525 9.50481C34.7493 9.81906 34.7354 10.0799 34.8117 10.287C34.8526 10.4131 34.9347 10.5179 35.058 10.6018C35.1811 10.6854 35.329 10.7053 35.5023 10.6614C35.6752 10.6175 35.838 10.5224 35.9905 10.3766C36.142 10.2314 36.2779 10.0707 36.3959 9.89719C36.6051 9.58938 36.7227 9.3218 36.7487 9.09406C36.7747 8.86594 36.6827 8.68068 36.4729 8.53811ZM39.6411 10.6855C39.7125 10.6776 39.7694 10.693 39.8121 10.7317C39.8544 10.7703 39.8712 10.825 39.8624 10.8946C39.7062 11.1507 39.505 11.4136 39.2583 11.6833L38.9981 11.9682C38.8018 12.1829 38.6823 12.3063 38.6394 12.3382C38.5964 12.3701 38.5497 12.4062 38.4988 12.447C38.4478 12.4874 38.408 12.5172 38.3789 12.5365C38.3499 12.5561 38.3096 12.5811 38.2583 12.6121C38.1464 12.6794 38.0324 12.7267 37.9162 12.753C37.7136 12.8245 37.5144 12.8442 37.319 12.8123C37.1236 12.7803 36.9627 12.7069 36.8366 12.5916C36.7105 12.4764 36.6309 12.3027 36.5978 12.0707C36.5646 11.8385 36.5808 11.6013 36.6465 11.3591C36.7494 10.9857 36.9527 10.6328 37.2563 10.3007C37.3635 10.1831 37.6355 9.92063 38.0723 9.5133C38.1283 9.48866 38.1893 9.47726 38.2504 9.48C38.3151 9.48176 38.3664 9.50012 38.4038 9.53439C38.4586 9.58439 38.4581 9.65275 38.4021 9.73918C37.9723 10.1392 37.7049 10.3966 37.5999 10.5115C37.3489 10.7864 37.1799 11.079 37.0934 11.3895C37.033 11.5908 37.0093 11.7836 37.0224 11.9673C37.0354 12.1512 37.0894 12.2863 37.1843 12.3731C37.3417 12.5168 37.5884 12.5178 37.9244 12.3755C38.0494 12.3343 38.2001 12.2219 38.3764 12.0393C38.4219 11.9894 38.4564 11.9566 38.4798 11.9412L38.9391 11.4535C39.1492 11.2238 39.3233 10.998 39.462 10.7763C39.5082 10.7246 39.5721 10.6922 39.6411 10.6855ZM40.4379 11.5083L41.7817 13.0642C41.8213 13.1589 41.8151 13.2278 41.7634 13.2713C41.6336 13.3798 41.5243 13.3814 41.4352 13.2749C41.2621 13.0689 41.084 12.8671 40.9012 12.6696C40.6673 12.8436 40.4941 12.9778 40.3812 13.0722L40.1655 13.2531L38.8132 14.4132C38.7329 14.4805 38.6688 14.4989 38.6209 14.4683C38.5846 14.4457 38.5468 14.4113 38.5077 14.3646C38.4448 14.2895 38.4527 14.2121 38.5318 14.1325C38.7183 13.9497 39.0845 13.6295 39.6304 13.1719C40.1762 12.7144 40.5115 12.4467 40.6359 12.3689C40.5655 12.2911 40.4968 12.2117 40.4299 12.1309C40.3192 11.9985 40.2097 11.8652 40.1013 11.7309C40.0664 11.6895 40.0523 11.6462 40.0586 11.6009C40.0651 11.5561 40.087 11.5177 40.1247 11.4862C40.1622 11.4547 40.2127 11.4397 40.2762 11.4419C40.3397 11.4441 40.3934 11.466 40.4379 11.5083ZM39.7035 15.4833C39.7234 15.4081 39.7584 15.3531 39.8085 15.3187C39.8587 15.2839 39.918 15.2717 39.9869 15.2818C40.0554 15.2923 40.1123 15.3299 40.1575 15.3952C40.2026 15.4607 40.2228 15.5167 40.2179 15.5633C40.213 15.6099 40.1688 15.662 40.0853 15.7196C39.9377 15.8215 39.8215 15.8109 39.7372 15.6887C39.6948 15.6273 39.6835 15.5592 39.7035 15.4833ZM42.5735 13.928L41.1233 14.8735C40.9701 14.9792 40.8706 15.0498 40.8255 15.0853C40.7816 15.099 40.7345 15.0995 40.6846 15.087C40.6347 15.074 40.5963 15.0484 40.5694 15.009C40.5424 14.97 40.5509 14.9171 40.5949 14.8498C41.2678 14.3236 41.8437 13.8952 42.3226 13.5646C42.4095 13.5415 42.4884 13.5815 42.5596 13.6846C42.6306 13.7876 42.6353 13.8687 42.5735 13.928Z"
        fill="white" />
    <path
        d="M33.6181 16.8335C33.6318 16.7259 34.6143 13.809 34.6143 13.809L35.1702 16.9317L38.3991 17.2646L35.7203 18.7191L36.3355 21.7182L34.0554 19.252L31.9395 21.3577L32.8922 18.5027L30.0747 16.9967L33.6181 16.8335ZM37.3884 34.4395C37.3618 34.3343 37.2094 31.2602 37.2094 31.2602L38.8689 33.9634L41.9958 33.0923L40.0346 35.4258L41.7042 37.992L38.68 36.5306L37.4808 39.2643L37.3235 36.2587L34.1502 35.8875L37.3884 34.4395ZM14.939 15.2858C14.92 15.2109 14.8116 13.0225 14.8116 13.0225L15.9929 14.9469L18.2191 14.3268L16.8229 15.988L18.0115 17.8149L15.8585 16.7745L15.0048 18.7207L14.8928 16.581L12.6337 16.3167L14.939 15.2858ZM12.5294 36.8512C12.567 36.7493 14.181 34.1287 14.181 34.1287L14.0195 37.2965L17.0906 38.3478L14.1531 39.1618L14.0773 42.2224L12.411 39.3061L9.87534 40.8813L11.4464 38.3143L9.04028 36.2125L12.5294 36.8512Z"
        fill="#FFCB76" />
    <path
        d="M5.96899 28.609L7.35679 29.0804L6.0062 29.5146L5.49761 30.9396L4.9519 29.5146L3.63843 29.0804L5.02622 28.609L5.49761 27.2212L5.96899 28.609ZM28.9177 11.4444L30.3054 11.9158L28.9548 12.3501L28.4462 13.775L27.9005 12.3501L26.5871 11.9158L27.9749 11.4444L28.4462 10.0566L28.9177 11.4444ZM47.2366 28.4112L48.6244 28.8826L47.2738 29.3169L46.7652 30.7418L46.2194 29.3169L44.906 28.8826L46.2938 28.4112L46.7652 27.0234L47.2366 28.4112Z"
        fill="#FFE4E8" />
</svg>
