<svg width="25" height="25" viewBox="0 0 25 25" fill="none" xmlns="http://www.w3.org/2000/svg">
    <g clip-path="url(#clip0_83_2246)">
        <path
            d="M16.5387 23.9956C16.5144 24.0434 16.4809 24.0859 16.4401 24.1208C16.3993 24.1556 16.3521 24.182 16.3011 24.1986C16.2501 24.2151 16.1963 24.2215 16.1429 24.2173C16.0894 24.213 16.0373 24.1983 15.9895 24.174L14.1606 23.2421H12.4399L15.6346 24.8699C15.8015 24.9554 15.9862 25.0001 16.1737 25.0003C16.2989 25.0002 16.4234 24.9803 16.5425 24.9415C16.6912 24.8936 16.829 24.8167 16.9478 24.7153C17.0667 24.6138 17.1642 24.4897 17.2348 24.3503L17.7993 23.2421H16.9225L16.5387 23.9956ZM24.9415 8.45794C24.8936 8.30917 24.8166 8.17137 24.7151 8.05253C24.6136 7.93368 24.4895 7.83614 24.3501 7.76556L23.2419 7.2011V8.07786L23.9954 8.46165C24.0432 8.48599 24.0857 8.51951 24.1205 8.56029C24.1553 8.60107 24.1818 8.64831 24.1983 8.69932C24.2149 8.75032 24.2212 8.80408 24.217 8.85754C24.2128 8.911 24.1981 8.9631 24.1737 9.01087L23.2421 10.8398V12.5605L24.8698 9.36575C24.9411 9.22667 24.9842 9.07483 24.9965 8.91901C25.0087 8.76318 24.9902 8.60647 24.9415 8.45794ZM8.46141 1.00501C8.48566 0.957161 8.51915 0.914592 8.55995 0.879761C8.60075 0.84493 8.64804 0.818528 8.6991 0.802081C8.74004 0.788765 8.78281 0.781976 8.82586 0.781964C8.89012 0.782035 8.95345 0.797365 9.01062 0.82669L10.8395 1.75814H12.5602L9.3657 0.130792C9.22651 0.0598153 9.0747 0.0169564 8.91895 0.00466378C8.76319 -0.00762888 8.60654 0.0108855 8.45794 0.0591493C8.30933 0.107413 8.1717 0.184481 8.05289 0.28595C7.93408 0.387418 7.83643 0.5113 7.76551 0.650519L7.20105 1.75872H8.07781L8.46141 1.00501ZM0.0586726 16.5427C0.106587 16.6915 0.183527 16.8293 0.285041 16.9481C0.386554 17.067 0.510626 17.1645 0.650079 17.2351L1.75828 17.7995V16.9226L1.00477 16.5388C0.956985 16.5145 0.914469 16.4809 0.879646 16.4402C0.844823 16.3994 0.818376 16.3521 0.801816 16.3011C0.785256 16.2501 0.778908 16.1964 0.783134 16.1429C0.78736 16.0895 0.802078 16.0373 0.826446 15.9896L1.75789 14.1609V12.4402L0.130548 15.6347C0.0592113 15.7738 0.0161626 15.9256 0.00389249 16.0814C-0.00837767 16.2373 0.0103742 16.394 0.0590632 16.5425L0.0586726 16.5427ZM17.8712 11.7191V9.76595C17.8711 9.66238 17.8299 9.56308 17.7566 9.48985C17.6834 9.41661 17.5841 9.37543 17.4805 9.37532H14.7462C14.6426 9.37543 14.5433 9.41661 14.4701 9.48985C14.3968 9.56308 14.3556 9.66238 14.3555 9.76595V12.1097H17.4805C17.5841 12.1096 17.6834 12.0684 17.7566 11.9952C17.8299 11.9219 17.8711 11.8226 17.8712 11.7191Z"
            fill="url(#paint0_linear_83_2246)" />
        <path
            d="M21.2889 2.53926H3.71094C3.40023 2.53957 3.10234 2.66313 2.88264 2.88283C2.66294 3.10254 2.53937 3.40043 2.53906 3.71113V21.2885C2.53937 21.5992 2.66294 21.8971 2.88264 22.1168C3.10234 22.3365 3.40023 22.46 3.71094 22.4604H21.2891C21.5998 22.46 21.8977 22.3365 22.1174 22.1168C22.3371 21.8971 22.4606 21.5992 22.4609 21.2885V3.71094C22.4606 3.40023 22.3371 3.10234 22.1174 2.88264C21.8977 2.66294 21.5998 2.53937 21.2891 2.53906L21.2889 2.53926ZM19.1404 17.9684H5.85938C5.75577 17.9684 5.65642 17.9272 5.58316 17.8539C5.50991 17.7807 5.46875 17.6813 5.46875 17.5777C5.46875 17.4741 5.50991 17.3748 5.58316 17.3015C5.65642 17.2283 5.75577 17.1871 5.85938 17.1871H19.1406C19.2442 17.1871 19.3436 17.2283 19.4168 17.3015C19.4901 17.3748 19.5312 17.4741 19.5312 17.5777C19.5312 17.6813 19.4901 17.7807 19.4168 17.8539C19.3436 17.9272 19.244 17.9684 19.1404 17.9684ZM6.42168 9.2127C6.39087 9.17115 6.36861 9.1239 6.3562 9.07369C6.3438 9.02348 6.34149 8.9713 6.3494 8.92019C6.35732 8.86908 6.37531 8.82005 6.40233 8.77594C6.42935 8.73184 6.46486 8.69354 6.50679 8.66326C6.54873 8.63299 6.59626 8.61135 6.64663 8.59959C6.697 8.58783 6.7492 8.5862 6.80021 8.59477C6.85121 8.60335 6.90001 8.62197 6.94376 8.64956C6.98751 8.67714 7.02535 8.71314 7.05508 8.75547L9.27754 11.8324L11.4998 8.75566C11.5295 8.71334 11.5674 8.67734 11.6111 8.64975C11.6549 8.62217 11.7037 8.60355 11.7547 8.59497C11.8057 8.58639 11.8579 8.58803 11.9083 8.59979C11.9586 8.61154 12.0062 8.63319 12.0481 8.66346C12.09 8.69373 12.1255 8.73203 12.1526 8.77614C12.1796 8.82024 12.1976 8.86927 12.2055 8.92039C12.2134 8.9715 12.2111 9.02368 12.1987 9.07389C12.1863 9.1241 12.164 9.17135 12.1332 9.21289L9.75937 12.4998L12.1332 15.7865C12.1632 15.8281 12.1848 15.8752 12.1966 15.9251C12.2085 15.975 12.2103 16.0268 12.2022 16.0775C12.194 16.1281 12.1759 16.1766 12.149 16.2203C12.1221 16.264 12.0868 16.3019 12.0452 16.3319C12.0036 16.362 11.9565 16.3835 11.9066 16.3953C11.8567 16.4072 11.8049 16.4091 11.7543 16.4009C11.7036 16.3927 11.6551 16.3747 11.6114 16.3477C11.5678 16.3208 11.5298 16.2855 11.4998 16.2439L9.27734 13.167L7.05527 16.2439C7.02524 16.2855 6.98731 16.3208 6.94364 16.3477C6.89998 16.3747 6.85144 16.3927 6.80079 16.4009C6.75015 16.4091 6.69839 16.4072 6.64847 16.3953C6.59855 16.3835 6.55145 16.362 6.50986 16.3319C6.46827 16.3019 6.43301 16.264 6.40608 16.2203C6.37915 16.1766 6.36108 16.1281 6.35291 16.0775C6.34474 16.0268 6.34663 15.975 6.35846 15.9251C6.37029 15.8752 6.39184 15.8281 6.42188 15.7865L8.79551 12.4998L6.42168 9.2127ZM13.5742 16.0154V9.76543C13.5745 9.45472 13.6981 9.15683 13.9178 8.93713C14.1375 8.71743 14.4354 8.59386 14.7461 8.59355H17.4805C17.7912 8.59386 18.0891 8.71743 18.3088 8.93713C18.5285 9.15683 18.652 9.45472 18.6523 9.76543V11.7186C18.652 12.0293 18.5285 12.3272 18.3088 12.5469C18.0891 12.7666 17.7912 12.8901 17.4805 12.8904H14.3555V16.0154C14.3555 16.119 14.3143 16.2184 14.2411 16.2916C14.1678 16.3649 14.0684 16.4061 13.9648 16.4061C13.8612 16.4061 13.7619 16.3649 13.6886 16.2916C13.6154 16.2184 13.5742 16.119 13.5742 16.0154ZM19.1406 7.8125H5.85938C5.75577 7.8125 5.65642 7.77135 5.58316 7.69809C5.50991 7.62483 5.46875 7.52548 5.46875 7.42188C5.46875 7.31827 5.50991 7.21892 5.58316 7.14566C5.65642 7.07241 5.75577 7.03125 5.85938 7.03125H19.1406C19.2442 7.03125 19.3436 7.07241 19.4168 7.14566C19.4901 7.21892 19.5312 7.31827 19.5312 7.42188C19.5312 7.52548 19.4901 7.62483 19.4168 7.69809C19.3436 7.77135 19.2442 7.8125 19.1406 7.8125Z"
            fill="url(#paint1_linear_83_2246)" />
    </g>
    <defs>
        <linearGradient id="paint0_linear_83_2246" x1="12.5002" y1="0.000976562" x2="12.5002"
            y2="25.0003" gradientUnits="userSpaceOnUse">
            <stop stop-color="#FFDA58" />
            <stop offset="1" stop-color="#FF924D" />
        </linearGradient>
        <linearGradient id="paint1_linear_83_2246" x1="12.5" y1="2.53906" x2="12.5" y2="22.4604"
            gradientUnits="userSpaceOnUse">
            <stop stop-color="#FFDA58" />
            <stop offset="1" stop-color="#FF924D" />
        </linearGradient>
        <clipPath id="clip0_83_2246">
            <rect width="25" height="25" fill="white" />
        </clipPath>
    </defs>
</svg>
