<svg width="78" height="30" viewBox="0 0 78 30" fill="none" xmlns="http://www.w3.org/2000/svg">
    <path
        d="M41.8298 12.5954C41.8321 15.0834 42.3045 17.5485 43.2221 19.8611C44.023 21.8556 45.3297 23.607 47.0135 24.9428C48.6973 26.2786 50.7 27.1527 52.8244 27.4789L62.5227 28.9833C64.486 29.2911 66.4965 29.0301 68.3161 28.2311C70.0712 27.4763 71.5687 26.2269 72.6258 24.6355C73.683 23.0441 74.2541 21.1794 74.2695 19.269V7.12206H75.0537C75.4782 7.12206 75.8852 6.95345 76.1853 6.65332C76.4855 6.35319 76.6541 5.94612 76.6541 5.52168V2.54496C76.6541 2.12051 76.4855 1.71345 76.1853 1.41332C75.8852 1.11319 75.4782 0.94458 75.0537 0.94458H72.061L51.048 2.17688C48.1838 2.34996 45.476 3.54206 43.4141 5.53768C42.3964 6.54921 41.024 7.12344 39.5892 7.13806H38.533C37.0982 7.12344 35.7258 6.54921 34.7081 5.53768C32.6462 3.54206 29.9384 2.34996 27.0742 2.17688L6.0612 0.94458H3.03648C2.61203 0.94458 2.20497 1.11319 1.90484 1.41332C1.60471 1.71345 1.4361 2.12051 1.4361 2.54496V5.58569C1.4361 6.01014 1.60471 6.4172 1.90484 6.71733C2.20497 7.01746 2.61203 7.18607 3.03648 7.18607H3.85267V19.333C3.86674 21.2417 4.4355 23.1051 5.48968 24.6963C6.54387 26.2875 8.03799 27.5379 9.7901 28.2951C11.6097 29.0941 13.6201 29.3551 15.5835 29.0473L25.2818 27.5429C27.4062 27.2167 29.4089 26.3426 31.0927 25.0068C32.7765 23.6711 34.0832 21.9196 34.8841 19.9251C35.8017 17.6125 36.2741 15.1474 36.2764 12.6594C36.2785 12.5459 36.3029 12.4339 36.3483 12.3299C36.3937 12.2258 36.4591 12.1317 36.5408 12.0529C36.6226 11.9742 36.719 11.9123 36.8247 11.8708C36.9303 11.8293 37.0431 11.8091 37.1566 11.8112H40.9335C41.155 11.802 41.3715 11.8783 41.5383 12.0243C41.7051 12.1702 41.8094 12.3747 41.8298 12.5954Z"
        fill="#87898C" />
    <path
        d="M75.0857 0.94458H72.061L51.048 2.17688C48.1838 2.34996 45.476 3.54206 43.4141 5.53768C42.3964 6.54921 41.024 7.12344 39.5892 7.13806H38.533C37.0982 7.12344 35.7258 6.54921 34.7081 5.53768C32.6462 3.54206 29.9384 2.34996 27.0742 2.17688L6.0612 0.94458H3.03648C2.61203 0.94458 2.20497 1.11319 1.90484 1.41332C1.60471 1.71345 1.4361 2.12051 1.4361 2.54496V5.76173C1.49045 5.3772 1.68277 5.02554 1.97722 4.77232C2.27166 4.5191 2.64814 4.38158 3.03648 4.3854H6.0612L27.0742 5.60169C29.9363 5.77042 32.6438 6.95673 34.7081 8.9465C35.7219 9.96385 37.0968 10.5391 38.533 10.5469H39.5892C41.0254 10.5391 42.4003 9.96385 43.4141 8.9465C45.476 6.95088 48.1838 5.75877 51.048 5.58569L72.061 4.3694H75.0857C75.4741 4.36558 75.8505 4.5031 76.145 4.75632C76.4394 5.00954 76.6317 5.36119 76.6861 5.74573C76.6861 5.74573 76.6861 5.6177 76.6861 5.56969V2.54496C76.6861 2.12051 76.5175 1.71345 76.2174 1.41332C75.9172 1.11319 75.5102 0.94458 75.0857 0.94458Z"
        fill="#BDBEC0" />
    <path
        d="M75.0857 0.94458H72.061L51.048 2.17688C48.1838 2.34996 45.476 3.54206 43.4141 5.53768C42.3964 6.54921 41.024 7.12344 39.5892 7.13806H38.533C37.0982 7.12344 35.7258 6.54921 34.7081 5.53768C32.6462 3.54206 29.9384 2.34996 27.0742 2.17688L6.0612 0.94458H3.03648C2.61203 0.94458 2.20497 1.11319 1.90484 1.41332C1.60471 1.71345 1.4361 2.12052 1.4361 2.54496V5.58569C1.4361 6.01014 1.60471 6.4172 1.90484 6.71733C2.20497 7.01746 2.61203 7.18607 3.03648 7.18607H3.85267V19.333C3.86674 21.2417 4.4355 23.1051 5.48968 24.6963C6.54387 26.2875 8.03799 27.5379 9.7901 28.2951C11.6097 29.0941 13.6201 29.3551 15.5835 29.0473L25.2978 27.5429C27.4222 27.2167 29.4249 26.3426 31.1087 25.0068C32.7925 23.6711 34.0992 21.9196 34.9001 19.9251C35.8177 17.6125 36.2901 15.1474 36.2924 12.6594C36.2945 12.5459 36.3189 12.4339 36.3643 12.3299C36.4097 12.2258 36.4751 12.1317 36.5568 12.0529C36.6386 11.9742 36.735 11.9123 36.8407 11.8708C36.9464 11.8293 37.0592 11.8091 37.1726 11.8112H40.9496C41.063 11.8091 41.1758 11.8293 41.2815 11.8708C41.3872 11.9123 41.4836 11.9742 41.5654 12.0529C41.6471 12.1317 41.7125 12.2258 41.7579 12.3299C41.8033 12.4339 41.8277 12.5459 41.8298 12.6594C41.832 15.1474 42.3044 17.6125 43.2221 19.9251C44.023 21.9196 45.3297 23.6711 47.0135 25.0068C48.6973 26.3426 50.7 27.2167 52.8244 27.5429L62.5387 29.0473C64.502 29.3551 66.5125 29.0941 68.3321 28.2951C70.0942 27.5335 71.595 26.2733 72.65 24.6695C73.7049 23.0658 74.2679 21.1886 74.2695 19.269V7.12206H75.0537C75.4782 7.12206 75.8852 6.95345 76.1853 6.65332C76.4855 6.35319 76.6541 5.94612 76.6541 5.52168V2.54496C76.6542 2.126 76.49 1.72372 76.1967 1.42449C75.9035 1.12526 75.5046 0.952959 75.0857 0.94458Z"
        stroke="#45413C" stroke-linecap="round" stroke-linejoin="round" />
    <path
        d="M23.1684 24.2789L15.6786 25.3191C14.7683 25.444 13.842 25.3814 12.9568 25.1351C12.0716 24.8888 11.2461 24.4641 10.5311 23.887C9.81606 23.3099 9.22665 22.5926 8.79908 21.7793C8.37151 20.966 8.11481 20.0738 8.04476 19.1577L7.51664 12.148C7.45102 11.2553 7.57717 10.359 7.88662 9.51912C8.19606 8.67926 8.68164 7.91534 9.31074 7.27866C9.93984 6.64198 10.6979 6.14729 11.534 5.82781C12.3701 5.50832 13.2649 5.37145 14.1582 5.42637L26.8653 6.22657C28.3189 6.31731 29.6779 6.97877 30.6461 8.06688C31.6143 9.15499 32.1133 10.5816 32.0345 12.036L31.9065 14.7566C31.7868 17.113 30.8484 19.3537 29.2531 21.0922C27.6579 22.8306 25.5058 23.9576 23.1684 24.2789Z"
        fill="#00B8F0" />
    <path
        d="M26.8661 6.16194L14.1591 5.36175C13.2599 5.30573 12.3592 5.44405 11.5183 5.76728C10.6774 6.09051 9.91589 6.59107 9.28571 7.23491C8.65554 7.87876 8.17142 8.65078 7.86631 9.49846C7.56119 10.3461 7.44223 11.2496 7.51752 12.1474L8.04565 19.2211C8.11569 20.1372 8.37239 21.0294 8.79996 21.8427C9.22754 22.656 9.81695 23.3733 10.532 23.9504C11.247 24.5275 12.0725 24.9522 12.9577 25.1985C13.8429 25.4448 14.7692 25.5074 15.6795 25.3825H16.2236L27.4263 6.36999L26.8661 6.16194Z"
        fill="#4ACFFF" />
    <path
        d="M23.1684 24.2789L15.6786 25.3191C14.7683 25.444 13.842 25.3814 12.9568 25.1351C12.0716 24.8888 11.2461 24.4641 10.5311 23.887C9.81606 23.3099 9.22665 22.5926 8.79908 21.7793C8.37151 20.966 8.11481 20.0738 8.04476 19.1577L7.51664 12.148C7.45102 11.2553 7.57717 10.359 7.88662 9.51912C8.19606 8.67926 8.68164 7.91534 9.31074 7.27866C9.93984 6.64198 10.6979 6.14729 11.534 5.82781C12.3701 5.50832 13.2649 5.37145 14.1582 5.42637L26.8653 6.22657C28.3189 6.31731 29.6779 6.97877 30.6461 8.06688C31.6143 9.15499 32.1133 10.5816 32.0345 12.036L31.9065 14.7566C31.7868 17.113 30.8484 19.3537 29.2531 21.0922C27.6579 22.8306 25.5058 23.9576 23.1684 24.2789Z"
        stroke="#45413C" stroke-linecap="round" stroke-linejoin="round" />
    <path
        d="M54.9522 24.2789L62.442 25.3191C63.3523 25.444 64.2786 25.3814 65.1638 25.1351C66.049 24.8888 66.8745 24.4641 67.5895 23.887C68.3045 23.3099 68.894 22.5926 69.3215 21.7793C69.7491 20.966 70.0058 20.0738 70.0758 19.1577L70.604 12.148C70.6696 11.2553 70.5434 10.359 70.234 9.51912C69.9245 8.67926 69.439 7.91534 68.8099 7.27866C68.1808 6.64198 67.4227 6.14729 66.5866 5.82781C65.7505 5.50832 64.8557 5.37145 63.9624 5.42637L51.2553 6.22657C49.8017 6.31731 48.4427 6.97877 47.4745 8.06688C46.5063 9.15499 46.0073 10.5816 46.0861 12.036L46.2141 14.7566C46.3338 17.113 47.2722 19.3537 48.8675 21.0922C50.4627 22.8306 52.6148 23.9576 54.9522 24.2789Z"
        fill="#00B8F0" />
    <path
        d="M65.9949 5.57092C65.3338 5.38805 64.6468 5.31772 63.9624 5.36287L51.2553 6.16306C49.8017 6.25381 48.4427 6.91527 47.4745 8.00337C46.5063 9.09148 46.0073 10.5181 46.0861 11.9725L46.2141 14.6931C46.3119 17.0622 47.2388 19.3216 48.8331 21.0767C50.4273 22.8318 52.5874 23.971 54.9362 24.2954L65.9949 5.57092Z"
        fill="#4ACFFF" />
    <path
        d="M54.9522 24.2789L62.442 25.3191C63.3523 25.444 64.2786 25.3814 65.1638 25.1351C66.049 24.8888 66.8745 24.4641 67.5895 23.887C68.3045 23.3099 68.894 22.5926 69.3215 21.7793C69.7491 20.966 70.0058 20.0738 70.0758 19.1577L70.604 12.148C70.6696 11.2553 70.5434 10.359 70.234 9.51912C69.9245 8.67926 69.439 7.91534 68.8099 7.27866C68.1808 6.64198 67.4227 6.14729 66.5866 5.82781C65.7505 5.50832 64.8557 5.37145 63.9624 5.42637L51.2553 6.22657C49.8017 6.31731 48.4427 6.97877 47.4745 8.06688C46.5063 9.15499 46.0073 10.5816 46.0861 12.036L46.2141 14.7566C46.3338 17.113 47.2722 19.3537 48.8675 21.0922C50.4627 22.8306 52.6148 23.9576 54.9522 24.2789Z"
        stroke="#45413C" stroke-linecap="round" stroke-linejoin="round" />
</svg>
