<svg width="65" height="33" viewBox="0 0 65 33" fill="none" xmlns="http://www.w3.org/2000/svg">
    <path fill-rule="evenodd" clip-rule="evenodd"
        d="M63.8396 15.2358C63.8242 15.208 63.8117 15.1787 63.8024 15.1484C62.817 12.1781 61.8376 9.20878 60.8552 6.23847L60.8431 6.20431C60.4032 5.15963 59.9411 4.12499 59.3876 3.14359C59.2765 2.94711 59.161 2.75319 59.0411 2.56199C57.678 -0.662462 53.8387 -0.0929112 51.9392 2.15617L51.4802 2.47661C51.1748 2.69056 50.8704 2.90352 50.5681 3.11949C50.4174 3.22597 50.2999 3.51325 50.321 3.69908C50.3933 4.40123 50.5118 5.10338 50.6525 5.79849C50.7198 6.14103 51.0904 6.20431 51.3677 5.99035C51.8518 5.61567 52.3621 5.27414 52.8513 4.90549C53.006 4.78696 53.1607 4.6403 53.2491 4.46954C53.7694 2.81914 54.8352 1.25614 56.5409 1.32545C57.7523 1.32545 58.1772 2.96178 58.803 3.95724C58.8834 4.127 58.9687 4.29676 59.0521 4.46552C59.6377 5.65284 60.2234 6.84217 60.1561 8.23843C60.1524 8.33352 60.1742 8.42787 60.2193 8.51165C60.2856 8.63621 60.3811 8.7447 60.4644 8.86021C60.4996 8.85419 60.5378 8.84615 60.5729 8.84213C61.0631 8.90944 62.1339 12.8903 62.4875 14.2614C62.4755 14.2676 62.4631 14.273 62.4503 14.2775C62.3529 14.0997 62.2735 13.9119 62.158 13.7491C61.7854 13.2348 61.4549 12.6713 61.0079 12.2273C59.69 10.9295 57.9843 10.3378 56.2516 9.89485C54.5771 9.46492 52.8413 9.49506 51.1246 9.55031C48.2718 9.64473 45.42 9.81148 42.5692 9.91996C39.16 10.0465 35.7547 10.0234 32.3494 9.93202V9.92599L32.252 9.93001L32.1526 9.92599V9.93202C28.7473 10.0234 25.342 10.0465 21.9327 9.91996C19.082 9.81148 16.2282 9.64473 13.3774 9.55031C11.6607 9.49506 9.92493 9.46492 8.25043 9.89485C6.51465 10.3378 4.81202 10.9295 3.49411 12.2273C3.04711 12.6703 2.71663 13.2318 2.34396 13.7511C2.22743 13.9119 2.14808 14.0997 2.05064 14.2775C2.0379 14.273 2.02548 14.2676 2.01347 14.2614C2.36806 12.8903 3.43786 8.90944 3.92906 8.84213C3.96422 8.84615 4.00239 8.85419 4.03755 8.86021C4.12092 8.7457 4.21635 8.63621 4.28365 8.51165C4.32789 8.42754 4.34969 8.33343 4.34693 8.23843C4.27963 6.84117 4.86526 5.65284 5.45088 4.46552C5.53526 4.29777 5.61863 4.12901 5.7 3.95724C6.32379 2.96178 6.75272 1.32545 7.96013 1.32545C9.66778 1.25614 10.7346 2.81914 11.2549 4.46954C11.3433 4.6393 11.498 4.78596 11.6527 4.90549C12.1409 5.27314 12.6522 5.61567 13.1363 5.99035C13.4116 6.20331 13.7832 6.14002 13.8525 5.79849C13.9912 5.10438 14.1097 4.40123 14.185 3.69908C14.2031 3.51325 14.0866 3.22597 13.9359 3.11949C13.6336 2.90352 13.3282 2.69056 13.0218 2.47661C12.8691 2.37013 12.7174 2.26265 12.5628 2.15617C10.6632 -0.0929112 6.82303 -0.663467 5.46093 2.56199C5.34158 2.75355 5.22604 2.94746 5.11437 3.14359C4.56089 4.12499 4.09782 5.16264 3.65784 6.20431C3.65237 6.21513 3.64832 6.22661 3.64579 6.23847C2.66439 9.20878 1.685 12.1781 0.699586 15.1484C0.688617 15.1783 0.675871 15.2074 0.661415 15.2358C0.661415 15.2358 -0.676581 15.728 0.453483 18.4823H0.433393C0.500695 18.6089 0.559961 18.7375 0.620231 18.864H0.62224C0.750816 19.1483 0.879392 19.4226 1.06723 19.6415C1.70811 20.3839 2.01147 21.2728 2.34195 22.1618C2.99487 23.9257 3.79847 25.6203 5.04104 27.0507C7.3303 29.6866 10.2213 31.2737 13.6597 31.9065C16.2483 32.3816 18.7746 32.237 21.2517 31.341C23.8905 30.3837 25.9648 28.7242 27.5258 26.3908C28.6924 24.6601 29.601 22.7689 30.2229 20.7766C30.2761 20.6089 30.3475 20.4451 30.4128 20.2804C30.5611 19.9077 30.8131 19.5853 31.1388 19.3513C31.4646 19.1172 31.8505 18.9813 32.251 18.9595C32.6517 18.9816 33.0377 19.1177 33.3637 19.3517C33.6897 19.5857 33.9421 19.9079 34.0912 20.2804C34.1555 20.4451 34.2279 20.6089 34.2811 20.7766C34.9026 22.7691 35.8112 24.6604 36.9782 26.3908C38.5392 28.7232 40.6125 30.3837 43.2523 31.341C45.7294 32.238 48.2557 32.3816 50.8443 31.9065C54.2837 31.2737 57.1747 29.6866 59.463 27.0507C60.7055 25.6203 61.5091 23.9257 62.1631 22.1618C62.4925 21.2718 62.7939 20.3829 63.4347 19.6415C63.6236 19.4215 63.7492 19.1483 63.8818 18.864C63.94 18.7375 64.0003 18.6089 64.0666 18.4823H64.0485C65.1745 15.728 63.8396 15.2358 63.8396 15.2358Z"
        fill="#1A2528" />
    <path fill-rule="evenodd" clip-rule="evenodd"
        d="M60.5444 14.5573C60.245 14.1344 59.9708 13.6843 59.6062 13.3287C58.4369 12.1776 56.9282 11.6532 55.3913 11.2585C53.9066 10.8788 52.3677 10.9059 50.8489 10.9561C48.3196 11.0375 45.7963 11.1861 43.2669 11.2806C40.2434 11.3951 37.2299 11.373 34.2063 11.2926L33.2701 11.2886L34.1189 11.2906H33.1456L33.3696 18.5843C33.3816 18.5843 34.1049 19.2925 34.1189 19.2905C34.808 19.3316 35.465 19.7515 35.7492 20.4597C35.8075 20.6074 35.8678 20.752 35.918 20.9027C36.4689 22.6673 37.2732 24.3426 38.3057 25.876C39.6909 27.9442 41.5291 29.4138 43.8676 30.2626C46.0645 31.0582 48.3015 31.1868 50.5948 30.7629C53.6384 30.2034 56.2059 28.7971 58.234 26.4606C59.3339 25.1929 60.0461 23.6902 60.6257 22.1272L60.674 21.9986C61.2314 19.5577 61.2787 16.946 60.5404 14.5573M3.95877 14.5573C4.2551 14.1344 4.53235 13.6843 4.89698 13.3287C6.0622 12.1776 7.57398 11.6532 9.11187 11.2585C10.5955 10.8788 12.1354 10.9059 13.6542 10.9561C16.1836 11.0375 18.7069 11.1861 21.2362 11.2806C24.2598 11.3951 27.2733 11.373 30.2968 11.2926L31.231 11.2886L30.3822 11.2906H31.3556L31.1316 18.5843C31.1195 18.5843 30.3953 19.2925 30.3812 19.2905C30.0266 19.3099 29.6849 19.4303 29.3964 19.6375C29.1079 19.8446 28.8847 20.1299 28.7529 20.4597C28.6936 20.6074 28.6303 20.752 28.5831 20.9027C28.0324 22.6677 27.2274 24.3431 26.1934 25.876C24.8102 27.9442 22.972 29.4138 20.6335 30.2626C18.4367 31.0582 16.1996 31.1868 13.9064 30.7629C10.8627 30.2034 8.29521 28.7971 6.26712 26.4606C5.16719 25.1929 4.45701 23.6902 3.8754 22.1272C3.85874 22.0847 3.84299 22.0418 3.82819 21.9986C3.26969 19.5577 3.22247 16.946 3.96078 14.5573"
        fill="#253235" />
    <path
        d="M8.31713 24.6369C8.1765 23.0338 8.40452 21.314 8.74706 19.5742C8.7571 19.527 8.76715 19.4798 8.77418 19.4316C9.47231 17.071 10.517 14.7024 11.9002 12.6824C11.2081 12.6351 10.515 12.6311 9.8269 12.7436C8.67574 12.9365 7.53663 13.2228 6.61048 13.9922C6.32118 14.2293 6.09216 14.5407 5.84907 14.833C5.15496 16.5326 5.02337 18.4472 5.27751 20.2724C5.28554 20.3055 5.29559 20.3357 5.30262 20.3718C5.62908 21.5511 6.05499 22.6962 6.77723 23.6947C7.25009 24.3459 7.8025 24.9354 8.4216 25.4496C8.37861 25.1788 8.34377 24.9068 8.31713 24.6339M56.1867 24.6369C56.3273 23.0338 56.0993 21.314 55.7567 19.5742C55.7467 19.527 55.7356 19.4798 55.7276 19.4316C55.0315 17.071 53.9868 14.7024 52.6036 12.6824C53.2947 12.6351 53.9908 12.6311 54.6769 12.7436C55.8271 12.9355 56.9662 13.2228 57.8943 13.9922C58.1826 14.2293 58.4106 14.5407 58.6577 14.833C59.3498 16.5326 59.4804 18.4472 59.2273 20.2724C59.2193 20.3055 59.2092 20.3357 59.2022 20.3718C58.8777 21.5511 58.4508 22.6962 57.7256 23.6947C57.254 24.3463 56.7022 24.9359 56.0832 25.4496C56.1234 25.1814 56.1585 24.9142 56.1867 24.6339"
        fill="white" />
</svg>
