<svg width="63" height="40" viewBox="0 0 63 40" fill="none" xmlns="http://www.w3.org/2000/svg">
    <path
        d="M33.3954 25.5443C41.553 30.7814 38.6189 39.1727 43.6332 39.1727H52.4248C58.0787 39.1727 62.6616 34.5899 62.6616 28.9388V23.8587C62.6616 18.2066 58.0787 13.6208 52.4248 13.6208H43.6332C37.9773 13.6208 33.3954 18.2066 33.3954 23.8587V25.5443ZM29.7663 25.5443C21.6096 30.7814 24.5466 39.1727 19.5294 39.1727H10.7378C5.08288 39.1727 0.5 34.5908 0.5 28.9388V23.8587C0.5 18.2076 5.08288 13.6208 10.7378 13.6208H19.5294C25.1814 13.6208 29.7663 18.2066 29.7663 23.8587V25.5443Z"
        fill="#BE202E" />
    <path
        d="M24.4431 25.8577C19.2514 29.1892 21.1222 34.533 17.9283 34.533H12.3287C11.4728 34.5331 10.6254 34.3646 9.83469 34.0372C9.044 33.7098 8.32556 33.2297 7.72041 32.6246C7.11526 32.0194 6.63525 31.301 6.3078 30.5103C5.98036 29.7196 5.81188 28.8722 5.81201 28.0163V24.7837C5.81175 23.0549 6.49812 21.3969 7.72017 20.1741C8.94223 18.9513 10.5999 18.264 12.3287 18.2632H17.9293C18.7853 18.2633 19.6329 18.4321 20.4236 18.7599C21.2143 19.0877 21.9327 19.5681 22.5377 20.1736C23.1427 20.7792 23.6224 21.498 23.9495 22.289C24.2766 23.08 24.4447 23.9277 24.444 24.7837L24.4431 25.8577ZM38.7141 25.8577C43.9067 29.1892 42.0398 34.533 45.2337 34.533H50.8314C54.4276 34.533 57.3481 31.6154 57.3481 28.0163V24.7837C57.3483 23.0549 56.662 21.3969 55.4399 20.1741C54.2179 18.9513 52.5602 18.264 50.8314 18.2632H45.2337C44.3774 18.2631 43.5295 18.4316 42.7384 18.7593C41.9473 19.0869 41.2285 19.5673 40.6231 20.1728C40.0176 20.7783 39.5374 21.4972 39.2099 22.2883C38.8823 23.0795 38.7139 23.9274 38.7141 24.7837V25.8577Z"
        fill="#69CADF" />
    <path
        d="M36.7937 21.5424C36.7937 22.5059 36.2393 23.2871 35.5569 23.2871H26.4648C25.7843 23.2871 25.2318 22.5059 25.2318 21.5424C25.2318 20.5789 25.7843 19.7976 26.4648 19.7976H35.5569C36.2393 19.7976 36.7937 20.5789 36.7937 21.5424ZM19.4683 2.51683C20.1711 3.17596 20.0606 4.44284 19.2134 5.34817L7.95491 17.4248C7.10968 18.333 5.85346 18.5336 5.14683 17.8784C4.44602 17.2193 4.55653 15.9524 5.4037 15.0441L16.6622 2.97046C17.5045 2.06222 18.7617 1.86158 19.4683 2.51683Z"
        fill="#BE202E" />
    <path
        d="M18.8476 5.88832C20.0631 4.90932 21.4763 3.99914 23.1087 4.08444C24.9794 4.18525 26.2066 5.61013 25.4195 7.40141C24.4521 9.5998 27.8369 11.1468 28.8004 8.95036C30.1381 5.90674 29.0767 2.84276 26.2608 1.18622C23.1145 -0.657403 19.2508 0.79171 16.6657 2.87766C14.8056 4.37814 16.9759 7.40141 18.8476 5.88735"
        fill="#BE1E2D" />
    <path
        d="M43.6904 2.55579C42.9876 3.21491 43.0972 4.47986 43.9434 5.3881L55.2019 17.4647C56.049 18.3729 57.3043 18.5745 58.009 17.9144C58.7156 17.2553 58.6003 15.9923 57.756 15.085L46.4975 3.00942C45.6532 2.10021 44.396 1.8986 43.6904 2.55579Z"
        fill="#BE202E" />
    <path
        d="M44.3052 5.92762C43.0897 4.94668 41.6784 4.03747 40.046 4.12374C38.1724 4.22261 36.9481 5.64749 37.7323 7.43877C38.7016 9.6391 35.3197 11.1861 34.3543 8.99063C33.0137 5.94701 34.078 2.88206 36.8939 1.22649C40.0402 -0.617135 43.9039 0.830039 46.489 2.91599C48.3472 4.4155 46.1779 7.43877 44.3052 5.92762Z"
        fill="#BE1E2D" />
</svg>
