<svg width="64" height="42" viewBox="0 0 64 42" fill="none" xmlns="http://www.w3.org/2000/svg">
    <path
        d="M17.105 20.0776C15.7401 19.0514 14.2407 18.2793 12.5669 17.8758C12.1385 17.7712 10.5345 17.3627 9.19449 17.3278C7.97405 17.293 6.69881 17.5022 6.25048 18.354C5.99643 18.8372 6.00639 19.2855 5.94661 19.8185C5.57799 22.912 6.93293 26.7676 9.23932 28.9046C10.0911 29.6917 11.3166 30.3044 12.4374 30.5335C15.2469 31.1064 17.6031 30.4837 18.8435 28.2819C19.0826 27.8635 19.2569 27.4102 19.3715 26.9469C19.5807 26.115 19.6006 25.2333 19.4363 24.3865C19.2171 23.2009 18.3404 21.0091 17.105 20.0776ZM41.3893 24.4313C39.8152 24.0278 36.4079 23.5546 34.0567 23.8535C32.9309 23.968 31.82 24.2071 30.9533 24.7451C29.6581 25.5471 29.2696 27.191 29.429 28.6306C29.6731 30.8723 30.749 33.0641 32.4776 34.5485C34.236 36.0679 36.5872 36.6059 38.8388 36.9047C39.8999 37.0442 41.0107 37.1439 42.0668 37.0094C43.1478 36.8699 44.1689 36.4913 45.0208 35.6644C46.4056 34.3343 47.3471 32.2073 47.357 30.2695C47.362 26.7925 44.4828 25.2184 41.3893 24.4313Z"
        fill="#40C0E7" />
    <path
        d="M55.5411 14.318C54.4701 15.643 53.3493 16.9282 52.2633 18.2433C51.4762 19.2097 50.6095 20.9831 49.394 21.4513C48.8809 21.6506 48.4824 21.3916 48.0241 21.2172C47.6256 21.0628 47.2171 20.9133 46.8186 20.7689C46.2557 20.5597 45.6829 20.3156 45.105 20.1661C41.7575 19.2944 38.3951 18.7315 34.928 18.871C33.1696 18.9457 31.6253 19.0204 29.9018 19.399C28.8955 19.6231 28.0238 20.0864 26.9777 20.1462C26.096 20.201 25.1894 20.1562 24.3425 19.8872C23.4857 19.6132 23.0374 19.0453 22.34 18.5272C21.1395 17.6405 20.2179 16.5646 18.8879 15.8273C17.8966 15.2794 16.8505 14.846 15.7695 14.5072C15.0024 14.2632 13.8367 14.1884 13.2041 13.6405C13.0995 13.5508 12.8853 13.3316 12.8903 13.1922C12.8953 12.9829 13.2091 12.8435 13.3486 12.7388C15.9588 10.8758 18.5741 9.10242 21.3437 7.46852C22.4795 6.79603 23.5903 6.06376 24.7958 5.50086C26.624 4.64904 28.9155 4.30034 30.908 4.67395C32.5818 4.9828 32.9653 6.59179 33.7673 7.82718C34.5245 8.99781 36.1285 9.55074 37.354 8.8135C38.8982 7.88695 39.0277 5.50086 38.1709 4.04629C37.0551 2.14837 34.0214 1.43603 32.0189 1.08733C30.8981 0.89306 29.7374 0.828302 28.5966 0.868153C22.061 1.07737 16.6512 5.60049 10.9475 8.23067C8.8902 9.18212 6.72828 9.9393 4.7656 11.095C2.24999 11.8322 -0.116177 13.1872 0.905011 15.6978C1.13416 16.2557 1.47787 16.7738 1.67713 17.3466C1.90129 17.9892 1.76181 18.5123 1.75683 19.1649C1.75185 19.7377 1.77676 20.3156 1.82657 20.8884C1.93118 22.079 2.13542 23.2596 2.43928 24.4202C3.04702 26.7266 4.03832 28.9732 5.49787 30.8712C6.86775 32.6545 8.69593 34.119 10.8828 34.7567C11.4756 34.931 12.0982 35.0456 12.7159 35.0954C16.9501 35.4341 20.3773 33.9297 22.33 30.0891C22.9527 28.8736 22.8481 26.9608 24.7759 27.429C25.9117 27.708 25.7772 29.6159 25.9416 30.4926C26.37 32.789 27.3911 34.941 29.1097 36.55C29.2592 36.6894 29.4086 36.8239 29.568 36.9584C32.6914 39.5488 36.8558 41.1628 40.9256 41.1727C42.0813 41.1777 43.2569 40.9884 44.3578 40.6248C46.4251 39.9323 48.3728 38.7019 49.7876 37.0232C50.9432 35.6533 51.5858 33.9696 51.9644 32.2411C52.1438 31.4291 52.1936 30.5773 52.4775 29.7952C52.896 28.6196 53.8972 27.5336 53.8922 26.2385C53.8872 25.7254 53.6282 25.2472 53.8026 24.7391C53.9819 24.231 54.3406 23.7328 54.5946 23.2596C55.5759 21.4364 56.4626 19.5634 57.5137 17.78C57.8475 17.2171 58.1613 16.6343 58.5548 16.1113C58.769 15.8223 59.2572 15.1249 59.6557 15.3292C60.0393 15.5235 59.8699 16.3454 59.8849 16.6791C59.9397 17.9095 60.7317 19.5933 62.261 18.9556C63.2075 18.5621 63.6956 17.8747 63.7405 16.8336C63.8202 15.0452 63.5362 13.1822 62.7691 11.5583C61.0057 7.78235 56.8562 12.6791 55.5411 14.318ZM19.3711 26.9458C19.2565 27.4091 19.0822 27.8574 18.8431 28.2808C17.6027 30.4826 15.2465 31.1053 12.437 30.5324C11.3161 30.3033 10.0957 29.6906 9.2389 28.9035C6.93749 26.7665 5.57757 22.9109 5.94619 19.8174C6.01095 19.2844 5.99601 18.8411 6.25006 18.3529C6.69839 17.5011 7.97363 17.2919 9.19407 17.3267C10.5291 17.3666 12.1381 17.775 12.5665 17.8747C14.2402 18.2782 15.7396 19.0453 17.1045 20.0765C18.3399 21.008 19.2117 23.1998 19.4358 24.3854C19.6002 25.2322 19.5803 26.1139 19.3711 26.9458ZM45.0154 35.6583C44.1635 36.4852 43.1374 36.8638 42.0614 37.0033C41.0053 37.1378 39.8945 37.0431 38.8334 36.8987C36.5868 36.5998 34.2356 36.0618 32.4722 34.5425C30.7436 33.053 29.6677 30.8662 29.4236 28.6246C29.2642 27.1799 29.6527 25.5361 30.9479 24.7391C31.8146 24.2011 32.9255 23.9669 34.0513 23.8474C36.4025 23.5485 39.8098 24.0267 41.3839 24.4252C44.4774 25.2123 47.3566 26.7864 47.3467 30.2585C47.3417 32.2012 46.4002 34.3283 45.0154 35.6583Z"
        fill="#855C52" />
    <path
        d="M44.4227 29.7762C43.6954 29.0639 42.9781 30.1897 40.7962 31.3603C39.6256 31.988 38.0515 32.3267 36.8061 32.795C36.5022 32.9095 36.1386 32.9843 35.9244 33.2533C35.0776 34.2994 37.3839 34.6381 37.917 34.7726C39.9743 35.3006 43.9743 34.9071 44.6518 31.8485C44.8062 31.1511 44.8959 30.2395 44.4227 29.7762ZM17.2342 25.2531C17.2142 25.2382 17.1893 25.2232 17.1694 25.2083C16.5467 24.8397 16.0685 25.7513 15.6949 26.095C15.2665 26.4885 14.7385 26.8621 14.2204 27.1809C13.8119 27.43 13 27.699 12.8505 28.2021C12.5616 29.1984 14.2403 28.9693 14.7285 28.9095C15.8145 28.765 17.02 28.1573 17.3985 27.0514C17.5629 26.5682 17.7074 25.6168 17.2342 25.2531Z"
        fill="white" />
    <path
        d="M12.1777 15.3599C12.3022 14.6774 11.4902 14.4582 10.9971 14.3088C9.96095 13.9999 8.90489 13.7459 7.86875 13.437C6.70809 13.0883 5.86623 12.4856 4.61092 12.4856C3.88363 12.4856 2.7927 12.6998 2.38423 13.3673C1.94586 14.0896 1.98571 15.1207 2.41411 15.8281C2.96705 16.7397 2.82757 17.6762 2.85248 18.6825C2.86742 19.4048 2.75783 20.4758 3.24103 21.0586C3.57976 21.4621 3.95337 21.3625 4.19746 20.939C4.52125 20.3712 4.25724 19.5293 4.42162 18.9016C4.74541 17.6662 5.63708 16.6799 6.74296 16.0772C8.0979 15.3399 9.60228 15.7634 11.0469 15.8729C11.4902 15.9028 12.0731 15.9128 12.1777 15.3599ZM38.2254 20.4807C36.7509 20.0772 34.3798 20.2815 33.6326 20.2765C32.5217 20.2715 31.4458 20.5106 30.3847 20.7647C29.6674 20.934 28.9501 21.1134 28.2875 21.2877C26.7832 21.6862 23.0969 19.6638 23.5552 22.9017C23.7843 24.5356 26.2501 24.695 27.4656 24.3712C28.4868 24.1022 29.4183 23.4297 30.3748 22.9964C31.6301 22.4335 32.9153 22.0848 34.2752 21.8706C35.411 21.6912 36.5467 21.6115 37.6924 21.7361C38.1806 21.7909 39.7448 22.4036 39.426 21.3425C39.2915 20.9141 38.8332 20.6501 38.2254 20.4807ZM35.0124 2.9163C34.0112 3.20522 34.7285 4.21645 35.0672 4.7644C35.4558 5.39704 35.4209 6.19905 36.2578 6.42321C36.9104 6.59756 37.7771 6.34351 37.9465 5.62619C38.2155 4.4705 37.0797 3.28493 36.0536 2.98106C35.7696 2.89638 35.4707 2.86151 35.1718 2.8914C35.117 2.8914 35.0623 2.90136 35.0124 2.9163ZM58.0514 12.4955C57.9568 12.6201 57.8771 12.7396 57.8123 12.8542C57.5533 13.2976 57.354 14.1245 58.1112 14.1743C58.4599 14.1942 58.8784 13.9053 59.2022 13.7808C59.9543 13.4868 60.577 12.6948 61.4587 12.7795C62.4749 12.8741 62.2159 11.7832 61.7775 11.2751C60.7065 10.0298 58.8734 11.4096 58.0514 12.4955Z"
        fill="#B89278" />
</svg>
