<svg width="78" height="30" viewBox="0 0 78 30" fill="none" xmlns="http://www.w3.org/2000/svg">
    <path
        d="M77.0303 2.09815C75.9402 0.97585 62.3458 -0.253949 48.5148 1.3048C45.7564 1.6144 45.5844 2.4013 39.0011 2.6593C32.4199 2.40345 32.2479 1.61655 29.4873 1.3048C15.6564 -0.253949 2.06192 0.978 0.971871 2.09815C0.430071 2.6593 0.430071 6.5637 0.971871 7.12485C1.51797 7.686 3.19712 8.42775 3.98832 11.0529C4.49787 12.745 5.05257 23.6605 8.89247 26.9135C12.6937 30.1342 24.9358 29.53 28.9434 27.4768C34.3958 24.6861 35.1612 15.039 36.0212 11.0529C36.4576 9.03405 38.5195 8.8685 38.9989 8.8685C39.4784 8.8685 41.5402 9.03405 41.9767 11.0529C42.8388 15.0369 43.6042 24.6839 49.0545 27.4768C53.0642 29.53 65.3042 30.1342 69.1054 26.9135C72.9453 23.6605 73.5 12.745 74.0095 11.0529C74.8007 8.4299 76.4799 7.686 77.026 7.12485C77.5721 6.56585 77.5721 2.6593 77.0303 2.09815Z"
        fill="#31373D" />
    <path
        d="M31.79 10.1991C31.5793 12.8974 30.6699 20.876 28.0125 23.2776C25.0541 25.95 14.575 26.6488 11.264 23.3722C9.52676 21.6543 7.89491 14.7335 8.03251 8.71776C8.11421 5.10791 12.9216 4.37476 19.7758 4.37476C26.544 4.37476 32.1663 5.38096 31.79 10.1991ZM46.2101 10.1991C46.4208 12.8974 47.3302 20.876 49.9876 23.2776C52.946 25.95 63.4251 26.6488 66.7361 23.3722C68.4733 21.6543 70.1052 14.7335 69.9676 8.71776C69.8859 5.10791 65.0785 4.37476 58.2243 4.37476C51.4582 4.37476 45.8338 5.38096 46.2101 10.1991Z"
        fill="#55ACEE" />
</svg>
