<svg width="56" height="44" viewBox="0 0 56 44" fill="none" xmlns="http://www.w3.org/2000/svg">
    <path
        d="M55.8153 24.0123L51.4062 6.57163C50.8317 4.29689 49.3072 2.34369 47.2257 1.21496C45.1413 0.0891037 42.6592 -0.13933 40.4017 0.607399L38.919 1.09498C38.1033 1.36277 37.6629 2.23331 37.9351 3.03763L38.4271 4.49461C38.6983 5.29893 39.5792 5.73372 40.3939 5.46593L41.6753 5.04458C42.7321 4.69713 43.9114 4.70193 44.8992 5.21063C45.8996 5.72604 46.6074 6.6081 46.8796 7.68884L50.6188 22.4526C48.4614 21.7989 45.7781 21.2567 42.7243 21.2567C39.3439 21.2567 35.5318 21.9304 31.5583 23.8232H24.4436C20.4701 21.9285 16.6581 21.2557 13.2767 21.2557C10.2219 21.2557 7.53861 21.798 5.38125 22.4516L9.12042 7.68692C9.39167 6.60714 10.1014 5.72412 11.1018 5.20967C12.0896 4.70097 13.2679 4.69617 14.3247 5.04362L15.6051 5.46497C16.4199 5.73276 17.3007 5.29797 17.5719 4.49365L18.0639 3.03667C18.3361 2.23235 17.8957 1.36181 17.08 1.09402L15.5974 0.606439C13.3399 -0.14029 10.8578 0.0871843 8.77333 1.214C6.69181 2.34369 5.16736 4.29593 4.59278 6.56971L0.184722 24.0123C0.0621541 24.4986 0.000122041 24.9978 0 25.499L0 32.2416C0 38.2788 5.01472 43.1729 11.2 43.1729H14.8089C20.6694 43.1729 25.5393 38.7635 25.9778 33.0594L26.2626 29.3517H29.7383L30.0232 33.0594C30.4607 38.7635 35.3306 43.1729 41.1911 43.1729H44.8C50.9853 43.1729 56 38.2788 56 32.2426V25.5C56 24.998 55.9378 24.4989 55.8153 24.0123ZM19.7731 32.5948C19.5815 35.0817 17.4008 37.0301 14.8089 37.0301H11.2C8.45542 37.0301 6.22222 34.882 6.22222 32.2416V28.6385C7.98389 28.0156 10.4436 27.3984 13.2786 27.3984C15.5983 27.3984 17.8733 27.814 20.0774 28.6385L19.7731 32.5948ZM49.7778 32.2426C49.7778 34.883 47.5446 37.0301 44.8 37.0301H41.1911C38.5982 37.0301 36.4175 35.0817 36.2269 32.5948L35.9226 28.6385C38.1267 27.814 40.4026 27.3984 42.7233 27.3984C45.5544 27.3984 48.0151 28.0166 49.7768 28.6395V32.2426H49.7778Z"
        fill="black" />
</svg>
