<svg width="72" height="29" viewBox="0 0 72 29" fill="none" xmlns="http://www.w3.org/2000/svg">
    <g filter="url(#filter0_ii_4_7497)">
        <path
            d="M4.45802 4.64778C6.6178 2.64808 10.1141 2.1272 11.8012 2.1272H22.5595C28.3781 2.1272 33.3405 4.94761 32.9238 11.122C32.2479 19.6341 26.2133 26.2658 17.3404 26.2658C8.56667 26.2658 4.09467 19.507 2.8293 15.2281C1.56393 10.9518 1.75958 7.14803 4.45802 4.64778Z"
            fill="url(#paint0_radial_4_7497)" />
        <path
            d="M4.45802 4.64778C6.6178 2.64808 10.1141 2.1272 11.8012 2.1272H22.5595C28.3781 2.1272 33.3405 4.94761 32.9238 11.122C32.2479 19.6341 26.2133 26.2658 17.3404 26.2658C8.56667 26.2658 4.09467 19.507 2.8293 15.2281C1.56393 10.9518 1.75958 7.14803 4.45802 4.64778Z"
            fill="url(#paint1_radial_4_7497)" />
        <path
            d="M4.45802 4.64778C6.6178 2.64808 10.1141 2.1272 11.8012 2.1272H22.5595C28.3781 2.1272 33.3405 4.94761 32.9238 11.122C32.2479 19.6341 26.2133 26.2658 17.3404 26.2658C8.56667 26.2658 4.09467 19.507 2.8293 15.2281C1.56393 10.9518 1.75958 7.14803 4.45802 4.64778Z"
            fill="url(#paint2_radial_4_7497)" />
    </g>
    <g filter="url(#filter1_ii_4_7497)">
        <path
            d="M67.2834 4.64778C65.1236 2.64808 61.6248 2.1272 59.9376 2.1272H49.1794C43.3607 2.1272 38.4009 4.94761 38.8176 11.122C39.4909 19.6341 45.5256 26.2658 54.3984 26.2658C63.1722 26.2658 67.6442 19.507 68.9096 15.2281C70.1749 10.9518 69.9818 7.14803 67.2834 4.64778Z"
            fill="url(#paint3_radial_4_7497)" />
        <path
            d="M67.2834 4.64778C65.1236 2.64808 61.6248 2.1272 59.9376 2.1272H49.1794C43.3607 2.1272 38.4009 4.94761 38.8176 11.122C39.4909 19.6341 45.5256 26.2658 54.3984 26.2658C63.1722 26.2658 67.6442 19.507 68.9096 15.2281C70.1749 10.9518 69.9818 7.14803 67.2834 4.64778Z"
            fill="url(#paint4_radial_4_7497)" />
        <path
            d="M67.2834 4.64778C65.1236 2.64808 61.6248 2.1272 59.9376 2.1272H49.1794C43.3607 2.1272 38.4009 4.94761 38.8176 11.122C39.4909 19.6341 45.5256 26.2658 54.3984 26.2658C63.1722 26.2658 67.6442 19.507 68.9096 15.2281C70.1749 10.9518 69.9818 7.14803 67.2834 4.64778Z"
            fill="url(#paint5_radial_4_7497)" />
    </g>
    <g filter="url(#filter2_i_4_7497)">
        <path fill-rule="evenodd" clip-rule="evenodd"
            d="M34.929 11.2705C34.4107 20.5703 27.9593 28.1727 17.3408 28.1727C7.39572 28.1727 2.40029 20.494 1.00279 15.773C-0.336266 11.2502 -0.343889 6.4987 3.16257 3.25142C4.54228 1.97334 6.2701 1.2314 7.7921 0.804525C9.09746 0.436228 10.4455 0.240606 11.8017 0.222656H22.5599C25.736 0.222656 29.1205 0.984929 31.4734 2.79914C32.0375 3.23109 32.5355 3.71895 32.9674 4.25508C33.3181 4.61335 33.9254 5.16472 34.6114 5.16472H37.1015C37.8866 5.16472 38.5701 4.44057 38.8801 4.11279L38.8776 4.12549C39.2841 3.64018 39.7491 3.19806 40.2649 2.79914C42.6178 0.98747 46.0023 0.222656 49.1784 0.222656H59.9366C60.9428 0.222656 62.414 0.375111 63.9462 0.804525C65.4682 1.2314 67.1986 1.97334 68.5757 3.25142C72.0822 6.4987 72.0746 11.2502 70.7355 15.7705C69.338 20.494 64.3426 28.1727 54.3975 28.1727C43.7765 28.1727 37.3276 20.5703 36.8093 11.2705V11.2502C36.7827 10.8705 36.7725 10.4899 36.7788 10.1093C36.7634 9.88348 36.6632 9.67181 36.4982 9.51676C36.3333 9.36172 36.1158 9.27478 35.8895 9.27337C35.6435 9.27337 35.4076 9.37109 35.2337 9.54501C35.0598 9.71894 34.962 9.95484 34.962 10.2008V10.2262C34.962 10.5616 34.9544 10.9021 34.929 11.2502V11.2705ZM32.9217 11.1206C33.3409 4.9462 28.3785 2.12834 22.5599 2.12834H11.8017C10.1145 2.12834 6.6182 2.64922 4.45843 4.64892C1.75744 7.15171 1.56179 10.9504 2.82971 15.2293C4.09508 19.5082 8.56708 26.267 17.3383 26.267C26.2137 26.267 32.2484 19.6352 32.9242 11.1232L32.9217 11.1206ZM38.8166 11.1206C38.3999 4.9462 43.3623 2.12834 49.1784 2.12834H59.9366C61.6238 2.12834 65.1201 2.64922 67.2799 4.64892C69.9809 7.15171 70.1765 10.9504 68.9086 15.2293C67.6432 19.5082 63.1712 26.267 54.4 26.267C45.5246 26.267 39.4899 19.6352 38.8166 11.1232V11.1206Z"
            fill="url(#paint6_linear_4_7497)" />
        <path fill-rule="evenodd" clip-rule="evenodd"
            d="M34.929 11.2705C34.4107 20.5703 27.9593 28.1727 17.3408 28.1727C7.39572 28.1727 2.40029 20.494 1.00279 15.773C-0.336266 11.2502 -0.343889 6.4987 3.16257 3.25142C4.54228 1.97334 6.2701 1.2314 7.7921 0.804525C9.09746 0.436228 10.4455 0.240606 11.8017 0.222656H22.5599C25.736 0.222656 29.1205 0.984929 31.4734 2.79914C32.0375 3.23109 32.5355 3.71895 32.9674 4.25508C33.3181 4.61335 33.9254 5.16472 34.6114 5.16472H37.1015C37.8866 5.16472 38.5701 4.44057 38.8801 4.11279L38.8776 4.12549C39.2841 3.64018 39.7491 3.19806 40.2649 2.79914C42.6178 0.98747 46.0023 0.222656 49.1784 0.222656H59.9366C60.9428 0.222656 62.414 0.375111 63.9462 0.804525C65.4682 1.2314 67.1986 1.97334 68.5757 3.25142C72.0822 6.4987 72.0746 11.2502 70.7355 15.7705C69.338 20.494 64.3426 28.1727 54.3975 28.1727C43.7765 28.1727 37.3276 20.5703 36.8093 11.2705V11.2502C36.7827 10.8705 36.7725 10.4899 36.7788 10.1093C36.7634 9.88348 36.6632 9.67181 36.4982 9.51676C36.3333 9.36172 36.1158 9.27478 35.8895 9.27337C35.6435 9.27337 35.4076 9.37109 35.2337 9.54501C35.0598 9.71894 34.962 9.95484 34.962 10.2008V10.2262C34.962 10.5616 34.9544 10.9021 34.929 11.2502V11.2705ZM32.9217 11.1206C33.3409 4.9462 28.3785 2.12834 22.5599 2.12834H11.8017C10.1145 2.12834 6.6182 2.64922 4.45843 4.64892C1.75744 7.15171 1.56179 10.9504 2.82971 15.2293C4.09508 19.5082 8.56708 26.267 17.3383 26.267C26.2137 26.267 32.2484 19.6352 32.9242 11.1232L32.9217 11.1206ZM38.8166 11.1206C38.3999 4.9462 43.3623 2.12834 49.1784 2.12834H59.9366C61.6238 2.12834 65.1201 2.64922 67.2799 4.64892C69.9809 7.15171 70.1765 10.9504 68.9086 15.2293C67.6432 19.5082 63.1712 26.267 54.4 26.267C45.5246 26.267 39.4899 19.6352 38.8166 11.1232V11.1206Z"
            fill="url(#paint7_radial_4_7497)" />
    </g>
    <path
        d="M65.623 6.7764C66.8401 8.79388 66.5123 11.223 64.8887 12.2012C63.2676 13.1795 60.9655 12.3359 59.7484 10.3159C58.5313 8.29586 58.8591 5.86929 60.4827 4.8885C62.1064 3.91279 64.4059 4.75637 65.623 6.7764Z"
        fill="url(#paint8_radial_4_7497)" />
    <path
        d="M28.7801 6.7764C29.9972 8.79388 29.6694 11.223 28.0458 12.2012C26.4247 13.1795 24.1226 12.3359 22.9055 10.3159C21.6884 8.29586 22.0162 5.86929 23.6398 4.8885C25.2635 3.91279 27.563 4.75637 28.7801 6.7764Z"
        fill="url(#paint9_radial_4_7497)" />
    <g filter="url(#filter3_f_4_7497)">
        <path
            d="M67.8449 4.2617C65.5784 2.14513 61.9068 1.59375 60.1358 1.59375H48.8465C42.7433 1.59375 37.5344 4.57932 37.9714 11.112C38.6829 20.1221 45.0123 27.14 54.3247 27.14C63.533 27.14 68.2235 19.9848 69.5524 15.4595C70.8813 10.9341 70.678 6.90679 67.8449 4.2617Z"
            stroke="url(#paint10_radial_4_7497)" stroke-width="0.3" />
    </g>
    <g filter="url(#filter4_f_4_7497)">
        <path
            d="M31.212 4.2617C28.9455 2.14513 25.2764 1.59375 23.5054 1.59375H12.2136C6.11032 1.59375 0.901454 4.57932 1.33849 11.112C2.04995 20.1221 8.38189 27.14 17.6918 27.14C26.9 27.14 31.5906 19.9848 32.9194 15.4595C34.2483 10.9341 34.0451 6.90679 31.212 4.2617Z"
            stroke="url(#paint11_radial_4_7497)" stroke-width="0.3" />
    </g>
    <defs>
        <filter id="filter0_ii_4_7497" x="1.97684" y="2.0272" width="31.2215" height="24.4887"
            filterUnits="userSpaceOnUse" color-interpolation-filters="sRGB">
            <feFlood flood-opacity="0" result="BackgroundImageFix" />
            <feBlend mode="normal" in="SourceGraphic" in2="BackgroundImageFix" result="shape" />
            <feColorMatrix in="SourceAlpha" type="matrix"
                values="0 0 0 0 0 0 0 0 0 0 0 0 0 0 0 0 0 0 127 0" result="hardAlpha" />
            <feOffset dx="0.25" dy="0.25" />
            <feGaussianBlur stdDeviation="0.5" />
            <feComposite in2="hardAlpha" operator="arithmetic" k2="-1" k3="1" />
            <feColorMatrix type="matrix"
                values="0 0 0 0 0.121569 0 0 0 0 0.0666667 0 0 0 0 0.278431 0 0 0 1 0" />
            <feBlend mode="normal" in2="shape" result="effect1_innerShadow_4_7497" />
            <feColorMatrix in="SourceAlpha" type="matrix"
                values="0 0 0 0 0 0 0 0 0 0 0 0 0 0 0 0 0 0 127 0" result="hardAlpha" />
            <feOffset dx="-0.1" dy="-0.1" />
            <feGaussianBlur stdDeviation="0.075" />
            <feComposite in2="hardAlpha" operator="arithmetic" k2="-1" k3="1" />
            <feColorMatrix type="matrix"
                values="0 0 0 0 0.219608 0 0 0 0 0.121569 0 0 0 0 0.384314 0 0 0 1 0" />
            <feBlend mode="normal" in2="effect1_innerShadow_4_7497"
                result="effect2_innerShadow_4_7497" />
        </filter>
        <filter id="filter1_ii_4_7497" x="38.6931" y="2.0272" width="31.2198" height="24.4887"
            filterUnits="userSpaceOnUse" color-interpolation-filters="sRGB">
            <feFlood flood-opacity="0" result="BackgroundImageFix" />
            <feBlend mode="normal" in="SourceGraphic" in2="BackgroundImageFix" result="shape" />
            <feColorMatrix in="SourceAlpha" type="matrix"
                values="0 0 0 0 0 0 0 0 0 0 0 0 0 0 0 0 0 0 127 0" result="hardAlpha" />
            <feOffset dx="0.25" dy="0.25" />
            <feGaussianBlur stdDeviation="0.5" />
            <feComposite in2="hardAlpha" operator="arithmetic" k2="-1" k3="1" />
            <feColorMatrix type="matrix"
                values="0 0 0 0 0.121569 0 0 0 0 0.0666667 0 0 0 0 0.278431 0 0 0 1 0" />
            <feBlend mode="normal" in2="shape" result="effect1_innerShadow_4_7497" />
            <feColorMatrix in="SourceAlpha" type="matrix"
                values="0 0 0 0 0 0 0 0 0 0 0 0 0 0 0 0 0 0 127 0" result="hardAlpha" />
            <feOffset dx="-0.1" dy="-0.1" />
            <feGaussianBlur stdDeviation="0.075" />
            <feComposite in2="hardAlpha" operator="arithmetic" k2="-1" k3="1" />
            <feColorMatrix type="matrix"
                values="0 0 0 0 0.219608 0 0 0 0 0.121569 0 0 0 0 0.384314 0 0 0 1 0" />
            <feBlend mode="normal" in2="effect1_innerShadow_4_7497"
                result="effect2_innerShadow_4_7497" />
        </filter>
        <filter id="filter2_i_4_7497" x="0.17276" y="0.222656" width="71.3928" height="28.15"
            filterUnits="userSpaceOnUse" color-interpolation-filters="sRGB">
            <feFlood flood-opacity="0" result="BackgroundImageFix" />
            <feBlend mode="normal" in="SourceGraphic" in2="BackgroundImageFix" result="shape" />
            <feColorMatrix in="SourceAlpha" type="matrix"
                values="0 0 0 0 0 0 0 0 0 0 0 0 0 0 0 0 0 0 127 0" result="hardAlpha" />
            <feOffset dy="0.2" />
            <feGaussianBlur stdDeviation="0.1" />
            <feComposite in2="hardAlpha" operator="arithmetic" k2="-1" k3="1" />
            <feColorMatrix type="matrix"
                values="0 0 0 0 0.329412 0 0 0 0 0.282353 0 0 0 0 0.568627 0 0 0 1 0" />
            <feBlend mode="normal" in2="shape" result="effect1_innerShadow_4_7497" />
        </filter>
        <filter id="filter3_f_4_7497" x="37.5958" y="1.24385" width="33.0974" height="26.2462"
            filterUnits="userSpaceOnUse" color-interpolation-filters="sRGB">
            <feFlood flood-opacity="0" result="BackgroundImageFix" />
            <feBlend mode="normal" in="SourceGraphic" in2="BackgroundImageFix" result="shape" />
            <feGaussianBlur stdDeviation="0.1" result="effect1_foregroundBlur_4_7497" />
        </filter>
        <filter id="filter4_f_4_7497" x="0.962842" y="1.24385" width="33.0974" height="26.2462"
            filterUnits="userSpaceOnUse" color-interpolation-filters="sRGB">
            <feFlood flood-opacity="0" result="BackgroundImageFix" />
            <feBlend mode="normal" in="SourceGraphic" in2="BackgroundImageFix" result="shape" />
            <feGaussianBlur stdDeviation="0.1" result="effect1_foregroundBlur_4_7497" />
        </filter>
        <radialGradient id="paint0_radial_4_7497" cx="0" cy="0" r="1" gradientUnits="userSpaceOnUse"
            gradientTransform="translate(12.7338 4.66811) rotate(67.5862) scale(22.0743 24.4313)">
            <stop offset="0.365" stop-color="#311F5E" />
            <stop offset="0.954" stop-color="#4F1373" />
        </radialGradient>
        <radialGradient id="paint1_radial_4_7497" cx="0" cy="0" r="1" gradientUnits="userSpaceOnUse"
            gradientTransform="translate(9.47886 16.8975) rotate(-18.3151) scale(24.0048 29.6199)">
            <stop offset="0.893" stop-color="#4D4176" stop-opacity="0" />
            <stop offset="0.976" stop-color="#4D4176" />
        </radialGradient>
        <radialGradient id="paint2_radial_4_7497" cx="0" cy="0" r="1" gradientUnits="userSpaceOnUse"
            gradientTransform="translate(31.127 7.92302) rotate(162.06) scale(20.3646 10.7452)">
            <stop offset="0.145" stop-color="#51477A" />
            <stop offset="1" stop-color="#51477A" stop-opacity="0" />
        </radialGradient>
        <radialGradient id="paint3_radial_4_7497" cx="0" cy="0" r="1" gradientUnits="userSpaceOnUse"
            gradientTransform="translate(49.4513 4.66811) rotate(67.5862) scale(22.0743 24.4313)">
            <stop offset="0.365" stop-color="#311F5E" />
            <stop offset="0.954" stop-color="#4F1373" />
        </radialGradient>
        <radialGradient id="paint4_radial_4_7497" cx="0" cy="0" r="1" gradientUnits="userSpaceOnUse"
            gradientTransform="translate(46.1964 16.8975) rotate(-18.3151) scale(24.0048 29.6199)">
            <stop offset="0.893" stop-color="#4D4176" stop-opacity="0" />
            <stop offset="0.976" stop-color="#4D4176" />
        </radialGradient>
        <radialGradient id="paint5_radial_4_7497" cx="0" cy="0" r="1" gradientUnits="userSpaceOnUse"
            gradientTransform="translate(67.84 7.92653) rotate(162.06) scale(20.3646 10.7452)">
            <stop offset="0.145" stop-color="#51477A" />
            <stop offset="1" stop-color="#51477A" stop-opacity="0" />
        </radialGradient>
        <linearGradient id="paint6_linear_4_7497" x1="35.8691" y1="0.222656" x2="35.8691"
            y2="25.553" gradientUnits="userSpaceOnUse">
            <stop offset="0.29" stop-color="#5C4EA3" />
            <stop offset="1" stop-color="#5C278D" />
        </linearGradient>
        <radialGradient id="paint7_radial_4_7497" cx="0" cy="0" r="1" gradientUnits="userSpaceOnUse"
            gradientTransform="translate(39.5738 7.64719) rotate(-169.739) scale(4.68025 2.73097)">
            <stop offset="0.325" stop-color="#6A57A0" />
            <stop offset="1" stop-color="#6A57A0" stop-opacity="0" />
        </radialGradient>
        <radialGradient id="paint8_radial_4_7497" cx="0" cy="0" r="1" gradientUnits="userSpaceOnUse"
            gradientTransform="translate(64.1113 13.0864) rotate(-113.728) scale(7.89295 24.7199)">
            <stop offset="0.259" stop-color="#E5DBF4" stop-opacity="0" />
            <stop offset="1" stop-color="#E5DBF4" />
        </radialGradient>
        <radialGradient id="paint9_radial_4_7497" cx="0" cy="0" r="1" gradientUnits="userSpaceOnUse"
            gradientTransform="translate(27.7418 11.4984) rotate(-122.939) scale(6.71745 21.0384)">
            <stop offset="0.259" stop-color="#E5DBF4" stop-opacity="0" />
            <stop offset="1" stop-color="#E5DBF4" />
        </radialGradient>
        <radialGradient id="paint10_radial_4_7497" cx="0" cy="0" r="1"
            gradientUnits="userSpaceOnUse"
            gradientTransform="translate(39.3749 18.2458) rotate(-34.638) scale(9.98859 12.7552)">
            <stop stop-color="#624A93" />
            <stop offset="1" stop-color="#624A93" stop-opacity="0" />
        </radialGradient>
        <radialGradient id="paint11_radial_4_7497" cx="0" cy="0" r="1"
            gradientUnits="userSpaceOnUse"
            gradientTransform="translate(2.74341 18.2462) rotate(-34.638) scale(9.98859 12.7552)">
            <stop stop-color="#55377A" />
            <stop offset="1" stop-color="#55377A" stop-opacity="0" />
        </radialGradient>
    </defs>
</svg>
