<svg width="55" height="55" viewBox="0 0 55 55" fill="none" xmlns="http://www.w3.org/2000/svg">
    <path
        d="M15.2441 5.24604L15.3565 5.42196C13.7301 5.63749 12.1074 5.87964 10.4889 6.1483C8.81946 6.4294 5.2331 7.75876 2.84642 8.68913L2.83191 8.51775L0 9.43814L0.8143 20.6225L3.83845 20.8801L3.82032 20.666L11.6985 21.2754C11.8382 30.58 10.731 41.6356 9.97834 48.0992L9.71447 48.0385L9.50772 52.1055C9.50772 52.1055 17.0858 54.2536 27.1965 54.4078V50.2003L27.202 10.6959L18.533 0.000244141L15.2441 5.24604ZM1.66306 19.7846L0.956666 10.0811L2.02215 9.73376L2.84823 19.8862L1.66306 19.7846ZM26.2897 53.482C18.5838 53.2689 12.4539 51.9096 10.4508 51.4136L10.565 49.1566C13.0206 49.678 19.3972 50.8922 26.2897 51.0889V53.482ZM24.5977 47.9795C23.4243 47.9795 22.4703 47.0918 22.4703 45.9973C22.4703 44.9028 23.4243 44.0151 24.5977 44.0151C25.7719 44.0151 26.725 44.9028 26.725 45.9973C26.725 47.0918 25.7719 47.9795 24.5977 47.9795ZM24.5977 40.7497C23.4243 40.7497 22.4703 39.8619 22.4703 38.7665C22.4703 37.6729 23.4243 36.7852 24.5977 36.7852C25.7719 36.7852 26.725 37.6729 26.725 38.7665C26.725 39.8619 25.7719 40.7497 24.5977 40.7497ZM24.5977 33.5207C23.4243 33.5207 22.4703 32.633 22.4703 31.5385C22.4703 30.444 23.4243 29.5553 24.5977 29.5553C25.7719 29.5553 26.725 30.4431 26.725 31.5385C26.725 32.6321 25.7719 33.5207 24.5977 33.5207ZM24.5977 26.29C23.4243 26.29 22.4703 25.4031 22.4703 24.3086C22.4703 23.2132 23.4243 22.3255 24.5977 22.3255C25.7719 22.3255 26.725 23.2132 26.725 24.3086C26.725 25.404 25.7719 26.29 24.5977 26.29ZM26.725 17.0788C26.725 18.1733 25.7719 19.061 24.5977 19.061C23.4243 19.061 22.4703 18.1733 22.4703 17.0788C22.4703 15.9843 23.4243 15.0965 24.5977 15.0965C25.7719 15.0965 26.725 15.9843 26.725 17.0788ZM25.9107 10.5435L21.7349 13.7463L16.3159 5.24241L18.6273 1.55721L25.9107 10.5435Z"
        fill="black" />
    <path
        d="M51.5781 8.51775L51.5636 8.68913C49.1769 7.76057 45.5896 6.4294 43.9211 6.1483C42.3026 5.88009 40.6798 5.63794 39.0535 5.42196L39.1659 5.24604L35.877 0.000244141H18.5337L23.0504 5.57067H31.3602L27.2026 10.6959L28.1919 11.4539V54.3815C37.8066 54.1086 44.9023 52.1054 44.9023 52.1054L44.6955 48.0385L44.4326 48.1001C43.6799 41.6356 42.5709 30.58 42.7115 21.2754L50.587 20.666L50.5688 20.88L53.5939 20.6225L54.4082 9.43814L51.5781 8.51775ZM35.7827 1.5563L38.0941 5.24241L32.6742 13.7463L28.4939 10.5426L35.7827 1.5563ZM43.845 49.1593L43.9592 51.4127C42.0423 51.8851 36.3467 53.1474 29.0987 53.4421V51.0563C35.5578 50.8133 41.4927 49.6662 43.845 49.1593ZM52.7451 19.7846L51.559 19.8853L52.3879 9.73466L53.4515 10.0811L52.7451 19.7846Z"
        fill="black" />
</svg>
