<svg width="45" height="50" viewBox="0 0 45 50" fill="none" xmlns="http://www.w3.org/2000/svg">
    <path
        d="M29.7253 1C29.7253 4.94228 26.5294 8.13812 22.5871 8.13812C18.6449 8.13812 15.449 4.94228 15.449 1H11.8799C10.5658 1 9.49771 2.06375 9.46261 3.37738C9.381 6.43729 9.12331 11.6491 8.31088 14.0866C7.40541 16.8029 3.7437 20.2082 2.04552 21.6805C1.49937 22.154 1.17275 22.8352 1.17275 23.558V46.2081C1.17275 47.5222 2.23803 48.5875 3.55213 48.5875H41.6221C42.9363 48.5875 44.0015 47.5222 44.0015 46.2081V23.558C44.0015 22.8352 43.6749 22.154 43.1287 21.6805C41.4306 20.2082 37.7688 16.8029 36.8634 14.0866C36.0509 11.6491 35.7932 6.43729 35.7116 3.37738C35.6765 2.06375 34.6084 1 33.2943 1H29.7253Z"
        fill="#2F88FF" stroke="black" stroke-width="1.56882" stroke-linejoin="round" />
    <path d="M33.2942 24.7932H26.1561V39.0695H33.2942V24.7932Z" stroke="white"
        stroke-width="1.56882" stroke-linejoin="round" />
    <path d="M11.8802 24.7932H19.0183V39.0695H11.8802" stroke="white" stroke-width="1.56882"
        stroke-linecap="round" stroke-linejoin="round" />
    <path d="M19.0184 31.9297H11.8803" stroke="white" stroke-width="1.56882" stroke-linecap="round"
        stroke-linejoin="round" />
</svg>
