<svg width="60" height="57" viewBox="0 0 60 57" fill="none" xmlns="http://www.w3.org/2000/svg">
    <path
        d="M19.1244 0.581543H39.9526C39.9526 0.581543 38.2169 5.78858 29.5385 5.78858C20.8601 5.78858 19.1244 0.581543 19.1244 0.581543Z"
        fill="#553788" />
    <path
        d="M51.3364 24.5738L59.0445 14.467C52.1018 10.9956 39.9521 0.581543 39.9521 0.581543C39.9521 0.581543 36.4807 7.52426 29.538 7.52426C22.5953 7.52426 19.1239 0.581543 19.1239 0.581543C19.1239 0.581543 6.97416 10.9956 0.0314484 14.467L7.73613 24.5756L15.6526 21.4097C15.6526 21.4097 16.0865 49.1805 10.4455 54.3876C10.4455 54.3876 19.1239 56.1233 29.538 56.1233C39.9521 56.1233 48.6305 54.3876 48.6305 54.3876C42.9895 49.1805 43.4234 21.4097 43.4234 21.4097L51.3364 24.5738Z"
        fill="#AA8DD8" />
    <path
        d="M8.71006 24.881C8.44968 24.8816 8.19252 24.8234 7.9578 24.7107C7.72307 24.598 7.51684 24.4337 7.35449 24.2302L0.41178 15.5518C0.261636 15.3748 0.148522 15.1694 0.0791313 14.9479C0.00974041 14.7264 -0.014518 14.4933 0.00779176 14.2622C0.0301015 14.0312 0.098526 13.807 0.209017 13.6028C0.319507 13.3987 0.469819 13.2188 0.651059 13.0738C0.832299 12.9288 1.04078 12.8216 1.26418 12.7586C1.48757 12.6955 1.72134 12.678 1.95165 12.7069C2.18195 12.7358 2.40412 12.8106 2.60501 12.9269C2.80589 13.0432 2.98141 13.1986 3.12117 13.3839L10.0639 22.0623C10.2677 22.3175 10.3953 22.6251 10.4322 22.9496C10.469 23.2741 10.4136 23.6024 10.2722 23.8968C10.1308 24.1912 9.90916 24.4398 9.63283 24.6139C9.3565 24.788 9.03666 24.8806 8.71006 24.881ZM50.3646 24.881C50.038 24.8806 49.7182 24.788 49.4418 24.6139C49.1655 24.4398 48.9439 24.1912 48.8025 23.8968C48.6611 23.6024 48.6056 23.2741 48.6425 22.9496C48.6793 22.6251 48.807 22.3175 49.0108 22.0623L55.9535 13.3839C56.242 13.0276 56.6598 12.8 57.1156 12.7507C57.5714 12.7014 58.0282 12.8344 58.3863 13.1207C58.7443 13.407 58.9746 13.8233 59.0267 14.2788C59.0789 14.7343 58.9487 15.1919 58.6646 15.5518L51.7219 24.2302C51.5592 24.4338 51.3527 24.598 51.1177 24.7107C50.8826 24.8234 50.6252 24.8817 50.3646 24.881ZM39.9523 0.581543C39.9523 0.581543 34.7452 5.78858 29.5382 5.78858C24.3312 5.78858 19.1241 0.581543 19.1241 0.581543L22.5955 12.7313L27.8025 8.82602V54.3876C27.8025 54.8479 27.9854 55.2894 28.3109 55.6149C28.6364 55.9404 29.0779 56.1233 29.5382 56.1233C29.9985 56.1233 30.44 55.9404 30.7655 55.6149C31.091 55.2894 31.2739 54.8479 31.2739 54.3876V8.82602L36.4809 12.7313L39.9523 0.581543Z"
        fill="#9266CC" />
</svg>
