<svg width="56" height="57" viewBox="0 0 56 57" fill="none" xmlns="http://www.w3.org/2000/svg">
    <path fill-rule="evenodd" clip-rule="evenodd"
        d="M55.9139 11.7338C53.6188 9.11798 52.3306 5.7096 48.8968 3.99442C47.1183 3.09906 45.1536 2.51386 43.2557 1.81795C42.2399 1.44627 41.1925 1.14137 40.1645 0.795171C39.2981 0.501694 38.56 0.407675 37.8589 1.20024C35.8783 3.45228 33.3205 5.0954 30.2706 5.79219C29.5431 5.95826 28.7778 6.05931 27.9984 6.10236C27.2341 6.06314 26.4746 5.95938 25.7279 5.79219C22.6798 5.0954 20.1202 3.45228 18.1414 1.20024C17.4349 0.406797 16.6969 0.501694 15.8322 0.795171C14.8051 1.14225 13.7594 1.44627 12.7428 1.81795C10.8466 2.51386 8.87753 3.09906 7.09558 3.99442C3.66524 5.7096 2.3771 9.11885 0.0846382 11.7338C-0.134152 11.9789 0.118028 12.7082 0.369329 13.0984C0.591633 13.4279 1.12147 13.5931 1.52039 13.8303C3.90424 15.2344 6.6457 16.1289 8.68686 18.0409C9.2703 18.5839 10.2237 18.7904 10.9073 19.2719C11.2842 19.5391 11.626 20.0294 11.6849 20.4573C11.9749 22.4817 12.2736 24.5115 12.3571 26.5491C12.5442 31.2448 13.1066 35.9483 11.8325 40.6079C11.163 43.0612 10.5048 45.5276 10.0224 48.0186C9.52248 50.573 9.24482 53.165 8.88544 55.6429C9.88186 56.0076 10.4864 56.3827 11.1182 56.4276C14.0538 56.6332 16.9965 56.8651 19.94 56.8651C22.627 56.8634 25.3131 56.8186 28.0001 56.7641C30.6871 56.8195 33.375 56.8634 36.0593 56.8651C39.0029 56.8651 41.9447 56.6332 44.8812 56.4276C45.5156 56.3827 46.1184 56.0076 47.1148 55.6429C46.7537 53.1659 46.4751 50.573 45.9796 48.0186C45.4954 45.5276 44.8346 43.0612 44.1669 40.6079C42.8928 35.9465 43.4569 31.243 43.6458 26.5491C43.7275 24.5115 44.0298 22.4817 44.3162 20.4573C44.3751 20.0302 44.7151 19.5391 45.0939 19.2719C45.7748 18.7895 46.7326 18.5831 47.3125 18.0409C49.3545 16.128 52.096 15.2335 54.4781 13.8303C54.877 13.5931 55.4113 13.4279 55.6283 13.0984C55.8822 12.7082 56.1344 11.9789 55.9174 11.7338"
        fill="#BF4889" />
    <path fill-rule="evenodd" clip-rule="evenodd"
        d="M28.1914 47.0433C27.796 43.9609 27.9832 40.8575 27.4744 37.7768L27.4182 37.442C27.3462 37.0721 27.2682 36.7033 27.1845 36.3358C27.0114 35.5643 28.209 34.9642 27.9972 34.1997C27.6677 32.9968 27.4103 32.0127 27.1801 30.787C26.8761 29.1518 26.8655 27.8065 27.4235 26.1643C28.0605 24.2909 27.1317 22.1153 28.5157 20.604C28.9093 20.177 29.3662 19.8281 29.8214 19.4547C29.8325 19.4446 29.8442 19.4352 29.8565 19.4266C29.8331 19.1999 29.8029 18.974 29.766 18.7491C29.6764 18.2158 29.5648 17.6868 29.5007 17.1517C29.1281 13.9718 28.4014 10.798 29.02 7.59699C29.13 7.03589 29.2824 6.48395 29.476 5.94596C28.9937 6.02241 28.4981 6.07425 27.9972 6.10236C27.233 6.06314 26.4735 5.95938 25.7267 5.79219C22.6786 5.0954 20.119 3.45228 18.1403 1.20024C17.4338 0.406797 16.6957 0.501694 15.8311 0.795171C14.8039 1.14225 13.7583 1.44627 12.7417 1.81795C10.8455 2.51386 8.8764 3.09906 7.09445 3.99442C3.66411 5.7096 2.37597 9.11885 0.083509 11.7338C-0.135281 11.9789 0.116899 12.7082 0.3682 13.0984C0.590504 13.4279 1.12034 13.5931 1.51926 13.8303C3.90311 15.2344 6.64457 16.1289 8.68573 18.0409C9.26917 18.5839 10.2225 18.7904 10.9061 19.2719C11.2831 19.5391 11.6249 20.0294 11.6838 20.4573C11.9737 22.4817 12.2725 24.5115 12.356 26.5491C12.5431 31.2448 13.1055 35.9483 11.8314 40.6079C11.1618 43.0612 10.5037 45.5276 10.0213 48.0186C9.52135 50.573 9.24369 53.165 8.88431 55.6429C9.88073 56.0076 10.4853 56.3827 11.117 56.4276C14.0527 56.6332 16.9954 56.8651 19.9389 56.8651C22.6259 56.8634 25.312 56.8186 27.999 56.7641C29.3636 56.794 30.7273 56.8159 32.091 56.8353C30.092 53.7564 28.6299 50.4078 28.1941 47.0416"
        fill="#D15EA2" />
    <path fill-rule="evenodd" clip-rule="evenodd"
        d="M1.88041 9.26032C2.54908 8.44139 3.14482 7.56096 3.74671 6.68932C3.07804 7.50824 2.48054 8.38692 1.88041 9.26032ZM10.9062 19.1744C11.2831 19.4415 11.6249 19.9327 11.6838 20.3597L11.7813 21.0372C11.8402 20.8571 11.9026 20.6778 11.9614 20.4959C12.2167 19.729 12.6281 19.0232 13.1696 18.4231C13.1653 18.402 13.165 18.3802 13.1687 18.359C13.1099 17.9337 12.7681 17.439 12.3911 17.1737C11.7093 16.6913 10.7524 16.4865 10.1707 15.9444C8.1313 14.0315 5.38983 13.1353 3.00423 11.7294C2.60707 11.4939 2.07547 11.3305 1.85493 10.9992C1.64844 10.6829 1.44547 10.1346 1.50082 9.81037C1.0635 10.4434 0.593045 11.0529 0.0914283 11.6363C-0.127362 11.8814 0.124818 12.6116 0.376119 12.9991C0.598423 13.3295 1.12826 13.4955 1.52718 13.7284C3.91103 15.1343 6.65249 16.027 8.69365 17.9451C9.27797 18.489 10.2305 18.6955 10.9141 19.1744M54.1194 9.31216C53.4445 8.49324 52.8514 7.61632 52.2478 6.74292C52.9173 7.55921 53.514 8.43876 54.1194 9.31216ZM45.0875 19.2359C44.7088 19.503 44.3696 19.9933 44.3098 20.4212C44.2782 20.6471 44.2457 20.8711 44.2123 21.0952C44.1543 20.9168 44.091 20.7393 44.0366 20.5566C43.7787 19.7896 43.3656 19.084 42.8231 18.4838C42.8266 18.4627 42.824 18.4407 42.8337 18.4196C42.8899 17.9926 43.2343 17.5023 43.613 17.2343C44.2923 16.7528 45.2483 16.5516 45.8317 16.0033C47.872 14.0886 50.6117 13.1959 52.9982 11.7918C53.3945 11.5554 53.9269 11.3929 54.1457 11.0607C54.3575 10.7444 54.5552 10.1961 54.5051 9.87363C54.9411 10.5053 55.4104 11.1133 55.911 11.6951C56.128 11.9412 55.8767 12.6705 55.6228 13.0597C55.4057 13.3901 54.8724 13.5562 54.4726 13.789C52.0905 15.1966 49.349 16.0894 47.307 18.004C46.7262 18.5505 45.7693 18.7535 45.0875 19.2359ZM16.2959 1.90318C18.6499 4.94339 21.6813 7.16468 25.3006 8.10662C26.1652 8.33244 27.0755 8.466 27.9981 8.52487C28.9083 8.47195 29.8113 8.3319 30.6948 8.10662C34.3132 7.16205 37.349 4.94076 39.6994 1.90318C40.1203 1.35489 40.557 1.12204 41.0139 1.07283C40.731 0.98145 40.4481 0.890946 40.1634 0.795171C39.297 0.501694 38.5589 0.407675 37.8577 1.20024C35.8772 3.45228 33.3194 5.0954 30.2695 5.79219C29.542 5.95826 28.7766 6.05931 27.9972 6.10236C27.233 6.06314 26.4735 5.95938 25.7268 5.79219C22.6786 5.0954 20.1191 3.45228 18.1403 1.20024C17.4338 0.406797 16.6957 0.501694 15.8311 0.795171C15.5482 0.890946 15.2644 0.98145 14.9806 1.07283C15.4436 1.12292 15.8742 1.35577 16.2959 1.90318ZM44.8766 53.5921C41.9409 53.7942 38.9991 54.0297 36.0547 54.0261C33.368 54.0206 30.6815 53.9886 27.9955 53.9304C25.3085 53.9857 22.6224 54.0244 19.9354 54.0261C16.9945 54.0297 14.0518 53.7942 11.1135 53.5921C10.5643 53.5525 10.0336 53.2591 9.24722 52.948C9.13161 53.8469 9.00947 54.7449 8.88081 55.642C9.87723 56.0067 10.4818 56.3819 11.1135 56.4267C14.0492 56.6323 16.9919 56.8643 19.9354 56.8643C22.6224 56.8625 25.3085 56.8177 27.9955 56.7632C30.6825 56.8186 33.3703 56.8625 36.0547 56.8643C38.9982 56.8643 41.9401 56.6323 44.8766 56.4267C45.511 56.3819 46.1138 56.0067 47.1102 55.642C46.9801 54.7546 46.8624 53.8557 46.742 52.948C45.9565 53.2591 45.4284 53.5525 44.8766 53.5921Z"
        fill="#9E3273" />
</svg>
