<svg width="41" height="52" viewBox="0 0 41 52" fill="none" xmlns="http://www.w3.org/2000/svg">
    <path
        d="M37.271 49.5241C37.761 50.48 38.7926 50.5278 38.7926 50.5278L37.6693 48.377C37.4821 48.7036 36.9962 48.9864 37.275 49.5241H37.271Z"
        fill="black" />
    <path d="M37.1997 47.4846L37.6657 48.3768C37.8011 48.1418 37.7693 47.8789 37.1997 47.4846Z"
        fill="black" />
    <path
        d="M39.3304 14.7414C39.2986 14.59 39.2388 14.4068 39.1353 14.1758C39.0277 13.9448 38.9242 13.7655 38.8206 13.6181C39.0078 13.2995 39.1751 12.9769 39.2348 12.5865C39.3822 11.4036 38.5378 10.7384 37.5182 10.376C37.789 9.98164 38.0519 9.57537 38.0359 9.08546C38.0001 7.88657 36.9048 7.58784 36.2077 6.68768C36.152 6.61598 36.1121 6.54429 36.0803 6.47259C36.3671 6.63988 36.7016 6.70759 37.0123 6.51641C37.8926 6.01056 38.0758 4.93912 38.8047 5.0148C39.5734 5.22192 39.9199 6.142 40.2346 6.81115C39.904 5.52463 38.9799 3.76811 37.6177 5.26573C37.3429 5.55649 37.0482 5.86319 36.7654 5.97073C36.618 6.02251 36.5702 5.99861 36.4746 5.93488C36.379 5.86319 36.2635 5.71582 36.156 5.55649C36.144 5.54056 36.1321 5.52065 36.1201 5.50073C36.2715 5.03472 36.4587 4.6165 35.9528 4.32574C35.3872 4.00311 35.0726 4.26599 34.6583 4.36158C34.5827 4.36158 34.507 4.37752 34.4273 4.39345C34.2242 4.40141 33.9852 4.35362 33.6865 4.17837C32.5911 3.54108 33.6506 2.07931 31.6033 1.21897C29.5561 0.358639 29.1179 1.81643 28.1301 1.7049C27.1424 1.59338 26.4852 0.354656 25.0951 0.430334C23.705 0.506011 22.2074 1.44202 20.8571 1.25482C19.5029 1.06762 19.5029 -0.617204 16.7984 0.243131C14.0939 1.10347 16.5077 2.34219 14.7511 3.01532C14.2652 3.20252 13.9506 3.3021 13.7116 3.37778C13.4248 3.23837 13.0823 3.19854 12.7795 3.3021C12.1024 3.44549 11.8077 4.18235 11.6006 4.71607C11.5966 4.72404 11.5926 4.72404 11.5886 4.73201C11.5408 4.76785 11.497 4.79972 11.4532 4.8276C11.4373 4.8276 11.4253 4.8276 11.4014 4.8276C11.2381 4.78777 11.031 4.71607 10.9235 4.59658C10.6327 4.33769 10.6566 3.66854 10.4335 3.2543C10.2782 2.93964 9.95956 2.72854 9.621 2.65685C9.30634 2.60905 8.98372 2.56524 8.66906 2.74049C7.79279 3.25032 8.26677 4.51692 7.79677 5.16217C6.97228 5.39319 6.66559 4.11065 6.08009 3.71235C5.75746 3.46142 5.33127 3.66057 5.07636 3.90354C4.8095 4.13455 4.59441 4.4054 4.3873 4.68421C4.72187 4.31777 5.07636 3.88362 5.56229 3.73625C5.71763 3.7004 5.87297 3.73625 5.99246 3.83582C6.47441 4.25803 6.58195 5.07853 7.33474 5.44895C7.80872 5.672 8.21499 5.39717 8.32651 4.91921C8.5655 4.09472 8.43804 2.71659 9.65685 3.29413C10.0392 3.55303 9.91574 4.07879 10.0631 4.50099C10.0711 4.53286 10.087 4.56472 10.099 4.60057C10.0113 4.5926 9.90778 4.60057 9.78032 4.62446C8.60931 4.88734 9.44973 6.12208 7.76889 6.49649C6.08805 6.87089 4.8095 8.10563 5.13611 9.56741C5.21577 9.91791 5.28746 10.2644 5.33526 10.5871C5.04848 10.607 4.75772 10.7145 4.56653 10.9376C4.08857 11.4832 4.29569 12.1165 3.83764 12.5109C3.6584 12.6224 3.37561 12.6821 3.16052 12.5826C2.85383 12.4671 2.67858 12.0648 2.42366 11.8218C2.17273 11.6306 1.99748 12.021 1.91383 12.1962C2.0851 11.9692 2.28027 11.6465 2.45951 12.0807C2.70646 12.7419 3.29595 13.2318 4.05272 12.9092C4.66611 12.6543 4.73382 11.7939 5.09628 11.4713C5.17594 11.4155 5.29543 11.4115 5.39899 11.4354C5.37907 12.0608 5.16001 12.5507 4.55458 12.7937C3.4234 13.2437 2.5312 14.4028 3.65044 15.5659C4.47094 16.4142 4.73382 17.2427 5.6539 17.888C5.60212 17.9039 5.54636 17.9079 5.49458 17.9278C4.64221 18.2823 4.3873 19.278 4.51077 20.0866C4.5267 20.1742 4.54662 20.2658 4.57052 20.3574C3.99298 20.4411 3.40349 20.7836 3.18044 21.2218C3.02908 21.4806 3.0251 21.8391 3.14061 22.1339C2.96934 22.3012 2.84188 22.5481 2.80603 22.7712C2.77019 22.9424 2.79408 23.1416 2.91358 23.273C2.69849 22.9743 2.87773 22.58 3.07688 22.3211C3.10874 22.2812 3.14061 22.2454 3.17646 22.2135C3.31586 22.5083 3.58272 22.7234 3.93323 22.6716C4.13238 22.584 4.04077 22.3211 3.95713 22.2016C3.76993 21.9228 3.54688 21.8909 3.34374 21.9865C3.21629 21.4687 3.6584 20.9708 4.19213 20.8473C4.34747 20.7996 4.53467 20.7637 4.71789 20.7637C4.86128 21.0545 5.08831 21.2974 5.4428 21.3412C5.72958 21.3691 5.92475 21.0664 5.79331 20.8235C5.64992 20.5845 5.42288 20.4411 5.16797 20.3774C4.97679 19.7401 5.1839 18.7722 5.76144 18.6208C5.94466 18.5651 6.15576 18.5611 6.36686 18.6009C6.39873 18.7483 6.43059 18.8996 6.47839 19.055C6.58593 19.3935 6.805 19.8277 7.20728 19.995C7.85652 20.2698 8.60134 19.7401 8.3066 19.0311C8.89609 19.3816 8.56948 19.6644 8.05567 20.2419C7.41838 20.9629 6.9444 21.3373 7.66533 21.7475C7.4622 21.8033 7.29093 21.9347 7.16745 22.1379C6.94839 22.4923 7.23516 22.9265 7.41042 23.1575C7.56177 23.3885 7.78084 23.5956 7.56974 23.8187C7.39847 24.0099 6.9444 24.1652 6.70144 24.2847C6.44254 24.3962 6.22347 24.5914 6.08407 24.8383C5.94864 25.1211 6.22347 25.3761 6.40271 25.5513C6.29517 25.4159 6.18763 25.2685 6.1478 25.1092C6.1 24.9459 6.22347 24.8304 6.3589 24.7228C6.60186 24.4918 6.94839 24.4679 7.29491 24.3524C7.68126 24.2608 8.19906 23.9222 8.08355 23.4483C8.0238 23.0898 7.74898 22.7871 7.70118 22.5003C7.70516 22.4605 7.70516 22.4645 7.71711 22.4684C7.72109 22.4684 7.75694 22.4445 7.79279 22.4286C8.14329 22.4605 8.49778 22.8588 9.01956 22.9663C9.20278 23.0062 9.3621 23.046 9.53337 23.0221C9.50549 23.1774 9.42185 23.3567 9.26253 23.5797C8.56948 24.5516 8.82439 25.4159 7.54584 25.7903C6.26729 26.1647 4.6223 27.025 4.84136 28.1124C5.06043 29.1998 5.39102 30.8448 4.47492 31.2948C3.56281 31.7449 3.15256 32.4738 3.63052 33.7842C4.04874 34.9393 3.12866 34.9513 2.82595 35.5965C2.69053 35.6244 2.55112 35.6523 2.41968 35.6682C2.17273 35.6921 1.93375 35.708 1.71468 35.6483C1.60714 35.6164 1.43985 35.5447 1.23672 35.5647C0.981805 35.5806 0.746806 35.7837 0.659179 36.0068C0.424181 36.7795 0.794603 37.5761 1.2168 38.1935C1.49163 38.5639 1.76248 38.7511 1.74655 39.1295C1.76646 39.6871 1.37214 40.2407 1.19291 40.7784C1.14511 40.9258 1.11325 41.0931 1.19291 41.2325C1.22079 41.2763 1.2646 41.3042 1.30045 41.34C1.12519 41.2046 1.18494 40.9736 1.2646 40.8063C1.57528 40.173 2.16477 39.5835 2.03731 38.7949C1.98155 38.4802 1.72265 38.1935 1.59519 37.9505C1.31638 37.4685 1.13316 36.66 1.2885 36.3095C1.62307 36.4648 1.97358 36.5365 2.33205 36.5604C2.04527 37.1698 1.83019 37.8549 2.06519 38.524C2.39578 39.4601 3.49111 39.6114 4.07662 40.882C4.43509 41.6587 4.24391 42.1605 4.04476 42.4274C3.81772 42.7301 3.66637 43.0886 3.65044 43.471C3.63849 43.8454 3.69823 44.2835 3.9651 44.626C4.29967 45.0562 4.84136 45.339 5.24365 45.6815C5.05645 45.7333 4.85331 45.7771 4.64619 45.817C4.44704 45.8648 4.19611 45.9484 4.06069 46.1316C3.62255 46.7769 4.57848 47.1871 5.01662 47.3863C5.65788 47.7009 6.32703 47.9359 6.81296 48.4378C6.9683 48.5892 7.09974 48.8082 7.07983 48.852C7.05194 48.9755 6.78906 49.091 6.64966 49.1548L5.97653 49.4415C5.76543 49.5411 5.4667 49.6486 5.29941 49.812C5.08433 49.9912 4.99272 50.3019 5.04848 50.5568C5.16001 51.0706 5.50255 51.4569 5.84509 51.7995C5.53839 51.4291 5.24763 50.9949 5.19984 50.5369C5.14806 50.0031 5.64992 49.8478 6.08407 49.7203L6.78906 49.5013C7.60957 49.2782 7.75296 48.7405 7.21923 48.0993C6.72534 47.4421 5.93271 47.0876 5.25958 46.6574C5.42687 46.6295 5.59416 46.5937 5.75746 46.5459C5.75746 46.5698 5.76144 46.5897 5.76144 46.6136C5.76144 47.5058 6.72135 47.1393 7.00415 45.8369C7.27898 45.5541 7.47813 45.1916 7.54982 44.7376C7.5777 44.3472 7.30288 44.1282 7.00813 44.1003C6.94839 43.5387 6.95237 43.0846 7.51398 42.531C8.50177 41.5591 8.31855 39.7588 8.2827 38.6754C8.25084 37.6757 9.6449 35.6961 12.6322 34.9194C12.3215 35.2619 11.7918 35.3735 11.3496 35.485C11.1624 35.5288 10.9991 35.5567 10.8398 35.7439C10.7004 35.9231 10.7084 36.19 10.788 36.3772C10.9792 36.8472 11.3337 37.2296 11.4293 37.7115C11.4612 37.8708 11.4412 38.0102 11.3775 38.1895C11.0828 38.9184 10.5451 39.6114 10.322 40.3921C10.2065 40.7904 10.2065 41.2604 10.4535 41.5989C10.2503 41.2325 10.3101 40.8023 10.4614 40.4439C10.9035 39.3047 12.437 38.3488 11.7918 36.9826C11.7081 36.7357 11.5727 36.4927 11.497 36.2577C12.7078 36.178 13.7912 35.5965 13.8032 34.6884C17.0812 34.2025 18.3837 32.8761 19.722 32.2627C21.112 31.6254 22.2074 30.6536 22.2074 30.6536C22.2074 30.6536 22.7172 31.4781 24.9836 31.7409C26.1068 31.8724 27.0229 33.9953 27.7637 34.1666C27.4968 34.4454 27.3216 34.7919 27.4371 35.2181C27.7637 36.1183 28.9546 36.178 29.6756 36.1103C29.8787 36.1024 30.0978 36.0944 30.2093 36.1422C30.2412 36.2975 29.9703 36.5883 29.8389 36.7476C29.4724 37.2216 28.7037 37.7274 29.0104 38.5201C29.1976 38.8268 29.4844 38.8546 29.7632 38.8745C30.3447 38.8984 30.8625 38.7312 31.3883 38.8029C31.4719 38.8268 31.4839 38.8268 31.4799 38.8666C31.4361 39.3326 30.8187 39.7667 30.5359 40.1969C30.2053 40.5673 30.1854 41.2604 30.8625 41.2166C31.3405 41.1847 32.0494 40.89 32.1889 41.5472C32.2805 42.0769 31.8383 42.5748 31.6392 43.0567C31.5595 43.2399 31.5635 43.455 31.7706 43.5427C31.5795 43.4471 31.5834 43.236 31.675 43.0687C31.9937 42.4832 32.8022 41.5711 32.0056 41.0015C31.5755 40.7665 31.0776 41.0533 30.6634 40.9099C30.52 40.7625 30.6634 40.5713 30.8028 40.4001C31.1732 39.938 31.7029 39.6473 31.91 39.0418C32.1012 38.3687 31.3484 38.2412 30.8864 38.2691C30.4323 38.2572 29.8986 38.3568 29.568 38.2134C29.58 38.2373 29.576 38.2014 29.5879 38.1616C29.8229 37.6518 30.4483 37.3052 30.7948 36.7914C31.4361 35.8355 30.6912 35.1464 29.6676 35.2102C29.1936 35.2102 28.7196 35.1902 28.4727 34.9672C28.6479 34.7999 28.8869 34.6605 29.1418 34.541C29.4406 34.6326 29.7512 34.7362 30.0938 34.8557C31.8543 35.4531 32.4756 35.0787 33.3161 36.429C34.1565 37.7792 35.6182 39.3884 35.0327 41.0732C34.4472 42.758 34.5707 43.694 35.1682 44.5185C35.7656 45.343 34.8137 46.8406 35.6541 47.7009C35.6541 47.7009 35.8771 47.7846 36.7972 47.215C36.8769 47.2748 36.9645 47.3385 37.0641 47.3982C37.1119 47.4301 37.1477 47.458 37.1915 47.4859L36.9884 47.0955C37.076 47.0398 37.1676 46.98 37.2632 46.9123C38.5776 46.0121 38.1395 45.7134 37.6297 44.4787C37.1198 43.2439 37.7014 41.8937 38.3227 41.1449C38.9441 40.3961 39.4181 39.2729 38.6892 38.1098C37.9563 36.9468 37.8846 35.8634 38.3227 35.0747C38.7609 34.2861 39.5296 32.191 38.032 31.4781C37.5261 31.2391 37.3867 30.9244 37.3787 30.5779C37.4624 30.7014 37.562 30.8408 37.7611 30.9642C38.5099 31.3227 39.5375 31.0559 39.892 31.9361C40.0832 32.5495 39.8403 33.2625 39.5694 33.836C39.9478 33.2545 40.2903 32.5973 40.1828 31.8604C40.0434 30.8965 38.8166 30.7292 38.1276 30.3987C38.0917 30.3748 38.02 30.2393 37.9523 30.0999C37.8169 29.8132 37.6894 29.4985 37.5221 29.2038C37.4982 28.9608 37.4026 28.7258 37.1557 28.5187C36.0962 27.6185 36.5343 27.6185 35.2916 27.1684C34.0489 26.7183 34.268 25.1092 32.8779 24.5476C31.4878 23.986 33.2444 23.7629 34.9252 23.7988C36.606 23.8346 36.1321 22.564 36.7893 22.1498C36.841 22.1179 36.8888 22.094 36.9366 22.0701C36.7454 22.3928 36.8012 22.8428 37.1398 23.0301C37.6416 23.2412 38.1754 23.05 38.6533 22.7751C38.9042 22.9106 39.1472 23.0619 39.3822 23.2133C39.7327 23.4523 40.1549 23.7948 40.1111 24.2489C39.9438 24.9738 38.9959 25.0972 38.3426 25.0813C39.3304 25.2924 40.9356 24.7348 40.143 23.4921C39.9757 23.2531 39.5654 22.8508 39.0795 22.5003C39.191 22.4246 39.2946 22.349 39.3902 22.2773C40.0354 21.8511 40.2186 21.0027 39.7287 20.3495C39.6969 20.3057 39.661 20.2698 39.6292 20.23C40.2625 19.6923 40.6847 19.3497 40.4775 18.3301C40.3859 17.872 40.143 17.6012 39.8522 17.414C40.0992 17.0794 40.3381 16.7369 40.5293 16.3545C41.1945 15.0361 40.2664 14.8529 39.3185 14.7374L39.3304 14.7414ZM3.47917 22.0502C3.6823 22.0303 3.90535 22.2812 3.8934 22.4804C3.88543 22.5043 3.88544 22.5083 3.87349 22.5083C3.7062 22.5083 3.54289 22.3729 3.45527 22.2295C3.4234 22.1777 3.40747 22.1299 3.38756 22.0781C3.41544 22.0662 3.4473 22.0542 3.47917 22.0502ZM7.4383 19.3338C7.4383 19.3497 7.44626 19.3497 7.4383 19.3338V19.3338ZM36.9964 11.2841C37.3827 11.3598 37.7412 11.4753 38.032 11.6545C38.5737 11.9612 38.5816 12.5666 38.3546 13.0924C38.3466 13.1083 38.3387 13.1282 38.3307 13.1442C37.8647 12.8654 37.4305 12.957 37.0521 12.1882C36.8888 11.8537 36.9008 11.5629 36.9924 11.2841H36.9964ZM37.4943 22.4565C37.4943 22.4565 37.4982 22.4684 37.5022 22.4724C37.5022 22.4804 37.4982 22.4724 37.4943 22.4565ZM37.4903 22.4206C37.4903 22.4206 37.4903 22.4007 37.4863 22.4047C37.5102 22.3888 37.5659 22.3848 37.6297 22.3928C37.5779 22.4087 37.5301 22.4167 37.4903 22.4206ZM37.8567 21.8551C38.0798 21.7515 38.3506 21.5484 38.733 21.1023C38.7808 21.0465 38.8246 20.9987 38.8724 20.9469C38.96 21.0465 39.0237 21.154 39.0437 21.2616C38.972 21.5085 38.6414 21.7993 38.3108 22.0263C38.1554 21.9506 38.0041 21.8909 37.8567 21.8511V21.8551ZM39.8482 17.406C39.2189 17.0077 38.3825 16.9838 38.4064 16.2708C38.4342 15.526 39.1711 15.6296 39.3264 15.1516C40.127 15.1596 40.8719 15.1237 40.4019 16.2987C40.2585 16.6811 40.0553 17.0475 39.8442 17.406H39.8482Z"
        fill="black" />
    <path
        d="M39.8509 11.3835C40.1018 11.6384 40.1815 12.0049 40.054 12.3434C39.1698 14.7452 37.0149 19.015 32.4942 20.6361C32.3827 20.6759 32.2751 20.7118 32.1676 20.7476C33.1873 21.3849 35.1549 22.5918 36.4454 23.241C38.0107 24.0256 38.1939 25.6268 38.0665 26.4951C38.3493 26.8815 38.5763 27.2439 38.6878 27.5546C39.1419 28.7854 38.6002 30.2153 38.3891 30.6853C38.648 31.3823 38.7476 32.0435 38.6958 32.6609C38.5843 33.9314 37.8275 34.5369 37.7956 34.5647L37.4292 34.8555L37.2101 34.4413C32.546 25.5711 24.1179 23.5317 22.9668 23.2888C22.8234 23.3724 22.6721 23.4401 22.5127 23.476C22.0666 23.5835 21.4692 23.6512 20.8359 23.6512C20.0353 23.6512 19.1909 23.5477 18.5416 23.3127C17.2392 23.5955 8.95051 25.6985 4.34214 34.4572L4.12706 34.8714L3.75664 34.5767C3.72477 34.5528 2.968 33.9474 2.85647 32.6768C2.80071 32.0594 2.90825 31.3982 3.16317 30.7012C2.95605 30.2352 2.41037 28.8013 2.86444 27.5666C2.97995 27.2599 3.203 26.8974 3.48977 26.5111C3.35833 25.6428 3.54554 24.0416 5.10689 23.2569C6.42527 22.5957 8.41678 21.5721 9.43246 21.0503C9.06203 20.8512 8.70356 20.6441 8.35704 20.425C6.12654 19.003 3.05164 18.4335 1.40665 18.2224C1.04021 18.1746 0.745466 17.9077 0.653857 17.5492C0.562247 17.1748 0.701653 16.7964 1.01631 16.5814C3.12334 15.1276 6.97094 12.682 9.01026 12.682C12.1409 12.682 14.8812 13.614 16.335 15.1753C17.5578 16.4897 18.5018 17.7086 18.8205 18.1268C19.0077 18.1108 19.2307 18.1467 19.4856 18.2901C20.1866 18.4096 21.3935 18.5131 21.8396 18.31C22.1941 18.1467 22.5645 18.1427 22.919 18.2941C22.9907 18.3259 23.0624 18.3618 23.1301 18.4056C23.8351 17.0593 26.0935 13.1918 28.9931 12.6342C30.1363 12.4111 31.61 12.2478 33.1673 12.0805C35.358 11.8376 37.6204 11.5906 38.9507 11.1684C39.2693 11.0649 39.6119 11.1485 39.8509 11.3875V11.3835ZM39.3291 12.0885C39.361 12.0128 39.3291 11.9451 39.2932 11.9132C39.2454 11.8655 39.2056 11.8774 39.1897 11.8814C37.7877 12.3315 35.4815 12.5824 33.255 12.8293C31.7135 13.0006 30.2557 13.156 29.1445 13.371C26.4241 13.8968 24.1896 18.0192 23.7037 18.9752C23.8431 19.1743 23.9546 19.4053 24.0303 19.6523C24.1537 20.0307 24.2135 20.6958 24.098 21.3769C25.0061 21.4845 27.6508 21.5681 32.2273 19.9311C36.4494 18.4215 38.4887 14.3748 39.3251 12.0925L39.3291 12.0885ZM37.935 29.6776C38.0864 29.1399 38.1939 28.4229 37.9669 27.8055C37.5527 26.6863 35.5094 24.8461 35.1429 24.6271C34.9916 24.5753 34.884 24.4359 34.884 24.2686C34.884 24.0615 35.0553 23.8902 35.2704 23.8902C35.5572 23.8902 36.4693 24.6589 37.2898 25.5551C37.2061 24.9975 36.9154 24.3204 36.0949 23.9062C34.4658 23.0896 31.8888 21.4725 31.2356 21.0543C30.1163 21.4048 29.1325 21.6557 28.2642 21.823L30.0845 22.2213C30.2916 22.2651 30.423 22.4683 30.3752 22.6754C30.3354 22.8507 30.1801 22.9701 30.0008 22.9701C29.9729 22.9701 29.9411 22.9701 29.9172 22.9582L28.6745 22.6873L30.7775 23.6353C30.9687 23.7229 31.0563 23.946 30.9687 24.1332C30.905 24.2726 30.7656 24.3523 30.6182 24.3523C30.5624 24.3523 30.5107 24.3403 30.4549 24.3164L25.6633 22.1656C25.4442 22.1735 25.2371 22.1815 25.0539 22.1815C24.5401 22.1815 24.1617 22.1457 23.9108 22.1098C23.855 22.2572 23.7953 22.3966 23.7196 22.528C23.6917 22.5758 23.6559 22.6157 23.628 22.6595C25.8465 23.229 33.2112 25.6507 37.6323 33.5809C37.7677 33.3459 37.9032 33.0114 37.943 32.5573C38.0107 31.6372 37.6642 30.052 35.597 27.7458C35.4576 27.5905 35.4735 27.3515 35.6368 27.2161C35.7961 27.0806 36.0391 27.0966 36.1825 27.2519C36.9393 28.0963 37.5248 28.9049 37.943 29.6696L37.935 29.6776ZM23.2695 21.5761C23.4408 20.9229 23.397 20.198 23.2974 19.8793C23.158 19.4531 22.8871 19.1026 22.6083 18.9831C22.457 18.9194 22.3176 18.9234 22.1662 18.9911C21.3338 19.3735 19.4896 19.0588 19.2825 19.023L19.2108 19.007L19.1471 18.9712C19.0276 18.8995 18.9519 18.8796 18.9001 18.8796C18.8563 18.8796 18.8364 18.8915 18.8244 18.8995C18.4978 19.0747 18.1633 20.2258 18.1633 22.0859C18.1633 22.1536 18.1832 22.2572 18.3505 22.3807C18.4261 22.4404 18.5257 22.4882 18.6293 22.54C18.7448 22.532 18.8523 22.5758 18.932 22.6515C19.8999 22.9542 21.4891 22.9582 22.3295 22.7511C22.6282 22.6794 22.8593 22.4922 23.0385 22.1696C23.1381 21.9943 23.2137 21.7991 23.2655 21.596V21.588C23.2655 21.588 23.2655 21.588 23.2655 21.5801L23.2695 21.5761ZM17.6494 22.7551C17.6256 22.7272 17.6056 22.7033 17.5857 22.6714C17.1635 22.8825 16.6099 22.9821 15.9646 22.9821C15.65 22.9821 15.3154 22.9542 14.9689 22.9144L10.2251 25.0453C10.1693 25.0692 10.1175 25.0811 10.0618 25.0811C9.9144 25.0811 9.775 25.0015 9.71127 24.8621C9.62364 24.6749 9.71127 24.4478 9.90245 24.3602L10.8225 23.95L10.7907 23.9579C10.7508 23.9699 10.715 23.9778 10.6791 23.9778C10.5119 23.9778 10.3605 23.8703 10.3087 23.711C10.245 23.5118 10.3645 23.3007 10.5676 23.241L13.0291 22.5121C12.117 22.2532 11.181 21.8987 10.2808 21.4765C9.59974 21.827 7.04662 23.1414 5.46934 23.934C4.64884 24.3443 4.36604 25.0214 4.27443 25.583C5.09892 24.6868 6.01103 23.9181 6.29781 23.9181C6.50891 23.9181 6.68417 24.0854 6.68417 24.2965C6.68417 24.4638 6.57264 24.6032 6.42129 24.651C6.05883 24.874 4.01553 26.7142 3.6013 27.8334C3.37427 28.4468 3.47783 29.1638 3.62918 29.7054C4.05138 28.9407 4.63689 28.1282 5.38968 27.2838C5.53307 27.1244 5.77603 27.1085 5.93934 27.2479C6.09866 27.3833 6.11459 27.6223 5.97519 27.7777C3.89206 30.1037 3.5535 31.693 3.63316 32.6131C3.67299 33.0512 3.80842 33.3778 3.94384 33.6048C8.18975 25.9933 15.1481 23.4561 17.6574 22.763L17.6494 22.7551ZM17.3945 21.8987C17.4065 20.6361 17.5578 19.1624 18.1394 18.4892C17.7849 18.0232 16.9006 16.896 15.7695 15.6812C14.479 14.2951 11.89 13.4348 9.01822 13.4348C7.68391 13.4348 4.93163 14.8089 1.4664 17.1947C1.38673 17.2505 1.40267 17.3421 1.40665 17.37C1.41462 17.4058 1.4425 17.4696 1.51021 17.4775C3.21893 17.7006 6.42527 18.2941 8.77924 19.7996C12.0772 21.9027 16.2952 22.7272 17.3906 21.9027L17.3945 21.8987Z"
        fill="black" />
    <path
        d="M39.2944 11.9124C39.3303 11.9483 39.3582 12.016 39.3303 12.0877C38.4938 14.3699 36.4545 18.4167 32.2325 19.9263C27.656 21.5673 25.0113 21.4836 24.1032 21.3721C24.2147 20.695 24.1589 20.0258 24.0354 19.6475C23.9598 19.4005 23.8443 19.1695 23.7088 18.9703C24.1948 18.0184 26.4332 13.892 29.1497 13.3662C30.2609 13.1511 31.7187 12.9918 33.2601 12.8245C35.4906 12.5776 37.7928 12.3266 39.1949 11.8766C39.2108 11.8766 39.2546 11.8567 39.2984 11.9084L39.2944 11.9124Z"
        fill="url(#paint0_linear_4_7273)" />
    <path
        d="M37.9675 27.8077C38.1945 28.4211 38.087 29.1381 37.9356 29.6797C37.5174 28.915 36.9319 28.1065 36.1751 27.262C36.0317 27.1027 35.7888 27.0868 35.6294 27.2262C35.4661 27.3616 35.4502 27.6046 35.5896 27.7559C37.6568 30.0621 38.0033 31.6474 37.9356 32.5674C37.8958 33.0215 37.7604 33.3561 37.6249 33.5911C33.2038 25.6569 25.8352 23.2392 23.6206 22.6696C23.6525 22.6258 23.6843 22.586 23.7122 22.5382C23.7879 22.4067 23.8516 22.2673 23.9034 22.12C24.1543 22.1558 24.5327 22.1917 25.0465 22.1917C25.2337 22.1917 25.4369 22.1837 25.6559 22.1757L30.4475 24.3266C30.5033 24.3505 30.5551 24.3624 30.6108 24.3624C30.7582 24.3624 30.8976 24.2827 30.9613 24.1433C31.049 23.9561 30.9613 23.7331 30.7701 23.6455L28.6671 22.6975L29.9098 22.9683C29.9377 22.9763 29.9696 22.9803 29.9935 22.9803C30.1727 22.9803 30.328 22.8608 30.3679 22.6855C30.4196 22.4824 30.2882 22.2793 30.0771 22.2315L28.2569 21.8332C29.1212 21.6619 30.105 21.415 31.2282 21.0645C31.8814 21.4787 34.4584 23.0958 36.0875 23.9163C36.908 24.3266 37.1948 25.0077 37.2824 25.5653C36.4579 24.6691 35.5498 23.9004 35.263 23.9004C35.0479 23.9004 34.8766 24.0716 34.8766 24.2788C34.8766 24.446 34.9842 24.5855 35.1355 24.6372C35.502 24.8563 37.5453 26.6965 37.9595 27.8157L37.9675 27.8077Z"
        fill="url(#paint1_linear_4_7273)" />
    <path
        d="M23.2987 19.8785C23.3982 20.1971 23.4421 20.922 23.2708 21.5753C23.2708 21.5753 23.2708 21.5779 23.2708 21.5832V21.5912C23.215 21.7943 23.1433 21.9895 23.0437 22.1647C22.8605 22.4834 22.6295 22.6746 22.3348 22.7463C21.4944 22.9534 19.9051 22.9494 18.9372 22.6467C18.8616 22.567 18.75 22.5272 18.6345 22.5352C18.531 22.4874 18.4354 22.4356 18.3557 22.3758C18.1884 22.2524 18.1685 22.1488 18.1685 22.0811C18.1685 20.221 18.4991 19.0739 18.8297 18.8947C18.8417 18.8867 18.8655 18.8748 18.9054 18.8748C18.9572 18.8748 19.0328 18.8947 19.1523 18.9664L19.2161 19.0022L19.2878 19.0181C19.4949 19.054 21.339 19.3687 22.1715 18.9863C22.3228 18.9186 22.4622 18.9146 22.6136 18.9783C22.8924 19.0978 23.1632 19.4483 23.3026 19.8745L23.2987 19.8785Z"
        fill="url(#paint2_linear_4_7273)" />
    <path
        d="M17.5859 22.6724C17.6098 22.7042 17.6298 22.7281 17.6497 22.756C15.1404 23.449 8.17802 25.9862 3.93609 33.5978C3.80067 33.3708 3.66525 33.0442 3.62542 32.606C3.54576 31.682 3.88431 30.0967 5.96744 27.7706C6.10685 27.6113 6.09091 27.3763 5.93159 27.2409C5.76829 27.1015 5.52532 27.1174 5.38193 27.2767C4.62914 28.1211 4.04364 28.9337 3.62143 29.6984C3.47008 29.1607 3.36652 28.4438 3.59355 27.8264C4.00779 26.7072 6.05108 24.867 6.41354 24.644C6.56489 24.5962 6.67642 24.4568 6.67642 24.2895C6.67642 24.0784 6.50117 23.9111 6.29007 23.9111C6.00329 23.9111 5.08719 24.6798 4.26669 25.576C4.35431 25.0144 4.64109 24.3412 5.46159 23.927C7.04286 23.1344 9.59598 21.82 10.2731 21.4695C11.1733 21.8917 12.1133 22.2462 13.0214 22.5051L10.5599 23.234C10.3567 23.2937 10.2412 23.5048 10.301 23.704C10.3528 23.8673 10.5041 23.9708 10.6714 23.9708C10.7072 23.9708 10.7431 23.9629 10.7829 23.9509L10.8148 23.9429L9.89471 24.3532C9.70352 24.4408 9.6159 24.6679 9.70352 24.8551C9.76725 24.9945 9.90666 25.0741 10.054 25.0741C10.1098 25.0741 10.1616 25.0622 10.2173 25.0383L14.9611 22.9074C15.3076 22.9472 15.6462 22.9751 15.9569 22.9751C16.6021 22.9751 17.1598 22.8755 17.578 22.6644L17.5859 22.6724Z"
        fill="url(#paint3_linear_4_7273)" />
    <path
        d="M18.1406 18.4933C17.5591 19.1624 17.4077 20.6401 17.3958 21.9027C16.3004 22.7232 12.0824 21.9027 8.78445 19.7997C6.43048 18.2941 3.22415 17.7006 1.51543 17.4776C1.44771 17.4696 1.41983 17.4099 1.41187 17.37C1.4039 17.3422 1.38797 17.2545 1.47161 17.1948C4.93685 14.809 7.68912 13.4348 9.02344 13.4348C11.8952 13.4348 14.4842 14.2951 15.7747 15.6812C16.9059 16.8961 17.7901 18.0233 18.1446 18.4893L18.1406 18.4933Z"
        fill="url(#paint4_linear_4_7273)" />
    <defs>
        <linearGradient id="paint0_linear_4_7273" x1="31.5252" y1="11.8728" x2="31.5252"
            y2="21.4241" gradientUnits="userSpaceOnUse">
            <stop stop-color="#FFDA58" />
            <stop offset="1" stop-color="#FF924D" />
        </linearGradient>
        <linearGradient id="paint1_linear_4_7273" x1="30.8593" y1="21.0645" x2="30.8593"
            y2="33.5911" gradientUnits="userSpaceOnUse">
            <stop stop-color="#FFDA58" />
            <stop offset="1" stop-color="#FF924D" />
        </linearGradient>
        <linearGradient id="paint2_linear_4_7273" x1="20.7774" y1="18.8748" x2="20.7774"
            y2="22.8896" gradientUnits="userSpaceOnUse">
            <stop stop-color="#FFDA58" />
            <stop offset="1" stop-color="#FF924D" />
        </linearGradient>
        <linearGradient id="paint3_linear_4_7273" x1="10.5556" y1="21.4695" x2="10.5556"
            y2="33.5978" gradientUnits="userSpaceOnUse">
            <stop stop-color="#FFDA58" />
            <stop offset="1" stop-color="#FF924D" />
        </linearGradient>
        <linearGradient id="paint4_linear_4_7273" x1="9.77488" y1="13.4348" x2="9.77488"
            y2="22.2163" gradientUnits="userSpaceOnUse">
            <stop stop-color="#FFDA58" />
            <stop offset="1" stop-color="#FF924D" />
        </linearGradient>
    </defs>
</svg>
