<svg width="51" height="62" viewBox="0 0 51 62" fill="none" xmlns="http://www.w3.org/2000/svg">
    <path
        d="M24.3245 6.52064C26.0452 9.29681 31.5258 17.3505 39.9938 22.4806L40.0216 22.4647L40.0057 23.6795C40.0057 23.6795 40.2965 23.0701 42.746 23.1617C43.1603 23.1777 42.7102 22.3293 42.7102 21.9031C42.7102 15.9445 41.4874 11.2087 41.4874 11.2087C35.5766 -3.02668 25.0255 0.219487 22.6317 1.1794C22.325 1.30287 22.0024 1.35863 21.6718 1.33872C20.226 1.25109 15.5857 1.58567 10.0573 8.31699C5.24978 14.172 6.63189 18.8043 6.82308 23.6795C6.82308 23.6795 7.73121 22.9467 10.5313 23.1617L10.7264 18.5693L11.0053 18.5892L16.6173 19.0274C16.924 19.0513 17.1949 18.8282 17.2268 18.5255C17.4379 16.6216 19.2262 8.66351 22.7034 6.17013C21.6957 7.85496 19.2939 12.543 20.5048 17.3266C20.5605 17.5536 20.7637 17.701 20.9867 17.701C21.0266 17.701 21.0664 17.697 21.1102 17.6851C21.3771 17.6174 21.5364 17.3465 21.4727 17.0797C20.4729 13.1285 22.2294 9.10961 23.265 7.21369C23.1774 9.37647 23.6394 15.2594 30.4982 19.6049C30.5819 19.6567 30.6735 19.6806 30.7651 19.6806C30.9284 19.6806 31.0917 19.5969 31.1873 19.4496C31.3346 19.2185 31.2669 18.9079 31.0319 18.7645C23.3128 13.8733 24.2409 7.04242 24.3285 6.52462L24.3245 6.52064Z"
        fill="black" />
    <path
        d="M48.4854 52.3023C46.3784 48.403 44.6259 31.5269 44.6259 31.5269C42.3516 31.8933 40.1968 32.188 40.1968 32.188C40.384 39.9072 35.214 44.0694 35.214 44.0694L35.5207 51.0995C34.3656 55.1821 42.3516 58.3844 42.3516 58.3844L50.4092 61.3518C50.4092 61.3518 50.5925 56.2057 48.4854 52.3023Z"
        fill="black" />
    <path
        d="M10.2165 32.188C10.2165 32.188 8.06169 31.8933 5.78738 31.5269C5.78738 31.5269 4.03485 48.399 1.92783 52.3023C-0.179197 56.2057 0.00402123 61.3518 0.00402123 61.3518L8.06169 58.3844C8.06169 58.3844 15.1993 55.4489 14.8926 51.0995L15.1993 44.0694C15.1993 44.0694 10.0293 39.9072 10.2165 32.188Z"
        fill="black" />
</svg>
