<svg width="44" height="59" viewBox="0 0 44 59" fill="none" xmlns="http://www.w3.org/2000/svg">
    <path
        d="M42.9136 44.9703C42.4635 43.1779 41.7705 41.2501 41.1212 39.179C41.1212 39.179 40.719 39.641 39.4404 39.9636C38.1618 40.2862 36.8913 40.0034 36.8913 40.0034L36.7041 40.9315C36.7041 47.5194 31.9125 51.8848 31.9125 51.8848V58.5684C39.8706 58.7874 45.3512 54.6172 42.9216 44.9703H42.9136Z"
        fill="black" />
    <path
        d="M6.79094 40.9315L6.60373 40.0034C6.60373 40.0034 5.33314 40.2862 4.05459 39.9636C2.77604 39.641 2.37375 39.179 2.37375 39.179C1.72452 41.2501 1.03147 43.1739 0.581388 44.9703C-1.84826 54.6172 3.62841 58.7874 11.5905 58.5684V51.8848C11.5905 51.8848 6.7989 47.5194 6.7989 40.9315H6.79094Z"
        fill="black" />
    <path
        d="M21.018 14.3364C22.7387 17.1125 28.2193 25.1662 36.6872 30.2964L36.7151 30.2804L36.6992 31.4953C36.6992 31.4953 36.9899 30.8859 39.4395 30.9775C39.8537 30.9934 39.4037 30.145 39.4037 29.7188C39.4037 23.7602 38.1809 19.0244 38.1809 19.0244C32.274 4.78904 21.719 8.03521 19.3252 8.99113C19.0185 9.11461 18.6959 9.17037 18.3653 9.15045C16.9195 9.06283 12.2792 9.3974 6.75078 16.1287C1.94326 21.9838 3.32537 26.616 3.51656 31.4913C3.51656 31.4913 4.42469 30.7584 7.22476 30.9735L7.41993 26.381L7.69874 26.401L13.3108 26.8391C13.6175 26.863 13.8884 26.6399 13.9202 26.3372C14.1313 24.4333 15.9197 16.4752 19.3969 13.9819C18.3892 15.6667 15.9874 20.3547 17.1983 25.1423C17.254 25.3694 17.4572 25.5167 17.6802 25.5167C17.72 25.5167 17.7599 25.5127 17.8037 25.5008C18.0706 25.4331 18.2299 25.1622 18.1661 24.8954C17.1664 20.9442 18.9229 16.9293 19.9585 15.0294C19.8709 17.1922 20.3329 23.0751 27.1917 27.4206C27.2753 27.4724 27.3669 27.4963 27.4586 27.4963C27.6219 27.4963 27.7852 27.4127 27.8808 27.2653C28.0281 27.0343 27.9604 26.7236 27.7254 26.5802C20.0063 21.689 20.9344 14.8581 21.022 14.3403L21.018 14.3364Z"
        fill="black" />
    <path
        d="M14.5174 4.32206C14.2147 4.42561 6.61107 6.49281 3.81499 15.9007L3.39278 19.5532V24.8068C3.39278 24.8068 1.74381 27.3918 4.03804 28.8057C6.33226 30.2197 8.2242 31.2553 12.5856 27.0492C16.947 22.8471 20.7867 22.8272 20.7867 22.8272C20.7867 22.8272 25.881 23.3131 30.4296 28.5907C30.4296 28.5907 34.1338 31.1557 38.1806 28.3557C38.1806 28.3557 40.2079 26.5434 38.1806 24.3089C38.1806 24.3089 39.2839 17.9401 37.0574 13.1445C34.8309 8.34892 28.8882 4.49731 24.5586 3.75248C24.5586 3.75248 25.3871 0.83292 20.7827 0.494363C16.1783 0.151822 17.0068 3.68079 17.0068 3.68079L14.5094 4.31807L14.5174 4.32206Z"
        fill="#FF944C" />
    <path
        d="M38.5792 24.8092C38.3044 24.8092 38.0813 24.5861 38.0813 24.3113V19.5555C38.0813 11.0319 31.1867 4.09341 22.7148 4.09341H19.6558C11.1799 4.09341 4.28928 11.0279 4.28928 19.5555V24.3113C4.28928 24.5861 4.06623 24.8092 3.7914 24.8092C3.51657 24.8092 3.29352 24.5861 3.29352 24.3113V19.5555C3.29352 10.4822 10.6342 3.09766 19.6558 3.09766H22.7148C31.7363 3.09766 39.0771 10.4822 39.0771 19.5555V24.3113C39.0771 24.5861 38.854 24.8092 38.5792 24.8092Z"
        fill="black" />
    <path
        d="M17.9871 4.18194C17.8716 4.18194 17.7561 4.14211 17.6605 4.05846C17.1706 3.6283 16.9117 3.11847 16.9117 2.57678C16.9117 1.13094 18.7877 -0.000244141 21.1855 -0.000244141C23.5833 -0.000244141 25.4593 1.13094 25.4593 2.57678C25.4593 3.07067 25.2402 3.54864 24.822 3.95491C24.6268 4.14609 24.3122 4.14211 24.117 3.94694C23.9258 3.75177 23.9298 3.43313 24.125 3.24194C24.348 3.02686 24.4595 2.79983 24.4595 2.57678C24.4595 1.82797 23.1133 0.995514 21.1815 0.995514C19.2497 0.995514 17.9035 1.82797 17.9035 2.57678C17.9035 2.88745 18.1265 3.14635 18.3137 3.30965C18.5208 3.48889 18.5407 3.80355 18.3615 4.01067C18.2619 4.12219 18.1265 4.18194 17.9871 4.18194Z"
        fill="black" />
    <path
        d="M7.94527 30.446C6.54324 30.446 5.00977 29.9521 3.48029 28.7493C2.40885 27.9049 2.14597 26.3634 2.88284 25.2442C6.79019 19.3095 13.3423 15.7686 20.4082 15.7686H21.9616C29.0275 15.7686 35.5795 19.3095 39.4869 25.2442C40.2238 26.3634 39.9609 27.9009 38.8894 28.7493C36.412 30.7009 32.5564 31.4219 29.9436 28.3908C25.8848 23.6789 22.1448 23.3403 21.9456 23.3283H20.4082C20.4082 23.3283 16.5805 23.5753 12.4262 28.3908C11.3866 29.5976 9.78145 30.446 7.94527 30.446ZM20.4082 16.7683C13.6768 16.7683 7.43544 20.1419 3.71529 25.7938C3.26122 26.4869 3.42851 27.4388 4.09766 27.9686C5.61918 29.1635 9.15611 30.6611 11.6734 27.7415C16.1304 22.5676 20.217 22.3406 20.3883 22.3326H21.9735H21.9855C22.1567 22.3406 26.2433 22.5676 30.7003 27.7415C33.2176 30.6611 36.7545 29.1675 38.2761 27.9686C38.9452 27.4388 39.1125 26.4869 38.6584 25.7938C34.9343 20.1419 28.6929 16.7683 21.9655 16.7683H20.4122H20.4082Z"
        fill="black" />
    <path
        d="M32.8439 19.9123C32.569 19.9123 32.346 19.6892 32.346 19.4144V12.0856C32.346 7.96716 28.6298 5.2826 28.594 5.25472C28.3709 5.09539 28.3151 4.78472 28.4745 4.56167C28.6338 4.33862 28.9445 4.28286 29.1675 4.44218C29.3388 4.56167 33.3417 7.44538 33.3417 12.0856V19.4144C33.3417 19.6892 33.1187 19.9123 32.8439 19.9123Z"
        fill="black" />
    <path
        d="M9.51521 19.9112C9.24038 19.9112 9.01733 19.6881 9.01733 19.4133V12.0845C9.01733 7.44429 13.0203 4.56057 13.1916 4.44108C13.4146 4.28176 13.7253 4.33354 13.8846 4.56058C14.0439 4.78362 13.9921 5.0943 13.7651 5.25362C13.7293 5.2815 10.0131 7.96607 10.0131 12.0845V19.4133C10.0131 19.6881 9.79004 19.9112 9.51521 19.9112Z"
        fill="black" />
    <path
        d="M20.6904 14.1247H19.1808C18.9618 14.1247 18.7825 13.9455 18.7825 13.7264C18.7825 13.5074 18.9618 13.3281 19.1808 13.3281H20.6904C20.9095 13.3281 21.0887 13.5074 21.0887 13.7264C21.0887 13.9455 20.9095 14.1247 20.6904 14.1247Z"
        fill="url(#paint0_linear_4_7287)" />
    <path
        d="M23.7232 14.1247H22.2137C21.9946 14.1247 21.8154 13.9455 21.8154 13.7264C21.8154 13.5074 21.9946 13.3281 22.2137 13.3281H23.7232C23.9423 13.3281 24.1215 13.5074 24.1215 13.7264C24.1215 13.9455 23.9423 14.1247 23.7232 14.1247Z"
        fill="url(#paint1_linear_4_7287)" />
    <path
        d="M19.3763 12.1812C19.1573 12.1812 18.978 12.002 18.978 11.7829V6.14293C18.978 5.92387 19.1573 5.74463 19.3763 5.74463C19.5954 5.74463 19.7746 5.92387 19.7746 6.14293V11.7829C19.7746 12.002 19.5954 12.1812 19.3763 12.1812Z"
        fill="url(#paint2_linear_4_7287)" />
    <path
        d="M23.7466 12.1795H18.6244C18.4054 12.1795 18.2261 12.0002 18.2261 11.7812C18.2261 11.5621 18.4054 11.3829 18.6244 11.3829H23.3483V10.5504C23.3483 10.3313 23.5275 10.1521 23.7466 10.1521C23.9657 10.1521 24.1449 10.3313 24.1449 10.5504V11.7812C24.1449 12.0002 23.9657 12.1795 23.7466 12.1795Z"
        fill="url(#paint3_linear_4_7287)" />
    <path
        d="M19.9387 14.1239C19.9028 14.1239 19.867 14.1199 19.8271 14.108C19.616 14.0482 19.4926 13.8252 19.5563 13.6141L21.1017 8.23697C21.1495 8.0657 21.3088 7.9502 21.4841 7.9502C21.6633 7.9502 21.8187 8.06969 21.8664 8.24096L23.3481 13.618C23.4079 13.8291 23.2804 14.0482 23.0693 14.108C22.8542 14.1677 22.6392 14.0403 22.5794 13.8291L21.4721 9.81425L20.317 13.8331C20.2653 14.0084 20.1059 14.1199 19.9347 14.1199L19.9387 14.1239Z"
        fill="url(#paint4_linear_4_7287)" />
    <defs>
        <linearGradient id="paint0_linear_4_7287" x1="19.9356" y1="13.3281" x2="19.9356"
            y2="14.1247" gradientUnits="userSpaceOnUse">
            <stop stop-color="#FFDA58" />
            <stop offset="1" stop-color="#FF924D" />
        </linearGradient>
        <linearGradient id="paint1_linear_4_7287" x1="22.9685" y1="13.3281" x2="22.9685"
            y2="14.1247" gradientUnits="userSpaceOnUse">
            <stop stop-color="#FFDA58" />
            <stop offset="1" stop-color="#FF924D" />
        </linearGradient>
        <linearGradient id="paint2_linear_4_7287" x1="19.3763" y1="5.74463" x2="19.3763"
            y2="12.1812" gradientUnits="userSpaceOnUse">
            <stop stop-color="#FFDA58" />
            <stop offset="1" stop-color="#FF924D" />
        </linearGradient>
        <linearGradient id="paint3_linear_4_7287" x1="21.1855" y1="10.1521" x2="21.1855"
            y2="12.1795" gradientUnits="userSpaceOnUse">
            <stop stop-color="#FFDA58" />
            <stop offset="1" stop-color="#FF924D" />
        </linearGradient>
        <linearGradient id="paint4_linear_4_7287" x1="21.4512" y1="7.9502" x2="21.4512" y2="14.1239"
            gradientUnits="userSpaceOnUse">
            <stop stop-color="#FFDA58" />
            <stop offset="1" stop-color="#FF924D" />
        </linearGradient>
    </defs>
</svg>
