<svg width="41" height="52" viewBox="0 0 41 52" fill="none" xmlns="http://www.w3.org/2000/svg">
    <path
        d="M37.4407 49.5241C37.9306 50.48 38.9622 50.5278 38.9622 50.5278L37.839 48.377C37.6518 48.7036 37.1659 48.9864 37.4447 49.5241H37.4407Z"
        fill="black" />
    <path d="M37.3683 47.4846L37.8344 48.3768C37.9698 48.1418 37.9379 47.8789 37.3683 47.4846Z"
        fill="black" />
    <path
        d="M39.4991 14.7414C39.4672 14.59 39.4075 14.4068 39.3039 14.1758C39.1964 13.9448 39.0928 13.7655 38.9893 13.6181C39.1765 13.2995 39.3438 12.9769 39.4035 12.5865C39.5509 11.4036 38.7065 10.7384 37.6868 10.376C37.9577 9.98164 38.2206 9.57537 38.2046 9.08546C38.1688 7.88657 37.0734 7.58784 36.3764 6.68768C36.3206 6.61598 36.2808 6.54429 36.2489 6.47259C36.5357 6.63988 36.8703 6.70759 37.181 6.51641C38.0612 6.01056 38.2444 4.93912 38.9733 5.0148C39.7421 5.22192 40.0886 6.142 40.4032 6.81115C40.0727 5.52463 39.1486 3.76811 37.7864 5.26573C37.5116 5.55649 37.2168 5.86319 36.934 5.97073C36.7867 6.02251 36.7389 5.99861 36.6433 5.93488C36.5477 5.86319 36.4322 5.71582 36.3246 5.55649C36.3127 5.54056 36.3007 5.52065 36.2888 5.50073C36.4401 5.03472 36.6273 4.6165 36.1215 4.32574C35.5559 4.00311 35.2412 4.26599 34.827 4.36158C34.7513 4.36158 34.6756 4.37752 34.596 4.39345C34.3929 4.40141 34.1539 4.35362 33.8551 4.17837C32.7598 3.54108 33.8193 2.07931 31.772 1.21897C29.7247 0.358639 29.2866 1.81643 28.2988 1.7049C27.311 1.59338 26.6538 0.354656 25.2637 0.430334C23.8737 0.506011 22.376 1.44202 21.0258 1.25482C19.6716 1.06762 19.6716 -0.617204 16.9671 0.243131C14.2626 1.10347 16.6763 2.34219 14.9198 3.01532C14.4339 3.20252 14.1192 3.3021 13.8802 3.37778C13.5935 3.23837 13.2509 3.19854 12.9482 3.3021C12.2711 3.44549 11.9764 4.18235 11.7692 4.71607C11.7653 4.72404 11.7613 4.72404 11.7573 4.73201C11.7095 4.76785 11.6657 4.79972 11.6219 4.8276C11.6059 4.8276 11.594 4.8276 11.5701 4.8276C11.4068 4.78777 11.1997 4.71607 11.0921 4.59658C10.8014 4.33769 10.8253 3.66854 10.6022 3.2543C10.4469 2.93964 10.1282 2.72854 9.78967 2.65685C9.47501 2.60905 9.15239 2.56524 8.83773 2.74049C7.96146 3.25032 8.43544 4.51692 7.96544 5.16217C7.14095 5.39319 6.83426 4.11065 6.24876 3.71235C5.92613 3.46142 5.49995 3.66057 5.24503 3.90354C4.97817 4.13455 4.76309 4.4054 4.55597 4.68421C4.89054 4.31777 5.24503 3.88362 5.73096 3.73625C5.8863 3.7004 6.04164 3.73625 6.16113 3.83582C6.64308 4.25803 6.75062 5.07853 7.50341 5.44895C7.97739 5.672 8.38366 5.39717 8.49519 4.91921C8.73417 4.09472 8.60671 2.71659 9.82552 3.29413C10.2079 3.55303 10.0844 4.07879 10.2318 4.50099C10.2398 4.53286 10.2557 4.56472 10.2676 4.60057C10.18 4.5926 10.0764 4.60057 9.94899 4.62446C8.77798 4.88734 9.6184 6.12208 7.93756 6.49649C6.25672 6.87089 4.97817 8.10563 5.30478 9.56741C5.38444 9.91791 5.45613 10.2644 5.50393 10.5871C5.21715 10.607 4.92639 10.7145 4.7352 10.9376C4.25724 11.4832 4.46436 12.1165 4.00631 12.5109C3.82707 12.6224 3.54428 12.6821 3.32919 12.5826C3.0225 12.4671 2.84725 12.0648 2.59233 11.8218C2.3414 11.6306 2.16615 12.021 2.0825 12.1962C2.25378 11.9692 2.44894 11.6465 2.62818 12.0807C2.87513 12.7419 3.46462 13.2318 4.22139 12.9092C4.83478 12.6543 4.90249 11.7939 5.26495 11.4713C5.34461 11.4155 5.4641 11.4115 5.56766 11.4354C5.54774 12.0608 5.32868 12.5507 4.72325 12.7937C3.59207 13.2437 2.69987 14.4028 3.81911 15.5659C4.63961 16.4142 4.90249 17.2427 5.82257 17.888C5.77079 17.9039 5.71503 17.9079 5.66325 17.9278C4.81088 18.2823 4.55597 19.278 4.67944 20.0866C4.69537 20.1742 4.71529 20.2658 4.73919 20.3574C4.16165 20.4411 3.57216 20.7836 3.34911 21.2218C3.19775 21.4806 3.19377 21.8391 3.30928 22.1339C3.13801 22.3012 3.01055 22.5481 2.9747 22.7712C2.93886 22.9424 2.96275 23.1416 3.08225 23.273C2.86716 22.9743 3.0464 22.58 3.24555 22.3211C3.27741 22.2812 3.30928 22.2454 3.34513 22.2135C3.48453 22.5083 3.7514 22.7234 4.1019 22.6716C4.30105 22.584 4.20944 22.3211 4.1258 22.2016C3.9386 21.9228 3.71555 21.8909 3.51241 21.9865C3.38496 21.4687 3.82707 20.9708 4.3608 20.8473C4.51614 20.7996 4.70334 20.7637 4.88656 20.7637C5.02995 21.0545 5.25698 21.2974 5.61147 21.3412C5.89825 21.3691 6.09342 21.0664 5.96198 20.8235C5.81859 20.5845 5.59156 20.4411 5.33664 20.3774C5.14546 19.7401 5.35257 18.7722 5.93011 18.6208C6.11333 18.5651 6.32443 18.5611 6.53553 18.6009C6.5674 18.7483 6.59926 18.8996 6.64706 19.055C6.7546 19.3935 6.97367 19.8277 7.37595 19.995C8.02519 20.2698 8.77001 19.7401 8.47527 19.0311C9.06476 19.3816 8.73815 19.6644 8.22434 20.2419C7.58705 20.9629 7.11307 21.3373 7.834 21.7475C7.63087 21.8033 7.4596 21.9347 7.33612 22.1379C7.11706 22.4923 7.40383 22.9265 7.57909 23.1575C7.73044 23.3885 7.94951 23.5956 7.73841 23.8187C7.56714 24.0099 7.11307 24.1652 6.87011 24.2847C6.61121 24.3962 6.39214 24.5914 6.25274 24.8383C6.11732 25.1211 6.39214 25.3761 6.57138 25.5513C6.46384 25.4159 6.3563 25.2685 6.31647 25.1092C6.26867 24.9459 6.39214 24.8304 6.52757 24.7228C6.77053 24.4918 7.11706 24.4679 7.46358 24.3524C7.84993 24.2608 8.36773 23.9222 8.25222 23.4483C8.19247 23.0898 7.91765 22.7871 7.86985 22.5003C7.87383 22.4605 7.87383 22.4645 7.88578 22.4684C7.88976 22.4684 7.92561 22.4445 7.96146 22.4286C8.31197 22.4605 8.66646 22.8588 9.18823 22.9663C9.37145 23.0062 9.53077 23.046 9.70204 23.0221C9.67416 23.1774 9.59052 23.3567 9.4312 23.5797C8.73815 24.5516 8.99306 25.4159 7.71451 25.7903C6.43596 26.1647 4.79097 27.025 5.01003 28.1124C5.2291 29.1998 5.55969 30.8448 4.64359 31.2948C3.73148 31.7449 3.32123 32.4738 3.79919 33.7842C4.21741 34.9393 3.29733 34.9513 2.99462 35.5965C2.8592 35.6244 2.71979 35.6523 2.58835 35.6682C2.3414 35.6921 2.10242 35.708 1.88335 35.6483C1.77581 35.6164 1.60852 35.5447 1.40539 35.5647C1.15048 35.5806 0.915477 35.7837 0.82785 36.0068C0.592851 36.7795 0.963273 37.5761 1.38547 38.1935C1.6603 38.5639 1.93115 38.7511 1.91522 39.1295C1.93513 39.6871 1.54081 40.2407 1.36158 40.7784C1.31378 40.9258 1.28192 41.0931 1.36158 41.2325C1.38946 41.2763 1.43327 41.3042 1.46912 41.34C1.29386 41.2046 1.35361 40.9736 1.43327 40.8063C1.74395 40.173 2.33344 39.5835 2.20598 38.7949C2.15022 38.4802 1.89132 38.1935 1.76386 37.9505C1.48505 37.4685 1.30183 36.66 1.45717 36.3095C1.79174 36.4648 2.14225 36.5365 2.50072 36.5604C2.21395 37.1698 1.99886 37.8549 2.23386 38.524C2.56445 39.4601 3.65979 39.6114 4.24529 40.882C4.60376 41.6587 4.41258 42.1605 4.21343 42.4274C3.98639 42.7301 3.83504 43.0886 3.81911 43.471C3.80716 43.8454 3.8669 44.2835 4.13377 44.626C4.46834 45.0562 5.01003 45.339 5.41232 45.6815C5.22512 45.7333 5.02198 45.7771 4.81486 45.817C4.61571 45.8648 4.36478 45.9484 4.22936 46.1316C3.79123 46.7769 4.74715 47.1871 5.18529 47.3863C5.82655 47.7009 6.4957 47.9359 6.98163 48.4378C7.13697 48.5892 7.26841 48.8082 7.2485 48.852C7.22062 48.9755 6.95774 49.091 6.81833 49.1548L6.1452 49.4415C5.9341 49.5411 5.63537 49.6486 5.46808 49.812C5.253 49.9912 5.16139 50.3019 5.21715 50.5568C5.32868 51.0706 5.67122 51.4569 6.01376 51.7995C5.70706 51.4291 5.4163 50.9949 5.36851 50.5369C5.31673 50.0031 5.81859 49.8478 6.25274 49.7203L6.95774 49.5013C7.77824 49.2782 7.92163 48.7405 7.3879 48.0993C6.89401 47.4421 6.10138 47.0876 5.42825 46.6574C5.59554 46.6295 5.76283 46.5937 5.92613 46.5459C5.92613 46.5698 5.93011 46.5897 5.93011 46.6136C5.93011 47.5058 6.89002 47.1393 7.17282 45.8369C7.44765 45.5541 7.6468 45.1916 7.71849 44.7376C7.74638 44.3472 7.47155 44.1282 7.1768 44.1003C7.11706 43.5387 7.12104 43.0846 7.68265 42.531C8.67044 41.5591 8.48722 39.7588 8.45137 38.6754C8.41951 37.6757 9.81357 35.6961 12.8008 34.9194C12.4902 35.2619 11.9604 35.3735 11.5183 35.485C11.3311 35.5288 11.1678 35.5567 11.0085 35.7439C10.8691 35.9231 10.877 36.19 10.9567 36.3772C11.1479 36.8472 11.5024 37.2296 11.598 37.7115C11.6298 37.8708 11.6099 38.0102 11.5462 38.1895C11.2514 38.9184 10.7137 39.6114 10.4907 40.3921C10.3752 40.7904 10.3752 41.2604 10.6221 41.5989C10.419 41.2325 10.4787 40.8023 10.6301 40.4439C11.0722 39.3047 12.6057 38.3488 11.9604 36.9826C11.8768 36.7357 11.7414 36.4927 11.6657 36.2577C12.8765 36.178 13.9599 35.5965 13.9719 34.6884C17.2499 34.2025 18.5523 32.8761 19.8906 32.2627C21.2807 31.6254 22.376 30.6536 22.376 30.6536C22.376 30.6536 22.8859 31.4781 25.1522 31.7409C26.2754 31.8724 27.1915 33.9953 27.9324 34.1666C27.6655 34.4454 27.4903 34.7919 27.6058 35.2181C27.9324 36.1183 29.1233 36.178 29.8442 36.1103C30.0474 36.1024 30.2664 36.0944 30.378 36.1422C30.4098 36.2975 30.139 36.5883 30.0075 36.7476C29.6411 37.2216 28.8724 37.7274 29.1791 38.5201C29.3663 38.8268 29.653 38.8546 29.9319 38.8745C30.5134 38.8984 31.0312 38.7312 31.5569 38.8029C31.6406 38.8268 31.6525 38.8268 31.6485 38.8666C31.6047 39.3326 30.9874 39.7667 30.7046 40.1969C30.374 40.5673 30.3541 41.2604 31.0312 41.2166C31.5091 41.1847 32.2181 40.89 32.3575 41.5472C32.4491 42.0769 32.007 42.5748 31.8079 43.0567C31.7282 43.2399 31.7322 43.455 31.9393 43.5427C31.7481 43.4471 31.7521 43.236 31.8437 43.0687C32.1624 42.4832 32.9709 41.5711 32.1743 41.0015C31.7441 40.7665 31.2463 41.0533 30.832 40.9099C30.6886 40.7625 30.832 40.5713 30.9714 40.4001C31.3419 39.938 31.8716 39.6473 32.0787 39.0418C32.2699 38.3687 31.5171 38.2412 31.0551 38.2691C30.601 38.2572 30.0673 38.3568 29.7367 38.2134C29.7486 38.2373 29.7447 38.2014 29.7566 38.1616C29.9916 37.6518 30.6169 37.3052 30.9635 36.7914C31.6047 35.8355 30.8599 35.1464 29.8363 35.2102C29.3623 35.2102 28.8883 35.1902 28.6414 34.9672C28.8166 34.7999 29.0556 34.6605 29.3105 34.541C29.6092 34.6326 29.9199 34.7362 30.2625 34.8557C32.023 35.4531 32.6443 35.0787 33.4847 36.429C34.3251 37.7792 35.7869 39.3884 35.2014 41.0732C34.6159 42.758 34.7394 43.694 35.3368 44.5185C35.9343 45.343 34.9823 46.8406 35.8228 47.7009C35.8228 47.7009 36.0458 47.7846 36.9659 47.215C37.0456 47.2748 37.1332 47.3385 37.2328 47.3982C37.2806 47.4301 37.3164 47.458 37.3602 47.4859L37.1571 47.0955C37.2447 47.0398 37.3363 46.98 37.4319 46.9123C38.7463 46.0121 38.3082 45.7134 37.7983 44.4787C37.2885 43.2439 37.87 41.8937 38.4914 41.1449C39.1127 40.3961 39.5867 39.2729 38.8578 38.1098C38.125 36.9468 38.0533 35.8634 38.4914 35.0747C38.9295 34.2861 39.6983 32.191 38.2006 31.4781C37.6948 31.2391 37.5554 30.9244 37.5474 30.5779C37.6311 30.7014 37.7306 30.8408 37.9298 30.9642C38.6786 31.3227 39.7062 31.0559 40.0607 31.9361C40.2519 32.5495 40.0089 33.2625 39.7381 33.836C40.1165 33.2545 40.459 32.5973 40.3515 31.8604C40.2121 30.8965 38.9853 30.7292 38.2962 30.3987C38.2604 30.3748 38.1887 30.2393 38.121 30.0999C37.9855 29.8132 37.8581 29.4985 37.6908 29.2038C37.6669 28.9608 37.5713 28.7258 37.3244 28.5187C36.2649 27.6185 36.703 27.6185 35.4603 27.1684C34.2176 26.7183 34.4367 25.1092 33.0466 24.5476C31.6565 23.986 33.413 23.7629 35.0939 23.7988C36.7747 23.8346 36.3007 22.564 36.9579 22.1498C37.0097 22.1179 37.0575 22.094 37.1053 22.0701C36.9141 22.3928 36.9699 22.8428 37.3084 23.0301C37.8103 23.2412 38.344 23.05 38.822 22.7751C39.0729 22.9106 39.3159 23.0619 39.5509 23.2133C39.9014 23.4523 40.3236 23.7948 40.2798 24.2489C40.1125 24.9738 39.1645 25.0972 38.5113 25.0813C39.4991 25.2924 41.1043 24.7348 40.3116 23.4921C40.1444 23.2531 39.7341 22.8508 39.2482 22.5003C39.3597 22.4246 39.4633 22.349 39.5588 22.2773C40.2041 21.8511 40.3873 21.0027 39.8974 20.3495C39.8655 20.3057 39.8297 20.2698 39.7978 20.23C40.4311 19.6923 40.8533 19.3497 40.6462 18.3301C40.5546 17.872 40.3116 17.6012 40.0209 17.414C40.2678 17.0794 40.5068 16.7369 40.698 16.3545C41.3632 15.0361 40.4351 14.8529 39.4871 14.7374L39.4991 14.7414ZM3.64784 22.0502C3.85097 22.0303 4.07402 22.2812 4.06207 22.4804C4.05411 22.5043 4.05411 22.5083 4.04216 22.5083C3.87487 22.5083 3.71156 22.3729 3.62394 22.2295C3.59207 22.1777 3.57614 22.1299 3.55623 22.0781C3.58411 22.0662 3.61597 22.0542 3.64784 22.0502ZM7.60697 19.3338C7.60697 19.3497 7.61494 19.3497 7.60697 19.3338V19.3338ZM37.165 11.2841C37.5514 11.3598 37.9099 11.4753 38.2006 11.6545C38.7423 11.9612 38.7503 12.5666 38.5233 13.0924C38.5153 13.1083 38.5073 13.1282 38.4994 13.1442C38.0333 12.8654 37.5992 12.957 37.2208 12.1882C37.0575 11.8537 37.0695 11.5629 37.1611 11.2841H37.165ZM37.6629 22.4565C37.6629 22.4565 37.6669 22.4684 37.6709 22.4724C37.6709 22.4804 37.6669 22.4724 37.6629 22.4565ZM37.6589 22.4206C37.6589 22.4206 37.6589 22.4007 37.655 22.4047C37.6789 22.3888 37.7346 22.3848 37.7983 22.3928C37.7466 22.4087 37.6988 22.4167 37.6589 22.4206ZM38.0254 21.8551C38.2484 21.7515 38.5193 21.5484 38.9016 21.1023C38.9494 21.0465 38.9933 20.9987 39.0411 20.9469C39.1287 21.0465 39.1924 21.154 39.2123 21.2616C39.1406 21.5085 38.81 21.7993 38.4794 22.0263C38.3241 21.9506 38.1728 21.8909 38.0254 21.8511V21.8551ZM40.0169 17.406C39.3876 17.0077 38.5511 16.9838 38.575 16.2708C38.6029 15.526 39.3398 15.6296 39.4951 15.1516C40.2957 15.1596 41.0405 15.1237 40.5705 16.2987C40.4271 16.6811 40.224 17.0475 40.0129 17.406H40.0169Z"
        fill="black" />
</svg>
