<svg width="44" height="51" viewBox="0 0 44 51" fill="none" xmlns="http://www.w3.org/2000/svg">
    <path
        d="M43.4163 36.9798C42.9662 35.1874 42.2732 33.2597 41.6239 31.1885C41.6239 31.1885 41.2216 31.6505 39.9431 31.9731C38.6645 32.2958 37.3939 32.013 37.3939 32.013L37.2067 32.941C37.2067 39.5289 32.4152 43.8943 32.4152 43.8943V50.5779C40.3733 50.7969 45.8539 46.6267 43.4243 36.9798H43.4163Z"
        fill="black" />
    <path
        d="M7.29362 32.941L7.10642 32.013C7.10642 32.013 5.83583 32.2958 4.55728 31.9731C3.27872 31.6505 2.87644 31.1885 2.87644 31.1885C2.2272 33.2597 1.53416 35.1835 1.08407 36.9798C-1.34558 46.6267 4.13109 50.7969 12.0932 50.5779V43.8943C12.0932 43.8943 7.30159 39.5289 7.30159 32.941H7.29362Z"
        fill="black" />
    <path
        d="M21.5217 6.34462C23.2423 9.12079 28.723 17.1745 37.1909 22.3046L37.2188 22.2887L37.2029 23.5035C37.2029 23.5035 37.4936 22.8941 39.9432 22.9857C40.3574 23.0016 39.9073 22.1533 39.9073 21.7271C39.9073 15.7685 38.6845 11.0326 38.6845 11.0326C32.7737 -3.20271 22.2227 0.0434612 19.8289 1.00337C19.5222 1.12685 19.1996 1.18261 18.869 1.16269C17.4231 1.07507 12.7829 1.40964 7.25444 8.14096C2.44692 13.996 3.82903 18.6283 4.02022 23.5035C4.02022 23.5035 4.92835 22.7706 7.72842 22.9857L7.92359 18.3933L8.2024 18.4132L13.8145 18.8513C14.1212 18.8752 14.392 18.6522 14.4239 18.3495C14.635 16.4456 16.4234 8.48749 19.9006 5.99411C18.8929 7.67893 16.4911 12.367 17.7019 17.1546C17.7577 17.3816 17.9608 17.529 18.1839 17.529C18.2237 17.529 18.2635 17.525 18.3074 17.513C18.5742 17.4453 18.7335 17.1745 18.6698 16.9076C17.6701 12.9564 19.4266 8.94155 20.4622 7.04165C20.3745 9.20443 20.8366 15.0874 27.6954 19.4329C27.779 19.4846 27.8706 19.5085 27.9622 19.5085C28.1255 19.5085 28.2888 19.4249 28.3844 19.2775C28.5318 19.0465 28.4641 18.7358 28.2291 18.5924C20.51 13.7013 21.438 6.87038 21.5256 6.35258L21.5217 6.34462Z"
        fill="black" />
</svg>
