<svg width="50" height="52" viewBox="0 0 50 52" fill="none" xmlns="http://www.w3.org/2000/svg">
    <path
        d="M49.3796 14.8159C48.9319 13.3355 49.4321 11.7664 49.1537 10.2618C48.9238 8.99521 48.3551 7.80526 47.6774 6.72019C46.4511 4.75576 43.9664 3.86834 41.772 3.59405C40.2876 3.4085 38.7185 3.60615 37.3632 2.83974C36.3749 2.28309 35.3261 1.69416 34.2451 1.27466C31.5304 0.229922 28.4163 0.088742 25.5322 0.00403373L25.3467 0L25.1611 0.00403373C22.2811 0.088742 19.167 0.229922 16.4523 1.27466C15.3713 1.69013 14.3225 2.27905 13.3343 2.83974C11.9789 3.60615 10.4098 3.4085 8.92136 3.59405C6.73105 3.86431 4.24627 4.75173 3.02002 6.72019C2.34235 7.80526 1.77763 8.99521 1.54368 10.2618C1.26535 11.7664 1.76553 13.3355 1.31779 14.8159C1.21695 15.1507 0.793404 15.6468 0.958787 16.022C1.1282 16.4132 2.05999 16.6996 2.41093 16.9013C3.58474 17.5911 4.87553 18.0792 6.18246 18.4664C7.05778 18.7286 7.9694 19.2691 8.91733 19.136C9.32473 19.0795 9.63936 18.9141 9.69987 18.4946C9.88138 17.2119 10.3332 15.905 10.7527 14.6868C10.8656 14.356 11.035 13.7671 11.511 13.8074C11.8337 13.8357 12.0152 14.5295 11.9951 14.7836C11.9184 15.7477 11.6925 16.7037 11.6562 17.6717C11.6159 18.6882 11.9063 19.5152 12.229 20.455C12.592 21.4998 13.0358 22.5203 13.3504 23.5812C13.6852 24.7388 13.4835 25.9611 13.1447 27.0945C12.3299 29.7971 11.2246 32.2698 10.1436 34.8675C9.73617 35.8396 9.3812 36.8319 8.98186 37.8081C8.80064 38.2505 8.60695 38.6876 8.40101 39.1191C7.84032 40.2969 6.63827 41.1803 6.79155 42.6486C7.03358 44.9559 9.19565 46.2951 10.9907 47.4043C15.2543 50.0424 20.3368 51.2929 25.3507 51.2687C30.3687 51.2929 35.4512 50.0464 39.7188 47.4043C41.5098 46.2951 43.6759 44.9559 43.918 42.6486C44.0712 41.1843 42.8652 40.2969 42.3085 39.1191C42.1068 38.6915 41.9092 38.2478 41.7317 37.8081C41.3364 36.8319 40.9774 35.8396 40.57 34.8675C39.4849 32.2698 38.3797 29.7971 37.5689 27.0945C37.23 25.9611 37.0243 24.7388 37.3632 23.5812C37.6738 22.5163 38.1215 21.4998 38.4805 20.455C38.8072 19.5152 39.0936 18.6882 39.0573 17.6717C39.025 16.6996 38.7951 15.7477 38.7185 14.7836C38.7024 14.5335 38.8798 13.8357 39.1985 13.8074C39.6785 13.7711 39.8479 14.356 39.9609 14.6868C40.3804 15.909 40.8322 17.2159 41.0137 18.4946C41.0742 18.9141 41.3888 19.0795 41.7962 19.136C42.7482 19.2691 43.6517 18.7286 44.5311 18.4664C45.838 18.0792 47.1248 17.5911 48.3026 16.9013C48.6495 16.6996 49.5813 16.4132 49.7548 16.022C49.904 15.6468 49.4845 15.1507 49.3796 14.8159Z"
        fill="#FCC21B" />
    <path
        d="M21.2484 10.617C20.1996 11.0809 18.9936 11.0043 17.9327 10.613L17.8641 10.5888C17.2631 10.3589 16.6258 9.96356 16.1336 9.54406C14.5605 8.17662 14.4032 5.79269 15.0244 3.92911C15.1857 3.44103 15.7424 2.78353 16.3232 2.90454C16.4079 2.92471 16.4967 2.95698 16.5854 3.00135C17.1663 3.30388 17.6019 3.79196 18.1303 4.1671C19.05 4.82056 20.002 5.10696 21.0387 5.51033C21.7647 5.78866 22.511 6.01858 23.2653 6.17993C23.467 6.22027 23.6929 6.28884 23.8784 6.35741C24.1688 6.46632 24.185 6.78902 24.1971 7.05525C24.2334 7.73695 23.5234 8.60016 23.1241 9.10035C22.6199 9.72557 22.0027 10.2863 21.2484 10.617ZM34.2773 9.54002C33.7893 9.96356 33.1519 10.3548 32.5469 10.5848L32.4823 10.609C31.4255 11.0002 30.2154 11.0769 29.1666 10.613C28.4123 10.2822 27.7951 9.72557 27.2869 9.08824C26.8876 8.5921 26.1776 7.72485 26.2139 7.04315C26.2301 6.77692 26.2462 6.45422 26.5366 6.34531C26.7262 6.2727 26.9521 6.20816 27.1498 6.16783C27.9081 6.00648 28.6543 5.77656 29.3804 5.49823C30.4171 5.09889 31.369 4.80846 32.2887 4.155C32.8171 3.77986 33.2568 3.28775 33.8336 2.98925C33.9224 2.94488 34.0111 2.90858 34.0958 2.89244C34.6767 2.77143 35.2293 3.43296 35.3907 3.91701C36.0118 5.78866 35.8545 8.17259 34.2773 9.54002Z"
        fill="white" />
    <path
        d="M25.2213 43.2746C26.2639 43.2746 27.1091 42.4294 27.1091 41.3868C27.1091 40.3442 26.2639 39.499 25.2213 39.499C24.1787 39.499 23.3335 40.3442 23.3335 41.3868C23.3335 42.4294 24.1787 43.2746 25.2213 43.2746Z"
        fill="#F79329" />
    <path
        d="M25.2212 33.5737C26.2638 33.5737 27.109 32.7285 27.109 31.6859C27.109 30.6433 26.2638 29.7981 25.2212 29.7981C24.1786 29.7981 23.3334 30.6433 23.3334 31.6859C23.3334 32.7285 24.1786 33.5737 25.2212 33.5737Z"
        fill="#F79329" />
    <path
        d="M25.2213 23.8762C26.2639 23.8762 27.1091 23.031 27.1091 21.9884C27.1091 20.9458 26.2639 20.1006 25.2213 20.1006C24.1787 20.1006 23.3335 20.9458 23.3335 21.9884C23.3335 23.031 24.1787 23.8762 25.2213 23.8762Z"
        fill="#F79329" />
    <path
        d="M25.2212 14.173C26.2638 14.173 27.109 13.3278 27.109 12.2852C27.109 11.2427 26.2638 10.3975 25.2212 10.3975C24.1786 10.3975 23.3334 11.2427 23.3334 12.2852C23.3334 13.3278 24.1786 14.173 25.2212 14.173Z"
        fill="#F79329" />
</svg>
