<svg width="72" height="54" viewBox="0 0 72 54" fill="none" xmlns="http://www.w3.org/2000/svg">
    <path
        d="M12.5505 2.32706C14.1094 1.38867 15.6175 0.862262 16.0091 0.796143L17.9952 2.66529L15.6709 28.373C15.6709 28.0424 15.3326 27.3405 13.9823 27.1803C12.2937 26.982 7.16691 26.1682 3.69055 21.2016C1.36112 18.033 0.524454 14.3023 0.410016 11.5736C0.371871 10.5691 0.933885 9.65868 1.78326 9.11955C5.50884 6.75706 11.1748 3.1561 12.5505 2.32706Z"
        fill="url(#paint0_radial_4_7404)" />
    <path
        d="M12.5505 2.32706C14.1094 1.38867 15.6175 0.862262 16.0091 0.796143L17.9952 2.66529L15.6709 28.373C15.6709 28.0424 15.3326 27.3405 13.9823 27.1803C12.2937 26.982 7.16691 26.1682 3.69055 21.2016C1.36112 18.033 0.524454 14.3023 0.410016 11.5736C0.371871 10.5691 0.933885 9.65868 1.78326 9.11955C5.50884 6.75706 11.1748 3.1561 12.5505 2.32706Z"
        fill="url(#paint1_linear_4_7404)" />
    <path
        d="M12.5505 2.32706C14.1094 1.38867 15.6175 0.862262 16.0091 0.796143L17.9952 2.66529L15.6709 28.373C15.6709 28.0424 15.3326 27.3405 13.9823 27.1803C12.2937 26.982 7.16691 26.1682 3.69055 21.2016C1.36112 18.033 0.524454 14.3023 0.410016 11.5736C0.371871 10.5691 0.933885 9.65868 1.78326 9.11955C5.50884 6.75706 11.1748 3.1561 12.5505 2.32706Z"
        fill="url(#paint2_linear_4_7404)" />
    <g filter="url(#filter0_i_4_7404)">
        <path
            d="M58.9215 2.29679C57.3626 1.3584 55.8545 0.834532 55.4629 0.765869L53.4768 2.63501L55.8011 28.3453C55.8011 28.0121 56.1394 27.3102 57.4897 27.15C59.1783 26.9517 64.3051 26.1379 67.7814 21.1713C70.1109 18.0027 70.9475 14.272 71.062 11.5459C71.1027 10.5388 70.5381 9.62841 69.6887 9.08928C65.9632 6.72933 60.2972 3.12582 58.9215 2.29679Z"
            fill="url(#paint3_linear_4_7404)" />
    </g>
    <path
        d="M58.9214 2.29654C57.3625 1.35816 55.8545 0.834287 55.4629 0.765625L53.4767 2.63477L55.8011 28.345C55.8011 28.0119 56.1393 27.31 57.4897 27.1498C59.1783 26.9514 64.305 26.1377 67.7814 21.1711C70.1108 18.0024 70.9475 14.2718 71.0619 11.5456C71.1026 10.5386 70.5381 9.62816 69.6887 9.08904C65.9631 6.72908 60.2972 3.12558 58.9214 2.29654Z"
        fill="url(#paint4_radial_4_7404)" />
    <g filter="url(#filter1_i_4_7404)">
        <path
            d="M15.6503 0.932962L15.7571 48.6584C15.7622 49.9732 16.5988 51.1506 17.8678 51.5041C29.398 54.4362 42.3523 54.2379 53.8012 51.4914C55.0727 51.1481 55.9119 49.9732 55.9119 48.6584L56.0212 0.932962C55.505 0.635425 52.6517 0.23871 50.9936 0.635426C47.0595 1.71622 40.1679 2.93943 35.837 2.93943C31.5062 2.93943 24.612 1.71622 20.6804 0.635426C19.0198 0.23871 16.1665 0.635425 15.6503 0.932962Z"
            fill="url(#paint5_linear_4_7404)" />
    </g>
    <path
        d="M15.6492 0.932474L15.756 48.6579C15.7611 49.9727 16.5977 51.1501 17.8667 51.5036C29.3969 54.4358 42.3512 54.2374 53.8 51.4909C55.0716 51.1476 55.9108 49.9727 55.9108 48.6579L56.0201 0.932474C55.5039 0.634937 52.6506 0.238221 50.9925 0.634938C47.0584 1.71573 40.1667 2.93894 35.8359 2.93894C31.5051 2.93894 24.6109 1.71573 20.6793 0.634938C19.0187 0.238221 16.1654 0.634937 15.6492 0.932474Z"
        fill="url(#paint6_radial_4_7404)" />
    <path
        d="M15.6492 0.932474L15.756 48.6579C15.7611 49.9727 16.5977 51.1501 17.8667 51.5036C29.3969 54.4358 42.3512 54.2374 53.8 51.4909C55.0716 51.1476 55.9108 49.9727 55.9108 48.6579L56.0201 0.932474C55.5039 0.634937 52.6506 0.238221 50.9925 0.634938C47.0584 1.71573 40.1667 2.93894 35.8359 2.93894C31.5051 2.93894 24.6109 1.71573 20.6793 0.634938C19.0187 0.238221 16.1654 0.634937 15.6492 0.932474Z"
        fill="url(#paint7_radial_4_7404)" />
    <path
        d="M20.5426 0.60498L35.7958 16.789L50.248 0.833856C46.2376 1.85871 39.9054 2.9395 35.834 2.9395C31.5032 2.9395 24.6115 1.71629 20.6774 0.635497C20.6326 0.624628 20.5877 0.614454 20.5426 0.60498Z"
        fill="url(#paint8_radial_4_7404)" />
    <path
        d="M20.5426 0.60498L35.7958 16.789L50.248 0.833856C46.2376 1.85871 39.9054 2.9395 35.834 2.9395C31.5032 2.9395 24.6115 1.71629 20.6774 0.635497C20.6326 0.624628 20.5877 0.614454 20.5426 0.60498Z"
        fill="url(#paint9_radial_4_7404)" />
    <g filter="url(#filter2_ii_4_7404)">
        <path
            d="M31.808 14.3645C33.1049 15.8344 34.29 17.1797 35.2716 18.2732C35.3425 18.3525 35.4293 18.416 35.5263 18.4594C35.6234 18.5029 35.7285 18.5253 35.8349 18.5253C35.9412 18.5253 36.0464 18.5029 36.1435 18.4594C36.2405 18.416 36.3273 18.3525 36.3982 18.2732C37.3823 17.1797 38.5674 15.8319 39.8618 14.3645C44.1138 9.53527 49.5509 3.49807 52.8823 0.469291C51.8752 0.469291 50.9165 0.181927 50.2756 0.039516C50.0737 -0.0104297 49.8629 -0.0127675 49.6599 0.0326889C49.4569 0.0781454 49.2672 0.170152 49.1058 0.30145C46.4 2.61563 43.1703 6.30305 40.373 9.49967C38.6946 11.4197 37.1687 13.1617 36.0116 14.3137C35.9885 14.337 35.9609 14.3555 35.9306 14.3681C35.9003 14.3807 35.8678 14.3872 35.8349 14.3872C35.802 14.3872 35.7695 14.3807 35.7392 14.3681C35.7089 14.3555 35.6813 14.337 35.6582 14.3137C34.5011 13.1591 32.9778 11.4197 31.2968 9.49967C28.4995 6.30559 25.2698 2.61308 22.5614 0.30145C22.4004 0.170539 22.2111 0.0787556 22.0086 0.0333074C21.8061 -0.0121408 21.5958 -0.0100156 21.3942 0.039516C20.7533 0.181927 19.7946 0.471835 18.7876 0.471835C22.1215 3.49807 27.556 9.53527 31.808 14.3645Z"
            fill="url(#paint10_linear_4_7404)" />
    </g>
    <g filter="url(#filter3_f_4_7404)">
        <path
            d="M54.4309 2.08706C54.8022 2.07435 55.8626 2.24727 57.1341 3.04071C58.4057 3.83668 65.5313 8.40655 68.9339 10.591"
            stroke="#FF8EE2" stroke-width="0.206881" stroke-linecap="round" />
    </g>
    <g filter="url(#filter4_f_4_7404)">
        <path d="M26.1385 2.84229C29.1316 3.72981 37.2007 4.97082 45.5292 2.84229"
            stroke="url(#paint11_radial_4_7404)" stroke-width="0.103441" stroke-linecap="round" />
    </g>
    <defs>
        <filter id="filter0_i_4_7404" x="53.4768" y="0.558988" width="17.6907" height="27.7862"
            filterUnits="userSpaceOnUse" color-interpolation-filters="sRGB">
            <feFlood flood-opacity="0" result="BackgroundImageFix" />
            <feBlend mode="normal" in="SourceGraphic" in2="BackgroundImageFix" result="shape" />
            <feColorMatrix in="SourceAlpha" type="matrix"
                values="0 0 0 0 0 0 0 0 0 0 0 0 0 0 0 0 0 0 127 0" result="hardAlpha" />
            <feOffset dx="0.103441" dy="-0.206881" />
            <feGaussianBlur stdDeviation="0.206881" />
            <feComposite in2="hardAlpha" operator="arithmetic" k2="-1" k3="1" />
            <feColorMatrix type="matrix"
                values="0 0 0 0 0.960784 0 0 0 0 0.305882 0 0 0 0 0.764706 0 0 0 1 0" />
            <feBlend mode="normal" in2="shape" result="effect1_innerShadow_4_7404" />
        </filter>
        <filter id="filter1_i_4_7404" x="15.6503" y="0.261625" width="40.5778" height="53.3663"
            filterUnits="userSpaceOnUse" color-interpolation-filters="sRGB">
            <feFlood flood-opacity="0" result="BackgroundImageFix" />
            <feBlend mode="normal" in="SourceGraphic" in2="BackgroundImageFix" result="shape" />
            <feColorMatrix in="SourceAlpha" type="matrix"
                values="0 0 0 0 0 0 0 0 0 0 0 0 0 0 0 0 0 0 127 0" result="hardAlpha" />
            <feOffset dx="0.206881" dy="-0.206881" />
            <feGaussianBlur stdDeviation="0.310322" />
            <feComposite in2="hardAlpha" operator="arithmetic" k2="-1" k3="1" />
            <feColorMatrix type="matrix"
                values="0 0 0 0 0.909804 0 0 0 0 0.223529 0 0 0 0 0.717647 0 0 0 1 0" />
            <feBlend mode="normal" in2="shape" result="effect1_innerShadow_4_7404" />
        </filter>
        <filter id="filter2_ii_4_7404" x="18.7462" y="-0.0411321" width="34.1774" height="18.6079"
            filterUnits="userSpaceOnUse" color-interpolation-filters="sRGB">
            <feFlood flood-opacity="0" result="BackgroundImageFix" />
            <feBlend mode="normal" in="SourceGraphic" in2="BackgroundImageFix" result="shape" />
            <feColorMatrix in="SourceAlpha" type="matrix"
                values="0 0 0 0 0 0 0 0 0 0 0 0 0 0 0 0 0 0 127 0" result="hardAlpha" />
            <feOffset dx="-0.0413762" dy="0.0413762" />
            <feGaussianBlur stdDeviation="0.0310322" />
            <feComposite in2="hardAlpha" operator="arithmetic" k2="-1" k3="1" />
            <feColorMatrix type="matrix"
                values="0 0 0 0 0.913725 0 0 0 0 0.411765 0 0 0 0 0.662745 0 0 0 1 0" />
            <feBlend mode="normal" in2="shape" result="effect1_innerShadow_4_7404" />
            <feColorMatrix in="SourceAlpha" type="matrix"
                values="0 0 0 0 0 0 0 0 0 0 0 0 0 0 0 0 0 0 127 0" result="hardAlpha" />
            <feOffset dx="0.0413762" dy="-0.0413762" />
            <feGaussianBlur stdDeviation="0.0310322" />
            <feComposite in2="hardAlpha" operator="arithmetic" k2="-1" k3="1" />
            <feColorMatrix type="matrix"
                values="0 0 0 0 0.898039 0 0 0 0 0.247059 0 0 0 0 0.615686 0 0 0 1 0" />
            <feBlend mode="normal" in2="effect1_innerShadow_4_7404"
                result="effect2_innerShadow_4_7404" />
        </filter>
        <filter id="filter3_f_4_7404" x="54.0171" y="1.67259" width="15.3306" height="9.33231"
            filterUnits="userSpaceOnUse" color-interpolation-filters="sRGB">
            <feFlood flood-opacity="0" result="BackgroundImageFix" />
            <feBlend mode="normal" in="SourceGraphic" in2="BackgroundImageFix" result="shape" />
            <feGaussianBlur stdDeviation="0.155161" result="effect1_foregroundBlur_4_7404" />
        </filter>
        <filter id="filter4_f_4_7404" x="25.9833" y="2.68709" width="19.7011" height="1.48593"
            filterUnits="userSpaceOnUse" color-interpolation-filters="sRGB">
            <feFlood flood-opacity="0" result="BackgroundImageFix" />
            <feBlend mode="normal" in="SourceGraphic" in2="BackgroundImageFix" result="shape" />
            <feGaussianBlur stdDeviation="0.0517203" result="effect1_foregroundBlur_4_7404" />
        </filter>
        <radialGradient id="paint0_radial_4_7404" cx="0" cy="0" r="1" gradientUnits="userSpaceOnUse"
            gradientTransform="translate(18.8166 10.4038) rotate(141.499) scale(20.0896 26.1891)">
            <stop offset="0.335" stop-color="#F96ACF" />
            <stop offset="1" stop-color="#E44CBA" />
        </radialGradient>
        <linearGradient id="paint1_linear_4_7404" x1="17.1306" y1="30.1506" x2="10.2059" y2="27.811"
            gradientUnits="userSpaceOnUse">
            <stop stop-color="#DE47B0" />
            <stop offset="1" stop-color="#DE47B0" stop-opacity="0" />
        </linearGradient>
        <linearGradient id="paint2_linear_4_7404" x1="5.0816" y1="5.90259" x2="7.38561" y2="8.76353"
            gradientUnits="userSpaceOnUse">
            <stop offset="0.082" stop-color="#E665B5" />
            <stop offset="1" stop-color="#E665B5" stop-opacity="0" />
        </linearGradient>
        <linearGradient id="paint3_linear_4_7404" x1="56.6581" y1="2.48497" x2="63.7304"
            y2="25.8505" gradientUnits="userSpaceOnUse">
            <stop offset="0.457" stop-color="#FF6ED9" />
            <stop offset="1" stop-color="#FA5BCA" />
        </linearGradient>
        <radialGradient id="paint4_radial_4_7404" cx="0" cy="0" r="1" gradientUnits="userSpaceOnUse"
            gradientTransform="translate(56.3402 11.6245) rotate(90) scale(11.0464 1.82782)">
            <stop stop-color="#FF81D9" />
            <stop offset="1" stop-color="#FF81D9" stop-opacity="0" />
        </radialGradient>
        <linearGradient id="paint5_linear_4_7404" x1="35.837" y1="16.2345" x2="35.837" y2="53.6275"
            gradientUnits="userSpaceOnUse">
            <stop stop-color="#F972CA" />
            <stop offset="1" stop-color="#F949C4" />
        </linearGradient>
        <radialGradient id="paint6_radial_4_7404" cx="0" cy="0" r="1" gradientUnits="userSpaceOnUse"
            gradientTransform="translate(14.8557 3.35855) rotate(90) scale(28.6093 13.7649)">
            <stop offset="0.355" stop-color="#F76AC8" />
            <stop offset="1" stop-color="#F360C4" stop-opacity="0" />
        </radialGradient>
        <radialGradient id="paint7_radial_4_7404" cx="0" cy="0" r="1" gradientUnits="userSpaceOnUse"
            gradientTransform="translate(56.0201 15.3592) rotate(90) scale(26.1459 3.57663)">
            <stop offset="0.077" stop-color="#FF83DA" />
            <stop offset="1" stop-color="#FF83DA" stop-opacity="0" />
        </radialGradient>
        <radialGradient id="paint8_radial_4_7404" cx="0" cy="0" r="1" gradientUnits="userSpaceOnUse"
            gradientTransform="translate(35.3966 2.00875) rotate(90) scale(13.8278 21.6694)">
            <stop offset="0.247" stop-color="#CE59A3" />
            <stop offset="1" stop-color="#B8387F" />
        </radialGradient>
        <radialGradient id="paint9_radial_4_7404" cx="0" cy="0" r="1" gradientUnits="userSpaceOnUse"
            gradientTransform="translate(44.1812 8.69533) rotate(146.867) scale(14.8046 4.46013)">
            <stop stop-color="#BA3A82" />
            <stop offset="1" stop-color="#BA3A82" stop-opacity="0" />
        </radialGradient>
        <linearGradient id="paint10_linear_4_7404" x1="51.1733" y1="1.2144" x2="33.611" y2="17.3475"
            gradientUnits="userSpaceOnUse">
            <stop stop-color="#DD53A4" />
            <stop offset="1" stop-color="#E24B9B" />
        </linearGradient>
        <radialGradient id="paint11_radial_4_7404" cx="0" cy="0" r="1"
            gradientUnits="userSpaceOnUse"
            gradientTransform="translate(35.8351 3.42973) rotate(90) scale(2.35243 12.7947)">
            <stop stop-color="#D463A8" />
            <stop offset="1" stop-color="#D463A8" stop-opacity="0" />
        </radialGradient>
    </defs>
</svg>
