<svg width="61" height="55" viewBox="0 0 61 55" fill="none" xmlns="http://www.w3.org/2000/svg">
    <path
        d="M59.4086 18.9591C58.1864 16.6731 52.9809 8.25124 47.7507 5.11903C46.4641 4.35206 42.8915 3.36242 41.2982 2.92698C39.1952 2.1897 38.4975 2.29361 37.8147 2.61524C35.2119 3.84734 33.4652 4.43618 30.7981 4.43618C30.7239 4.43618 30.6546 4.43123 30.5854 4.43123C30.5161 4.43618 30.4468 4.43618 30.3726 4.43618C27.7055 4.43618 25.9588 3.84734 23.356 2.61524C22.6732 2.29361 21.9755 2.1897 19.8725 2.92698C18.2792 3.36242 14.7066 4.35206 13.4201 5.11903C8.18981 8.24629 2.98431 16.6731 1.7621 18.9591C1.58891 19.2758 1.37119 19.5579 1.49985 19.8894C2.10353 21.4283 4.28568 23.4422 9.00132 26.233C9.33284 26.4309 9.74354 26.4557 10.0454 26.2182C11.2824 25.2434 14.2909 21.5421 14.2909 21.5421C14.2909 21.5421 16.4335 30.2608 15.5329 37.7969C14.6274 45.333 13.0786 51.1917 13.0786 51.1917C13.0341 51.5628 13.2271 51.924 13.5735 52.0873C15.0629 52.8048 22.2476 54.4229 30.5903 54.4377C38.933 54.4278 46.1178 52.8048 47.6072 52.0873C47.9535 51.924 48.1465 51.5579 48.102 51.1917C48.102 51.1917 46.5482 45.338 45.6477 37.7969C44.7422 30.2608 46.8897 21.5421 46.8897 21.5421C46.8897 21.5421 49.8982 25.2434 51.1352 26.2182C51.4371 26.4557 51.8478 26.4309 52.1793 26.233C56.8949 23.4472 59.082 21.4332 59.6808 19.8894C59.8045 19.5529 59.5818 19.2758 59.4086 18.9591Z"
        fill="#CFB0EA" />
    <path
        d="M39.6787 0.745584C39.3224 0.409107 38.4961 -0.278692 37.076 0.122112C35.5371 0.552605 33.2015 0.864341 30.5344 0.874238C27.8723 0.864341 25.5368 0.557553 23.9979 0.122112C22.5827 -0.273744 21.7563 0.414055 21.3951 0.745584C20.8211 1.27999 19.0497 2.65559 19.0497 3.19494C19.0497 5.08021 19.9997 10.8003 25.2795 11.7207C27.8921 12.1759 29.5448 9.96903 30.2079 8.84084C30.2821 8.71713 30.4058 8.65281 30.5344 8.64786C30.6631 8.65776 30.7868 8.71713 30.861 8.84084C31.5241 9.97398 33.1768 12.1759 35.7894 11.7207C41.0692 10.8053 42.0242 5.08516 42.0242 3.19989C42.0242 2.65559 40.2527 1.27999 39.6787 0.745584Z"
        fill="#EEEEEE" />
    <path
        d="M19.1068 3.19977C19.3295 4.68918 19.7649 6.13405 20.4972 7.38595C21.1949 8.64774 22.1796 9.7017 23.382 10.3054C23.9808 10.6122 24.6339 10.8002 25.297 10.919C25.9304 11.0328 26.5093 10.9635 27.0586 10.726C27.6078 10.4934 28.1175 10.1075 28.5579 9.61759C28.7805 9.37512 28.9834 9.10792 29.1714 8.83082C29.2654 8.69227 29.3545 8.54878 29.4386 8.40033L29.5079 8.27662C29.592 8.12818 29.7157 7.99458 29.8642 7.89066C30.1203 7.71261 30.4349 7.63953 30.7433 7.68648C31.0517 7.73342 31.3303 7.89682 31.5218 8.14302L31.596 8.24693L31.6158 8.27662L31.7643 8.51414C31.8583 8.66753 31.9573 8.81598 32.0513 8.95948C32.2443 9.24647 32.4471 9.51367 32.6649 9.75614C33.1003 10.2411 33.605 10.6023 34.1543 10.815C34.7035 11.0328 35.322 11.0773 35.9604 10.9783C36.6135 10.8645 37.2865 10.6765 37.8803 10.3796C39.0876 9.79077 40.0525 8.73681 40.6809 7.44533C41.0125 6.80701 41.2698 6.11426 41.4677 5.39677C41.6607 4.67928 41.8042 3.942 41.9675 3.19482L42.0664 3.20472C41.9477 4.70402 41.7498 6.23302 41.1708 7.64325C40.6117 9.05349 39.6171 10.3252 38.2662 11.0625C37.6032 11.4435 36.8708 11.6859 36.1187 11.8344C35.3666 11.9779 34.5699 11.9581 33.8425 11.6958C33.1102 11.4435 32.4719 10.9684 31.9523 10.4093C31.6901 10.1273 31.4575 9.82541 31.2398 9.51367C31.1309 9.35533 31.027 9.19699 30.9231 9.03865L30.7697 8.80113C30.7542 8.77043 30.7326 8.74319 30.7062 8.72108C30.6798 8.69896 30.6493 8.68243 30.6163 8.67248C30.5843 8.66447 30.551 8.66342 30.5185 8.66939C30.4861 8.67537 30.4553 8.68823 30.4283 8.70712C30.4035 8.72691 30.3788 8.75165 30.359 8.77639L30.2897 8.9001C30.1908 9.06339 30.0918 9.22668 29.9829 9.38502C29.7652 9.69676 29.5277 10.0035 29.2655 10.2806C28.7459 10.8398 28.1224 11.3198 27.4 11.6018C26.6825 11.8888 25.8759 11.9432 25.1288 11.7799C24.3816 11.6315 23.6492 11.3791 22.9862 10.9932C21.6452 10.2361 20.6506 8.98916 20.0123 7.61357C19.376 6.22888 19.0307 4.72828 18.9979 3.20472H19.1068V3.19977Z"
        fill="#B881CF" />
    <path
        d="M39.6806 0.745044C39.2996 0.438255 38.498 -0.279233 37.0779 0.121571C35.539 0.552064 33.2035 0.863801 30.5364 0.873697C27.8742 0.863801 25.5387 0.557013 23.9998 0.121571C22.5846 -0.274285 21.7583 0.413514 21.3971 0.745044C20.8429 1.2646 19.1654 2.57093 19.0615 3.14492C19.3238 3.20925 21.1793 1.38831 21.8078 1.44274C22.2927 1.48233 22.9656 3.07565 24.1285 3.47645C25.2913 3.87725 36.8849 3.65458 36.8849 3.65458C36.8849 3.65458 37.9785 2.7936 38.5722 1.97715C38.9285 1.48727 39.2452 1.30419 39.7549 1.55655C40.2546 1.80891 41.9469 3.47645 42.0162 3.15976C41.9519 2.60062 40.3536 1.2844 39.6806 0.745044Z"
        fill="#B7D5E5" />
    <path
        d="M9.51147 26.8433C6.20113 24.8492 3.44498 22.5928 1.01047 20.2276C0.953256 20.1729 0.916987 20.0999 0.907949 20.0213C0.898911 19.9426 0.917674 19.8633 0.960985 19.7971L1.59435 18.8124C1.62086 18.7698 1.65656 18.7336 1.69885 18.7066C1.74115 18.6795 1.78895 18.6623 1.83877 18.6561C1.88859 18.6499 1.93915 18.655 1.98676 18.6709C2.03437 18.6868 2.07782 18.7132 2.11392 18.7481C4.43957 20.9797 7.60642 23.434 10.7386 25.3341C10.9217 25.4479 10.9563 25.7003 10.8079 25.8586L9.93702 26.7889C9.83311 26.9027 9.65002 26.9274 9.51147 26.8433ZM51.68 26.8433C54.9904 24.8492 57.7515 22.5928 60.186 20.2276C60.3047 20.1138 60.3245 19.9307 60.2355 19.7971L59.6021 18.8124C59.5756 18.7698 59.5399 18.7336 59.4976 18.7066C59.4553 18.6795 59.4075 18.6623 59.3577 18.6561C59.3079 18.6499 59.2573 18.655 59.2097 18.6709C59.1621 18.6868 59.1186 18.7132 59.0825 18.7481C56.7569 20.9797 53.59 23.434 50.4578 25.3341C50.4147 25.3607 50.3781 25.3966 50.3506 25.4391C50.323 25.4816 50.3053 25.5297 50.2987 25.5799C50.2921 25.6301 50.2967 25.6812 50.3122 25.7294C50.3278 25.7776 50.3538 25.8217 50.3885 25.8586L51.2594 26.7889C51.3584 26.9027 51.5415 26.9274 51.68 26.8433Z"
        fill="#B881CF" />
    <path
        d="M37.1685 0.997637C36.3273 1.20051 33.586 1.95759 30.6963 1.95759H30.4885C27.5987 1.95759 24.8525 1.20546 24.0162 0.997637C23.175 0.794761 22.8484 1.00258 23.0117 1.67554C23.7193 3.48658 25.8322 6.12892 30.5973 6.13387C35.3624 6.12892 37.4753 3.48658 38.1829 1.67554C38.3363 0.997637 38.0097 0.794761 37.1685 0.997637Z"
        fill="url(#paint0_linear_4_7434)" />
    <defs>
        <linearGradient id="paint0_linear_4_7434" x1="30.5889" y1="0.827914" x2="30.5889"
            y2="7.50452" gradientUnits="userSpaceOnUse">
            <stop offset="0.181" stop-color="#B881CF" />
            <stop offset="1" stop-color="#754CA5" />
        </linearGradient>
    </defs>
</svg>
