<svg width="71" height="57" viewBox="0 0 71 57" fill="none" xmlns="http://www.w3.org/2000/svg">
    <path
        d="M10.6812 1.05151L1.6469 11.0772C1.6469 11.0772 3.32238 14.7344 10.638 17.3581L15.0285 19.0336"
        fill="#8967AA" />
    <path
        d="M10.6812 1.05151L1.6469 11.0772C1.6469 11.0772 3.32238 14.7344 10.638 17.3581L15.0285 19.0336"
        stroke="#8967AA" stroke-width="0.920991" stroke-miterlimit="10" />
    <path d="M10.6823 1.05151L1.06404 10.6698C1.06404 10.6698 3.32354 14.7344 10.6391 17.3581"
        fill="#8967AA" />
    <path
        d="M60.2866 1.05151L69.2493 11.1266C69.2493 11.1266 67.6454 14.7344 60.3298 17.3581L56.1566 18.9657"
        fill="#8967AA" />
    <path
        d="M60.2866 1.05151L69.2493 11.1266C69.2493 11.1266 67.6454 14.7344 60.3298 17.3581L56.1566 18.9657"
        stroke="#8967AA" stroke-width="0.920991" stroke-miterlimit="10" />
    <path d="M60.2858 1.05151L69.9041 10.6698C69.9041 10.6698 67.6446 14.7344 60.3291 17.3581"
        fill="#8967AA" />
    <path
        d="M26.8159 1.00024C26.8159 2.79549 30.7818 4.2512 35.6749 4.2512C40.568 4.2512 44.5338 2.79549 44.5338 1.00024H48.1589L44.5338 17.8168L34.4649 24.3891L23.5909 13.2793L21.5734 1.0521L26.8159 1.00024Z"
        fill="#B399C8" />
    <path
        d="M35.3325 55.2769H10.6386C10.6386 55.2769 15.4638 46.3118 15.4638 28.1642C15.4638 10.0166 10.6386 1.05151 10.6386 1.05151H22.8497C22.8497 8.56093 29.438 9.20421 29.438 9.20421L35.3325 21.8043H35.635L41.5306 9.20421C41.5306 9.20421 48.119 8.56093 48.119 1.05151H60.3301C60.3301 1.05151 55.5037 10.0179 55.5037 28.1654C55.5037 46.313 60.3289 55.2769 60.3289 55.2769H35.635"
        fill="#8967AA" />
    <path
        d="M60.2875 1.35571L69.9057 10.974C69.9057 10.974 67.6462 15.0386 60.3307 17.6623M10.6823 1.35571L1.06404 10.974C1.06404 10.974 3.32354 15.0386 10.6391 17.6623"
        stroke="black" stroke-width="0.965199" stroke-linecap="round" stroke-linejoin="round" />
    <path
        d="M35.3322 55.5811H10.6382C10.6382 55.5811 15.4634 46.616 15.4634 28.4696C15.4634 10.3233 10.6382 1.35571 10.6382 1.35571H22.8494C22.8494 8.86513 29.4377 9.50841 29.4377 9.50841L35.3322 22.1085H35.6347L41.5303 9.50841C41.5303 9.50841 48.1187 8.86513 48.1187 1.35571H60.3298C60.3298 1.35571 55.5021 10.3221 55.5021 28.4696C55.5021 46.6172 60.3273 55.5811 60.3273 55.5811H35.6334"
        stroke="black" stroke-width="0.965199" stroke-linecap="round" stroke-linejoin="round" />
    <path
        d="M44.4956 1.30737C44.4956 3.00755 40.5285 4.3867 35.6366 4.3867C30.7447 4.3867 26.7764 3.00755 26.7764 1.30737"
        stroke="black" stroke-width="0.920991" stroke-linecap="round" stroke-linejoin="round" />
</svg>
