<svg width="52" height="52" viewBox="0 0 52 52" fill="none" xmlns="http://www.w3.org/2000/svg">
    <path
        d="M1.38064 19.5511L0.488281 9.1673C0.488281 9.1673 7.54605 6.24684 9.97976 5.84122C13.8737 5.19223 21.3371 4.21875 25.9611 4.21875C30.5852 4.21875 37.9675 5.19223 41.9425 5.84122C44.4574 6.24684 51.434 9.1673 51.434 9.1673L50.5416 19.5511L40.7257 20.2812C40.5634 31.3952 42.267 45.024 42.8349 49.5669C42.8349 49.5669 35.6149 49.8914 25.9611 49.9725C16.3074 49.8914 9.0874 49.5669 9.0874 49.5669C9.65526 45.024 11.3589 31.3952 11.1966 20.2812L1.38064 19.5511Z"
        fill="#FF99B6" />
    <path d="M25.961 10.0583H26.9345V49.9712H25.961V10.0583Z" fill="#FF78A5" />
    <path d="M21.337 4.54272H30.6662V10.2214H21.337V4.54272Z" fill="#FF78A5" />
    <path d="M17.686 0H34.2353V5.35417H17.686V0Z" fill="#FF99B6" />
    <path d="M34.2356 0L37.3994 5.02967L31.3962 14.3589L25.9609 10.2216L34.2356 0Z"
        fill="#FFD2DF" />
    <path d="M17.6853 0L14.5215 5.02967L20.5246 14.3589L25.9599 10.2216L17.6853 0Z"
        fill="#FFD2DF" />
    <path
        d="M23.4452 18.6569C24.61 18.6569 25.5544 17.7126 25.5544 16.5477C25.5544 15.3828 24.61 14.4385 23.4452 14.4385C22.2803 14.4385 21.3359 15.3828 21.3359 16.5477C21.3359 17.7126 22.2803 18.6569 23.4452 18.6569Z"
        fill="#FF78A5" />
    <path
        d="M23.4456 18.1702C24.5657 18.1702 25.4737 17.3348 25.4737 16.3043C25.4737 15.2738 24.5657 14.4385 23.4456 14.4385C22.3255 14.4385 21.4175 15.2738 21.4175 16.3043C21.4175 17.3348 22.3255 18.1702 23.4456 18.1702Z"
        fill="#FFF3F7" />
    <path
        d="M23.4452 25.5524C24.61 25.5524 25.5544 24.6081 25.5544 23.4432C25.5544 22.2783 24.61 21.334 23.4452 21.334C22.2803 21.334 21.3359 22.2783 21.3359 23.4432C21.3359 24.6081 22.2803 25.5524 23.4452 25.5524Z"
        fill="#FF78A5" />
    <path
        d="M23.4456 25.0657C24.5657 25.0657 25.4737 24.2303 25.4737 23.1998C25.4737 22.1694 24.5657 21.334 23.4456 21.334C22.3255 21.334 21.4175 22.1694 21.4175 23.1998C21.4175 24.2303 22.3255 25.0657 23.4456 25.0657Z"
        fill="#FFF3F7" />
    <path
        d="M23.4452 32.4506C24.61 32.4506 25.5544 31.5063 25.5544 30.3414C25.5544 29.1765 24.61 28.2322 23.4452 28.2322C22.2803 28.2322 21.3359 29.1765 21.3359 30.3414C21.3359 31.5063 22.2803 32.4506 23.4452 32.4506Z"
        fill="#FF78A5" />
    <path
        d="M23.4455 31.9639C24.5656 31.9639 25.4736 31.1285 25.4736 30.098C25.4736 29.0675 24.5656 28.2322 23.4455 28.2322C22.3254 28.2322 21.4174 29.0675 21.4174 30.098C21.4174 31.1285 22.3254 31.9639 23.4455 31.9639Z"
        fill="#FFF3F7" />
    <path
        d="M23.4452 39.3442C24.61 39.3442 25.5544 38.3998 25.5544 37.235C25.5544 36.0701 24.61 35.1257 23.4452 35.1257C22.2803 35.1257 21.3359 36.0701 21.3359 37.235C21.3359 38.3998 22.2803 39.3442 23.4452 39.3442Z"
        fill="#FF78A5" />
    <path
        d="M23.4455 38.8574C24.5656 38.8574 25.4736 38.0221 25.4736 36.9916C25.4736 35.9611 24.5656 35.1257 23.4455 35.1257C22.3254 35.1257 21.4174 35.9611 21.4174 36.9916C21.4174 38.0221 22.3254 38.8574 23.4455 38.8574Z"
        fill="#FFF3F7" />
    <path
        d="M23.4452 46.2421C24.61 46.2421 25.5544 45.2978 25.5544 44.1329C25.5544 42.968 24.61 42.0237 23.4452 42.0237C22.2803 42.0237 21.3359 42.968 21.3359 44.1329C21.3359 45.2978 22.2803 46.2421 23.4452 46.2421Z"
        fill="#FF78A5" />
    <path
        d="M23.4455 45.7554C24.5656 45.7554 25.4736 44.92 25.4736 43.8895C25.4736 42.859 24.5656 42.0237 23.4455 42.0237C22.3254 42.0237 21.4174 42.859 21.4174 43.8895C21.4174 44.92 22.3254 45.7554 23.4455 45.7554Z"
        fill="#FFF3F7" />
    <path
        d="M51.9207 9.00467L49.2436 8.1123L48.2701 19.9564L51.1094 19.713L51.9207 9.00467ZM0.00146484 9.00467L2.67855 8.1123L3.65203 19.9564L0.812702 19.713L0.00146484 9.00467ZM25.9611 47.9441C34.6413 47.7818 41.5368 46.6461 42.6726 45.916C42.7537 47.4573 42.7537 48.7553 42.8348 49.8099C42.8348 49.8099 35.6148 51.838 25.9611 52.0002C16.3073 51.838 9.08732 49.8099 9.08732 49.8099C9.16845 48.8364 9.24957 47.4573 9.24957 45.916C10.3853 46.565 17.2808 47.7818 25.9611 47.9441Z"
        fill="#FFD2DF" />
    <path d="M25.9614 47.9434H26.9349V51.9184H25.9614V47.9434Z" fill="#FF99B6" />
</svg>
