<svg width="19" height="19" viewBox="0 0 19 19" fill="none" xmlns="http://www.w3.org/2000/svg">
    <path
        d="M11.7761 0.50009C10.7302 0.490441 9.7683 1.26062 9.39873 2.30059C9.02617 1.25155 8.05053 0.478137 6.99391 0.501261C6.41511 0.513956 5.81218 0.765473 5.27016 1.34233C4.83079 1.80982 4.58591 2.42754 4.33524 3.05127C3.76065 3.92976 2.99201 4.58522 1.87771 4.84318C2.14584 5.09215 2.43812 5.22168 2.74556 5.27531C2.20192 5.58109 1.45914 5.75007 0.398193 5.6964C1.18453 6.72477 2.41471 7.07456 3.70319 7.04527C6.02895 6.95386 7.20616 5.7435 7.89528 4.51115L8.51651 4.87247C7.73558 6.26908 6.25074 7.66587 3.64099 7.76669C3.64091 7.77607 3.64099 7.78544 3.64099 7.79482C3.64099 8.0318 3.69155 8.31824 3.78218 8.6419L3.7726 8.62362L4.90262 13.1108L5.07978 11.602C5.73461 12.8309 6.52275 14.1329 7.24527 15.2726L7.30748 13.4708C7.5308 14.9752 8.09964 16.339 8.80377 17.6492C9.16143 18.1768 9.38793 18.5 9.38793 18.5C9.38793 18.5 9.65427 18.1214 10.0726 17.5015C10.0753 17.4976 10.0785 17.4932 10.0811 17.4893C10.8763 16.2074 11.5388 14.8622 11.8599 13.3524L11.8192 14.8148C12.177 14.2419 12.544 13.6395 12.8977 13.0314V14.1434L14.4503 10.0762C14.8287 9.23302 15.0828 8.49175 15.1267 7.95348C12.6095 7.64423 10.8669 6.31837 10.0583 4.87251L10.6796 4.51119C11.4343 5.86084 13.2285 7.2037 15.9777 7.28698C16.5556 7.27526 17.1233 7.14546 17.7242 6.84508C17.1564 6.84969 16.6716 6.80289 16.2483 6.71082C17.1423 6.5102 17.9175 6.05479 18.3982 5.22766C14.4703 6.05811 14.9376 2.84413 13.5262 1.34229C12.9757 0.756606 12.3629 0.505441 11.7761 0.500051L11.7761 0.50009Z"
        fill="black" />
</svg>
