<svg width="23" height="11" viewBox="0 0 23 11" fill="none" xmlns="http://www.w3.org/2000/svg">
    <path
        d="M18.7349 2.37993C20.4379 3.14793 21.9059 4.30093 22.6979 5.93393C22.7804 6.10396 22.813 6.29388 22.792 6.48167C22.7709 6.66947 22.6971 6.84746 22.579 6.99502C22.461 7.14259 22.3035 7.25368 22.1249 7.31543C21.9463 7.37718 21.7539 7.38706 21.5699 7.34393C15.6129 5.94793 9.58692 8.34793 6.40992 9.65793C4.41592 10.4799 2.47992 9.80893 1.47892 8.45693C0.958728 7.7677 0.723494 6.90481 0.821924 6.04693C1.16192 3.24193 4.68792 2.04193 7.01392 1.51393C10.7949 0.656933 15.1619 0.765933 18.7349 2.37893V2.37993Z"
        fill="black" />
</svg>
