<svg width="23" height="15" viewBox="0 0 23 15" fill="none" xmlns="http://www.w3.org/2000/svg">
    <path
        d="M11.6 4.5C12.3956 4.5 13.1587 4.81607 13.7213 5.37868C14.2839 5.94129 14.6 6.70435 14.6 7.5C14.6 8.29565 14.2839 9.05871 13.7213 9.62132C13.1587 10.1839 12.3956 10.5 11.6 10.5C10.8043 10.5 10.0413 10.1839 9.47865 9.62132C8.91605 9.05871 8.59998 8.29565 8.59998 7.5C8.59998 6.70435 8.91605 5.94129 9.47865 5.37868C10.0413 4.81607 10.8043 4.5 11.6 4.5ZM11.6 0C16.6 0 20.87 3.11 22.6 7.5C20.87 11.89 16.6 15 11.6 15C6.59998 15 2.32998 11.89 0.599976 7.5C2.32998 3.11 6.59998 0 11.6 0ZM2.77998 7.5C3.58823 9.15031 4.84328 10.5407 6.40245 11.5133C7.96163 12.4858 9.76237 13.0013 11.6 13.0013C13.4376 13.0013 15.2383 12.4858 16.7975 11.5133C18.3567 10.5407 19.6117 9.15031 20.42 7.5C19.6117 5.84969 18.3567 4.45925 16.7975 3.48675C15.2383 2.51424 13.4376 1.99868 11.6 1.99868C9.76237 1.99868 7.96163 2.51424 6.40245 3.48675C4.84328 4.45925 3.58823 5.84969 2.77998 7.5Z"
        fill="black" />
</svg>
