<svg width="21" height="21" viewBox="0 0 21 21" fill="none" xmlns="http://www.w3.org/2000/svg">
    <path
        d="M10.5 0C4.704 0 0 4.704 0 10.5C0 16.296 4.704 21 10.5 21C16.296 21 21 16.296 21 10.5C21 4.704 16.296 0 10.5 0ZM10.5 18.9C5.8695 18.9 2.1 15.1305 2.1 10.5H4.851L6.951 6.3H14.049L16.149 10.5H18.9C18.9 15.1305 15.1305 18.9 10.5 18.9Z"
        fill="black" />
    <path
        d="M7.3504 12.8616C8.07528 12.8616 8.6629 12.2739 8.6629 11.5491C8.6629 10.8242 8.07528 10.2366 7.3504 10.2366C6.62553 10.2366 6.0379 10.8242 6.0379 11.5491C6.0379 12.2739 6.62553 12.8616 7.3504 12.8616Z"
        fill="black" />
    <path
        d="M13.6496 12.8616C14.3745 12.8616 14.9621 12.2739 14.9621 11.5491C14.9621 10.8242 14.3745 10.2366 13.6496 10.2366C12.9247 10.2366 12.3371 10.8242 12.3371 11.5491C12.3371 12.2739 12.9247 12.8616 13.6496 12.8616Z"
        fill="black" />
</svg>
