<svg width="25" height="21" viewBox="0 0 25 21" fill="none" xmlns="http://www.w3.org/2000/svg">
    <path
        d="M1.14574 19.3342C1.14574 19.3342 0.520416 17.2994 0.784978 16.1935C0.784978 16.1935 -0.166376 13.8509 0.357403 12.4426C0.357403 12.4426 -0.553864 8.44659 2.78656 6.34644C3.04578 6.183 3.17939 5.8752 3.11793 5.57012C3.05647 5.26503 2.99767 4.86462 3.01104 4.5105C3.0244 4.12371 3.32904 3.82135 3.70852 3.78049C4.1254 3.73691 4.84426 3.57075 5.93725 3.03958C7.87469 2.10255 8.82872 0.628897 12.113 1.6994C12.113 1.6994 14.5101 -0.174664 16.3834 0.762369C18.2567 1.6994 16.6453 2.10255 18.9783 3.5081C21.3112 4.91365 21.4422 5.41757 22.0327 6.58887C22.6233 7.76016 23.8072 7.42511 24.2 8.66451C24.2 8.66451 23.1925 8.99955 23.417 9.53616C23.417 9.53616 23.6843 11.4456 23.8419 13.3878C23.9996 15.33 22.5939 19.3886 22.5939 19.3886L21.5784 19.4595C21.5784 19.4595 21.0787 18.2528 20.0606 17.55C20.0606 17.55 19.4726 13.6166 19.4726 12.0095C19.4726 12.0095 16.5999 9.0622 15.6699 8.05707C15.6699 8.05707 12.4417 9.6315 8.89285 8.12517C8.89285 8.12517 6.10026 10.0673 5.05003 10.4024C3.9998 10.7374 3.93299 13.0146 3.40654 13.4831C2.88009 13.9517 3.45999 16.4577 3.17138 17.5146C2.88276 18.5715 2.06235 20.5 2.06235 20.5L1.1404 19.3369L1.14574 19.3342Z"
        fill="black" />
</svg>
