<svg width="33" height="19" viewBox="0 0 33 19" fill="none" xmlns="http://www.w3.org/2000/svg">
    <path
        d="M10.2582 0C7.39353 2.65158 3.58822 5.15977 0.198181 5.91679C2.86418 6.90578 6.2695 7.20413 9.38446 6.54657C13.0165 8.70131 18.1192 8.76012 21.991 6.54657C25.0589 7.59863 28.5608 7.45303 32.1982 5.90626C28.1365 5.2456 23.6742 2.35826 21.6118 6.87381e-05C17.8271 2.72497 14.0427 2.21094 10.2582 6.87381e-05L10.2582 0ZM1.13988 7.84251C2.3216 9.87635 4.44481 13.2929 7.25988 16.8565C9.11736 19.2079 12.4836 18.995 16.1225 18.995C19.4841 18.995 23.0976 19.0436 24.8251 16.8566C27.3975 13.6001 29.5022 10.5194 30.8406 8.46596C22.3255 14.2796 9.24003 14.8745 1.13988 7.84265V7.84251Z"
        fill="black" />
</svg>
