<svg width="18" height="21" viewBox="0 0 18 21" fill="none" xmlns="http://www.w3.org/2000/svg">
    <path
        d="M4.26817 5.767C4.74317 3.596 6.99817 0.5 8.99817 0.5C10.9982 0.5 13.2532 3.596 13.7282 5.767C13.9782 6.907 14.3702 8.008 14.8922 9.053C15.9052 11.077 17.9982 12.543 17.9982 15C17.9982 15.9283 17.6294 16.8185 16.973 17.4749C16.3167 18.1313 15.4264 18.5 14.4982 18.5C13.9222 18.5 12.9782 18.128 12.4452 18.394C12.0502 18.592 11.7832 19.061 11.4882 19.374C10.9682 19.924 10.2242 20.5 8.99817 20.5C7.77217 20.5 7.02817 19.924 6.50817 19.373C6.21317 19.061 5.94617 18.592 5.55117 18.394C5.01817 18.128 4.07417 18.5 3.49817 18.5C2.56991 18.5 1.67967 18.1313 1.0233 17.4749C0.366918 16.8185 -0.00183105 15.9283 -0.00183105 15C-0.00183105 12.543 2.09117 11.078 3.10417 9.053C3.62702 8.01021 4.01803 6.90639 4.26817 5.767Z"
        fill="black" />
</svg>
