<svg width="30" height="21" viewBox="0 0 30 21" fill="none" xmlns="http://www.w3.org/2000/svg">
    <path
        d="M29.382 3.55147C29.4337 3.73059 29.3684 3.92824 29.2592 4.08265L25.7768 9.03618C25.6476 9.22765 25.3762 9.33265 25.1494 9.33265C25.0848 9.33265 24.9039 9.32029 24.8335 9.30176L22.0424 8.64706V20.3824C22.0424 20.7406 21.7775 21 21.3963 21H7.82831C7.44711 21 7.18222 20.7406 7.18222 20.3824V8.64706L4.67537 9.30794C4.38463 9.39441 4.13265 9.28323 3.97113 9.04235L0.514525 4.10118C0.404689 3.94059 0.372384 3.76147 0.424072 3.58235C0.469298 3.39706 0.604978 3.27353 0.779424 3.18706L7.82831 0H11.0588C11.44 0 11.7049 0.253235 11.7049 0.617647C11.7049 1.89 13.5721 2.79176 14.903 2.79176C16.234 2.79176 18.1658 1.89618 18.1658 0.617647C18.1658 0.259412 18.4307 0 18.8119 0H22.0424L29.0202 3.12529C29.2011 3.21176 29.3303 3.36618 29.382 3.55147Z"
        fill="black" />
</svg>
