<svg width="37" height="30" viewBox="0 0 37 30" fill="none" xmlns="http://www.w3.org/2000/svg">
    <path
        d="M1.83192 27.4853C1.83192 27.4853 0.893936 24.5349 1.29078 22.9313C1.29078 22.9313 -0.136252 19.5346 0.649416 17.4926C0.649416 17.4926 -0.717484 11.6983 4.29315 8.65311C4.68198 8.41613 4.8824 7.96981 4.79021 7.52745C4.69801 7.08508 4.60982 6.50447 4.62987 5.99101C4.64991 5.43015 5.10688 4.99174 5.67609 4.93249C6.30141 4.8693 7.3797 4.62836 9.01918 3.85817C11.9254 2.49947 13.3564 0.362681 18.2828 1.91492C18.2828 1.91492 21.8785 -0.802482 24.6884 0.556217C27.4984 1.91492 25.0813 2.49947 28.5807 4.53752C32.0801 6.57557 32.2765 7.30626 33.1624 9.00464C34.0483 10.703 35.8241 10.2172 36.4133 12.0143C36.4133 12.0143 34.9021 12.5001 35.2388 13.2782C35.2388 13.2782 35.6397 16.047 35.8762 18.8631C36.1127 21.6792 34.0042 27.5643 34.0042 27.5643L32.481 27.667C32.481 27.667 31.7314 25.9173 30.2041 24.8983C30.2041 24.8983 29.3223 19.1949 29.3223 16.8646C29.3223 16.8646 25.0131 12.591 23.6182 11.1335C23.6182 11.1335 18.7759 13.4165 13.4526 11.2323C13.4526 11.2323 9.2637 14.0484 7.68836 14.5342C6.11301 15.02 6.0128 18.322 5.22313 19.0013C4.43345 19.6807 5.30329 23.3144 4.87038 24.8469C4.43746 26.3794 3.20684 29.1758 3.20684 29.1758L1.82391 27.4893L1.83192 27.4853Z"
        fill="black" />
</svg>
