<svg width="51" height="65" viewBox="0 0 51 65" fill="none" xmlns="http://www.w3.org/2000/svg">
    <path
        d="M24.4972 10.1688C26.2179 12.945 31.6986 20.9987 40.1665 26.1288L40.1944 26.1129L40.1784 27.3277C40.1784 27.3277 40.4692 26.7183 42.9188 26.8099C43.333 26.8259 42.8829 25.9775 42.8829 25.5513C42.8829 19.5927 41.6601 14.8569 41.6601 14.8569C35.7493 0.621509 25.1983 3.86768 22.8045 4.82759C22.4978 4.95106 22.1751 5.00683 21.8445 4.98691C20.3987 4.89929 15.7585 5.23386 10.23 11.9652C5.42251 17.8202 6.80462 22.4525 6.99581 27.3277C6.99581 27.3277 7.90394 26.5949 10.704 26.8099L10.8992 22.2175L11.178 22.2374L16.7901 22.6756C17.0968 22.6994 17.3676 22.4764 17.3995 22.1737C17.6106 20.2698 19.399 12.3117 22.8762 9.81833C21.8684 11.5031 19.4667 16.1912 20.6775 20.9748C20.7333 21.2018 20.9364 21.3492 21.1595 21.3492C21.1993 21.3492 21.2391 21.3452 21.2829 21.3333C21.5498 21.2656 21.7091 20.9947 21.6454 20.7278C20.6457 16.7767 22.4022 12.7578 23.4378 10.8619C23.3501 13.0247 23.8122 18.9076 30.6709 23.2531C30.7546 23.3049 30.8462 23.3288 30.9378 23.3288C31.1011 23.3288 31.2644 23.2451 31.36 23.0978C31.5074 22.8667 31.4397 22.5561 31.2047 22.4127C23.4856 17.5215 24.4136 10.6906 24.5012 10.1728L24.4972 10.1688Z"
        fill="black" />
    <path
        d="M48.6582 55.9503C46.5512 52.0509 44.7986 35.1748 44.7986 35.1748C42.5243 35.5412 40.3695 35.836 40.3695 35.836C40.5567 43.5551 35.3867 47.7174 35.3867 47.7174L35.6934 54.7474C34.5383 58.83 42.5243 62.0324 42.5243 62.0324L50.582 64.9997C50.582 64.9997 50.7652 59.8537 48.6582 55.9503Z"
        fill="black" />
    <path
        d="M10.3892 35.836C10.3892 35.836 8.23442 35.5412 5.96011 35.1748C5.96011 35.1748 4.20758 52.0469 2.10056 55.9503C-0.00646789 59.8537 0.176751 64.9997 0.176751 64.9997L8.23442 62.0324C8.23442 62.0324 15.372 59.0969 15.0653 54.7474L15.372 47.7174C15.372 47.7174 10.202 43.5551 10.3892 35.836Z"
        fill="black" />
    <path
        d="M7.26268 15.3244C8.82402 6.92023 16.1926 0.559326 25.0469 0.559326C33.9012 0.559326 41.3694 7.00387 42.863 15.4917V17.069L6.91217 17.3L7.26268 15.3204V15.3244Z"
        fill="url(#paint0_linear_4_7251)" />
    <path
        d="M6.23939 17.8719L6.70939 15.2231C8.3504 6.40073 16.0616 0 25.0473 0C34.033 0 41.8477 6.47641 43.417 15.3984L43.425 15.498V17.6369L6.23541 17.8758L6.23939 17.8719ZM7.82066 15.4263L7.58566 16.7367L42.3018 16.5136V15.5458C40.8081 7.18937 33.559 1.1272 25.0513 1.1272C16.5435 1.1272 9.36209 7.14157 7.82066 15.4263Z"
        fill="black" />
    <path
        d="M43.4886 16.2774C26.6006 11.3704 11.4053 14.6086 6.4584 15.9389C5.46264 16.2058 4.76959 17.1736 4.76959 18.2849V21.7461C4.76959 23.3115 6.11984 24.4705 7.52187 24.0961C13.114 22.6025 26.5966 20.0175 42.0149 24.3272C43.3253 24.6936 44.6357 23.7257 44.7911 22.2679L45.1456 18.8943C45.273 17.6994 44.5641 16.5881 43.4886 16.2774Z"
        fill="url(#paint1_linear_4_7251)" />
    <path
        d="M42.5727 24.9705C42.3337 24.9705 42.0947 24.9386 41.8637 24.8749C26.4096 20.5533 12.7995 23.2737 7.66542 24.6478C6.86881 24.8589 6.03237 24.6877 5.36721 24.1778C4.63831 23.6202 4.20416 22.7121 4.20416 21.7561V18.2949C4.20416 16.9287 5.06848 15.7378 6.3072 15.4032C11.9512 13.8817 26.8835 10.8745 43.6441 15.7458C44.9904 16.1361 45.8587 17.4903 45.7034 18.964L45.3489 22.3377C45.2533 23.2338 44.7913 24.0265 44.0783 24.5124C43.6282 24.8191 43.1024 24.9784 42.5727 24.9784V24.9705ZM24.4738 21.4056C29.7712 21.4056 35.8135 22.0111 42.1664 23.7875C42.6046 23.911 43.0626 23.8353 43.445 23.5724C43.8831 23.2737 44.1699 22.7798 44.2296 22.2102L44.5841 18.8366C44.6797 17.9205 44.142 17.0562 43.3335 16.8212C26.8477 12.0296 12.1583 14.989 6.60593 16.4866C5.85712 16.6897 5.33534 17.4306 5.33534 18.2869V21.7482C5.33534 22.3576 5.60619 22.9311 6.05627 23.2777C6.44661 23.5764 6.91661 23.676 7.37864 23.5525C10.4894 22.72 16.6671 21.4017 24.4738 21.4017V21.4056Z"
        fill="black" />
    <path
        d="M9.77993 23.3401C9.50908 23.3401 9.2701 23.145 9.22629 22.8662C9.20637 22.7347 8.69256 19.6001 8.60095 17.3975C8.58901 17.0868 8.82799 16.8239 9.13866 16.812C9.44137 16.8 9.71222 17.039 9.72417 17.3497C9.81578 19.4846 10.3296 22.6511 10.3376 22.6829C10.3893 22.9896 10.1782 23.2804 9.87154 23.3282C9.83968 23.3322 9.8118 23.3362 9.77993 23.3362V23.3401Z"
        fill="black" />
    <path
        d="M15.4951 20.4625C15.2362 20.4625 15.0012 20.2833 14.9454 20.0164C14.6029 18.4272 14.7184 14.8464 14.7264 14.6951C14.7383 14.3844 15.0052 14.1335 15.3079 14.1494C15.6186 14.1613 15.8615 14.4202 15.8535 14.7309C15.8535 14.7668 15.738 18.3236 16.0487 19.7774C16.1124 20.0801 15.9213 20.3828 15.6146 20.4466C15.5747 20.4545 15.5349 20.4585 15.4951 20.4585V20.4625Z"
        fill="black" />
    <path
        d="M22.0203 21.9095C21.7097 21.9095 21.4587 21.6586 21.4587 21.3479V15.8673C21.4587 15.5566 21.7097 15.3057 22.0203 15.3057C22.331 15.3057 22.582 15.5566 22.582 15.8673V21.3479C22.582 21.6586 22.331 21.9095 22.0203 21.9095Z"
        fill="black" />
    <path
        d="M29.2204 22.0256C29.2204 22.0256 29.1965 22.0256 29.1846 22.0256C28.7597 21.999 28.5831 20.1628 28.6548 16.517C28.6628 16.2063 28.9336 15.9753 29.2284 15.9634C29.539 15.9713 29.786 16.2263 29.782 16.5369C29.7462 18.2775 29.7183 20.8386 29.7581 21.2927C29.778 21.3564 29.786 21.4241 29.782 21.4958C29.7621 21.7945 29.5151 22.0256 29.2204 22.0256ZM29.2562 20.8984C29.308 20.8984 29.3558 20.9103 29.4036 20.9262C29.3598 20.9103 29.308 20.9023 29.2562 20.8984Z"
        fill="black" />
    <path
        d="M34.1719 18.7028C34.1719 18.7028 34.148 18.7028 34.14 18.7028C33.8294 18.6829 33.5904 18.42 33.6103 18.1093L33.8174 14.5605C33.8373 14.2498 34.1002 14.0188 34.4109 14.0307C34.7216 14.0506 34.9605 14.3135 34.9406 14.6242L34.7335 18.1731C34.7176 18.4718 34.4666 18.7028 34.1719 18.7028Z"
        fill="black" />
    <path
        d="M37.6927 23.0965C37.6728 23.0965 37.6489 23.0965 37.629 23.0965C37.3183 23.0607 37.0992 22.7819 37.1351 22.4712C37.1351 22.4393 37.5055 19.2688 37.625 17.2733C37.6449 16.9627 37.9078 16.7317 38.2224 16.7436C38.5331 16.7635 38.7681 17.0304 38.7522 17.3411C38.6327 19.3724 38.2623 22.5708 38.2583 22.6026C38.2264 22.8894 37.9795 23.1005 37.7007 23.1005L37.6927 23.0965Z"
        fill="black" />
    <path
        d="M41.6167 21.2169C41.5928 21.2169 41.5729 21.2169 41.549 21.2169C41.2383 21.181 41.0192 20.8982 41.0591 20.5915C41.3299 18.3371 41.4295 15.7044 41.4295 15.6805C41.4414 15.3698 41.7123 15.1149 42.011 15.1388C42.3217 15.1507 42.5646 15.4096 42.5527 15.7203C42.5527 15.7482 42.4531 18.4287 42.1743 20.727C42.1385 21.0137 41.8955 21.2208 41.6167 21.2208V21.2169Z"
        fill="black" />
    <path
        d="M23.5444 12.0011C23.2338 12.0011 22.9828 11.7502 22.9828 11.4395C22.9669 5.19813 24.0981 2.75255 24.1459 2.65297C24.2813 2.37018 24.6159 2.25467 24.8987 2.38611C25.1775 2.52153 25.297 2.85611 25.1655 3.13492C25.1456 3.17475 24.0941 5.52474 24.11 11.4356C24.11 11.7462 23.8591 12.0011 23.5484 12.0011H23.5444Z"
        fill="black" />
    <path
        d="M28.2264 14.3057H28.2185C27.9078 14.3057 27.6568 14.0468 27.6608 13.7362C27.6608 13.7003 27.6967 10.012 27.0992 7.96874C27.0116 7.67001 27.1829 7.35933 27.4816 7.27171C27.7803 7.18408 28.095 7.35535 28.1786 7.65408C28.8239 9.86067 28.788 13.5928 28.784 13.7521C28.784 14.0628 28.5291 14.3097 28.2224 14.3097L28.2264 14.3057Z"
        fill="black" />
    <path
        d="M35.5772 8.37239C35.3342 8.37239 35.1111 8.21307 35.0355 7.9701C35.0275 7.9462 34.3026 5.56435 31.9884 2.48148C31.8012 2.23454 31.853 1.88005 32.1 1.69284C32.3509 1.50564 32.7014 1.55742 32.8886 1.80437C35.3342 5.06647 36.083 7.5479 36.1149 7.65146C36.2025 7.95019 36.0312 8.26086 35.7325 8.34849C35.6807 8.36442 35.6249 8.37239 35.5732 8.37239H35.5772Z"
        fill="black" />
    <path
        d="M17.3279 14.4708C17.3 14.4708 17.2721 14.4708 17.2442 14.4628C16.9375 14.419 16.7225 14.1283 16.7703 13.8216L17.3518 9.93812C17.3956 9.63142 17.6824 9.41236 17.9931 9.46414C18.2997 9.50795 18.5148 9.79871 18.467 10.1054L17.8855 13.9889C17.8457 14.2677 17.6027 14.4708 17.3279 14.4708Z"
        fill="black" />
    <path
        d="M9.47355 15.6611C9.44965 15.6611 9.42177 15.6611 9.39787 15.6571C9.09117 15.6173 8.87211 15.3305 8.91592 15.0238C8.92787 14.9362 9.21465 12.8929 10.6924 10.1088C10.8397 9.83393 11.1783 9.73037 11.4531 9.87376C11.7279 10.0211 11.8315 10.3597 11.6881 10.6345C10.306 13.2434 10.0352 15.1553 10.0312 15.1712C9.99134 15.454 9.75236 15.6611 9.47355 15.6611Z"
        fill="black" />
    <path
        d="M15.384 7.72732C15.3043 7.72732 15.2247 7.71139 15.145 7.67554C14.8622 7.5441 14.7387 7.20953 14.8702 6.92673C16.6984 2.99947 20.6336 0.526003 21.0598 0.426428C21.3665 0.354733 21.6652 0.541935 21.7369 0.844646C21.8006 1.12346 21.6493 1.39829 21.3904 1.49786C21.2072 1.60142 17.6304 3.66463 15.8898 7.39673C15.7942 7.59987 15.5911 7.72334 15.38 7.72334L15.384 7.72732Z"
        fill="black" />
    <path
        d="M38.1827 15.443C38.1827 15.443 38.1588 15.443 38.1469 15.443C37.8362 15.4231 37.6012 15.1562 37.6171 14.8455L37.7525 12.5792C37.7685 12.3243 37.5813 12.0972 37.3303 12.0654L31.9413 11.3166C31.7979 11.2927 31.6585 11.3365 31.551 11.4321C31.4434 11.5277 31.3837 11.6551 31.3837 11.7985C31.3837 12.7027 31.3837 13.798 31.3837 13.8976C31.3837 14.2083 31.1407 14.4632 30.826 14.4672C30.5353 14.4672 30.2605 14.2242 30.2565 13.9095C30.2565 13.806 30.2565 12.7027 30.2565 11.7945C30.2565 11.3285 30.4596 10.8824 30.8101 10.5757C31.1646 10.269 31.6306 10.1296 32.0926 10.1934L37.4817 10.9422C38.3141 11.0577 38.9235 11.8025 38.8718 12.6429L38.7363 14.9093C38.7164 15.208 38.4695 15.439 38.1747 15.439L38.1827 15.443Z"
        fill="black" />
    <defs>
        <linearGradient id="paint0_linear_4_7251" x1="24.8876" y1="0.559326" x2="24.8876" y2="17.3"
            gradientUnits="userSpaceOnUse">
            <stop stop-color="#FFDA58" />
            <stop offset="1" stop-color="#FF924D" />
        </linearGradient>
        <linearGradient id="paint1_linear_4_7251" x1="24.965" y1="13.6553" x2="24.965" y2="24.405"
            gradientUnits="userSpaceOnUse">
            <stop stop-color="#FFDA58" />
            <stop offset="1" stop-color="#FF924D" />
        </linearGradient>
    </defs>
</svg>
