<svg width="44" height="51" viewBox="0 0 44 51" fill="none" xmlns="http://www.w3.org/2000/svg">
    <path
        d="M43.3323 36.9798C42.8822 35.1874 42.1892 33.2597 41.5399 31.1885C41.5399 31.1885 41.1377 31.6505 39.8591 31.9731C38.5805 32.2958 37.31 32.013 37.31 32.013L37.1228 32.941C37.1228 39.5289 32.3312 43.8943 32.3312 43.8943V50.5779C40.2893 50.7969 45.7699 46.6267 43.3403 36.9798H43.3323Z"
        fill="black" />
    <path
        d="M7.20964 32.941L7.02243 32.013C7.02243 32.013 5.75185 32.2958 4.47329 31.9731C3.19474 31.6505 2.79245 31.1885 2.79245 31.1885C2.14322 33.2597 1.45017 35.1835 1.00009 36.9798C-1.42956 46.6267 4.04711 50.7969 12.0092 50.5779V43.8943C12.0092 43.8943 7.2176 39.5289 7.2176 32.941H7.20964Z"
        fill="black" />
    <path
        d="M21.4367 6.34462C23.1573 9.12079 28.638 17.1745 37.1059 22.3046L37.1338 22.2887L37.1179 23.5035C37.1179 23.5035 37.4086 22.8941 39.8582 22.9857C40.2724 23.0016 39.8223 22.1533 39.8223 21.7271C39.8223 15.7685 38.5995 11.0326 38.5995 11.0326C32.6887 -3.20271 22.1377 0.0434612 19.7439 1.00337C19.4372 1.12685 19.1146 1.18261 18.784 1.16269C17.3381 1.07507 12.6979 1.40964 7.16945 8.14096C2.36193 13.996 3.74404 18.6283 3.93523 23.5035C3.93523 23.5035 4.84336 22.7706 7.64343 22.9857L7.8386 18.3933L8.11741 18.4132L13.7295 18.8513C14.0362 18.8752 14.307 18.6522 14.3389 18.3495C14.55 16.4456 16.3384 8.48749 19.8156 5.99411C18.8079 7.67893 16.4061 12.367 17.6169 17.1546C17.6727 17.3816 17.8758 17.529 18.0989 17.529C18.1387 17.529 18.1785 17.525 18.2224 17.513C18.4892 17.4453 18.6485 17.1745 18.5848 16.9076C17.5851 12.9564 19.3416 8.94155 20.3772 7.04165C20.2896 9.20443 20.7516 15.0874 27.6104 19.4329C27.694 19.4846 27.7856 19.5085 27.8772 19.5085C28.0405 19.5085 28.2038 19.4249 28.2994 19.2775C28.4468 19.0465 28.3791 18.7358 28.1441 18.5924C20.425 13.7013 21.353 6.87038 21.4406 6.35258L21.4367 6.34462Z"
        fill="black" />
</svg>
