<svg width="51" height="62" viewBox="0 0 51 62" fill="none" xmlns="http://www.w3.org/2000/svg">
    <path
        d="M24.3299 6.34462C26.0506 9.12079 31.5312 17.1745 39.9992 22.3046L40.027 22.2887L40.0111 23.5035C40.0111 23.5035 40.3019 22.8941 42.7514 22.9857C43.1657 23.0016 42.7156 22.1533 42.7156 21.7271C42.7156 15.7685 41.4928 11.0326 41.4928 11.0326C35.582 -3.20271 25.0309 0.0434612 22.6371 1.00337C22.3304 1.12685 22.0078 1.18261 21.6772 1.16269C20.2314 1.07507 15.5911 1.40964 10.0627 8.14096C5.25518 13.996 6.63729 18.6283 6.82848 23.5035C6.82848 23.5035 7.73661 22.7706 10.5367 22.9857L10.7318 18.3933L11.0107 18.4132L16.6227 18.8513C16.9294 18.8752 17.2003 18.6522 17.2322 18.3495C17.4433 16.4456 19.2316 8.48749 22.7088 5.99411C21.7011 7.67893 19.2993 12.367 20.5102 17.1506C20.566 17.3776 20.7691 17.525 20.9921 17.525C21.032 17.525 21.0718 17.521 21.1156 17.5091C21.3825 17.4413 21.5418 17.1705 21.4781 16.9036C20.4783 12.9525 22.2348 8.93359 23.2704 7.03766C23.1828 9.20045 23.6448 15.0834 30.5036 19.4289C30.5873 19.4806 30.6789 19.5045 30.7705 19.5045C30.9338 19.5045 31.0971 19.4209 31.1927 19.2735C31.34 19.0425 31.2723 18.7318 31.0373 18.5885C23.3182 13.6973 24.2463 6.86639 24.3339 6.3486L24.3299 6.34462Z"
        fill="black" />
    <path
        d="M48.4909 52.1263C46.3839 48.2269 44.6313 31.3508 44.6313 31.3508C42.357 31.7173 40.2022 32.012 40.2022 32.012C40.3894 39.7311 35.2194 43.8934 35.2194 43.8934L35.5261 50.9234C34.371 55.0061 42.357 58.2084 42.357 58.2084L50.4147 61.1758C50.4147 61.1758 50.5979 56.0297 48.4909 52.1263Z"
        fill="black" />
    <path
        d="M10.2219 32.012C10.2219 32.012 8.06709 31.7173 5.79278 31.3508C5.79278 31.3508 4.04025 48.2229 1.93323 52.1263C-0.173796 56.0297 0.00942284 61.1758 0.00942284 61.1758L8.0671 58.2084C8.0671 58.2084 15.2047 55.2729 14.898 50.9234L15.2047 43.8934C15.2047 43.8934 10.0347 39.7311 10.2219 32.012Z"
        fill="black" />
</svg>
