<svg width="83" height="83" viewBox="0 0 83 83" fill="none" xmlns="http://www.w3.org/2000/svg">
    <g clip-path="url(#clip0_222_5455)">
        <path
            d="M1.67432 62.9819H81.3258V63.1442H1.67432V62.9819ZM61.6912 70.8019C61.7201 71.084 62.1648 71.087 62.1358 70.8027C62.01 69.5715 62.7648 68.4142 63.9513 68.039C64.8826 67.7446 65.8216 68.0935 66.0982 69.0811C66.22 69.5165 66.2244 69.9306 66.1048 70.3287C66.1012 70.3287 66.0977 70.3277 66.0941 70.3277C65.6866 70.321 65.2973 70.4302 64.9266 70.5914C64.6424 70.7149 64.2461 70.9104 64.1872 71.2517C64.1196 71.6429 64.5713 71.9017 64.8998 71.9504C65.3055 72.0106 65.6769 71.782 65.9424 71.4935C66.1303 71.2896 66.2847 71.0572 66.3998 70.8049C66.46 70.815 66.5204 70.8238 66.5799 70.8392C67.3924 71.049 68.0892 71.7309 68.2027 72.5807C68.3031 73.3331 67.7181 73.7841 67.0317 73.9202C66.8532 73.6715 66.6312 73.4563 66.3744 73.3096C65.8611 73.0165 65.3157 73.1469 65.1075 73.7236C65.0831 73.7909 65.1078 73.894 65.1643 73.9399C65.6199 74.3115 66.221 74.4481 66.8049 74.396C66.9847 74.7201 67.0799 75.0943 67.0262 75.4583C66.9347 76.0777 66.3894 76.6687 65.7775 76.8016C64.5439 77.0693 63.3369 75.7525 62.9765 74.7032C62.884 74.4338 62.4545 74.5494 62.5476 74.8205C62.8461 75.6897 63.4869 76.4731 64.2878 76.9276C64.9603 77.3093 65.7918 77.4247 66.4696 76.9893C67.1586 76.5468 67.5847 75.751 67.4567 74.9323C67.4241 74.7233 67.3555 74.5142 67.2621 74.3142C67.4027 74.2764 67.5408 74.2313 67.6712 74.1713C68.5775 73.7539 68.8547 72.8319 68.4785 71.9322C68.1439 71.1321 67.3929 70.5503 66.5499 70.3812C66.6426 70.0155 66.6554 69.628 66.5861 69.2291C66.4758 68.5935 66.1316 67.984 65.537 67.6909C64.9954 67.424 64.3565 67.4349 63.7916 67.6234C62.4529 68.0711 61.5466 69.3855 61.6912 70.8019ZM66.4847 73.9619C66.1621 73.9482 65.8523 73.8656 65.6083 73.7142C65.8289 73.4299 66.2664 73.7388 66.4847 73.9619ZM65.908 70.7837C65.8914 70.8129 65.8772 70.8423 65.859 70.8713C65.6951 71.1332 65.4398 71.4608 65.1117 71.5116C64.9559 71.5358 64.8131 71.48 64.6866 71.392C64.5932 71.3273 64.6166 71.319 64.6911 71.2413C64.8884 71.0352 65.2407 70.9281 65.5072 70.8517C65.6389 70.8137 65.7731 70.7942 65.908 70.7837ZM61.3497 71.9142H61.3493L53.5251 71.9003C53.4616 71.9002 53.4007 71.8749 53.3558 71.83C53.311 71.785 53.2858 71.724 53.2858 71.6605C53.2859 71.597 53.3112 71.5361 53.3562 71.4912C53.4011 71.4464 53.4621 71.4212 53.5256 71.4212H53.5261L61.3502 71.4354C61.4137 71.4354 61.4746 71.4607 61.5195 71.5057C61.5643 71.5506 61.5895 71.6115 61.5894 71.675C61.5894 71.7385 61.5641 71.7994 61.5191 71.8443C61.4742 71.8891 61.4132 71.9143 61.3497 71.9142ZM61.217 74.0209H61.2165L56.3156 74.0119C56.252 74.0119 56.1911 73.9866 56.1463 73.9416C56.1014 73.8966 56.0762 73.8357 56.0763 73.7722C56.0764 73.7086 56.1016 73.6478 56.1466 73.6029C56.1916 73.558 56.2525 73.5328 56.316 73.5329H56.3165L61.2175 73.5418C61.281 73.5419 61.3419 73.5672 61.3868 73.6121C61.4317 73.6571 61.4568 73.7181 61.4568 73.7816C61.4567 73.8451 61.4314 73.906 61.3864 73.9509C61.3415 73.9957 61.2805 74.0209 61.217 74.0209Z"
            fill="black" />
        <path
            d="M32.5643 75.814C34.8515 70.2528 38.5013 63.6477 42.4021 59.4764L39.5701 58.897C36.3084 62.855 32.3337 69.4702 30.1768 74.5673C30.9825 74.9637 31.7785 75.3794 32.5643 75.814Z"
            fill="black" />
        <path
            d="M32.6047 75.9288L32.5252 75.8849C31.7405 75.451 30.9456 75.0359 30.1411 74.6401L30.0723 74.6063L30.1021 74.5356C32.2578 69.4415 36.2133 62.8427 39.5076 58.8453L39.5386 58.8076L42.5604 59.4259L42.4615 59.5317C38.3644 63.9129 34.7014 70.8312 32.6396 75.8448L32.6047 75.9288ZM30.2814 74.5281C31.0376 74.9015 31.7853 75.2919 32.5239 75.6989C34.5808 70.7192 38.195 63.904 42.2442 59.5266L39.6016 58.9861C36.3376 62.9582 32.4314 69.4727 30.2814 74.5281Z"
            fill="black" />
        <path
            d="M33.968 79.7828L32.1196 79.9419C30.0659 80.1203 28.0287 79.9194 26.1148 79.3363C26.0913 79.3276 26.0681 79.3219 26.0462 79.3143C25.1576 79.0418 24.3771 78.702 23.6986 78.3207C20.1998 76.365 19.3232 73.3782 19.3232 73.3782C22.3112 68.8855 25.6597 74.4359 25.6597 74.4359L28.4764 74.5108L28.4662 74.4896C27.802 73.1056 29.771 72 30.6667 73.2467C31.1737 73.9523 31.5086 74.6942 31.5086 74.6942C31.7038 74.5315 32.0871 74.2572 32.6066 74.1712C33.2331 74.0674 34.2301 74.2087 34.5691 75.0545C34.8229 75.6876 34.6234 76.505 34.0664 77.1012L33.968 79.7828Z"
            fill="#AA5FFF" />
        <path
            d="M30.6665 80.0866C29.0937 80.0866 27.5603 79.8615 26.0912 79.414C26.0747 79.408 26.0631 79.4046 26.0518 79.4012L26.0196 79.3911C25.1705 79.1308 24.3752 78.7941 23.6587 78.3917C21.8372 77.3736 20.7351 76.073 20.1313 75.1612C19.4755 74.1711 19.2545 73.4323 19.2454 73.4013L19.2349 73.365L19.2558 73.3335C20.0603 72.1236 20.9658 71.5194 21.9586 71.5426C22.8118 71.5615 23.7353 72.0621 24.6291 72.9904C25.2101 73.5938 25.6071 74.2007 25.7055 74.3561L28.3499 74.4265C28.067 73.7218 28.4188 73.1209 28.9131 72.8278C29.4373 72.5169 30.2308 72.5007 30.733 73.1998C31.1333 73.7572 31.4303 74.3433 31.5384 74.5669C31.8636 74.3162 32.2264 74.1523 32.5936 74.0915C33.3518 73.9655 34.316 74.2044 34.6448 75.0247C34.906 75.6769 34.7058 76.5212 34.1467 77.1346L34.0468 79.8578L32.1269 80.023C31.6367 80.0654 31.1497 80.0866 30.6665 80.0866ZM19.4122 73.3908C19.5258 73.7323 20.515 76.4485 23.7379 78.2499C24.4445 78.6468 25.2289 78.9788 26.0696 79.2366L26.0983 79.2457C26.1131 79.2501 26.128 79.2546 26.143 79.2603C28.0388 79.8378 30.049 80.0404 32.1123 79.8612L33.8892 79.7082L33.9861 77.0682L34.0069 77.0461C34.5396 76.4759 34.7351 75.6877 34.4937 75.0849C34.1536 74.2364 33.1187 74.1687 32.6198 74.2515C32.2499 74.3128 31.8837 74.4876 31.5604 74.7568L31.4785 74.8251L31.4345 74.7277C31.4311 74.7204 31.0967 73.9845 30.6008 73.2942C30.1581 72.6782 29.4587 72.6928 28.9954 72.9672C28.542 73.2361 28.2251 73.8003 28.5392 74.4546L28.5967 74.5744L28.474 74.5921L25.6128 74.516L25.5899 74.478C25.5734 74.4507 23.9193 71.7479 21.9544 71.7049C21.0314 71.6835 20.1786 72.2519 19.4122 73.3908Z"
            fill="black" />
        <path
            d="M31.0528 82.8882C27.8295 82.313 21.7104 80.9191 19.379 78.3225C16.1464 74.7276 19.3234 73.3784 19.3234 73.3784C19.3234 73.3784 20.5747 77.639 26.0463 79.3145C26.0682 79.3221 26.0914 79.3278 26.115 79.3366C28.029 79.9196 30.066 80.1207 32.1197 79.9422L33.9682 79.783L33.6353 81.1034C33.3382 82.2907 32.1814 83.0898 31.0528 82.8882Z"
            fill="white" />
        <path
            d="M31.4029 82.9999C31.2806 82.9999 31.1586 82.9891 31.0382 82.9676C27.6595 82.3647 21.6439 80.9664 19.3182 78.3762C18.1565 77.0842 17.6784 75.9288 17.8973 74.9426C18.151 73.7993 19.2448 73.3229 19.2912 73.3031L19.3751 73.2676L19.4008 73.355C19.4133 73.3972 20.7063 77.5943 26.0697 79.2364L26.0984 79.2455C26.113 79.2499 26.1281 79.2545 26.143 79.26C28.0389 79.8375 30.0491 80.04 32.1124 79.8609L34.0743 79.6918L33.7134 81.1227C33.4388 82.2213 32.4468 82.9999 31.4029 82.9999ZM19.2747 73.4917C19.0227 73.6231 18.2519 74.0908 18.0554 74.9794C17.8493 75.9113 18.315 77.0177 19.4389 78.2678C21.7323 80.822 27.7083 82.2088 31.0666 82.8081C32.1535 83.0025 33.2696 82.2284 33.556 81.0834L33.8612 79.8734L32.1264 80.0227C30.0418 80.2036 28.0116 79.999 26.0911 79.414C26.0746 79.408 26.063 79.4046 26.0517 79.4012L26.0196 79.3911C23.1757 78.5203 21.4855 76.9401 20.5688 75.768C19.7287 74.6936 19.3729 73.7776 19.2747 73.4917Z"
            fill="black" />
        <path
            d="M23.6986 78.3207C20.1998 76.365 19.3232 73.3782 19.3232 73.3782C22.3112 68.8855 25.6597 74.4359 25.6597 74.4359C25.6597 74.4359 25.7418 77.0675 23.6986 78.3207Z"
            fill="white" />
        <path
            d="M23.7004 78.4146L23.6589 78.3913C21.8372 77.3731 20.7351 76.0725 20.1313 75.1607C19.4755 74.1706 19.2545 73.4318 19.2454 73.4008L19.2349 73.3645L19.2558 73.333C20.0603 72.1231 20.9658 71.5189 21.9586 71.5421C22.8118 71.561 23.7353 72.0616 24.6291 72.9899C25.2993 73.6859 25.725 74.3866 25.729 74.3936L25.74 74.4118L25.7407 74.433C25.7415 74.4598 25.8006 77.1264 23.741 78.3896L23.7004 78.4146ZM19.4124 73.3904C19.5253 73.7306 20.5068 76.4248 23.6964 78.2262C25.5413 77.061 25.5799 74.7071 25.5788 74.4592C25.429 74.22 23.834 71.7455 21.9546 71.7044C21.0315 71.6832 20.1788 72.2516 19.4124 73.3904Z"
            fill="black" />
        <path
            d="M26.4869 74.47L27.6731 77.9267C27.6226 78.0736 27.4956 78.1826 27.3531 78.2023C27.1944 78.2242 27.0465 78.131 26.9962 77.9741L25.7998 74.4526L26.4869 74.47Z"
            fill="white" />
        <path
            d="M27.3065 78.2872C27.1301 78.2872 26.9755 78.1751 26.9191 77.9995L25.6855 74.3691L26.5454 74.3909L27.7591 77.9273L27.75 77.9537C27.6896 78.1298 27.5381 78.2593 27.3643 78.2833C27.3448 78.2858 27.3255 78.2872 27.3065 78.2872ZM25.9142 74.5371L27.0733 77.9486C27.1118 78.068 27.2229 78.1384 27.3422 78.1225C27.4462 78.1081 27.5416 78.0303 27.5871 77.9257L26.4286 74.5502L25.9142 74.5371Z"
            fill="black" />
        <path
            d="M27.5241 74.4972L28.7104 77.9539C28.705 77.964 28.595 78.1608 28.3814 78.1839C28.3118 78.192 28.2413 78.179 28.1792 78.1465C28.1171 78.1139 28.0662 78.0634 28.0333 78.0015L26.8369 74.48L27.5241 74.4972Z"
            fill="white" />
        <path
            d="M28.3433 78.2673C28.1844 78.2673 28.0382 78.1815 27.9624 78.04L26.7231 74.396L27.5829 74.4177L28.7989 77.9614L28.7821 77.9926C28.7767 78.0027 28.6474 78.237 28.3905 78.2646C28.3748 78.2665 28.3591 78.2674 28.3433 78.2673ZM26.9516 74.5643L28.1107 77.9756C28.1581 78.0617 28.2615 78.1161 28.3731 78.1034C28.502 78.0896 28.5864 77.9924 28.6212 77.9436L27.4659 74.5773L26.9516 74.5643Z"
            fill="black" />
        <path
            d="M28.5127 74.5349L29.6759 77.9011C29.6594 77.9255 29.5575 78.0709 29.3806 78.1025C29.2211 78.1311 29.064 78.0558 28.9796 77.9105L27.8257 74.5176L28.5127 74.5349Z"
            fill="white" />
        <path
            d="M29.3132 78.1897C29.1493 78.1897 28.9968 78.1016 28.9095 77.9513L27.7114 74.4336L28.5711 74.4553L29.766 77.9133L29.7429 77.9469C29.7113 77.9932 29.5925 78.1468 29.3947 78.1824C29.3678 78.1873 29.3405 78.1897 29.3132 78.1897ZM27.9399 74.6018L29.0565 77.8846C29.1165 77.9852 29.2405 78.0449 29.3663 78.0229C29.4719 78.0039 29.5466 77.933 29.5852 77.887L28.4545 74.615L27.9399 74.6018ZM43.0319 66.958L42.85 66.9925C40.8315 67.3124 38.7567 67.2449 36.7286 67.1733C34.5825 67.0975 31.6324 66.7693 31.3963 63.8047C31.2486 61.953 33.2962 57.911 34.5968 56.3424L32.3222 54.1709C30.7217 56.4289 28.2187 62.7498 29.0896 65.5155C30.0305 68.5031 32.6007 69.6894 35.2863 69.9256C37.9176 70.1572 40.6575 70.2179 43.2935 69.7789C43.2623 68.828 43.2068 67.8794 43.0319 66.958Z"
            fill="black" />
        <path
            d="M39.0397 70.1862C37.8827 70.1862 36.6391 70.1261 35.2791 70.0065C31.1475 69.6431 29.5906 67.3769 29.0123 65.54C28.4852 63.8668 29.2182 61.1176 29.7019 59.6278C30.3828 57.5302 31.4092 55.3184 32.2559 54.124L32.3103 54.0474L34.7074 56.3361L34.659 56.3943C34.002 57.1867 33.1652 58.6024 32.5271 60.0011C31.7845 61.6291 31.4115 62.9775 31.4769 63.7983C31.6958 66.5451 34.2558 67.0048 36.7313 67.0921C38.6367 67.1595 40.7965 67.2356 42.8372 66.9125L43.0964 66.8632L43.1117 66.9428C43.2924 67.8947 43.3448 68.8672 43.3745 69.7764L43.3768 69.8475L43.3067 69.8592C41.9946 70.0775 40.5956 70.1862 39.0397 70.1862ZM32.3345 54.2948C30.7288 56.6221 28.3286 62.8297 29.1669 65.4912C29.7307 67.281 31.251 69.4892 35.2934 69.8449C38.4351 70.1213 40.9538 70.0788 43.21 69.7106C43.1809 68.8541 43.1295 67.9439 42.9672 67.0529L42.8653 67.0723C40.8062 67.3983 38.6383 67.3219 36.7257 67.2544C34.1789 67.1645 31.5442 66.6851 31.3154 63.8113C31.1708 62.0002 33.1127 58.0428 34.4862 56.3494L32.3345 54.2948Z"
            fill="black" />
        <path
            d="M46.6239 64.9692L47.3693 66.6682C48.1988 68.5555 48.6637 70.549 48.7273 72.5487C48.7267 72.5738 48.7286 72.5977 48.7285 72.6209C48.7564 73.5499 48.6856 74.3983 48.5428 75.1634C47.8165 79.1053 45.2704 80.896 45.2704 80.896C40.0555 79.5119 44.2337 74.5561 44.2337 74.5561L43.3986 71.8649L43.3817 71.8814C42.2849 72.9555 40.6048 71.4467 41.4971 70.1975C42.0021 69.4905 42.5968 68.9347 42.5968 68.9347C42.38 68.8023 41.9971 68.5274 41.7485 68.0633C41.4486 67.5035 41.2618 66.5139 41.9536 65.921C42.4716 65.477 43.3095 65.403 44.0532 65.7386L46.6239 64.9692Z"
            fill="#AA5FFF" />
        <path
            d="M45.2864 80.9836L45.2499 80.9739C43.8453 80.6011 42.9822 79.9339 42.6847 78.9906C42.4282 78.1766 42.6052 77.1412 43.1965 75.9962C43.581 75.252 44.0279 74.6808 44.1434 74.5378L43.3593 72.0111C42.7788 72.5054 42.0992 72.3648 41.6645 71.9924C41.2014 71.596 40.931 70.8502 41.4312 70.1498C41.8302 69.5914 42.2896 69.1217 42.4668 68.9474C42.1247 68.7204 41.8529 68.4294 41.6772 68.1013C41.3147 67.4245 41.2301 66.4341 41.9011 65.859C42.4343 65.4017 43.2979 65.3199 44.0592 65.6519L46.6696 64.8706L47.4439 66.6353C48.2859 68.5505 48.745 70.5391 48.8087 72.5456C48.8084 72.5627 48.8089 72.5745 48.8092 72.5862L48.81 72.6209C48.8366 73.5093 48.7737 74.3705 48.6231 75.1777C48.245 77.2298 47.3681 78.6918 46.699 79.5569C45.9724 80.4962 45.3439 80.9431 45.3176 80.9617L45.2864 80.9836ZM43.4203 71.7302L43.4764 71.8405L44.3248 74.574L44.2961 74.6081C44.2756 74.6324 42.2485 77.068 42.8399 78.9424C43.1169 79.8208 43.929 80.448 45.254 80.8072C45.5409 80.5898 47.7944 78.7795 48.4634 75.1483C48.612 74.3524 48.674 73.5029 48.6478 72.6232L48.6471 72.5922C48.6465 72.5769 48.6463 72.5617 48.6465 72.5464C48.5833 70.5652 48.1288 68.5969 47.2952 66.7007L46.5788 65.0674L44.048 65.8248L44.0202 65.8123C43.3085 65.4911 42.4996 65.5596 42.0067 65.9822C41.3127 66.5772 41.5813 67.5783 41.8203 68.0247C41.9973 68.3551 42.2807 68.6457 42.6396 68.8651L42.7305 68.9208L42.6528 68.9936C42.6467 68.9991 42.0577 69.5525 41.5636 70.2443C41.1225 70.8617 41.3616 71.5194 41.7702 71.8694C42.1706 72.2123 42.8071 72.3309 43.3254 71.8232L43.4203 71.7302Z"
            fill="black" />
        <path
            d="M50.5022 66.7309C50.9943 69.9678 51.6426 76.2103 49.9341 79.2529C47.5699 83.47 45.2705 80.8959 45.2705 80.8959C45.2705 80.8959 48.9023 78.3406 48.7285 72.6209C48.7287 72.5977 48.7266 72.5739 48.7274 72.5487C48.6638 70.5489 48.1989 68.5555 47.3693 66.6683L46.624 64.9693L47.9814 64.8598C49.2014 64.759 50.33 65.5973 50.5022 66.7309Z"
            fill="white" />
        <path
            d="M46.9808 81.7548C45.942 81.7549 45.2414 80.9848 45.2101 80.9498L45.1494 80.8819L45.2239 80.8295C45.2599 80.8042 48.8179 78.2297 48.6477 72.6232L48.647 72.5922C48.6464 72.577 48.6462 72.5617 48.6464 72.5465C48.5833 70.5653 48.1287 68.5969 47.2951 66.7008L46.5041 64.8974L47.9751 64.7788C49.2343 64.6758 50.4043 65.5451 50.5825 66.7186C51.0983 70.1117 51.7091 76.2573 50.0048 79.2925C49.1553 80.8081 48.2151 81.6324 47.2106 81.7423C47.1325 81.7507 47.0556 81.7548 46.9808 81.7548ZM45.394 80.9048C45.5996 81.1012 46.2895 81.6818 47.1949 81.5807C48.1435 81.476 49.0412 80.6794 49.8633 79.2129C51.5439 76.2202 50.9348 70.1155 50.4221 66.7428C50.2565 65.6517 49.1644 64.8421 47.9882 64.9404L46.7442 65.0407L47.4436 66.6354C48.2857 68.5505 48.7447 70.5392 48.8085 72.5457C48.8082 72.5627 48.8087 72.5745 48.809 72.5862L48.8098 72.6209C48.9002 75.5936 47.9475 77.7023 47.1325 78.9473C46.3859 80.0882 45.633 80.7198 45.394 80.9048Z"
            fill="black" />
        <path
            d="M48.5431 75.163C47.8168 79.1049 45.2708 80.8956 45.2708 80.8956C40.0558 79.5116 44.234 74.5558 44.234 74.5558C44.234 74.5558 46.6992 73.6315 48.5431 75.163Z"
            fill="white" />
        <path
            d="M45.2864 80.9838L45.2499 80.9741C43.8452 80.6013 42.9821 79.9341 42.6847 78.9908C42.4281 78.1768 42.6052 77.1414 43.1965 75.9964C43.6398 75.138 44.1665 74.5096 44.1719 74.5033L44.1855 74.4871L44.2053 74.4796C44.2303 74.47 46.736 73.5566 48.595 75.1005L48.6315 75.131L48.6229 75.1777C48.2446 77.23 47.3677 78.692 46.6986 79.5571C45.972 80.4964 45.3435 80.9432 45.3172 80.9619L45.2864 80.9838ZM44.2822 74.6248C44.1036 74.8437 42.2741 77.1498 42.8396 78.9426C43.1166 79.821 43.9288 80.4482 45.2538 80.8074C45.5394 80.591 47.7747 78.7953 48.4546 75.1956C46.7598 73.8247 44.5167 74.544 44.2822 74.6248Z"
            fill="black" />
        <path
            d="M44.0005 73.7615L46.8919 71.5264C47.047 71.5269 47.1913 71.6122 47.2557 71.7407C47.3274 71.8839 47.2868 72.0539 47.1544 72.1519L44.2049 74.4176L44.0005 73.7615Z"
            fill="white" />
        <path
            d="M44.1623 74.553L43.9062 73.7319L46.8645 71.4453H46.8924C47.0787 71.4458 47.2497 71.5475 47.3286 71.7045C47.419 71.8847 47.3672 72.0957 47.2031 72.2172L44.1623 74.553ZM44.0948 73.7913L44.2478 74.2825L47.105 72.0878C47.2059 72.0129 47.2375 71.8857 47.183 71.7772C47.136 71.6834 47.0316 71.6178 46.918 71.6086L44.0948 73.7913Z"
            fill="black" />
        <path
            d="M43.6924 72.7703L46.5839 70.5352C46.5951 70.5371 46.8169 70.5778 46.9073 70.7726C46.9375 70.8359 46.9478 70.9068 46.9369 70.9761C46.9261 71.0453 46.8945 71.1097 46.8465 71.1607L43.897 73.4264L43.6924 72.7703Z"
            fill="white" />
        <path
            d="M43.8542 73.5616L43.5981 72.7403L46.5622 70.4492L46.5969 70.4549C46.608 70.4567 46.8713 70.502 46.981 70.7384C47.0177 70.8164 47.0301 70.9036 47.0167 70.9888C47.0033 71.074 46.9646 71.1531 46.9057 71.2161L43.8542 73.5616ZM43.7867 72.7999L43.9397 73.2911L46.7969 71.0964C46.8632 71.0237 46.8812 70.9093 46.8337 70.8067C46.779 70.6887 46.6597 70.6402 46.6025 70.6232L43.7867 72.7999Z"
            fill="black" />
        <path
            d="M43.4102 71.8227L46.2233 69.6387C46.2517 69.6465 46.4221 69.6963 46.5089 69.8535C46.5873 69.9953 46.5665 70.1683 46.4562 70.2949L43.6146 72.4789L43.4102 71.8227Z"
            fill="white" />
        <path
            d="M43.572 72.6138L43.3159 71.7929L46.2058 69.5493L46.2449 69.5602C46.299 69.5751 46.4825 69.6374 46.58 69.814C46.6751 69.9857 46.6506 70.1953 46.5176 70.3479L43.572 72.6138ZM43.5043 71.852L43.6575 72.3433L46.4067 70.2302C46.4452 70.1835 46.4687 70.1263 46.4742 70.0661C46.4797 70.0058 46.467 69.9453 46.4377 69.8924C46.3856 69.7979 46.2946 69.7504 46.2388 69.7288L43.5043 71.852Z"
            fill="black" />
        <path
            d="M61.2399 0.335396L73.3238 0.970044L73.2072 2.84364L61.7082 2.20689L56.7209 16.0289L54.6279 15.3824L59.6504 1.38936C59.7666 1.06601 59.9841 0.788797 60.2705 0.598913C60.5568 0.409029 60.8968 0.316611 61.2399 0.335396Z"
            fill="#FF6463" />
        <path
            d="M56.7709 16.1293L54.5229 15.4348L59.5742 1.36185C59.8262 0.66002 60.4986 0.216529 61.2443 0.254176L73.4099 0.893205L73.2831 2.92891L73.2028 2.92437L61.7642 2.29102L56.7709 16.1293ZM54.7331 15.3299L56.6708 15.9286L61.6524 2.12258L61.7126 2.12599L73.1311 2.7582L73.2375 1.04688L61.2355 0.416611C60.56 0.378315 59.9544 0.783022 59.7267 1.41702L54.7331 15.3299Z"
            fill="black" />
        <path
            d="M66.563 2.47574L68.6001 2.58852C68.4696 1.96115 68.3457 1.33242 68.2285 0.702424L65.8525 0.577637C66.0831 1.21261 66.3231 1.84401 66.563 2.47574Z"
            fill="white" />
        <path
            d="M68.7007 2.67556L66.5057 2.55402L66.4627 2.44075C66.2348 1.84034 65.999 1.21949 65.7762 0.605448L65.7344 0.490234L68.2963 0.624921L68.3079 0.68772C68.424 1.31133 68.5488 1.94533 68.6791 2.57219L68.7007 2.67556ZM66.6201 2.39791L68.499 2.50209C68.3806 1.92934 68.2676 1.35546 68.1602 0.78054L65.9706 0.665651C66.1816 1.23961 66.3963 1.81223 66.6145 2.38347L66.6201 2.39791Z"
            fill="black" />
        <path
            d="M59.3738 8.6768L60.3967 5.84189C59.6729 5.67527 58.9458 5.52352 58.2158 5.38672L57.1709 8.29773C57.9039 8.43144 58.6383 8.55704 59.3738 8.6768Z"
            fill="white" />
        <path
            d="M59.4273 8.76772L59.3609 8.75701C58.625 8.6376 57.8902 8.51113 57.1566 8.37761L57.0625 8.36041L58.1629 5.29443L58.2309 5.30709C58.9374 5.43886 59.652 5.58798 60.4149 5.76308L60.5043 5.78352L59.4273 8.76772ZM57.2799 8.23498C57.9238 8.35197 58.5931 8.46703 59.3205 8.58581L60.2895 5.90052C59.6188 5.74718 58.9452 5.60668 58.2692 5.4791L57.2799 8.23498Z"
            fill="black" />
        <path
            d="M57.4709 13.9511L58.5104 11.0703C57.7771 10.9493 57.0451 10.8207 56.3144 10.6846L55.3208 13.4528C56.0379 13.6188 56.7546 13.7846 57.4709 13.9511Z"
            fill="white" />
        <path
            d="M57.5225 14.0463L55.2134 13.5109L56.261 10.5918L56.329 10.6045C57.0247 10.7344 57.7628 10.8641 58.5232 10.99L58.6193 11.0059L57.5225 14.0463ZM55.4277 13.3941L57.419 13.8557L58.4009 11.1343C57.722 11.0215 57.0441 10.9023 56.3675 10.7768L55.4277 13.3941Z"
            fill="black" />
        <path
            d="M61.2532 3.46899L61.7085 2.20716L63.8325 2.32481C63.5967 1.69811 63.3662 1.06947 63.1494 0.435953L61.1482 0.3308C60.8317 0.313536 60.518 0.39884 60.2538 0.574041C59.9896 0.749242 59.789 1.00499 59.6818 1.3033L59.0718 3.00262C59.802 3.14477 60.5293 3.29877 61.2532 3.46899Z"
            fill="white" />
        <path
            d="M61.305 3.56445L61.2345 3.5479C60.5114 3.37858 59.7851 3.22326 59.056 3.08202L58.9634 3.064L59.6052 1.27576C59.8385 0.625533 60.4621 0.214009 61.1523 0.249709L63.2081 0.357783L63.2258 0.409548C63.414 0.959652 63.6308 1.55909 63.9082 2.29597L63.9521 2.41248L61.7642 2.29142L61.305 3.56445ZM59.1799 2.941C59.894 3.0812 60.5571 3.22303 61.2013 3.37346L61.6526 2.12266L63.7126 2.23674C63.4971 1.6654 63.2895 1.09106 63.0901 0.513889L61.1437 0.411657C60.8443 0.394006 60.5473 0.474054 60.2974 0.639754C60.0475 0.805454 59.8581 1.04784 59.7579 1.33044L59.1799 2.941Z"
            fill="black" />
        <path
            d="M71.1829 2.73177L73.2073 2.8439L73.3239 0.970304L70.792 0.837402C70.9146 1.47043 71.0449 2.10193 71.1829 2.73177Z"
            fill="white" />
        <path
            d="M73.2829 2.929L71.1164 2.80892L71.1033 2.74871C70.9652 2.11821 70.8348 1.48606 70.712 0.852396L70.6924 0.750488L73.4096 0.893126L73.2829 2.929ZM71.2487 2.65378L73.1312 2.75796L73.2376 1.04664L70.8913 0.923471C71.004 1.50156 71.1231 2.07837 71.2487 2.65378Z"
            fill="black" />
        <path
            d="M32.9478 13.7143C32.3138 11.9042 32.2045 10.2662 33.7555 8.8338C34.384 8.25335 35.2138 7.93076 36.0729 7.89944C36.4948 7.88402 36.6915 7.90544 37.0082 7.93124C37.0335 7.93335 37.0556 7.91209 37.0496 7.88759C36.9242 7.38017 36.627 6.38771 36.6115 6.18616C36.5612 5.54389 36.6309 4.86754 36.9285 4.28774C37.6937 2.79726 39.6481 2.59734 41.0342 3.32173C41.5192 3.5752 41.8045 3.74591 42.3597 4.26518C42.3793 4.28352 42.4122 4.27638 42.4205 4.2509C42.5867 3.74883 42.8181 3.32011 43.0563 2.88716C43.5812 1.933 44.3124 1.41973 45.4 1.23003C47.4964 0.86411 49.6927 2.27053 50.4238 4.16652C51.0357 5.75371 50.6075 7.65944 50.017 9.21888C50.0001 9.2635 50.0558 9.29855 50.0887 9.26399C51.3096 7.98739 53.7741 7.94309 55.088 9.21871C56.2856 10.3814 56.6552 12.4267 55.905 13.8875C55.8865 13.9235 55.9318 13.9577 55.9617 13.9303C57.3876 12.6284 61.0028 12.0895 62.5954 14.5424C64.3163 17.1933 61.8861 19.4678 61.3887 20.6171C61.386 20.6234 43.6596 19.707 32.9728 13.7382C32.9613 13.732 32.9521 13.7263 32.9478 13.7143Z"
            fill="#FF95D8" />
        <path
            d="M61.3944 20.6948C60.7166 20.6948 43.4492 19.6829 32.9328 13.8093C32.9173 13.8005 32.8855 13.7827 32.8711 13.7418L32.8709 13.7415C32.321 12.1716 31.9896 10.354 33.7 8.77446C34.332 8.19077 35.1734 7.85129 36.0695 7.81851C36.4572 7.80456 36.655 7.82079 36.929 7.8435L36.955 7.84561C36.9089 7.66354 36.8451 7.43263 36.7815 7.20091C36.6576 6.75109 36.5407 6.32626 36.5303 6.19254C36.4714 5.44009 36.581 4.78678 36.856 4.25079C37.1702 3.63918 37.6979 3.20072 38.3827 2.98344C39.2312 2.71374 40.2365 2.8137 41.0714 3.25005C41.5514 3.50093 41.8423 3.67667 42.3653 4.16024C42.525 3.69809 42.7326 3.30701 42.9847 2.84843C43.523 1.86993 44.2636 1.34627 45.3857 1.15041C47.4334 0.793248 49.7262 2.13329 50.4991 4.13769C50.9974 5.43051 50.8808 7.09543 50.1518 9.08814C50.7436 8.54128 51.5978 8.22111 52.5247 8.20391C53.5443 8.18606 54.4981 8.53381 55.1441 9.16083C56.3192 10.3018 56.7042 12.2697 56.0668 13.7343C56.9864 13.0038 58.4959 12.6176 59.8288 12.7884C60.6866 12.8983 61.8744 13.2843 62.6629 14.4986C64.045 16.6275 62.8024 18.5236 61.9804 19.7783C61.7582 20.1176 61.5661 20.4105 61.4627 20.6497L61.4484 20.6825L61.4147 20.6942C61.4079 20.6949 61.4012 20.6951 61.3944 20.6948ZM33.0183 13.671C43.2681 19.3907 60.2736 20.4766 61.337 20.5337C61.4496 20.2924 61.6338 20.0112 61.8449 19.6892C62.6439 18.4698 63.8514 16.6268 62.5271 14.5869C61.7725 13.4245 60.632 13.0547 59.8083 12.9491C58.4394 12.7737 56.8798 13.2017 56.016 13.9904C55.9958 14.0092 55.9696 14.0203 55.942 14.0215C55.9144 14.0228 55.8873 14.0142 55.8654 13.9972C55.8434 13.9807 55.828 13.9569 55.8219 13.93C55.8159 13.9032 55.8196 13.875 55.8323 13.8507C56.5618 12.4303 56.2098 10.4214 55.031 9.27702C54.416 8.67986 53.505 8.3485 52.5278 8.36586C51.5779 8.38339 50.7102 8.7313 50.147 9.32002C50.1272 9.34103 50.1008 9.35449 50.0722 9.35807C50.0436 9.36166 50.0147 9.35514 49.9904 9.33966C49.9659 9.32442 49.9476 9.30113 49.9385 9.27382C49.9294 9.24651 49.9301 9.21688 49.9405 9.19004C50.7076 7.16504 50.8444 5.48455 50.3475 4.19562C49.6012 2.25987 47.3875 0.965257 45.4136 1.30992C44.3446 1.49637 43.6392 1.99488 43.127 2.92632C42.8669 3.39902 42.6555 3.79854 42.4971 4.27627C42.4909 4.29491 42.4802 4.31169 42.4658 4.32505C42.4514 4.33841 42.4339 4.34792 42.4148 4.3527C42.3954 4.3577 42.375 4.35773 42.3556 4.35276C42.3362 4.3478 42.3183 4.33801 42.3037 4.3243C41.7612 3.81687 41.4886 3.65087 40.9961 3.3935C40.1987 2.97663 39.24 2.88088 38.4315 3.13776C37.7889 3.34174 37.294 3.75229 37.0001 4.32462C36.7392 4.83335 36.6353 5.45745 36.6918 6.17956C36.7012 6.29786 36.8268 6.75449 36.9378 7.15742C37.0094 7.4177 37.0808 7.67701 37.128 7.86785C37.1324 7.88551 37.1326 7.90399 37.1284 7.92173C37.1242 7.93946 37.1158 7.95593 37.104 7.96975C37.0916 7.98459 37.0757 7.99618 37.0578 8.0035C37.0399 8.01083 37.0205 8.01367 37.0013 8.01178L36.9156 8.0048C36.6472 7.98241 36.4533 7.96667 36.0755 7.98014C35.2182 8.01162 34.4137 8.33584 33.81 8.89308C32.1749 10.4038 32.4894 12.1549 33.0183 13.671Z"
            fill="black" />
        <path
            d="M32.9414 13.3345C32.9414 13.3345 20.4925 51.4088 36.0475 55.488C54.9104 60.4346 61.5991 20.1131 61.5991 20.1131C51.7893 19.1279 42.153 16.8486 32.9414 13.3345Z"
            fill="#00DCDB" />
        <path
            d="M39.1867 55.9875C38.1509 55.9875 37.097 55.8475 36.0266 55.5667C33.5603 54.9199 31.645 53.3726 30.3338 50.9681C27.1724 45.1693 28.03 35.2356 29.3061 27.9234C30.6875 20.0089 32.8424 13.3757 32.8639 13.3095L32.8904 13.2285L32.9699 13.2589C37.2619 14.8951 41.6504 16.2659 46.1106 17.3635C51.2072 18.6149 56.3854 19.5068 61.607 20.0326L61.693 20.0412L61.6788 20.1266C61.668 20.1923 60.5587 26.7903 58.0446 34.2219C55.7221 41.0875 51.6908 50.0897 45.6749 53.988C43.6208 55.3194 41.4478 55.9875 39.1867 55.9875ZM32.9921 13.4411C32.7421 14.2229 30.7625 20.5227 29.4656 27.9535C28.1941 35.2395 27.3373 45.1334 30.4764 50.8907C31.765 53.2545 33.6464 54.775 36.0679 55.41C39.4293 56.2914 42.6316 55.7673 45.5868 53.8522C51.5628 49.9797 55.5759 41.0128 57.8901 34.1724C60.2453 27.2106 61.3658 20.9819 61.5041 20.1855C56.3042 19.6578 51.1475 18.7676 46.0716 17.5213C41.6328 16.4288 37.2648 15.0662 32.9921 13.4411Z"
            fill="black" />
        <path
            d="M33.1499 50.8342L34.3173 24.272L34.4796 24.2791L33.3122 50.8415L33.1499 50.8342ZM38.0049 51.5925L44.6815 24.9305L44.8389 24.9699L38.1625 51.6319L38.0049 51.5925ZM42.3701 53.0314L53.6581 28.6183L53.8056 28.6864L42.5176 53.0995L42.3701 53.0314Z"
            fill="black" />
        <path
            d="M25.6035 59.8021C25.6569 59.8144 42.464 63.8996 45.2 64.5875C45.1062 63.4839 44.4761 57.9616 41.6323 55.6393C39.9036 56.0275 38.0445 56.0148 36.049 55.4899C34.5144 55.0876 33.2506 54.3552 32.2252 53.3618C29.9357 54.2511 26.8283 56.7902 25.6035 59.8021Z"
            fill="#00DCDB" />
        <path
            d="M45.2904 64.6937L45.1801 64.6659C42.512 63.9951 25.673 59.9016 25.585 59.8808L25.4927 59.8591L25.5284 59.7713C26.7503 56.7663 29.8755 54.187 32.1958 53.2859L32.2444 53.2671L32.2815 53.3033C33.3283 54.3173 34.6028 55.0265 36.0696 55.411C37.9667 55.9102 39.8322 55.9602 41.6145 55.56L41.6529 55.5514L41.6834 55.5764C42.9005 56.5702 43.8566 58.2429 44.5253 60.5478C45.0673 62.416 45.2404 64.1069 45.2807 64.5806L45.2904 64.6937ZM25.7147 59.7453C27.0448 60.0681 42.2178 63.7574 45.1088 64.4808C45.0097 63.4401 44.3676 58.0132 41.6111 55.7268C39.815 56.1234 37.9365 56.0702 36.0284 55.568C34.5517 55.1809 33.2663 54.4705 32.2062 53.4561C29.9456 54.3529 26.9353 56.8405 25.7147 59.7453Z"
            fill="black" />
        <path
            d="M32.2474 54.6621C30.2625 55.5405 28.5456 56.9273 27.5569 58.7884C27.2041 59.4524 28.2988 60.0358 28.6521 59.3706C29.5532 57.6742 31.1045 56.4682 32.9108 55.6689C33.6256 55.3526 32.9564 54.3483 32.2474 54.6621ZM58.4403 22.4361C57.6457 25.4923 56.8685 28.5563 55.8787 31.5569C54.8809 34.5815 53.5979 37.4677 52.1956 40.3237C51.8131 41.1028 53.0078 41.729 53.3906 40.9491C54.7973 38.0842 56.0771 35.1858 57.0918 32.1572C58.1309 29.0561 58.9357 25.8847 59.7581 22.7213C59.9769 21.8808 58.6584 21.5971 58.4403 22.4361Z"
            fill="#96F1F0" />
        <path
            d="M61.5845 15.0532C62.1612 15.9862 61.9319 17.1918 61.5905 18.1683C61.444 18.5871 61.0589 18.8854 60.5932 18.7733C60.1912 18.6764 59.8334 18.2021 59.9808 17.7805C60.1576 17.2747 60.4862 16.4133 60.174 15.9085C59.6152 15.0045 61.0253 14.1487 61.5845 15.0532ZM45.0111 2.35322C45.7483 1.93911 46.4459 2.01083 47.2537 2.12085C48.3114 2.26495 47.965 3.87242 46.9151 3.7293C46.4764 3.66958 46.1362 3.58212 45.747 3.83688C45.3339 4.10739 45.0809 4.46845 44.8881 4.91421C44.468 5.88557 42.998 5.12435 43.4163 4.15737C43.7384 3.41205 44.295 2.7555 45.0111 2.35322ZM35.1839 9.02879C36.0769 8.4511 36.9411 9.85606 36.0499 10.4326C35.4612 10.8135 35.3135 11.485 35.4275 12.166C35.5013 12.6074 35.3405 13.0455 34.8754 13.1895C34.492 13.3081 33.9164 13.0752 33.8432 12.6376C33.6034 11.2031 33.9135 9.85071 35.1839 9.02879Z"
            fill="#FFEAF7" />
        <path d="M49.1465 44.21L49.9698 44.5185L44.7247 58.5142L43.9014 58.2057L49.1465 44.21Z"
            fill="white" />
        <path
            d="M44.7726 58.6196L43.7974 58.2542L43.8259 58.1782L49.099 44.1064L50.0744 44.4717L50.0458 44.5477L44.7726 58.6196ZM44.0062 58.1591L44.6775 58.4108L49.8656 44.5668L49.1941 44.3153L44.0062 58.1591Z"
            fill="black" />
        <path
            d="M52.3942 46.5068C54.7728 45.4251 55.8242 42.62 54.7426 40.2414C53.6609 37.8629 50.8558 36.8115 48.4772 37.8931C46.0986 38.9747 45.0472 41.7798 46.1289 44.1584C47.2105 46.537 50.0156 47.5884 52.3942 46.5068Z"
            fill="#FF6463" />
        <path
            d="M50.4369 47.0133C49.8669 47.0133 49.2957 46.9108 48.7459 46.7047C47.5422 46.2536 46.5862 45.3607 46.054 44.1908C45.5219 43.0208 45.4771 41.7133 45.9284 40.5096C46.3793 39.3059 47.2721 38.3499 48.4423 37.8177C49.6123 37.2856 50.9197 37.2408 52.1233 37.6919C53.327 38.143 54.283 39.0358 54.8152 40.2058C55.3473 41.3758 55.3921 42.6832 54.9408 43.887C54.4899 45.0907 53.597 46.0467 52.4269 46.5788C51.8024 46.8645 51.1237 47.0127 50.4369 47.0133ZM50.4324 37.5459C49.7771 37.5459 49.1238 37.6862 48.5095 37.9655C47.3788 38.4797 46.5161 39.4035 46.0801 40.5666C45.6442 41.7297 45.6874 42.993 46.2016 44.1236C46.7159 45.2541 47.6397 46.1169 48.8029 46.5528C49.9657 46.9887 51.2292 46.9455 52.3597 46.4313C53.4904 45.917 54.3531 44.9934 54.7891 43.8302C55.2248 42.667 55.1818 41.4037 54.6675 40.2732C54.1533 39.1426 53.2295 38.2798 52.0663 37.8439C51.544 37.6474 50.9905 37.5464 50.4324 37.5459Z"
            fill="black" />
        <path
            d="M52.0023 45.6451C53.9048 44.7799 54.7458 42.5362 53.8807 40.6336C53.0155 38.7311 50.7718 37.8901 48.8692 38.7553C46.9667 39.6204 46.1257 41.8641 46.9908 43.7667C47.856 45.6693 50.0997 46.5102 52.0023 45.6451Z"
            fill="#FF95D8" />
        <path
            d="M50.4364 46.0659C49.9785 46.0659 49.5197 45.9835 49.078 45.8179C48.602 45.641 48.1658 45.3714 47.7947 45.0248C47.4235 44.6782 47.1248 44.2614 46.9158 43.7986C46.7043 43.3369 46.5865 42.8379 46.5691 42.3304C46.5518 41.8228 46.6353 41.3169 46.8148 40.8419C47.5626 38.8461 49.7945 37.8306 51.7911 38.5785C53.7869 39.3264 54.8022 41.5588 54.0541 43.5547C53.8773 44.0308 53.6077 44.467 53.2611 44.8381C52.9146 45.2093 52.4978 45.508 52.035 45.717C51.5332 45.9463 50.9881 46.0652 50.4364 46.0659ZM50.4385 38.4947C48.9382 38.4947 47.5233 39.413 46.9666 40.8987C46.7946 41.3538 46.7146 41.8385 46.7312 42.3248C46.7479 42.811 46.8608 43.2891 47.0634 43.7314C47.2637 44.1749 47.5499 44.5742 47.9055 44.9063C48.2611 45.2384 48.6791 45.4966 49.1352 45.6661C49.5903 45.838 50.0749 45.918 50.5612 45.9014C51.0474 45.8848 51.5255 45.7719 51.9678 45.5693C52.4112 45.3691 52.8105 45.083 53.1426 44.7274C53.4747 44.3719 53.7329 43.954 53.9024 43.4979C54.6188 41.5857 53.6462 39.4471 51.7341 38.7305C51.3199 38.5748 50.8811 38.4949 50.4385 38.4947Z"
            fill="black" />
        <path
            d="M51.5598 44.6718C52.9248 44.0511 53.5282 42.4413 52.9075 41.0763C52.2867 39.7113 50.677 39.1079 49.3119 39.7286C47.9469 40.3493 47.3435 41.9591 47.9643 43.3241C48.585 44.6892 50.1948 45.2925 51.5598 44.6718Z"
            fill="#00BEA9" />
        <path
            d="M50.4315 44.9946C50.106 44.9946 49.7754 44.9374 49.4531 44.8166C49.1088 44.6886 48.7933 44.4936 48.5248 44.2429C48.2564 43.9922 48.0403 43.6907 47.8892 43.3558C47.7361 43.0219 47.6509 42.6609 47.6383 42.2937C47.6258 41.9266 47.6862 41.5606 47.8161 41.2169C47.9441 40.8726 48.139 40.557 48.3897 40.2885C48.6405 40.02 48.9419 39.804 49.2768 39.6528C49.6108 39.4998 49.9718 39.4145 50.339 39.402C50.7062 39.3895 51.0722 39.4499 51.4158 39.5798C52.8594 40.1208 53.594 41.7356 53.053 43.1795C52.6326 44.3011 51.564 44.9946 50.4315 44.9946ZM50.4333 39.5629C50.062 39.5629 49.692 39.6424 49.3439 39.8006C49.0285 39.943 48.7445 40.1466 48.5084 40.3995C48.2722 40.6524 48.0885 40.9497 47.968 41.2741C47.8457 41.5978 47.7888 41.9425 47.8007 42.2884C47.8125 42.6342 47.8928 42.9742 48.037 43.2888C48.1794 43.6042 48.3829 43.8882 48.6358 44.1244C48.8887 44.3605 49.1859 44.5442 49.5103 44.6647C50.8695 45.1741 52.3914 44.4825 52.9011 43.1227C53.4106 41.7627 52.7187 40.2415 51.3587 39.732C51.0629 39.6205 50.7494 39.5632 50.4333 39.5629Z"
            fill="black" />
        <path
            d="M51.9596 42.7697C51.644 43.6119 50.7054 44.0389 49.8632 43.7232C49.021 43.4076 48.594 42.469 48.9097 41.6268C49.2253 40.7847 50.1639 40.3577 51.0061 40.6733C51.8483 40.989 52.2752 41.9275 51.9596 42.7697Z"
            fill="#AA5FFF" />
        <path
            d="M50.4354 43.9088C50.2329 43.9088 50.0299 43.8723 49.8347 43.7993C49.6242 43.7211 49.4312 43.6018 49.2671 43.4485C49.1029 43.2952 48.9708 43.1109 48.8784 42.9061C48.7849 42.7019 48.7328 42.4812 48.7251 42.2567C48.7174 42.0323 48.7544 41.8085 48.8338 41.5984C48.912 41.3878 49.0312 41.1949 49.1845 41.0308C49.3377 40.8666 49.5221 40.7345 49.7268 40.6421C49.931 40.5486 50.1518 40.4964 50.3763 40.4888C50.6008 40.4811 50.8246 40.5181 51.0347 40.5975C51.2452 40.6757 51.4381 40.795 51.6023 40.9482C51.7664 41.1015 51.8985 41.2858 51.991 41.4905C52.0846 41.6947 52.1367 41.9154 52.1443 42.1399C52.1519 42.3644 52.1149 42.5882 52.0354 42.7982C51.9573 43.0088 51.8381 43.2017 51.6848 43.3659C51.5315 43.53 51.3472 43.6621 51.1425 43.7545C50.9206 43.856 50.6794 43.9086 50.4354 43.9088ZM50.4338 40.6502C50.213 40.6505 49.9948 40.6981 49.794 40.7898C49.6087 40.8735 49.4419 40.993 49.3032 41.1416C49.1644 41.2902 49.0565 41.4648 48.9857 41.6553C48.9138 41.8455 48.8804 42.048 48.8874 42.2512C48.8943 42.4544 48.9415 42.6541 49.0261 42.839C49.1098 43.0243 49.2294 43.1911 49.378 43.3299C49.5266 43.4687 49.7012 43.5766 49.8918 43.6474C50.082 43.7193 50.2845 43.7527 50.4876 43.7458C50.6908 43.7388 50.8905 43.6916 51.0753 43.6068C51.2605 43.5232 51.4274 43.4036 51.5661 43.2551C51.7049 43.1065 51.8129 42.932 51.8837 42.7414C51.9555 42.5513 51.9889 42.3487 51.982 42.1456C51.9751 41.9424 51.9279 41.7427 51.8433 41.5578C51.7596 41.3726 51.64 41.2058 51.4915 41.067C51.3429 40.9283 51.1683 40.8204 50.9778 40.7495C50.8039 40.684 50.6196 40.6504 50.4338 40.6502Z"
            fill="black" />
        <path
            d="M51.1298 42.4588C51.0956 42.5501 51.0437 42.6337 50.9771 42.705C50.9106 42.7763 50.8306 42.8337 50.7419 42.8741C50.6531 42.9145 50.5572 42.937 50.4598 42.9403C50.3623 42.9436 50.2652 42.9277 50.1739 42.8935C50.0825 42.8593 49.9989 42.8074 49.9276 42.7408C49.8563 42.6743 49.7989 42.5943 49.7585 42.5055C49.7181 42.4168 49.6957 42.3209 49.6923 42.2235C49.689 42.126 49.7049 42.0288 49.7391 41.9375C49.7734 41.8462 49.8252 41.7625 49.8918 41.6913C49.9584 41.62 50.0383 41.5625 50.1271 41.5222C50.2158 41.4818 50.3117 41.4593 50.4091 41.456C50.5066 41.4527 50.6038 41.4686 50.6951 41.5028C50.7864 41.537 50.8701 41.5889 50.9413 41.6555C51.0126 41.722 51.0701 41.802 51.1104 41.8907C51.1508 41.9795 51.1733 42.0754 51.1766 42.1728C51.1799 42.2703 51.164 42.3674 51.1298 42.4588Z"
            fill="#FFD900" />
        <path
            d="M50.4335 43.0222C50.3351 43.0222 50.2375 43.0044 50.1453 42.9698C50.0439 42.9321 49.9509 42.8747 49.8719 42.8008C49.7928 42.7269 49.7291 42.6381 49.6846 42.5395C49.6396 42.4411 49.6145 42.3348 49.6108 42.2266C49.6071 42.1185 49.6249 42.0107 49.6632 41.9095C49.7009 41.8081 49.7583 41.7151 49.8321 41.6361C49.906 41.557 49.9948 41.4933 50.0934 41.4488C50.1918 41.4038 50.2981 41.3786 50.4063 41.3749C50.5144 41.3712 50.6223 41.389 50.7235 41.4272C50.8249 41.4649 50.9179 41.5223 50.9969 41.5962C51.076 41.67 51.1397 41.7588 51.1842 41.8574C51.2292 41.9558 51.2543 42.0622 51.258 42.1703C51.2617 42.2785 51.2439 42.3863 51.2056 42.4875C51.1466 42.6446 51.041 42.78 50.9031 42.8755C50.7651 42.971 50.6013 43.0222 50.4335 43.0222ZM50.4342 41.5368C50.341 41.5368 50.248 41.5566 50.1606 41.5965C50.0814 41.6323 50.01 41.6834 49.9507 41.7469C49.8914 41.8104 49.8452 41.885 49.8149 41.9665C49.7842 42.0478 49.7699 42.1343 49.7729 42.2212C49.7758 42.308 49.796 42.3934 49.8321 42.4724C49.8679 42.5516 49.919 42.6229 49.9825 42.6822C50.046 42.7415 50.1207 42.7876 50.2021 42.8179C50.3664 42.8791 50.5482 42.8727 50.7078 42.8002C50.8674 42.7276 50.9917 42.5948 51.0536 42.4307C51.0843 42.3495 51.0986 42.2629 51.0956 42.176C51.0926 42.0892 51.0724 42.0038 51.0362 41.9248C51.0004 41.8456 50.9493 41.7743 50.8858 41.715C50.8223 41.6557 50.7477 41.6096 50.6662 41.5793C50.5921 41.5512 50.5134 41.5368 50.4342 41.5368ZM63.2006 56.5053C61.3256 58.2015 58.2445 57.36 56.1062 56.7356C53.5918 55.9985 51.1684 54.9549 48.7352 53.9893C47.251 53.3996 48.0974 51.064 49.5882 51.6537C52.3345 52.7453 55.0909 53.9858 57.9748 54.6734C58.9355 54.9037 60.645 55.3973 61.5146 54.6833C62.2186 54.1069 62.116 52.6972 62.0083 51.9104C61.6272 49.1126 60.1299 46.5932 58.7732 44.1732C57.839 42.5052 56.9494 40.8289 56.1229 39.1178C56.5685 38.0478 56.9827 36.9711 57.3702 35.9043C58.4866 38.4138 59.7471 40.8338 61.0922 43.2372C62.361 45.5016 63.6034 47.7875 64.2312 50.3251C64.7179 52.2997 64.8553 55.0062 63.2006 56.5053Z"
            fill="black" />
        <path
            d="M52.4221 52.1342C52.4221 52.1342 54.1442 51.6386 53.9937 52.8425C53.8789 53.7595 53.0627 55.5611 52.6804 56.3674C52.504 56.7393 52.1391 57.0019 51.7274 57.0058C51.4611 57.0084 50.9014 56.6441 50.6904 56.3135C49.9529 56.5131 48.8772 57.0332 47.3319 56.6207C46.1759 56.3121 45.0309 55.7186 44.1536 54.8996C43.7027 54.4785 43.3371 53.9857 43.2197 53.3697C43.1545 53.0275 43.1548 52.6528 43.2887 52.3262C43.3554 52.1634 43.4563 52.0173 43.5912 51.9038C43.6304 51.8707 43.9135 51.6482 43.9135 51.6482C43.9135 51.6482 43.4743 49.8575 45.31 49.79C45.31 49.79 44.8373 46.9432 48.148 48.825C48.3485 48.9389 48.9089 48.0722 49.8864 47.968C50.0315 47.9526 51.0419 47.8593 51.8216 48.4821C52.7492 49.2228 53.0376 50.7274 52.4221 52.1342Z"
            fill="white" />
        <path
            d="M51.7249 57.0872C51.4352 57.0873 50.8994 56.7422 50.6565 56.4076C50.5521 56.4373 50.4413 56.4725 50.3235 56.51C49.6069 56.7378 48.6258 57.0502 47.3112 56.6993C46.0929 56.3741 44.9521 55.7562 44.0987 54.9591C43.5598 54.4559 43.2463 53.941 43.1405 53.3851C43.0864 53.1017 43.0554 52.6829 43.2138 52.2957C43.2885 52.1137 43.398 51.9611 43.5392 51.842C43.5695 51.8165 43.7441 51.6788 43.8238 51.6161C43.7866 51.4242 43.6924 50.7499 44.0692 50.2511C44.3114 49.9303 44.6978 49.7498 45.2187 49.714C45.1903 49.4441 45.1557 48.6461 45.6799 48.2803C46.1782 47.9326 47.0224 48.0919 48.1883 48.7548C48.2285 48.7639 48.3858 48.6407 48.5 48.551C48.802 48.3131 49.2585 47.9536 49.878 47.8878C50.0737 47.8668 51.0897 47.7938 51.8725 48.419C52.8259 49.1806 53.0983 50.6427 52.5586 52.0183C52.8601 51.9543 53.5128 51.8617 53.86 52.1586C54.0407 52.3133 54.113 52.5469 54.0746 52.8531C53.9574 53.7909 53.1121 55.6478 52.7542 56.4027C52.5588 56.8147 52.1562 57.0834 51.7286 57.0875C51.7271 57.0872 51.7258 57.0872 51.7249 57.0872ZM50.7269 56.2198L50.759 56.2701C50.9617 56.5877 51.4975 56.9249 51.7245 56.9249H51.7266C52.0927 56.9215 52.4382 56.6891 52.6071 56.3329C52.9619 55.5852 53.799 53.7473 53.9133 52.8329C53.9448 52.5807 53.8928 52.4006 53.7544 52.2819C53.3697 51.9525 52.4539 52.2101 52.4447 52.2127L52.2789 52.2604L52.348 52.1023C52.9296 50.7731 52.687 49.2773 51.7709 48.5458C51.038 47.9603 50.0802 48.0293 49.8949 48.0491C49.3219 48.1101 48.8875 48.4522 48.6003 48.6785C48.3794 48.8525 48.2332 48.9674 48.108 48.896C47.0014 48.2672 46.2159 48.1046 45.773 48.4134C45.2343 48.7887 45.3886 49.7674 45.3902 49.7773L45.4053 49.8681L45.3133 49.8715C44.7991 49.8905 44.4242 50.0509 44.1993 50.3483C43.8115 50.8609 43.9908 51.6218 43.9926 51.6294L44.0049 51.6801L43.9638 51.7124C43.9638 51.7124 43.683 51.9332 43.6438 51.966C43.5228 52.0681 43.4287 52.1997 43.3641 52.3572C43.2205 52.7076 43.25 53.0931 43.2998 53.3547C43.399 53.8758 43.6964 54.3618 44.2094 54.8407C45.0438 55.6196 46.16 56.224 47.3531 56.5426C48.6217 56.8811 49.5767 56.5771 50.2745 56.3553C50.4158 56.3104 50.5474 56.2685 50.6696 56.2356L50.7269 56.2198Z"
            fill="black" />
        <path d="M45.3369 49.8208L46.5436 50.652L45.3369 49.8208Z" fill="white" />
        <path d="M45.291 49.8831L45.3829 49.7495L46.5897 50.5807L46.4978 50.7142L45.291 49.8831Z"
            fill="black" />
        <path d="M43.9136 51.6479L45.2363 52.4079L43.9136 51.6479Z" fill="white" />
        <path d="M43.876 51.7203L43.9568 51.5796L45.2796 52.3395L45.1988 52.4802L43.876 51.7203Z"
            fill="black" />
        <path d="M48.1479 48.8247L49.948 49.9364L48.1479 48.8247Z" fill="white" />
        <path d="M48.1079 48.893L48.1931 48.7549L49.9934 49.8665L49.9082 50.0044L48.1079 48.893Z"
            fill="black" />
        <path d="M52.4223 52.1343L51.8701 53.5162L52.4223 52.1343Z" fill="white" />
        <path d="M51.7964 53.4869L52.3491 52.105L52.4997 52.1652L51.947 53.5469L51.7964 53.4869Z"
            fill="black" />
        <path d="M51.0734 55.2974L50.6904 56.3137L51.0734 55.2974Z" fill="white" />
        <path
            d="M50.6169 56.2857L50.9999 55.2694L51.1516 55.3267L50.7686 56.3428L50.6169 56.2857ZM28.3312 36.5366C28.2549 37.7558 28.217 38.9667 28.2269 40.1525V40.1542C26.1978 41.5505 23.8307 41.0801 21.7569 39.9802C20.5577 39.3425 19.544 38.4496 18.4722 37.6281C17.3491 36.7667 16.2012 35.9502 15.098 35.0606C13.8524 34.0551 15.5967 32.2844 16.8324 33.2816C17.8146 34.0733 18.8301 34.8071 19.8372 35.5657C20.7119 36.2267 21.5351 36.9687 22.4792 37.5336C23.3571 38.0587 24.3576 38.5705 25.4061 38.5738C26.2922 38.5754 27.0161 38.0586 27.5976 37.4293C27.8593 37.1463 28.1043 36.8482 28.3312 36.5366Z"
            fill="black" />
        <path
            d="M15.5092 30.5155C15.4965 30.5174 15.3623 30.1933 15.0874 29.9467C14.6741 29.5759 13.9257 29.2478 13.3733 29.1483C12.8909 29.0615 12.3877 29.1554 12.0284 29.5188C11.6317 29.9199 11.7002 30.5492 12.0572 30.955C11.9813 30.9327 11.9033 30.9186 11.8245 30.9132C11.7847 30.91 11.7448 30.9096 11.705 30.912C11.5338 30.9266 11.3659 30.9685 11.208 31.0363C10.8414 31.1967 10.5884 31.5342 10.5023 31.9209C10.4041 32.3615 10.5488 32.7764 10.7057 33.1842C10.6942 33.1882 10.5672 33.2256 10.5558 33.2298C9.77382 33.5159 9.48124 34.3759 9.79443 35.1475C10.5427 36.9906 12.9784 36.9588 12.9784 36.9588C14.044 39.6887 16.2008 38.1969 16.2008 38.1969C17.2059 39.6425 18.6321 38.6434 19.9121 35.882C21.1923 33.1204 18.6352 33.5529 18.6352 33.5529C19.5592 29.8753 16.2302 30.4053 15.5092 30.5155Z"
            fill="white" />
        <path
            d="M17.2348 38.9378C16.8444 38.9378 16.49 38.7259 16.1799 38.3066C15.9509 38.446 15.1795 38.8546 14.3717 38.6076C13.7534 38.4185 13.2663 37.8908 12.9229 37.0389C12.5478 37.0283 10.4152 36.8922 9.71934 35.178C9.54749 34.7551 9.54733 34.2908 9.71885 33.9043C9.87398 33.5543 10.1614 33.2876 10.5279 33.1534C10.5335 33.1515 10.5651 33.1418 10.599 33.1317C10.4468 32.727 10.3287 32.3267 10.4231 31.9031C10.5179 31.4785 10.7989 31.1265 11.1756 30.9619C11.3348 30.8923 11.5105 30.8484 11.6978 30.8312C11.7419 30.8283 11.7862 30.8286 11.8303 30.8321C11.8424 30.8329 11.8545 30.8341 11.8667 30.8352C11.5819 30.3821 11.6148 29.8213 11.9709 29.4616C12.3219 29.1065 12.8246 28.967 13.3878 29.0684C13.9886 29.1766 14.7426 29.5281 15.1417 29.8862C15.3611 30.0829 15.4932 30.3234 15.5501 30.4271C16.1054 30.3426 17.6233 30.1347 18.4098 30.9988C18.8877 31.5242 18.9995 32.3512 18.742 33.4577C19.0336 33.4303 19.7775 33.4128 20.1462 33.8958C20.4668 34.3156 20.4129 34.9952 19.9862 35.916C19.118 37.7886 18.175 38.8602 17.3309 38.9338C17.2984 38.9363 17.2665 38.9378 17.2348 38.9378ZM16.2213 38.0841L16.2674 38.1505C16.5773 38.5962 16.9283 38.8052 17.3166 38.7721C18.1002 38.704 18.996 37.6654 19.8385 35.8478C20.2378 34.9865 20.2981 34.363 20.0173 33.9948C19.6217 33.4762 18.6584 33.6313 18.6487 33.633L18.5264 33.6534L18.5565 33.5332C18.835 32.4247 18.7451 31.6089 18.2894 31.1083C17.5419 30.2867 16.0306 30.5181 15.5337 30.5941L15.5207 30.596C15.4628 30.6048 15.4393 30.5634 15.4083 30.5064C15.3557 30.4107 15.2327 30.1863 15.0331 30.0075C14.6536 29.6668 13.9339 29.3321 13.359 29.2286C12.8506 29.137 12.3985 29.2604 12.0861 29.5761C11.6961 29.9703 11.8115 30.5533 12.1179 30.9017L12.3047 31.114L12.0337 31.033C11.9636 31.0124 11.8915 30.9994 11.8187 30.9944C11.7834 30.9913 11.7479 30.9909 11.7125 30.9933C11.5499 31.007 11.3905 31.0467 11.2405 31.1111C10.9114 31.255 10.6649 31.5645 10.5815 31.939C10.4903 32.3473 10.6182 32.7315 10.7814 33.1555L10.8116 33.2336L10.7326 33.2612C10.7269 33.2631 10.6948 33.2729 10.6608 33.2829C10.6269 33.293 10.5912 33.3037 10.583 33.3065C10.2542 33.4267 10.0062 33.6563 9.86717 33.9703C9.7135 34.3168 9.71431 34.7348 9.8696 35.1173C10.5893 36.8894 12.9534 36.8755 12.9773 36.8779L13.0336 36.8773L13.054 36.9297C13.3794 37.763 13.8386 38.2756 14.4192 38.4531C15.2898 38.7194 16.1463 38.1365 16.1547 38.1307L16.2213 38.0841ZM15.5091 30.5154V30.5061L15.5078 30.5069L15.5091 30.5154Z"
            fill="black" />
        <path
            d="M17.8254 20.2533C18.2114 19.503 17.2379 18.781 16.8516 19.5322C16.2964 20.6114 15.7394 21.6826 15.3496 22.86C14.9622 24.03 14.872 25.311 14.8738 26.5511C14.8777 29.2224 15.489 32.0289 14.3071 34.5089C13.3314 36.5565 12.0251 38.3446 12.2236 40.8158C12.3352 42.2052 12.4903 43.4166 12.0554 44.7623C11.6186 46.1137 11.0705 47.4179 10.5083 48.7046C10.1703 49.4781 11.1419 50.2046 11.4821 49.4257C12.3952 47.3361 13.605 44.9999 13.529 42.5992C13.4857 41.2288 13.1766 39.9686 13.6207 38.6308C14.0258 37.4104 14.7338 36.3639 15.2811 35.2301C16.326 33.0652 16.2533 30.7181 16.0878 28.3319C15.9925 26.9578 15.9526 25.4736 16.2213 24.118C16.499 22.7176 17.1977 21.4734 17.8254 20.2533Z"
            fill="black" />
        <path
            d="M20.4461 0.193322C24.9661 0.990405 27.8967 5.7966 26.9919 10.9285C26.1791 15.538 21.8766 18.7224 17.8702 18.7696L18.8262 20.9689L14.9053 20.429L16.4963 18.4884C12.7771 17.0544 9.8142 12.6312 10.6235 8.04196C11.5283 2.91025 15.9262 -0.603761 20.4461 0.193322Z"
            fill="#FF6463" />
        <path
            d="M18.9583 21.069L14.7507 20.4897L16.3631 18.5231C12.8241 17.0993 9.69919 12.8176 10.5437 8.0278C11.4551 2.86023 15.9035 -0.689967 20.4603 0.113444C22.6696 0.502899 24.5742 1.84522 25.8228 3.8931C27.0695 5.93757 27.513 8.44095 27.0719 10.9424C26.687 13.1249 25.4825 15.1422 23.6803 16.6224C22.0194 17.9866 19.9534 18.7938 17.9931 18.8481L18.9583 21.069ZM15.06 20.3685L18.6943 20.8689L17.7473 18.6899L17.8695 18.6885C19.8294 18.6654 21.9097 17.8667 23.5772 16.4971C25.3496 15.0414 26.534 13.0587 26.9123 10.9143C27.3465 8.45182 26.9103 5.98836 25.6843 3.97764C24.4603 1.97017 22.5952 0.654624 20.4322 0.273283C15.9634 -0.514064 11.5991 2.97642 10.7033 8.05604C9.8652 12.8103 13.0055 17.0554 16.5255 18.4128L16.6303 18.453L15.06 20.3685Z"
            fill="black" />
        <path
            d="M16.4424 1.81343C16.8327 1.73944 16.9803 2.33984 16.5889 2.414C14.0599 2.89336 13.027 5.34351 12.6121 7.62944C12.5412 8.0202 11.9494 7.84056 12.0196 7.45289C12.4737 4.95146 13.7001 2.33319 16.4424 1.81343ZM11.8658 8.31164C11.8837 8.27577 11.9105 8.24513 11.9437 8.22271C11.9758 8.19707 12.0119 8.18101 12.0516 8.17436C12.0909 8.16073 12.1315 8.1578 12.1733 8.16576L12.253 8.1888C12.3027 8.21119 12.3437 8.24397 12.3762 8.28762L12.4146 8.35659C12.4351 8.40835 12.4412 8.4619 12.4333 8.51708L12.4253 8.5703C12.4211 8.61147 12.4059 8.65076 12.3814 8.68405C12.3635 8.71992 12.3367 8.75056 12.3035 8.77298C12.2723 8.79814 12.2351 8.81485 12.1956 8.8215C12.1565 8.83515 12.1145 8.83812 12.0738 8.8301L11.9942 8.80706C11.9452 8.78543 11.9028 8.75135 11.8712 8.70823L11.8327 8.63927C11.8124 8.58837 11.806 8.53297 11.8142 8.47878L11.8222 8.42555C11.8264 8.38304 11.8412 8.34507 11.8658 8.31164ZM11.0549 35.6564C11.0549 35.6564 14.3312 36.3626 14.2303 34.8546C14.1277 33.3245 10.7056 33.184 10.7056 33.184"
            fill="white" />
        <path
            d="M12.5954 35.9037C11.8319 35.9037 11.091 35.7471 11.0382 35.7357L11.0725 35.5772C11.0937 35.5817 13.2231 36.0314 13.9319 35.419C14.0941 35.2786 14.1654 35.0957 14.1496 34.8601C14.0532 33.4201 10.7361 33.2666 10.7026 33.2651L10.7093 33.103C10.8521 33.1089 14.2056 33.2647 14.3116 34.8492C14.3307 35.1352 14.2387 35.3682 14.0378 35.5418C13.7144 35.8214 13.1491 35.9037 12.5954 35.9037Z"
            fill="black" />
        <path
            d="M11.4458 33.2599C13.8614 33.5954 14.265 34.8309 14.265 34.8309C17.2902 32.5609 11.9849 30.9297 11.9849 30.9297C13.7497 31.4717 14.5824 32.2668 14.5824 32.2668C17.1219 30.296 14.0164 28.9646 12.7474 29.1601"
            fill="white" />
        <path
            d="M14.2237 34.963L14.1878 34.8561C14.184 34.8442 13.7625 33.6632 11.4346 33.3398L11.4568 33.1792C13.5154 33.4651 14.1424 34.3902 14.298 34.7029C14.9142 34.2179 15.1844 33.7309 15.1013 33.2541C14.8679 31.916 11.9902 31.0159 11.961 31.007L12.0087 30.8519L12.0095 30.8522C13.5467 31.3244 14.3759 31.9792 14.5859 32.1607C15.3416 31.5574 15.6207 30.9607 15.3932 30.4321C15.0373 29.6048 13.5449 29.1196 12.7599 29.2403L12.7352 29.08C13.5676 28.952 15.1459 29.4474 15.5423 30.3681C15.7238 30.7895 15.7199 31.4609 14.6937 32.2826C14.9859 32.5629 15.2006 32.879 15.2611 33.2264C15.3591 33.7888 15.0406 34.3505 14.3136 34.8959L14.2237 34.963Z"
            fill="black" />
        <path
            d="M18.8172 33.5391C18.9576 32.6368 18.8024 31.9072 18.6747 31.5668C18.3494 30.6988 17.4515 30.4632 16.2771 30.4836C14.7411 30.5104 14.0383 30.7046 13.3298 30.991C12.8245 31.1954 12.4811 31.712 12.5582 32.2516C12.7802 33.806 16.0254 33.4063 16.0254 33.4063C16.0254 33.4063 14.3854 35.7429 17.3118 36.0958"
            fill="white" />
        <path
            d="M17.302 36.1764C16.3924 36.0667 15.817 35.7547 15.5915 35.2491C15.3003 34.5957 15.6809 33.8207 15.8675 33.5041C15.1828 33.5648 12.6808 33.686 12.4776 32.2632C12.3983 31.7071 12.7439 31.1405 13.2992 30.9159C14.0549 30.6103 14.7841 30.4284 16.2754 30.4025C17.1514 30.3888 18.3571 30.4888 18.7504 31.5384C18.9077 31.9574 19.0287 32.7062 18.8971 33.5515L18.7368 33.5267C18.8635 32.7122 18.7485 31.995 18.5987 31.5953C18.323 30.8594 17.6054 30.5414 16.2784 30.5647C14.8124 30.5902 14.0982 30.7681 13.3602 31.0663C12.8729 31.2633 12.5694 31.7569 12.6384 32.2402C12.8469 33.699 15.9842 33.3297 16.0155 33.3258L16.1966 33.3034L16.0917 33.4529C16.0849 33.4628 15.4089 34.4417 15.7399 35.1832C15.9407 35.6328 16.4728 35.9127 17.3213 36.0151L17.302 36.1764ZM16.2558 38.2678L16.1743 38.1274C16.5713 37.8972 16.9688 37.454 17.3557 36.8103L17.4947 36.894C17.0936 37.5613 16.6769 38.0236 16.2558 38.2678Z"
            fill="black" />
        <path
            d="M18.2403 35.8736L18.1079 35.7798C18.6272 35.0474 18.6936 34.0057 18.7255 33.5049L18.8876 33.5136C18.8545 34.0308 18.786 35.1038 18.2403 35.8736Z"
            fill="black" />
        <path
            d="M42.0517 27.4672C42.0107 27.5606 41.8018 28.143 41.7488 28.3405C40.9976 31.1146 42.1356 34.0243 44.4738 35.5456C44.8762 35.8099 45.3071 36.0278 45.7585 36.1952C49.1395 37.4525 52.9092 35.7118 54.179 32.304C55.4516 28.8976 53.7397 25.115 50.3588 23.8577C50.0958 23.7599 49.8268 23.6787 49.5536 23.6147C47.5615 23.1525 45.5141 23.6713 43.9816 24.9083L43.9803 24.9111C43.9315 24.9495 43.8814 24.9907 43.8325 25.029C43.0583 25.693 42.4487 26.5276 42.0517 27.4672Z"
            fill="white" />
        <path
            d="M48.0139 36.6836C47.2343 36.6836 46.4609 36.544 45.7304 36.2714C45.2734 36.1017 44.8369 35.881 44.4293 35.6136C42.022 34.0475 40.9132 31.116 41.6705 28.3196C41.723 28.1242 41.9313 27.5405 41.9772 27.4354C42.3776 26.4837 42.9948 25.6387 43.7796 24.9678L43.9308 24.8455C45.532 23.5531 47.5878 23.0757 49.5722 23.5361C49.8489 23.6008 50.1211 23.683 50.3873 23.7821C52.0341 24.3945 53.3448 25.615 54.0776 27.2189C54.8184 28.8401 54.8815 30.6563 54.2553 32.3327C53.2545 35.0177 50.7077 36.6834 48.0139 36.6836ZM44.0464 24.9607L44.0462 24.961L43.8826 25.0931C43.118 25.7474 42.5167 26.5712 42.1267 27.499L42.1262 27.4999C42.0847 27.5947 41.8779 28.1732 41.8271 28.3618C41.0883 31.0902 42.1697 33.95 44.5181 35.4777C44.9155 35.7386 45.3411 35.9538 45.7867 36.1192C49.1211 37.3593 52.8513 35.635 54.1029 32.2758C54.7142 30.6399 54.6527 28.8677 53.9297 27.2861C53.2149 25.7218 51.9367 24.5312 50.3305 23.934C50.0707 23.8373 49.805 23.7572 49.5351 23.694C47.6068 23.2466 45.6065 23.7081 44.0464 24.9607Z"
            fill="black" />
        <path
            d="M42.0635 27.4717C41.2229 29.5142 41.4173 31.9527 42.6806 33.7953C43.1582 34.4904 43.7675 35.085 44.4742 35.5454C45.238 35.1965 44.8093 34.2042 45.4462 33.7434C45.9773 33.3623 46.61 33.3964 46.8575 32.74C47.0603 32.213 46.7244 31.5973 46.66 31.0253C46.5328 29.8991 47.3016 30.0186 48.1231 29.3269C48.6477 28.8882 48.6737 28.4687 48.5333 27.792C48.3691 27.0079 48.2021 26.9662 48.8947 26.5386C49.3096 26.2804 49.952 26.1513 50.2328 25.7677C50.6305 25.2169 50.4823 24.4064 49.8493 23.858C49.7528 23.7746 49.6543 23.6934 49.554 23.6146C47.5619 23.1525 45.5145 23.6713 43.9807 24.911C43.9444 24.9587 43.8968 24.9944 43.8329 25.029C43.5447 25.1848 43.27 25.5614 43.0624 25.81C42.6467 26.3097 42.3098 26.8701 42.0635 27.4717Z"
            fill="black" />
        <path
            d="M44.4671 35.6377L44.4298 35.6134C43.7139 35.1475 43.0968 34.5453 42.6135 33.841C41.357 32.0087 41.1173 29.5562 41.9882 27.4407C42.2376 26.8314 42.5787 26.2639 42.9998 25.7579C43.0326 25.7187 43.067 25.6761 43.103 25.6318C43.2965 25.3931 43.5375 25.0963 43.7938 24.9574C43.8523 24.9258 43.8888 24.8972 43.9157 24.8619L43.9293 24.8479C45.5306 23.5534 47.5868 23.0751 49.572 23.5354L49.6039 23.5509C49.7037 23.6296 49.8047 23.7125 49.9021 23.7967C50.5629 24.369 50.7295 25.2179 50.2982 25.815C50.104 26.0804 49.7611 26.2271 49.4294 26.369C49.2496 26.4461 49.0797 26.5187 48.9371 26.6074C48.4082 26.9339 48.4202 26.9819 48.5346 27.4417C48.5582 27.5361 48.5853 27.6456 48.6124 27.7753C48.7555 28.465 48.7281 28.9263 48.1747 29.3891C47.9136 29.6091 47.66 29.7476 47.4364 29.8697C46.9515 30.1344 46.6589 30.2943 46.7404 31.0162C46.7613 31.202 46.8134 31.399 46.864 31.5895C46.9689 31.9851 47.0773 32.3944 46.933 32.7692C46.7599 33.2285 46.4155 33.3719 46.0506 33.5236C45.8643 33.6014 45.6713 33.6815 45.4932 33.8094C45.2201 34.007 45.1613 34.3139 45.0992 34.6389C45.026 35.0214 44.9504 35.4169 44.5077 35.6191L44.4671 35.6377ZM44.0384 24.9683C43.9981 25.0188 43.9461 25.0598 43.8711 25.1004C43.6431 25.2237 43.4135 25.5067 43.229 25.7342C43.1925 25.7792 43.1576 25.8222 43.1243 25.8621C42.7137 26.3554 42.3811 26.9087 42.138 27.5027C41.288 29.5682 41.5214 31.9618 42.7472 33.7495C42.8767 33.9385 43.0165 34.1203 43.1658 34.2941C43.5483 34.7389 43.9904 35.1287 44.4798 35.4522C44.8116 35.2791 44.8739 34.9529 44.9398 34.6084C45.0052 34.2667 45.0727 33.9131 45.3984 33.6776C45.5918 33.5389 45.7934 33.455 45.9883 33.3739C46.3341 33.2299 46.6326 33.1056 46.7813 32.7113C46.9069 32.385 46.81 32.0186 46.7071 31.6309C46.6552 31.4349 46.6015 31.232 46.5791 31.0344C46.4855 30.2039 46.8709 29.9936 47.3586 29.7271C47.5756 29.6086 47.8216 29.4745 48.0705 29.2648C48.5673 28.8494 48.5896 28.4641 48.4537 27.8082C48.4303 27.6985 48.4048 27.5893 48.3771 27.4806C48.2494 26.9667 48.2435 26.8448 48.8517 26.4695C49.0044 26.3744 49.1881 26.2959 49.3656 26.2197C49.6772 26.0865 49.9993 25.9486 50.1671 25.7195C50.5478 25.1926 50.3918 24.4352 49.7961 23.9192C49.705 23.8406 49.6123 23.7639 49.5178 23.6893C47.5909 23.2482 45.5951 23.7136 44.0384 24.9683Z"
            fill="black" />
        <path
            d="M46.3613 20.9354L46.5204 20.9033L47.0693 23.6279L46.9103 23.6598L46.3613 20.9354ZM50.8417 24.043L52.0418 21.7731L52.1855 21.8489L50.9853 24.1189L50.8417 24.043ZM53.7955 26.9764L56.1507 25.574L56.2337 25.7136L53.8786 27.1158L53.7955 26.9764Z"
            fill="black" />
        <path
            d="M25.855 24.8752C25.8365 24.9756 25.7665 25.5903 25.76 25.7946C25.6644 28.6667 27.4391 31.2364 30.064 32.1794C30.5163 32.3441 30.9858 32.4571 31.4636 32.5163C35.0432 32.9627 38.3144 30.4025 38.7696 26.7947C39.2278 23.1875 36.6946 19.9002 33.1149 19.4538C32.8364 19.419 32.5559 19.4018 32.2753 19.4024C30.23 19.4105 28.3556 20.3859 27.1471 21.9418L27.1465 21.9448C27.1077 21.9934 27.0683 22.0451 27.0296 22.0936C26.4282 22.9175 26.0261 23.8696 25.855 24.8752Z"
            fill="white" />
        <path
            d="M32.2711 32.6478C32.0009 32.6478 31.7283 32.6312 31.4537 32.5968C30.9699 32.5368 30.4944 32.4224 30.0362 32.2557C27.3341 31.285 25.5828 28.6873 25.6791 25.7921C25.6856 25.5892 25.7547 24.9734 25.7753 24.8611C25.9471 23.8429 26.3542 22.8789 26.9643 22.0458L27.0834 21.892C28.346 20.2662 30.2383 19.3292 32.2751 19.3213C32.5664 19.3239 32.8465 19.3383 33.1253 19.3734C34.8689 19.5908 36.4246 20.4773 37.5055 21.8696C38.5981 23.277 39.0756 25.0297 38.8501 26.805C38.4253 30.1731 35.5589 32.6474 32.2711 32.6478ZM27.2229 21.9769L27.2101 21.9954L27.0931 22.1442C26.4987 22.9565 26.1021 23.8963 25.935 24.8889L25.9346 24.89C25.916 24.9913 25.8473 25.6016 25.8412 25.7973C25.7472 28.6219 27.4551 31.156 30.0913 32.103C30.538 32.2656 31.0017 32.3772 31.4735 32.4357C31.7411 32.4689 32.0077 32.4853 32.2707 32.4853C35.4789 32.4857 38.2743 30.0712 38.6891 26.7844C38.9093 25.0521 38.4433 23.3421 37.3773 21.9689C36.323 20.6109 34.8056 19.7463 33.1051 19.5342C32.8337 19.5004 32.5605 19.4834 32.287 19.4834H32.2756C30.2954 19.4914 28.4547 20.4001 27.2229 21.9769Z"
            fill="black" />
        <path
            d="M25.8668 24.8771C25.5165 27.0579 26.2646 29.386 27.9167 30.8886C28.0883 31.0448 28.2684 31.1915 28.4561 31.3279C28.949 31.6864 29.4903 31.9731 30.0639 32.1794C30.7276 31.6643 30.0828 30.7973 30.5972 30.2026C31.0269 29.7097 31.6507 29.5974 31.7413 28.9018C31.818 28.3424 31.35 27.8204 31.1561 27.2786C30.7741 26.212 31.5501 26.1514 32.1913 25.2898C32.6013 24.7421 32.5306 24.3281 32.2388 23.7018C31.8993 22.9766 31.7272 22.9743 32.3034 22.3992C32.6482 22.0527 33.2439 21.7793 33.4296 21.3415C33.6905 20.7142 33.3606 19.9594 32.6187 19.5714C32.5056 19.5124 32.3911 19.456 32.2753 19.4023C30.23 19.4105 28.3556 20.3859 27.1465 21.9447C27.1222 21.9995 27.084 22.0451 27.0297 22.0935C26.7848 22.3112 26.6037 22.7408 26.4586 23.0306C26.1685 23.6124 25.9689 24.235 25.8668 24.8771Z"
            fill="black" />
        <path
            d="M30.0784 32.2708L30.0364 32.2557C29.2329 31.9668 28.4941 31.5226 27.8621 30.9484C26.2192 29.4542 25.4239 27.1229 25.7866 24.864C25.89 24.2139 26.0921 23.5833 26.3859 22.9942C26.4089 22.9481 26.433 22.8986 26.4578 22.847C26.5915 22.5706 26.7578 22.2266 26.9756 22.0327C27.0252 21.9886 27.0541 21.9522 27.0723 21.9116L27.0822 21.8948C28.3447 20.2672 30.2373 19.3291 32.2748 19.321L32.2928 19.3208L32.3093 19.3284C32.4245 19.3821 32.5424 19.4394 32.6563 19.4991C33.4306 19.9042 33.7875 20.6918 33.5045 21.3722C33.3761 21.6751 33.0759 21.8967 32.7856 22.1109C32.628 22.2271 32.4792 22.337 32.3609 22.4559C31.9208 22.8952 31.9436 22.9392 32.1602 23.3603C32.2048 23.4467 32.2563 23.547 32.3126 23.6669C32.6099 24.3052 32.6887 24.7603 32.2563 25.3379C32.0523 25.6119 31.8371 25.8049 31.6474 25.9751C31.2361 26.3441 30.9878 26.5669 31.2325 27.2507C31.2955 27.4268 31.3914 27.6064 31.4843 27.7804C31.6771 28.1413 31.8762 28.5145 31.8215 28.9124C31.7583 29.3991 31.4558 29.6178 31.1354 29.8494C30.9717 29.9678 30.8025 30.0902 30.6584 30.2555C30.4378 30.5105 30.451 30.8227 30.4649 31.1532C30.4815 31.5422 30.4984 31.9445 30.1136 32.2431L30.0784 32.2708ZM25.9469 24.8898C25.5927 27.0951 26.3685 29.3708 27.9713 30.8285C28.5762 31.3778 29.2814 31.8053 30.0482 32.0874C30.3317 31.8426 30.3176 31.5109 30.3028 31.1605C30.2882 30.8129 30.273 30.4535 30.536 30.1496C30.6926 29.9701 30.8695 29.8421 31.0405 29.7184C31.3441 29.4989 31.6064 29.3093 31.6607 28.8915C31.7084 28.5452 31.5299 28.2111 31.3411 27.8575C31.2455 27.6785 31.1468 27.4933 31.0798 27.3061C30.7982 26.5195 31.1251 26.2263 31.539 25.855C31.7232 25.6898 31.9317 25.5027 32.1261 25.2415C32.5144 24.7232 32.4481 24.3431 32.1654 23.7362C32.1175 23.635 32.0677 23.5346 32.0159 23.4352C31.7737 22.9643 31.7401 22.847 32.246 22.342C32.3729 22.2144 32.5338 22.0957 32.6894 21.9809C32.9622 21.7797 33.244 21.5715 33.355 21.3099C33.6048 20.7097 33.2794 20.0087 32.5811 19.6436C32.4745 19.5879 32.3666 19.5347 32.2576 19.4839C30.2804 19.4972 28.4443 20.4088 27.2164 21.9874C27.1887 22.0458 27.1473 22.0978 27.0837 22.1544C26.8901 22.3267 26.7315 22.6547 26.6041 22.9181C26.5788 22.9703 26.5545 23.0206 26.5313 23.0672C26.2446 23.6413 26.0475 24.256 25.9469 24.8898Z"
            fill="black" />
        <path
            d="M28.5552 17.5285L28.7025 17.4608L29.8611 19.9858L29.7138 20.0534L28.5552 17.5285ZM33.6296 19.5244L34.2795 17.04L34.4364 17.0813L33.7865 19.5655L33.6296 19.5244ZM37.1769 21.6999L39.1478 19.7932L39.2606 19.91L37.2898 21.8165L37.1769 21.6999Z"
            fill="black" />
        <path
            d="M37.9611 31.682C37.9345 32.2274 38.3911 32.6928 38.9809 32.7215C39.5708 32.7503 40.0704 32.3314 40.0969 31.786C40.1235 31.2406 39.6669 30.7752 39.077 30.7465C38.4872 30.7178 37.9877 31.1368 37.9611 31.682Z"
            fill="#FF6463" />
        <path
            d="M39.0379 32.8038C39.0178 32.8038 38.9975 32.8033 38.9771 32.8023C38.3437 32.7715 37.8515 32.2671 37.8801 31.6779C37.9086 31.0887 38.4506 30.6368 39.0811 30.6653C39.3868 30.6803 39.669 30.8046 39.8759 31.0155C40.0846 31.2283 40.1918 31.5032 40.1777 31.7897C40.1501 32.36 39.6446 32.8038 39.0379 32.8038ZM38.042 31.6859C38.0179 32.1857 38.4407 32.6138 38.985 32.6402C39.5273 32.6667 39.9916 32.2817 40.0161 31.7819C40.0278 31.5411 39.9371 31.3092 39.7603 31.1293C39.582 30.9475 39.3381 30.8404 39.0734 30.8275C38.5289 30.8007 38.0665 31.1861 38.042 31.6859Z"
            fill="black" />
        <path
            d="M38.6269 31.1411C39.0336 31.0996 39.0987 31.7315 38.6914 31.773C38.2849 31.8144 38.2196 31.1827 38.6269 31.1411Z"
            fill="#FFB6B6" />
        <path
            d="M38.781 36.2728C37.636 36.3317 36.8223 35.7965 35.7692 35.8364C35.178 35.8588 34.6093 35.9974 34.5998 36.6507C34.5828 37.847 35.5066 38.6506 36.6226 39.1362C38.064 39.7634 39.7609 39.8173 41.1323 39.0937C42.7912 38.2186 43.5127 36.9613 43.2749 36.2593C43.0643 35.6373 42.5929 35.5252 42.0024 35.5571C40.9505 35.6138 39.8288 36.2191 38.781 36.2728Z"
            fill="white" />
        <path
            d="M38.9086 39.7028C38.1386 39.7028 37.3445 39.5391 36.5909 39.2111C35.6351 38.7952 34.4998 38.0132 34.5193 36.65C34.5302 35.8905 35.2364 35.776 35.7667 35.7558C36.2858 35.7362 36.7591 35.856 37.2151 35.9718C37.6987 36.0948 38.1987 36.2225 38.7773 36.1922C39.292 36.1657 39.8399 35.9992 40.3695 35.8381C40.9075 35.6745 41.4636 35.5053 41.9986 35.4764C42.5312 35.4478 43.1092 35.515 43.3526 36.2337C43.6041 36.9768 42.8569 38.2766 41.171 39.166C40.493 39.5236 39.7141 39.7028 38.9086 39.7028ZM35.8835 35.9158C35.8467 35.9158 35.81 35.9165 35.7725 35.9179C35.0147 35.9467 34.6884 36.1664 34.6814 36.6524C34.6632 37.9264 35.7448 38.666 36.6553 39.0623C38.1526 39.7138 39.8121 39.6992 41.0947 39.0224C42.7042 38.1734 43.4282 36.9643 43.1984 36.2857C43.0303 35.7894 42.686 35.6012 42.007 35.6385C41.4917 35.6663 40.945 35.8324 40.4163 35.9932C39.8774 36.1571 39.3198 36.3267 38.7851 36.3543C38.1832 36.3848 37.67 36.255 37.1746 36.1291C36.7447 36.0197 36.3364 35.9158 35.8835 35.9158Z"
            fill="black" />
        <path
            d="M41.9046 38.6841L41.7474 38.6436C42.0476 37.4791 41.7441 36.358 41.437 35.6227L41.5866 35.5601C41.9035 36.3184 42.2159 37.476 41.9046 38.6841ZM39.7101 39.5416L39.5518 39.5059C39.6804 38.9353 39.7265 38.3493 39.6888 37.7657C39.655 37.2459 39.556 36.7325 39.3941 36.2374L39.5484 36.1871C39.7144 36.6951 39.8159 37.222 39.8507 37.7553C39.8895 38.3544 39.8421 38.9559 39.7101 39.5416ZM37.1904 39.3324L37.0342 39.2881C37.12 38.9845 37.2648 38.3755 37.2693 37.7081C37.2727 37.1453 37.194 36.585 37.0358 36.0449L37.1914 35.9995C37.3541 36.5547 37.435 37.1307 37.4316 37.7092C37.4269 38.3958 37.2786 39.0208 37.1904 39.3324Z"
            fill="black" />
    </g>
    <defs>
        <clipPath id="clip0_222_5455">
            <rect width="83" height="83" fill="white" />
        </clipPath>
    </defs>
</svg>
