<svg width="83" height="83" viewBox="0 0 83 83" fill="none" xmlns="http://www.w3.org/2000/svg">
    <g clip-path="url(#clip0_222_4261)">
        <path
            d="M8.78812 40.4787C8.78812 40.4787 12.0673 45.2961 18.9401 49.3738C18.9401 49.3738 13.9625 7.30611 46.3946 0C38.0853 30.4962 56.9641 39.0966 63.8458 22.9848C75.3382 38.3287 66.6124 51.7153 66.6124 51.7153C71.3247 52.3942 75.2831 47.246 75.2831 47.246C75.3185 47.8801 75.3382 48.5187 75.3382 49.1618C75.3384 67.8501 60.1885 83 41.5 83C22.8116 83 7.66162 67.8501 7.66162 49.1616C7.66162 46.1597 8.05457 43.2498 8.78812 40.4787Z"
            fill="#FF6536" />
        <path
            d="M75.2833 47.246C75.2833 47.246 71.3249 52.3942 66.6125 51.7153C66.6125 51.7153 75.3384 38.3287 63.846 22.9848C56.9643 39.0966 38.0855 30.4962 46.3947 0C44.6577 0.391332 43.0289 0.88301 41.5 1.4619V83C60.1885 83 75.3384 67.8501 75.3384 49.1616C75.3384 48.5185 75.3186 47.8801 75.2833 47.246Z"
            fill="#FF421D" />
        <path
            d="M26.6597 68.1598C26.6597 76.3557 33.3039 83 41.4998 83C49.6957 83 56.34 76.3557 56.34 68.1598C56.34 63.773 54.4366 59.8308 51.4105 57.114C45.6728 64.909 37.4964 53.0846 43.8686 44.4497C43.8686 44.4497 26.6597 46.6062 26.6597 68.1598Z"
            fill="#FBBF00" />
        <path
            d="M56.3401 68.1598C56.3401 63.773 54.4368 59.8308 51.4107 57.114C45.673 64.909 37.4965 53.0846 43.8687 44.4497C43.8687 44.4497 42.9337 44.5672 41.5 45.0197V83C49.6959 83 56.3401 76.3557 56.3401 68.1598Z"
            fill="#FFA900" />
    </g>
    <defs>
        <clipPath id="clip0_222_4261">
            <rect width="83" height="83" fill="white" />
        </clipPath>
    </defs>
</svg>
