<svg width="83" height="83" viewBox="0 0 83 83" fill="none" xmlns="http://www.w3.org/2000/svg">
    <path
        d="M45.7635 1.3877C59.055 5.41741 68.7298 17.7651 68.7298 32.3726C68.7298 50.2515 54.2361 64.7452 36.3572 64.7452L26.7229 57.8295L16.4067 29.6181L33.9051 1.3877H45.7635Z"
        fill="#FD5C6F" />
    <path
        d="M22.796 32.3726C22.796 17.7652 32.4717 5.41932 45.763 1.38976C42.7862 0.487139 39.629 0 36.3575 0C18.4786 0 3.98486 14.4937 3.98486 32.3726C3.98486 50.2515 18.4786 64.7452 36.3575 64.7452C39.629 64.7452 42.7862 64.258 45.763 63.3556C32.4717 59.3259 22.796 46.9799 22.796 32.3726Z"
        fill="#F6334C" />
    <path
        d="M30.204 11.7606C32.2008 11.1642 34.2739 10.8621 36.3578 10.8638C48.2179 10.8638 57.8668 20.5127 57.8668 32.3728C57.8668 44.2329 48.2179 53.8818 36.3578 53.8818L25.7124 48.8014L16.9297 33.0666L24.6307 15.6457L30.204 11.7606Z"
        fill="#FFF1CF" />
    <path
        d="M22.7962 32.3725C22.7962 24.5416 25.5769 17.3605 30.2043 11.7617C21.3333 14.415 14.8486 22.65 14.8486 32.3723C14.8486 42.0948 21.3333 50.3296 30.2043 52.9829C25.5769 47.3844 22.7962 40.2033 22.7962 32.3725Z"
        fill="#FCE3A0" />
    <path
        d="M36.3573 43.0179C42.2366 43.0179 47.0027 38.2517 47.0027 32.3724C47.0027 26.4932 42.2366 21.7271 36.3573 21.7271C30.478 21.7271 25.7119 26.4932 25.7119 32.3724C25.7119 38.2517 30.478 43.0179 36.3573 43.0179Z"
        fill="#FD5C6F" />
    <path
        d="M36.718 32.52C35.7511 30.836 36.3322 28.6867 38.0162 27.7197L64.7549 12.3652L68.2569 18.4636L41.5183 33.8181C39.8343 34.7851 37.6852 34.204 36.718 32.52Z"
        fill="#FFA93F" />
    <path
        d="M78.1792 17.2479L72.2755 20.638C68.73 22.6739 64.2054 21.4503 62.1694 17.9048C60.1335 14.3593 61.3573 9.83467 64.9026 7.79874L70.8063 4.4087C71.9952 3.72606 73.4534 4.69256 73.2877 6.05347L72.7568 10.4132C72.7034 10.8515 72.7934 11.2952 73.0132 11.678C73.2331 12.0609 73.571 12.3622 73.9764 12.537L78.0093 14.276C79.2683 14.8186 79.3681 16.5651 78.1792 17.2479Z"
        fill="#F9EE80" />
    <path
        d="M41.9986 42.1948C50.6432 44.7268 56.9566 52.7156 56.9566 62.179C56.9566 71.6425 50.6431 79.6311 41.9986 82.1631H35.5829L24.1362 67.0862L26.1966 50.4502L35.7356 42.1948H41.9986Z"
        fill="#4A66A0" />
    <path
        d="M28.7869 62.1789C28.7869 53.2052 34.2316 45.5035 41.9977 42.1962C40.0933 41.6389 38.1191 41.3566 36.135 41.3579C24.6359 41.3579 15.314 50.6799 15.314 62.1789C15.314 73.678 24.6359 82.9999 36.135 82.9999C38.1709 82.9999 40.1379 82.7063 41.9977 82.1617C34.2318 78.8543 28.7869 71.1526 28.7869 62.1789Z"
        fill="#194391" />
    <path
        d="M33.387 48.8032C34.2913 48.618 35.2121 48.5249 36.1352 48.5254C43.6639 48.5254 49.7889 54.6504 49.7889 62.1791C49.7889 69.7077 43.6639 75.8327 36.1352 75.8327C35.2157 75.8331 34.2986 75.7407 33.3977 75.557L29.2115 72.9862L24.5352 61.2117L29.0446 51.2743L33.387 48.8032Z"
        fill="#ADC0ED" />
    <path
        d="M28.787 62.179C28.787 57.1324 30.5093 52.4881 33.3977 48.8013C27.1765 50.0724 22.4814 55.5877 22.4814 62.179C22.4814 68.7704 27.1763 74.2857 33.3977 75.5568C30.5093 71.8699 28.787 67.2257 28.787 62.179Z"
        fill="#7293DF" />
    <path
        d="M41.5092 60.9264H37.3877V54.1533C37.3877 53.8212 37.2558 53.5026 37.0209 53.2677C36.786 53.0328 36.4674 52.9009 36.1353 52.9009C35.8031 52.9009 35.4845 53.0328 35.2496 53.2677C35.0148 53.5026 34.8828 53.8212 34.8828 54.1533V62.179C34.8828 62.3435 34.9152 62.5064 34.9781 62.6584C35.041 62.8103 35.1333 62.9484 35.2496 63.0647C35.3659 63.181 35.504 63.2733 35.6559 63.3362C35.8079 63.3991 35.9708 63.4315 36.1353 63.4315L36.1385 63.4313H41.5092C41.6737 63.4313 41.8365 63.3989 41.9885 63.336C42.1404 63.2731 42.2785 63.1808 42.3948 63.0645C42.5111 62.9482 42.6034 62.8101 42.6663 62.6582C42.7293 62.5062 42.7617 62.3434 42.7617 62.1789C42.7617 62.0144 42.7293 61.8515 42.6663 61.6996C42.6034 61.5476 42.5111 61.4096 42.3948 61.2933C42.2785 61.177 42.1404 61.0847 41.9885 61.0218C41.8365 60.9588 41.6737 60.9264 41.5092 60.9264Z"
        fill="#4A66A0" />
</svg>
