<svg width="83" height="83" viewBox="0 0 83 83" fill="none" xmlns="http://www.w3.org/2000/svg">
    <g clip-path="url(#clip0_222_5205)">
        <path
            d="M50.0169 11.5257H50.0161C49.8659 11.5252 49.7355 11.5246 49.4486 10.034C48.2295 9.72774 48.1326 9.58104 48.0951 9.52495C48.0622 9.4755 48.052 9.38764 48.0715 9.33139C48.0984 9.25309 48.1605 9.07185 49.6019 8.58244C50.1748 7.30664 50.3446 7.30664 50.4576 7.30664C50.5218 7.30664 50.6083 7.35463 50.6438 7.40828C50.7281 7.5357 50.7925 7.85619 50.8884 8.36911C50.9184 8.52878 50.9546 8.72137 50.9768 8.80745C51.0494 8.84457 51.208 8.91169 51.3396 8.96729C52.0513 9.26833 52.2336 9.3677 52.2581 9.54407C52.2672 9.61086 52.2284 9.70489 52.1759 9.74704C52.0213 9.87089 51.3075 10.0914 50.9322 10.2018C50.2596 11.5257 50.1309 11.5257 50.0169 11.5257ZM48.5928 9.3878C48.8361 9.47226 49.2751 9.59789 49.6592 9.69208C49.732 9.71007 49.7877 9.76876 49.8015 9.84268C49.8782 10.2505 49.9823 10.7161 50.0615 10.9862C50.2118 10.7471 50.4409 10.3275 50.6284 9.95567C50.6523 9.90817 50.6949 9.87299 50.746 9.85824C51.0838 9.76017 51.4659 9.6381 51.7076 9.54845C51.5474 9.47064 51.3315 9.37921 51.1908 9.31988C50.7849 9.14804 50.7083 9.1114 50.6587 9.03619C50.6155 8.97069 50.5924 8.86467 50.5127 8.43962C50.4833 8.28254 50.4384 8.04278 50.3963 7.86024C50.2606 8.08866 50.069 8.47318 49.9172 8.81474C49.9064 8.83895 49.8907 8.86065 49.8711 8.87848C49.8515 8.89631 49.8284 8.90988 49.8033 8.91833C49.3625 9.06618 48.8611 9.25779 48.5928 9.3878ZM3.03538 63.1778H3.03489C2.88429 63.1775 2.7538 63.177 2.46703 61.6861C1.24796 61.38 1.15086 61.2331 1.11357 61.177C1.08067 61.1274 1.07045 61.0397 1.08991 60.9837C1.11682 60.9054 1.17907 60.7243 2.62038 60.235C3.19344 58.9592 3.36317 58.9592 3.47599 58.9592C3.54019 58.9592 3.62692 59.0074 3.66226 59.061C3.74655 59.1883 3.81107 59.5091 3.90721 60.0227C3.93703 60.1819 3.97302 60.3738 3.99539 60.4599C4.06786 60.497 4.2264 60.5641 4.35803 60.6197C5.06969 60.9207 5.25223 61.0201 5.27671 61.1967C5.28578 61.2633 5.2472 61.3575 5.19452 61.3995C5.0397 61.5235 4.32593 61.7441 3.95049 61.8543C3.27822 63.1778 3.14934 63.1778 3.03538 63.1778ZM1.61109 61.0401C1.85458 61.1245 2.29341 61.2502 2.67744 61.344C2.75023 61.362 2.80583 61.4207 2.81978 61.4945C2.89645 61.9023 3.00053 62.3679 3.0798 62.6381C3.23007 62.3989 3.45913 61.9793 3.6467 61.6074C3.67053 61.5599 3.71316 61.5248 3.76422 61.51C4.10206 61.4119 4.48415 61.2899 4.72586 61.2002C4.56569 61.1221 4.34976 61.0308 4.20905 60.9715C3.80329 60.7998 3.72694 60.7632 3.67717 60.6881C3.63373 60.6225 3.61071 60.5165 3.53127 60.0925C3.50177 59.9353 3.4567 59.6952 3.41455 59.5123C3.27887 59.7408 3.08726 60.1253 2.93552 60.4668C2.92472 60.491 2.90901 60.5127 2.8894 60.5306C2.86978 60.5484 2.84668 60.562 2.82156 60.5704C2.38095 60.7184 1.8797 60.91 1.61109 61.0401ZM79.1898 40.3745H79.1895C79.0391 40.3742 78.9084 40.3737 78.6216 38.8828C77.4026 38.5767 77.3055 38.4299 77.2682 38.3738C77.2353 38.3243 77.2251 38.2365 77.2442 38.1802C77.2711 38.1021 77.3332 37.9208 78.7748 37.4316C79.3477 36.1558 79.5176 36.1558 79.6304 36.1558C79.6946 36.1558 79.7812 36.2038 79.8167 36.2574C79.901 36.3847 79.9654 36.7052 80.0613 37.2181C80.0912 37.3778 80.1275 37.5704 80.1497 37.6564C80.2223 37.6937 80.3812 37.761 80.5131 37.8166C81.2245 38.1176 81.4065 38.2168 81.431 38.3932C81.4401 38.46 81.4013 38.554 81.3488 38.5962C81.1941 38.72 80.4804 38.9405 80.1051 39.0509C79.4328 40.3745 79.3039 40.3745 79.1898 40.3745ZM77.7657 38.2368C78.0092 38.3212 78.448 38.4469 78.832 38.5409C78.9048 38.5589 78.9606 38.6177 78.9744 38.6913C79.0512 39.0992 79.1551 39.5648 79.2344 39.835C79.3847 39.5959 79.6137 39.1764 79.8013 38.8045C79.8251 38.757 79.8678 38.7218 79.9188 38.7071C80.2567 38.609 80.6388 38.4869 80.8805 38.3973C80.7203 38.3195 80.5047 38.2282 80.3645 38.1689C79.9577 37.9967 79.8814 37.9601 79.8315 37.8847C79.7883 37.8195 79.7653 37.7135 79.6856 37.2884C79.6562 37.1315 79.6111 36.8918 79.5692 36.7094C79.4335 36.9378 79.2419 37.3223 79.0901 37.6639C79.0793 37.6881 79.0636 37.7098 79.044 37.7276C79.0244 37.7455 79.0013 37.759 78.9762 37.7675C78.5354 37.9152 78.0341 38.1066 77.7657 38.2368ZM28.1944 51.8485H28.1941C28.0437 51.8481 27.913 51.8477 27.6262 50.3567C26.4072 50.0507 26.3101 49.9038 26.2728 49.8477C26.2399 49.7981 26.2297 49.7104 26.2491 49.6542C26.276 49.5759 26.3381 49.3948 27.7796 48.9055C28.3526 47.6296 28.5225 47.6296 28.6355 47.6296C28.6997 47.6296 28.7863 47.6776 28.8216 47.7312C28.9056 47.8586 28.9701 48.1793 29.0663 48.6922C29.0961 48.8517 29.1322 49.044 29.1546 49.1302C29.2272 49.1675 29.3859 49.2346 29.5179 49.2904C30.2292 49.5913 30.4114 49.6906 30.4359 49.867C30.4452 49.9338 30.4063 50.0278 30.3537 50.07C30.1989 50.1938 29.4851 50.4143 29.1097 50.5247C28.4373 51.8485 28.3084 51.8485 28.1944 51.8485ZM26.7701 49.7107C27.0136 49.7952 27.4525 49.9208 27.8365 50.0147C27.9093 50.0327 27.9649 50.0914 27.9788 50.1651C28.0555 50.573 28.1596 51.0386 28.2388 51.3088C28.3891 51.0697 28.6182 50.6502 28.8057 50.2783C28.8296 50.2308 28.8722 50.1956 28.9233 50.1808C29.2611 50.0826 29.6434 49.9607 29.8849 49.871C29.7249 49.7932 29.5091 49.7018 29.3687 49.6425C28.9623 49.4705 28.886 49.4338 28.8362 49.3586C28.7929 49.2931 28.7699 49.1871 28.6903 48.7627C28.661 48.6055 28.6161 48.3657 28.5738 48.183C28.4382 48.4114 28.2463 48.7959 28.0947 49.1375C28.0839 49.1617 28.0682 49.1834 28.0486 49.2012C28.029 49.2191 28.0059 49.2326 27.9808 49.2411C27.54 49.3891 27.0388 49.5807 26.7701 49.7107ZM62.2546 41.2919C62.2272 41.2919 62.1996 41.2911 62.1719 41.2895C61.426 41.2442 60.8557 40.601 60.9006 39.8551C60.9454 39.1135 61.5865 38.5419 62.3351 38.5839C63.081 38.6291 63.6513 39.2723 63.6064 40.0184C63.5633 40.7323 62.9693 41.2919 62.2546 41.2919ZM62.2523 38.9638C62.0047 38.9643 61.7666 39.0592 61.5864 39.229C61.4062 39.3989 61.2975 39.631 61.2824 39.8781C61.2673 40.1356 61.3549 40.3886 61.526 40.5816C61.697 40.7746 61.9377 40.8918 62.1951 40.9077L62.2546 40.9093C62.5022 40.9089 62.7404 40.8141 62.9206 40.6442C63.1007 40.4743 63.2094 40.2422 63.2245 39.995C63.2396 39.7376 63.152 39.4846 62.9809 39.2916C62.8099 39.0986 62.5692 38.9813 62.3118 38.9655L62.2523 38.9638ZM4.09509 43.346C4.06769 43.346 4.04013 43.3452 4.01241 43.3436C3.26655 43.2983 2.69625 42.6551 2.74115 41.909C2.78622 41.1672 3.42655 40.5966 4.17566 40.6378C4.92152 40.683 5.49182 41.3263 5.44692 42.0721C5.4038 42.7864 4.80999 43.346 4.09509 43.346ZM4.09282 41.0179C3.8452 41.0184 3.60707 41.1132 3.42689 41.2831C3.2467 41.4529 3.13801 41.6851 3.12292 41.9322C3.09066 42.4675 3.50015 42.9292 4.0356 42.9618L4.09525 42.9634C4.34288 42.963 4.58104 42.8682 4.76123 42.6983C4.94142 42.5284 5.0501 42.2963 5.06515 42.0491C5.08027 41.7916 4.99269 41.5387 4.82161 41.3457C4.65052 41.1527 4.4099 41.0354 4.15248 41.0196L4.09282 41.0179ZM68.6791 77.4566C68.6517 77.4566 68.6242 77.4557 68.5965 77.4541C67.8506 77.4094 67.2803 76.7658 67.3252 76.0198C67.3701 75.2783 68.0085 74.7052 68.7597 74.7487C68.9374 74.7589 69.1114 74.8042 69.2715 74.8821C69.4316 74.96 69.5746 75.0689 69.6923 75.2024C69.8108 75.3354 69.9017 75.4905 69.9598 75.6588C70.018 75.8271 70.0421 76.0053 70.031 76.183C69.9879 76.8971 69.394 77.4566 68.6791 77.4566ZM68.6767 75.1285C68.164 75.1285 67.7379 75.5302 67.707 76.0428C67.6918 76.3003 67.7793 76.5533 67.9504 76.7463C68.1215 76.9393 68.3622 77.0566 68.6196 77.0724L68.6793 77.074C68.9269 77.0736 69.1651 76.9788 69.3453 76.809C69.5255 76.6391 69.6341 76.407 69.6492 76.1598C69.6572 76.0323 69.6399 75.9044 69.5982 75.7837C69.5564 75.6629 69.4912 75.5516 69.4062 75.4561C69.3217 75.3602 69.219 75.2821 69.104 75.2261C68.9891 75.1702 68.8642 75.1376 68.7365 75.1303L68.6767 75.1285Z"
            fill="#241726" />
        <path
            d="M7.73586 2.82979C7.73586 2.82979 7.11709 0.0073045 9.9433 0.697242C12.7695 1.38718 12.0964 4.0769 10.9729 3.27154C9.84928 2.46634 11.5568 -0.734184 13.7741 0.437705C15.9914 1.60959 15.7441 4.27046 14.2692 4.59062C12.7943 4.91095 14.9124 1.46224 16.9617 3.30655C19.0107 5.15087 15.2196 9.15335 13.428 7.95261C11.6362 6.75186 12.7647 4.47212 13.2795 5.75927C13.7944 7.04642 12.8193 8.43456 9.83971 8.63639C6.86014 8.83821 7.82518 4.14563 8.97843 5.38966C10.1317 6.63353 8.53311 8.28429 6.30087 6.89306C4.06862 5.50184 6.18674 2.05345 7.73586 2.82979Z"
            fill="white" />
        <path
            d="M9.65554 8.83409C8.76831 8.83409 8.12571 8.40158 7.83132 7.61195C7.3129 7.59055 6.75102 7.39926 6.19937 7.05543C5.29658 6.49275 4.9414 5.51458 5.24941 4.4385C5.58611 3.26012 6.63155 2.37695 7.5024 2.54927C7.46398 2.13946 7.46901 1.42715 7.86861 0.930288C8.28344 0.414618 9.00062 0.270341 9.98851 0.511397C10.3807 0.607204 10.7289 0.745159 11.0262 0.922669C11.7495 0.014694 12.8565 -0.263161 13.8634 0.268881C14.8218 0.775149 15.4497 1.62606 15.5758 2.57262C16.1039 2.54182 16.6211 2.74267 17.0896 3.16464C17.7621 3.77012 17.9238 4.64762 17.5448 5.63584C16.9869 7.08947 15.4192 8.36462 14.1897 8.36462C13.8642 8.36479 13.5721 8.27952 13.3215 8.11157C13.1847 8.02027 13.0565 7.9168 12.9384 7.80243C12.296 8.38019 11.2355 8.73342 9.85234 8.82712C9.78523 8.83166 9.71941 8.83393 9.65602 8.83393L9.65554 8.83409ZM8.23708 7.5925C8.43259 8.02484 8.83397 8.45168 9.6557 8.45168C9.71098 8.45168 9.76837 8.44973 9.82673 8.44568C11.4264 8.33739 12.2579 7.90229 12.6862 7.51501C12.1919 6.84793 12.1801 6.07094 12.3932 5.60325C12.5138 5.3382 12.7019 5.18631 12.9089 5.18631C13.0673 5.18631 13.291 5.27352 13.457 5.68868C13.7149 6.33339 13.6206 6.99318 13.201 7.52441C13.3038 7.62421 13.4155 7.7144 13.5347 7.79384C13.7212 7.91898 13.9417 7.98221 14.1899 7.98221C15.2601 7.98221 16.689 6.79865 17.1878 5.49885C17.413 4.91169 17.5345 4.07959 16.8339 3.44882C16.4437 3.09769 16.0208 2.93412 15.5991 2.95439C15.587 3.87468 15.0744 4.61163 14.31 4.77763C14.232 4.79465 14.1476 4.81459 14.092 4.80308C13.8034 4.80308 13.6105 4.63676 13.5883 4.36895C13.5432 3.82621 14.2359 2.88435 15.1984 2.63276C15.0916 1.80519 14.536 1.05657 13.6853 0.607042C12.8455 0.163835 11.9528 0.389491 11.3416 1.14087C12.0661 1.72252 12.2366 2.50858 12.0773 3.02344C11.9045 3.57948 11.3536 3.77985 10.8616 3.4271C10.2414 2.98275 10.3464 2.00297 10.8073 1.23748C10.5478 1.08624 10.2427 0.967249 9.89805 0.883276C9.07389 0.682098 8.48365 0.777905 8.1677 1.1694C7.70358 1.74473 7.92081 2.77882 7.92324 2.7892C7.93089 2.82447 7.9284 2.86118 7.91607 2.8951C7.90374 2.92902 7.88207 2.95876 7.85355 2.98088C7.82504 3.003 7.79085 3.01661 7.75493 3.02012C7.71901 3.02364 7.68283 3.01692 7.65057 3.00075C7.53049 2.94008 7.39782 2.90854 7.26329 2.90867C6.61372 2.90867 5.87531 3.64222 5.61739 4.54387C5.49338 4.97719 5.32154 6.05764 6.40216 6.73089C6.85218 7.01133 7.30398 7.17879 7.7219 7.22094C7.58718 6.53652 7.7086 5.75418 8.03558 5.31081C8.23222 5.0443 8.44361 4.98853 8.58643 4.98853C8.77269 4.98853 8.95166 5.0798 9.11863 5.2599C9.53493 5.70879 9.66202 6.26304 9.45858 6.74175C9.26437 7.19776 8.80852 7.50998 8.23708 7.5925ZM12.9087 5.56872C12.8779 5.56872 12.8053 5.62125 12.7413 5.7618C12.6063 6.05781 12.5678 6.66329 12.9486 7.22386C13.2438 6.81145 13.2993 6.32431 13.1018 5.83053C13.0157 5.6159 12.9332 5.56872 12.9087 5.56872ZM8.58626 5.37095C8.48722 5.37095 8.39935 5.46173 8.3431 5.53792C8.10464 5.86101 7.96182 6.57413 8.11291 7.22224C8.58464 7.17425 8.95831 6.94033 9.10647 6.59196C9.2514 6.25088 9.15365 5.8602 8.83802 5.51977C8.77512 5.45184 8.68013 5.37095 8.58626 5.37095ZM15.2139 3.02555C14.4392 3.26807 13.944 4.03549 13.9691 4.33702C13.9727 4.38192 13.9761 4.4205 14.0917 4.4205C14.1311 4.4205 14.1774 4.41483 14.2286 4.40364C14.7942 4.28109 15.1791 3.72927 15.2139 3.02555ZM11.122 1.4552C10.7248 2.12114 10.6992 2.84026 11.0842 3.11633C11.3624 3.31524 11.6133 3.22786 11.7119 2.91029C11.832 2.52253 11.6907 1.9224 11.122 1.4552Z"
            fill="#241726" />
        <path
            d="M66.0986 63.4159C66.0986 63.4159 65.882 60.5344 68.5834 61.6142C71.2848 62.6939 70.2409 65.2625 69.2415 64.3075C68.2421 63.3525 70.3817 60.4234 72.4127 61.8948C74.4438 63.3661 73.8255 65.966 72.3202 66.0761C70.815 66.1862 73.3961 63.069 75.1662 65.1826C76.9362 67.2962 72.621 70.7272 71.0155 69.2869C69.41 67.8467 70.8471 65.7477 71.1762 67.0943C71.5052 68.441 70.3452 69.6785 67.3667 69.4603C64.3883 69.2421 66.0023 64.7314 66.9696 66.1248C67.9369 67.5182 66.1226 68.9283 64.1075 67.2376C62.0924 65.547 64.6736 62.4298 66.0986 63.4159Z"
            fill="white" />
        <path
            d="M71.9931 69.8212C71.5495 69.8212 71.1776 69.6894 70.8877 69.4294C70.7651 69.3198 70.6527 69.1993 70.5518 69.0695C69.9582 69.4675 69.0915 69.6767 68.0284 69.6767C67.803 69.6765 67.5776 69.668 67.3528 69.6511C66.3762 69.5796 65.7164 69.0405 65.5224 68.1643C65.0121 68.0706 64.4833 67.8028 63.9845 67.3842C63.2186 66.7417 62.9816 65.8179 63.3341 64.8498C63.7042 63.8327 64.6502 63.0361 65.4877 63.0361C65.6346 63.0361 65.7746 63.0593 65.9067 63.1051C65.9251 62.7154 66.0205 62.062 66.4266 61.624C66.9044 61.1096 67.6634 61.0404 68.6543 61.4367C69.0291 61.5865 69.3545 61.772 69.6239 61.9893C70.0932 61.5478 70.6728 61.2976 71.2384 61.2976C71.6868 61.2976 72.1196 61.4464 72.5249 61.74C73.4025 62.3758 73.9049 63.3063 73.897 64.2615C74.4246 64.3069 74.9114 64.5807 75.3127 65.0597C75.8449 65.6953 75.9199 66.5122 75.524 67.3602C74.9014 68.6944 73.2843 69.8212 71.9931 69.8212ZM70.8508 68.8308C70.9354 68.9411 71.0331 69.0461 71.1432 69.1447C71.3606 69.3397 71.6466 69.4386 71.9931 69.4386C73.1323 69.4386 74.6206 68.3919 75.1776 67.1986C75.4107 66.6993 75.5725 65.9657 75.0196 65.3053C74.6814 64.9016 74.2941 64.6791 73.8663 64.6424C73.7251 65.5519 73.1141 66.2097 72.3341 66.2668C71.8437 66.3016 71.6788 66.0434 71.6757 65.8018C71.6693 65.269 72.5077 64.3863 73.5144 64.2678C73.5247 63.4334 73.0798 62.6141 72.3005 62.0495C71.9619 61.8042 71.6047 61.6799 71.2384 61.6799C70.7776 61.6799 70.3006 61.8853 69.906 62.2492C70.5466 62.9278 70.581 63.6805 70.4025 64.1399C70.2664 64.4899 69.9922 64.7073 69.6868 64.7074H69.6866C69.4881 64.7074 69.2887 64.6168 69.1094 64.4456C68.5577 63.9186 68.7989 62.9631 69.3626 62.27C69.1269 62.0839 68.8417 61.9234 68.5123 61.7917C67.682 61.4597 67.0762 61.4868 66.7077 61.883C66.2225 62.4048 66.2884 63.3916 66.289 63.4015C66.2918 63.4375 66.2843 63.4736 66.2674 63.5056C66.2505 63.5376 66.2249 63.5641 66.1935 63.5821C66.1621 63.6 66.1263 63.6087 66.0901 63.6071C66.054 63.6055 66.0191 63.5937 65.9894 63.573C65.8422 63.4706 65.6667 63.4166 65.4874 63.4183C64.8115 63.4183 64.0067 64.119 63.6931 64.9806C63.5203 65.4556 63.3602 66.3613 64.2301 67.0913C64.6371 67.4327 65.0605 67.6614 65.4684 67.7616C65.4339 67.107 65.6357 66.3916 65.9868 65.9802C66.1614 65.7753 66.3598 65.667 66.5602 65.667C66.7081 65.667 66.9263 65.7274 67.1265 66.0158C67.4611 66.4978 67.5212 67.0267 67.2912 67.4665C67.0504 67.9264 66.5404 68.2014 65.9264 68.2017C66.0693 68.6932 66.4462 69.2013 67.3806 69.2697C68.7012 69.3669 69.7042 69.1804 70.3425 68.749C69.9725 68.065 70.0344 67.3354 70.2762 66.8904C70.4213 66.6237 70.6236 66.4705 70.8315 66.4705C70.9767 66.4705 71.2388 66.5458 71.3619 67.0489C71.5268 67.7238 71.3407 68.3636 70.8508 68.8308ZM70.8316 66.8533C70.7932 66.8533 70.6997 66.9131 70.6126 67.0733C70.4291 67.4109 70.3805 67.9616 70.6433 68.498C70.9934 68.131 71.1166 67.6565 70.9905 67.14C70.9393 66.9313 70.866 66.8533 70.8316 66.8533ZM65.8557 67.8182C66.3545 67.8358 66.7701 67.6374 66.9525 67.2894C67.1145 66.98 67.0634 66.5954 66.8126 66.2342C66.7541 66.1499 66.663 66.0497 66.5605 66.0497C66.4769 66.0497 66.3765 66.1132 66.2781 66.2287C66.0196 66.5315 65.7973 67.1742 65.8557 67.8182ZM73.4752 64.6591C72.6635 64.7938 72.0547 65.5081 72.0583 65.797C72.059 65.8322 72.0808 65.9015 72.3062 65.8855C72.8834 65.8433 73.3419 65.351 73.4752 64.6591ZM69.644 62.53C69.1575 63.1335 69.0311 63.8421 69.3736 64.1694C69.4804 64.2714 69.5886 64.3252 69.6868 64.3252C69.833 64.3252 69.9673 64.2042 70.046 64.0016C70.1918 63.627 70.1153 63.0442 69.644 62.53ZM37.2559 7.88227C37.1956 7.88227 37.1461 7.86832 37.1045 7.83931C36.9806 7.75323 36.6912 7.55205 37.9184 4.90642C37.933 4.87508 37.9557 4.84827 37.9843 4.82883C38.0129 4.80939 38.0462 4.79806 38.0807 4.79603C39.5684 4.70849 41.7393 4.55967 42.9594 4.43517C41.6673 4.24388 39.2829 3.97284 37.655 3.80327C37.6287 3.80058 37.6033 3.79248 37.5804 3.77948C37.5574 3.76647 37.5374 3.74885 37.5216 3.72773C37.2829 3.40837 36.5152 2.3271 36.6551 1.8184C36.6789 1.73086 36.7554 1.62646 36.9827 1.62646C37.8942 1.62646 43.3914 3.71297 44.0657 4.29025C44.0873 4.30482 44.1054 4.32384 44.1189 4.34601C44.1213 4.3495 44.1236 4.35313 44.1256 4.35687C44.1317 4.36822 44.1366 4.38005 44.1403 4.39221L44.1413 4.39481L44.1423 4.39821C44.1483 4.41507 44.1518 4.43274 44.153 4.45122C44.1531 4.45789 44.1528 4.46456 44.1518 4.47116C44.1512 4.49404 44.1463 4.5166 44.1372 4.53763C44.132 4.55166 44.1245 4.56478 44.1152 4.57653C44.1036 4.60067 44.0887 4.62313 44.0711 4.64332C43.5543 5.18833 37.8861 7.88227 37.2559 7.88227ZM37.2559 7.49985V7.69114L37.256 7.49985H37.2559ZM38.2177 5.17115C37.8017 6.08042 37.3974 7.12505 37.3611 7.48267C38.115 7.29592 41.657 5.6304 43.1477 4.797C42.3518 4.89264 40.8962 5.01261 38.2177 5.17115ZM37.7787 3.43171C40.0368 3.66758 41.6968 3.86438 42.7483 4.02066C41.028 3.26523 37.7722 2.052 37.0202 2.00985C37.0519 2.2963 37.4069 2.92221 37.7787 3.43171Z"
            fill="#241726" />
        <path
            d="M36.8009 6.16793C36.6376 6.16809 36.4948 6.14718 36.4057 6.09141C36.3178 6.0363 36.2855 5.96254 36.274 5.9105C36.2246 5.68711 36.6337 4.89764 37.4905 3.5638C37.504 3.5426 37.5216 3.52428 37.5422 3.50989C37.5628 3.49551 37.586 3.48534 37.6106 3.47998C37.6352 3.47461 37.6605 3.47416 37.6853 3.47864C37.71 3.48312 37.7336 3.49245 37.7547 3.50609C37.8436 3.56332 37.8693 3.68166 37.8124 3.77033C37.3135 4.54716 36.7702 5.47913 36.6671 5.78243C36.8386 5.80448 37.272 5.75439 37.6811 5.65858C37.7058 5.6522 37.7315 5.65081 37.7567 5.6545C37.7819 5.65818 37.8062 5.66687 37.828 5.68005C37.8498 5.69324 37.8687 5.71064 37.8837 5.73125C37.8987 5.75186 37.9095 5.77526 37.9153 5.80007C37.9211 5.82488 37.9219 5.85061 37.9176 5.87574C37.9134 5.90087 37.9041 5.92489 37.8905 5.9464C37.8768 5.9679 37.859 5.98646 37.838 6.00098C37.8171 6.0155 37.7934 6.02569 37.7685 6.03095C37.554 6.08104 37.135 6.16793 36.8009 6.16793Z"
            fill="#241726" />
        <path
            d="M55.9858 49.2065C55.9858 49.2065 73.1038 51.4671 72.6827 50.1455C70.3768 42.9081 69.6161 33.2045 69.6161 33.2045C69.6161 33.2045 73.9001 31.9675 73.828 32.7855C73.7559 33.6035 74.8809 44.4411 78.1035 53.7386C79.6973 58.3372 53.248 54.1191 53.248 54.1191L55.9858 49.2065Z"
            fill="#F5D450" />
        <path
            d="M55.376 48.2256C55.376 48.2256 61.7032 48.2214 62.0958 48.6018C62.4883 48.9825 60.9798 57.3985 60.949 57.9466C60.9184 58.4947 55.8536 58.1472 55.4276 58.3637C55.0016 58.5803 54.7399 48.6664 55.376 48.2256Z"
            fill="#FDFFFF" />
        <path
            d="M55.4137 58.5585C55.2306 58.5585 55.1679 58.3575 55.1472 58.2915C54.8633 57.3833 54.4921 48.6055 55.2671 48.0682C55.299 48.0462 55.337 48.0342 55.3757 48.0342C57.3094 48.0342 61.8282 48.076 62.2287 48.4644C62.5055 48.7327 62.3132 50.543 61.4054 56.2119C61.2613 57.1123 61.1473 57.8235 61.1398 57.9572C61.117 58.3665 60.4063 58.4724 57.6825 58.4724L57.2058 58.4722C56.6664 58.4722 55.6623 58.4722 55.5121 58.5351C55.4885 58.545 55.4391 58.5585 55.4137 58.5585ZM55.4626 48.4166C55.0821 49.1485 55.1091 57.0293 55.4958 58.147C55.7577 58.0989 56.2758 58.0897 57.2058 58.0897L57.6825 58.0898C58.5216 58.0898 60.4614 58.0898 60.7615 57.8942C60.7808 57.6987 60.8694 57.1402 61.0278 56.1515C61.3577 54.0914 62.1243 49.3038 61.9506 48.7343C61.538 48.5296 58.3441 48.4187 55.4626 48.4166Z"
            fill="#241726" />
        <path
            d="M69.7698 32.6012C69.7698 32.6012 70.6343 27.2544 75.4713 26.3487C78.0291 25.8697 73.7523 29.0345 73.7523 29.0345C73.7523 29.0345 79.3406 26.3347 79.9794 27.2289C80.6183 28.1231 76.5604 28.8868 76.5604 28.8868C76.5604 28.8868 81.246 27.9725 81.8698 28.9984C82.4936 30.0242 77.1532 30.8091 77.1532 30.8091C77.1532 30.8091 79.5644 30.3555 80.9395 31.2377C82.3145 32.1198 75.8489 32.3827 74.1831 34.0205C72.5171 35.6583 68.8536 34.0563 69.7698 32.6012ZM45.4818 39.4891L46.8386 49.95L52.1952 48.998C52.1952 48.998 53.1213 57.232 50.5427 57.9496C47.964 58.6673 37.4546 52.3708 37.4546 52.3708L42.401 50.8374L39.5687 41.1342L45.4818 39.4891Z"
            fill="#F5D450" />
        <path
            d="M41.9028 52.7863C41.9028 52.7863 45.8841 56.342 49.9151 52.1777C49.9151 52.1777 52.0403 61.5438 49.3448 62.3614C46.6492 63.1791 42.0447 55.4595 41.9028 52.7863Z"
            fill="#FDFFFF" />
        <path
            d="M48.9284 62.6129C47.1214 62.6129 45.0792 59.8502 44.2847 58.6626C42.8386 56.5001 41.7807 54.0877 41.7121 52.7962C41.7103 52.7586 41.7196 52.7212 41.7389 52.6888C41.7581 52.6564 41.7866 52.6305 41.8205 52.6142C41.8545 52.5979 41.8926 52.5919 41.9299 52.5972C41.9672 52.6024 42.0022 52.6185 42.0304 52.6435C42.0459 52.6571 43.5894 54.0094 45.6678 54.0094C47.1332 54.0094 48.516 53.3484 49.7779 52.0448C49.8019 52.0202 49.8321 52.0024 49.8653 51.9934C49.8986 51.9845 49.9336 51.9846 49.9668 51.9939C49.9999 52.0031 50.03 52.0211 50.0538 52.046C50.0776 52.0709 50.0942 52.1018 50.102 52.1353C50.1903 52.5248 52.2339 61.6848 49.4005 62.5443C49.2506 62.5899 49.0915 62.6129 48.9284 62.6129ZM42.152 53.2205C42.6764 55.9441 46.477 62.2305 48.9284 62.2305C49.0507 62.231 49.1724 62.2134 49.2896 62.1785C51.2748 61.5762 50.3907 55.3279 49.8032 52.559C48.5332 53.7755 47.1435 54.3919 45.6678 54.3919C44.0455 54.3919 42.7581 53.6481 42.152 53.2205Z"
            fill="#241726" />
        <path
            d="M24.8589 30.2681C24.8589 30.2681 24.9326 11.755 40.351 16.4749C57.807 21.8185 56.9428 35.578 47.6145 41.4027C47.6145 41.4027 32.4069 51.3198 24.8589 30.2681Z"
            fill="#F5D450" />
        <path
            d="M41.7059 30.6253C41.6605 30.6251 41.6167 30.6088 41.5822 30.5792C41.5478 30.5497 41.5249 30.5089 41.5177 30.4642C41.5105 30.4194 41.5195 30.3735 41.543 30.3347C41.5665 30.2959 41.603 30.2667 41.646 30.2523C43.0309 29.7969 44.5319 29.2318 45.031 28.9444C43.8666 28.4937 39.8518 26.3685 39.6693 26.2718C39.6261 26.2472 39.5943 26.2068 39.5804 26.1591C39.5666 26.1114 39.5718 26.0602 39.595 26.0163C39.6183 25.9724 39.6576 25.9392 39.7049 25.9238C39.7521 25.9085 39.8035 25.912 39.8481 25.9338C41.4959 26.8071 44.7616 28.4968 45.3266 28.6422C45.5268 28.6939 45.5527 28.8299 45.5543 28.8859C45.5592 29.0293 45.5701 29.3647 41.7653 30.6156C41.7459 30.6224 41.7256 30.6253 41.7059 30.6253ZM46.5566 34.7819C45.6026 34.7819 43.7591 33.3753 43.5424 33.207C43.5223 33.1918 43.5054 33.1727 43.4927 33.1508C43.48 33.129 43.4718 33.1049 43.4685 33.0798C43.4652 33.0548 43.4669 33.0293 43.4734 33.0049C43.48 32.9806 43.4914 32.9577 43.5069 32.9378C43.5223 32.9178 43.5416 32.9011 43.5636 32.8886C43.5855 32.8761 43.6097 32.8682 43.6348 32.8651C43.6599 32.862 43.6853 32.864 43.7096 32.8708C43.7339 32.8776 43.7567 32.8892 43.7765 32.9049C44.5865 33.5326 46.0817 34.4911 46.6298 34.3938C46.71 34.3796 46.7403 34.3459 46.7577 34.318C46.8875 34.1111 46.858 33.5001 45.2027 31.7322C45.1191 31.6427 45.0667 31.5837 45.0555 31.5668C45.0409 31.5459 45.0306 31.5224 45.0253 31.4975C45.0199 31.4725 45.0196 31.4468 45.0243 31.4218C45.029 31.3967 45.0387 31.3729 45.0527 31.3516C45.0668 31.3304 45.0849 31.3122 45.1061 31.298C45.1273 31.2839 45.1512 31.2741 45.1762 31.2693C45.2012 31.2645 45.2269 31.2648 45.2518 31.27C45.2768 31.2753 45.3004 31.2855 45.3213 31.3C45.3423 31.3146 45.3601 31.3331 45.3737 31.3546C45.3833 31.3656 45.4237 31.4083 45.4819 31.4705C46.385 32.4351 47.5334 33.8009 47.0816 34.5209C46.9982 34.654 46.865 34.7401 46.6965 34.7701C46.6528 34.7782 46.6058 34.7819 46.5566 34.7819ZM38.1584 32.8379C37.6181 32.8379 36.7059 32.6317 35.1258 31.9867C35.1026 31.9772 35.0814 31.9633 35.0635 31.9456C35.0457 31.9279 35.0315 31.9069 35.0217 31.8838C35.012 31.8606 35.0069 31.8357 35.0068 31.8106C35.0067 31.7855 35.0116 31.7606 35.0211 31.7374C35.0404 31.6905 35.0774 31.6531 35.1241 31.6335C35.1709 31.6139 35.2235 31.6136 35.2704 31.6326C38.0307 32.7595 38.5118 32.4448 38.5935 32.3214C38.8693 31.9037 37.6612 30.2818 36.3836 29.0188C36.3658 29.0011 36.3516 28.9801 36.3419 28.957C36.3321 28.9338 36.327 28.909 36.3269 28.8839C36.3268 28.8588 36.3316 28.8339 36.3411 28.8106C36.3505 28.7874 36.3645 28.7662 36.3822 28.7484C36.3998 28.7305 36.4208 28.7163 36.444 28.7066C36.4671 28.6969 36.492 28.6918 36.5171 28.6917C36.5422 28.6915 36.5671 28.6963 36.5903 28.7058C36.6136 28.7153 36.6347 28.7293 36.6526 28.7469C37.1334 29.2222 39.5026 31.6386 38.9127 32.5322C38.8096 32.6878 38.6193 32.8379 38.1584 32.8379ZM46.1365 25.9882C45.0147 25.9882 42.8769 24.8142 42.1363 24.387C42.0923 24.3616 42.0602 24.3198 42.0471 24.2708C42.034 24.2218 42.0409 24.1696 42.0662 24.1257C42.0916 24.0817 42.1334 24.0497 42.1824 24.0365C42.2314 24.0234 42.2836 24.0303 42.3275 24.0556C44.059 25.0547 46.1183 25.9047 46.4239 25.5362C46.4887 25.4582 46.698 24.9362 44.4512 22.3075C44.4349 22.2884 44.4225 22.2663 44.4147 22.2424C44.4069 22.2186 44.404 22.1934 44.4059 22.1684C44.4079 22.1434 44.4147 22.119 44.4261 22.0966C44.4375 22.0742 44.4532 22.0543 44.4723 22.038C44.4913 22.0217 44.5134 22.0093 44.5373 22.0016C44.5611 21.9938 44.5863 21.9908 44.6113 21.9928C44.6363 21.9947 44.6607 22.0016 44.6831 22.013C44.7055 22.0244 44.7254 22.04 44.7417 22.0591C47.0198 24.7242 46.9945 25.4478 46.7178 25.7807C46.5967 25.9267 46.3931 25.9882 46.1365 25.9882Z"
            fill="#241726" />
        <path
            d="M47.4341 21.2518C47.4341 21.2518 44.8653 16.8018 48.5501 17.4371C52.2348 18.0724 53.8295 20.6342 51.2168 23.1349C51.2168 23.1349 49.3502 21.1713 47.4341 21.2518Z"
            fill="#F5D450" />
        <path
            d="M40.5895 35.2468C41.1581 36.5115 40.5938 37.9977 39.3291 38.5663C38.0643 39.1349 36.5781 38.5706 36.0095 37.3059C35.4409 36.0411 36.0052 34.5549 37.2699 33.9864C38.5347 33.4177 40.0209 33.982 40.5895 35.2468ZM51.2026 26.975C51.7713 28.2397 51.207 29.726 49.9422 30.2946C48.6774 30.8633 47.1912 30.299 46.6225 29.0342C46.0538 27.7695 46.6183 26.2832 47.8829 25.7147C49.1479 25.1459 50.6341 25.7102 51.2026 26.975Z"
            fill="#EA942A" />
        <path
            d="M35.1138 56.2215C35.1138 56.2215 24.7342 71.2391 24.1923 71.4961C22.3246 72.3818 18.552 52.1968 18.552 52.1968L14.6436 55.3733C14.6436 55.3733 17.3404 75.5172 21.1913 79.5638C25.0422 83.6103 38.118 61.2517 38.118 61.2517L35.1138 56.2215Z"
            fill="#F5D450" />
        <path
            d="M15.6498 69.0455L15.6395 69.0453C15.3747 69.0315 15.1114 68.9966 14.8521 68.9411C14.8037 68.9293 14.7618 68.899 14.7353 68.8568C14.7089 68.8145 14.6999 68.7636 14.7105 68.7149C14.721 68.6662 14.7501 68.6235 14.7917 68.5959C14.8332 68.5683 14.8838 68.5581 14.9328 68.5673C15.1723 68.6185 15.4155 68.6506 15.66 68.6632C15.7654 68.6691 15.8465 68.7591 15.8408 68.8646C15.8381 68.9134 15.8168 68.9594 15.7813 68.993C15.7458 69.0266 15.6987 69.0454 15.6498 69.0455ZM16.4132 69.0338C16.3639 69.0337 16.3166 69.0145 16.2811 68.9802C16.2456 68.946 16.2247 68.8994 16.2227 68.8501C16.2208 68.8008 16.2379 68.7527 16.2706 68.7158C16.3033 68.6788 16.349 68.656 16.3981 68.6519C16.6449 68.6317 16.8904 68.5975 17.1333 68.5494C17.1831 68.5397 17.2347 68.5501 17.2768 68.5784C17.3189 68.6067 17.3481 68.6506 17.3578 68.7004C17.3676 68.7502 17.3572 68.8018 17.3289 68.8439C17.3006 68.886 17.2567 68.9151 17.2069 68.9249C16.9498 68.9757 16.69 69.012 16.4288 69.0333C16.4236 69.0337 16.4184 69.0338 16.4132 69.0338ZM17.9127 68.7456C17.8669 68.7453 17.8228 68.7286 17.7883 68.6985C17.7537 68.6684 17.7312 68.6269 17.7246 68.5816C17.718 68.5363 17.7279 68.4901 17.7525 68.4515C17.777 68.4128 17.8146 68.3843 17.8584 68.371C18.098 68.2997 18.3346 68.2189 18.5676 68.1288C18.5911 68.1197 18.616 68.1154 18.6411 68.116C18.6662 68.1166 18.691 68.1221 18.7139 68.1323C18.7369 68.1424 18.7576 68.157 18.7749 68.1752C18.7922 68.1934 18.8058 68.2148 18.8149 68.2382C18.8239 68.2616 18.8283 68.2866 18.8277 68.3117C18.827 68.3368 18.8215 68.3615 18.8113 68.3845C18.8012 68.4074 18.7866 68.4282 18.7684 68.4455C18.7503 68.4628 18.7289 68.4764 18.7054 68.4854C18.4628 68.5793 18.2164 68.6634 17.967 68.7377C17.9494 68.743 17.9311 68.7456 17.9127 68.7456ZM14.1626 68.7188C14.1382 68.7188 14.1134 68.7141 14.0894 68.7043C13.8426 68.6022 13.606 68.4772 13.3826 68.3309C13.3402 68.3031 13.3105 68.2596 13.3002 68.2099C13.2898 68.1602 13.2996 68.1085 13.3273 68.066C13.3552 68.0237 13.3987 67.9941 13.4483 67.9838C13.498 67.9734 13.5497 67.9831 13.5922 68.0108C13.7957 68.144 14.0112 68.2578 14.2359 68.3509C14.2768 68.3678 14.3105 68.3984 14.3314 68.4374C14.3522 68.4765 14.3589 68.5215 14.3503 68.5649C14.3416 68.6083 14.3182 68.6474 14.284 68.6754C14.2498 68.7035 14.2069 68.7188 14.1626 68.7188ZM19.3399 68.197C19.2963 68.1974 19.2538 68.1827 19.2196 68.1556C19.1854 68.1284 19.1616 68.0903 19.152 68.0477C19.1425 68.0051 19.1479 67.9605 19.1673 67.9213C19.1867 67.8822 19.2189 67.8509 19.2586 67.8326C19.4859 67.7258 19.7099 67.612 19.9302 67.4912C19.9522 67.4791 19.9764 67.4715 20.0013 67.4688C20.0263 67.4661 20.0516 67.4683 20.0757 67.4754C20.0998 67.4824 20.1222 67.4941 20.1418 67.5099C20.1614 67.5256 20.1776 67.545 20.1897 67.5671C20.2018 67.5891 20.2094 67.6133 20.2121 67.6382C20.2148 67.6632 20.2126 67.6884 20.2055 67.7125C20.1985 67.7366 20.1868 67.7591 20.171 67.7787C20.1553 67.7983 20.1359 67.8145 20.1138 67.8266C19.8866 67.9512 19.6556 68.0687 19.421 68.1789C19.3956 68.1908 19.368 68.197 19.3399 68.197ZM12.8632 67.9203C12.8226 67.9203 12.7818 67.9075 12.7469 67.8809C12.5396 67.7226 12.3398 67.5547 12.1481 67.3779C12.1289 67.361 12.1133 67.3405 12.1022 67.3175C12.0911 67.2945 12.0847 67.2695 12.0834 67.244C12.0821 67.2185 12.0859 67.1929 12.0946 67.1689C12.1033 67.1449 12.1168 67.1229 12.1341 67.1042C12.1515 67.0854 12.1725 67.0704 12.1957 67.0599C12.219 67.0494 12.2442 67.0436 12.2697 67.043C12.2953 67.0424 12.3207 67.0469 12.3444 67.0562C12.3682 67.0656 12.3899 67.0796 12.4081 67.0974C12.5911 67.2662 12.7819 67.4264 12.9797 67.5774C13.0114 67.6018 13.0346 67.6354 13.0461 67.6737C13.0577 67.7119 13.057 67.7528 13.0441 67.7906C13.0313 67.8284 13.0069 67.8612 12.9745 67.8845C12.942 67.9077 12.9031 67.9203 12.8632 67.9203ZM20.6832 67.4643C20.6415 67.4644 20.601 67.451 20.5677 67.426C20.5344 67.401 20.5102 67.3658 20.4987 67.3257C20.4873 67.2857 20.4892 67.243 20.5042 67.2041C20.5193 67.1653 20.5466 67.1325 20.582 67.1106C20.796 66.9775 21.0065 66.839 21.2133 66.6951C21.2339 66.6807 21.2571 66.6706 21.2817 66.6652C21.3062 66.6598 21.3316 66.6594 21.3563 66.6638C21.381 66.6683 21.4047 66.6776 21.4258 66.6912C21.4469 66.7048 21.4651 66.7224 21.4795 66.7431C21.5398 66.8298 21.5184 66.9489 21.4315 67.0092C21.2194 67.1568 21.0035 67.299 20.7842 67.4356C20.7524 67.4549 20.7177 67.4643 20.6832 67.4643ZM11.7485 66.8781C11.7207 66.8781 11.6932 66.8721 11.6679 66.8604C11.6427 66.8487 11.6203 66.8316 11.6023 66.8103C11.4305 66.6086 11.2748 66.3936 11.1365 66.1676C11.1103 66.1242 11.1023 66.0721 11.1144 66.0229C11.1264 65.9736 11.1576 65.9311 11.2009 65.9048C11.2444 65.8787 11.2963 65.8709 11.3455 65.8829C11.3947 65.895 11.4372 65.926 11.4637 65.9692C11.5915 66.1782 11.7355 66.3769 11.8944 66.5634C11.9179 66.5913 11.933 66.6253 11.9378 66.6614C11.9427 66.6975 11.9371 66.7342 11.9218 66.7673C11.9064 66.8003 11.882 66.8283 11.8513 66.848C11.8206 66.8676 11.7849 66.878 11.7485 66.8781ZM21.94 66.5908C21.9001 66.5909 21.8611 66.5784 21.8286 66.5552C21.7962 66.532 21.7717 66.4992 21.7588 66.4614C21.7459 66.4236 21.7452 66.3827 21.7567 66.3445C21.7682 66.3062 21.7914 66.2725 21.823 66.2481C22.0228 66.0942 22.2191 65.9357 22.4117 65.7728C22.4308 65.7556 22.4531 65.7424 22.4773 65.7339C22.5016 65.7255 22.5272 65.722 22.5529 65.7237C22.5785 65.7254 22.6035 65.7323 22.6264 65.7439C22.6493 65.7554 22.6697 65.7715 22.6862 65.7911C22.7028 65.8107 22.7153 65.8334 22.7229 65.8579C22.7305 65.8825 22.7331 65.9083 22.7305 65.9338C22.7279 65.9593 22.7202 65.9841 22.7079 66.0066C22.6955 66.0291 22.6788 66.0489 22.6586 66.0648C22.4616 66.2314 22.2608 66.3935 22.0564 66.551C22.0231 66.5768 21.9822 66.5909 21.94 66.5908ZM23.108 65.6034C23.0696 65.6034 23.032 65.5918 23.0003 65.5701C22.9686 65.5484 22.9441 65.5176 22.9301 65.4818C22.9161 65.446 22.9132 65.4068 22.9218 65.3693C22.9304 65.3319 22.9501 65.2979 22.9783 65.2718C23.1635 65.1004 23.345 64.925 23.5225 64.7457C23.5586 64.7115 23.6066 64.6926 23.6563 64.6932C23.706 64.6937 23.7536 64.7136 23.7889 64.7486C23.8242 64.7836 23.8445 64.831 23.8455 64.8808C23.8464 64.9305 23.828 64.9786 23.794 65.015C23.6125 65.1982 23.4271 65.3775 23.2379 65.5527C23.2025 65.5854 23.1561 65.6035 23.108 65.6034ZM10.9689 65.5718C10.8905 65.5718 10.8169 65.5233 10.789 65.4452C10.6974 65.1911 10.6359 64.9271 10.6058 64.6587C10.6003 64.6082 10.615 64.5577 10.6468 64.5181C10.6785 64.4785 10.7246 64.4532 10.775 64.4476C10.8254 64.4423 10.8758 64.4572 10.9153 64.4889C10.9549 64.5205 10.9803 64.5665 10.9861 64.6168C11.0128 64.8555 11.0675 65.0902 11.1492 65.316C11.1595 65.3449 11.1628 65.3759 11.1587 65.4063C11.1545 65.4367 11.1432 65.4656 11.1255 65.4907C11.1078 65.5158 11.0844 65.5363 11.0571 65.5504C11.0299 65.5645 10.9996 65.5718 10.9689 65.5718ZM24.1852 64.5149C24.1482 64.515 24.1119 64.5043 24.0808 64.4841C24.0497 64.4639 24.0252 64.4352 24.0102 64.4013C23.9952 64.3674 23.9903 64.3299 23.9962 64.2934C24.0022 64.2568 24.0186 64.2227 24.0435 64.1954C24.2128 64.0083 24.3779 63.8174 24.5386 63.6229C24.5545 63.6031 24.5741 63.5867 24.5964 63.5746C24.6186 63.5624 24.6431 63.5548 24.6683 63.5522C24.6935 63.5496 24.719 63.5521 24.7433 63.5594C24.7675 63.5668 24.7901 63.5788 24.8097 63.595C24.8292 63.6111 24.8454 63.631 24.8572 63.6534C24.869 63.6759 24.8762 63.7004 24.8785 63.7257C24.8807 63.751 24.8779 63.7764 24.8702 63.8006C24.8625 63.8247 24.8501 63.8471 24.8337 63.8664C24.6693 64.0654 24.5003 64.2607 24.3271 64.452C24.3092 64.4718 24.2873 64.4877 24.2628 64.4985C24.2384 64.5094 24.212 64.5149 24.1852 64.5149ZM10.8067 64.0662C10.7794 64.0662 10.7524 64.0603 10.7275 64.0491C10.7027 64.0378 10.6805 64.0213 10.6626 64.0008C10.6446 63.9802 10.6312 63.9561 10.6234 63.9299C10.6155 63.9038 10.6133 63.8763 10.617 63.8492C10.6542 63.5822 10.7212 63.3201 10.8169 63.068C10.8354 63.0215 10.8715 62.9841 10.9173 62.9639C10.9632 62.9437 11.0151 62.9423 11.062 62.96C11.1088 62.9776 11.1469 63.013 11.168 63.0584C11.1891 63.1038 11.1916 63.1557 11.1748 63.2029C11.0893 63.4281 11.0294 63.6622 10.9963 63.9008C10.9899 63.9466 10.9672 63.9885 10.9323 64.0188C10.8975 64.0492 10.8529 64.066 10.8067 64.0662ZM25.1592 63.3344C25.1236 63.3345 25.0888 63.3247 25.0585 63.306C25.0282 63.2873 25.0038 63.2606 24.9879 63.2288C24.9721 63.197 24.9654 63.1614 24.9687 63.126C24.9719 63.0906 24.985 63.0568 25.0065 63.0285C25.1576 62.8269 25.3037 62.6215 25.4446 62.4126C25.4738 62.3725 25.5173 62.3452 25.5662 62.3365C25.615 62.3279 25.6653 62.3385 25.7064 62.3663C25.7476 62.394 25.7763 62.4366 25.7866 62.4851C25.7969 62.5336 25.788 62.5842 25.7617 62.6263C25.6173 62.8406 25.4675 63.0512 25.3124 63.2579C25.2945 63.2817 25.2714 63.301 25.2448 63.3143C25.2182 63.3275 25.1889 63.3344 25.1592 63.3344ZM11.3342 62.6419C11.3001 62.6418 11.2667 62.6327 11.2374 62.6154C11.2081 62.5981 11.1839 62.5733 11.1673 62.5436C11.1508 62.5139 11.1425 62.4803 11.1432 62.4462C11.144 62.4122 11.1538 62.379 11.1717 62.3501C11.4201 61.9492 11.6548 61.7162 11.6645 61.7063C11.7011 61.6729 11.7492 61.6548 11.7987 61.6561C11.8482 61.6573 11.8953 61.6777 11.9301 61.713C11.9649 61.7483 11.9847 61.7957 11.9853 61.8452C11.9859 61.8947 11.9673 61.9426 11.9333 61.9787C11.931 61.9809 11.7195 62.1923 11.4971 62.5514C11.4608 62.6096 11.3982 62.6419 11.3342 62.6419ZM26.0136 62.0651C25.9798 62.065 25.9467 62.056 25.9175 62.0389C25.8883 62.0219 25.8641 61.9974 25.8474 61.968C25.8308 61.9386 25.8222 61.9053 25.8226 61.8715C25.823 61.8377 25.8323 61.8046 25.8496 61.7755C25.9788 61.5598 26.1017 61.3403 26.2181 61.1174C26.2428 61.0746 26.283 61.0431 26.3304 61.0293C26.3778 61.0155 26.4287 61.0206 26.4725 61.0434C26.5162 61.0662 26.5495 61.1051 26.5653 61.1519C26.581 61.1986 26.5782 61.2497 26.5572 61.2944C26.4374 61.5239 26.3109 61.7499 26.1779 61.972C26.1422 62.0318 26.0787 62.0651 26.0136 62.0651ZM26.7188 60.7076C26.687 60.7076 26.6558 60.6997 26.6278 60.6845C26.5999 60.6694 26.5761 60.6475 26.5588 60.6209C26.5414 60.5942 26.531 60.5637 26.5284 60.532C26.5258 60.5003 26.5312 60.4685 26.5441 60.4394C26.645 60.2103 26.7374 59.9776 26.8213 59.7417C26.8293 59.7175 26.842 59.6952 26.8588 59.676C26.8755 59.6568 26.8959 59.6412 26.9188 59.63C26.9416 59.6188 26.9665 59.6123 26.9919 59.6108C27.0173 59.6094 27.0428 59.613 27.0668 59.6215C27.0908 59.63 27.1128 59.6432 27.1317 59.6603C27.1505 59.6775 27.1657 59.6982 27.1764 59.7213C27.1871 59.7444 27.1931 59.7694 27.1941 59.7948C27.195 59.8203 27.1908 59.8456 27.1818 59.8695C27.095 60.1142 26.9991 60.3557 26.8942 60.5933C26.8793 60.6273 26.8547 60.6562 26.8235 60.6765C26.7924 60.6968 26.756 60.7076 26.7188 60.7076ZM27.2266 59.2659C27.1973 59.2659 27.1685 59.2592 27.1423 59.2464C27.116 59.2335 27.0931 59.2148 27.0752 59.1916C27.0574 59.1685 27.045 59.1416 27.0391 59.113C27.0333 59.0844 27.0341 59.0548 27.0414 59.0265C27.1051 58.7819 27.1562 58.5363 27.1938 58.297C27.2032 58.2483 27.2312 58.2051 27.2718 58.1766C27.3124 58.1481 27.3625 58.1365 27.4115 58.1442C27.4605 58.1519 27.5046 58.1783 27.5345 58.2179C27.5644 58.2574 27.5778 58.3071 27.5718 58.3563C27.531 58.6143 27.4776 58.8701 27.4117 59.1228C27.389 59.2089 27.3115 59.2659 27.2266 59.2659ZM27.4572 57.7575L27.4496 57.7573C27.4245 57.7564 27.3999 57.7504 27.3771 57.7399C27.3543 57.7294 27.3338 57.7145 27.3167 57.6961C27.2997 57.6776 27.2864 57.656 27.2777 57.6325C27.2691 57.6089 27.2651 57.5838 27.2661 57.5588C27.276 57.3125 27.2691 57.0658 27.2455 56.8205C27.2431 56.7955 27.2456 56.7703 27.2529 56.7462C27.2602 56.7222 27.2722 56.6999 27.2881 56.6805C27.3041 56.6611 27.3237 56.645 27.3459 56.6332C27.3681 56.6214 27.3924 56.6141 27.4174 56.6117C27.5229 56.6043 27.6161 56.6785 27.6262 56.7835C27.6515 57.0461 27.6589 57.3101 27.6482 57.5737C27.6463 57.6231 27.6254 57.6698 27.5898 57.7041C27.5542 57.7383 27.5067 57.7575 27.4572 57.7575ZM15.0577 76.1394C15.0078 76.1387 14.9602 76.1185 14.925 76.0832C14.8898 76.0479 14.8698 76.0003 14.8692 75.9504C14.8686 75.9006 14.8875 75.8525 14.9218 75.8163C14.9562 75.7802 15.0033 75.7589 15.0531 75.757C15.2898 75.7516 15.5411 75.7345 15.8004 75.7058C15.8498 75.7023 15.8985 75.7181 15.9365 75.7498C15.9745 75.7815 15.9987 75.8267 16.0041 75.8758C16.0095 75.925 15.9957 75.9743 15.9655 76.0135C15.9353 76.0527 15.8912 76.0787 15.8423 76.0861C15.5831 76.115 15.3227 76.1328 15.062 76.1394H15.0577ZM14.2938 76.1125C14.2875 76.1125 14.281 76.1122 14.2743 76.1115C13.9877 76.0825 13.723 76.0316 13.4879 75.9603C13.4394 75.9455 13.3988 75.9121 13.3749 75.8673C13.351 75.8226 13.3458 75.7702 13.3605 75.7216C13.3913 75.6208 13.4977 75.5639 13.5992 75.5942C13.8105 75.6584 14.0505 75.7046 14.3128 75.7309C14.3615 75.7358 14.4066 75.7593 14.4385 75.7965C14.4705 75.8337 14.487 75.8817 14.4845 75.9307C14.4821 75.9797 14.461 76.0259 14.4255 76.0597C14.39 76.0935 14.3428 76.1124 14.2938 76.1125ZM16.5789 75.9773C16.5312 75.9771 16.4853 75.959 16.4503 75.9267C16.4152 75.8944 16.3934 75.8502 16.3893 75.8027C16.3851 75.7552 16.3988 75.7079 16.4278 75.67C16.4567 75.6321 16.4987 75.6063 16.5457 75.5978C16.7936 75.5536 17.0403 75.5028 17.2855 75.4453C17.3343 75.4354 17.3849 75.4449 17.4268 75.4718C17.4687 75.4986 17.4984 75.5408 17.5097 75.5892C17.521 75.6376 17.5131 75.6886 17.4875 75.7312C17.4618 75.7739 17.4206 75.8048 17.3726 75.8176C17.1206 75.8766 16.8672 75.9289 16.6124 75.9744C16.6011 75.9763 16.5899 75.9773 16.5789 75.9773ZM12.8502 75.65C12.8173 75.65 12.7841 75.6416 12.7539 75.6239C12.5069 75.4791 12.2861 75.3311 12.098 75.1831C12.0782 75.1676 12.0617 75.1484 12.0494 75.1265C12.037 75.1046 12.0291 75.0805 12.0261 75.0556C12.0231 75.0307 12.0251 75.0054 12.0319 74.9812C12.0387 74.957 12.0502 74.9344 12.0658 74.9147C12.0812 74.8949 12.1004 74.8783 12.1223 74.8659C12.1441 74.8536 12.1682 74.8457 12.1932 74.8427C12.2181 74.8397 12.2434 74.8416 12.2676 74.8484C12.2918 74.8553 12.3144 74.8668 12.3341 74.8824C12.5086 75.0194 12.715 75.1578 12.947 75.2937C12.9831 75.315 13.0112 75.3476 13.027 75.3864C13.0428 75.4253 13.0454 75.4683 13.0344 75.5087C13.0234 75.5492 12.9994 75.5849 12.9662 75.6105C12.9329 75.636 12.8921 75.6499 12.8502 75.65ZM18.0705 75.6314C18.0243 75.6313 17.9796 75.6145 17.9448 75.5842C17.9101 75.5538 17.8874 75.5118 17.8811 75.4661C17.8749 75.4203 17.8853 75.3738 17.9107 75.3352C17.936 75.2966 17.9744 75.2684 18.0189 75.2559C18.2621 75.1874 18.5039 75.1139 18.7442 75.0356C18.7681 75.0278 18.7932 75.0248 18.8183 75.0268C18.8433 75.0288 18.8677 75.0356 18.8901 75.047C18.9125 75.0584 18.9324 75.0741 18.9487 75.0932C18.9651 75.1123 18.9775 75.1344 18.9852 75.1583C18.993 75.1822 18.996 75.2074 18.994 75.2324C18.9921 75.2575 18.9852 75.2819 18.9738 75.3043C18.9624 75.3266 18.9467 75.3466 18.9276 75.3629C18.9085 75.3792 18.8864 75.3916 18.8625 75.3994C18.6134 75.4804 18.3661 75.5555 18.1223 75.6242C18.1051 75.6291 18.0876 75.6314 18.0705 75.6314ZM19.5273 75.1582C19.4824 75.1581 19.4389 75.1423 19.4045 75.1134C19.3701 75.0845 19.3469 75.0444 19.3391 75.0002C19.3313 74.956 19.3393 74.9104 19.3617 74.8715C19.3841 74.8325 19.4195 74.8027 19.4617 74.7873C19.6967 74.7012 19.9333 74.6101 20.1698 74.5139C20.2168 74.4949 20.2694 74.4953 20.3162 74.515C20.3629 74.5348 20.3999 74.5723 20.4189 74.6193C20.438 74.6663 20.4376 74.719 20.4178 74.7657C20.3981 74.8124 20.3606 74.8494 20.3136 74.8685C20.0751 74.9654 19.8349 75.0581 19.5931 75.1466C19.572 75.1542 19.5498 75.1581 19.5273 75.1582ZM11.6739 74.6879C11.6159 74.6879 11.5587 74.6618 11.5211 74.6119C11.3286 74.3565 11.2148 74.0923 11.1831 73.8266C11.177 73.7762 11.1913 73.7255 11.2226 73.6856C11.2539 73.6458 11.2998 73.6199 11.3502 73.6139C11.3752 73.6106 11.4006 73.6123 11.4249 73.619C11.4492 73.6256 11.4719 73.6371 11.4918 73.6527C11.5116 73.6683 11.5281 73.6876 11.5403 73.7097C11.5525 73.7317 11.5602 73.756 11.5629 73.781C11.5864 73.979 11.6751 74.181 11.8266 74.3815C11.848 74.4099 11.861 74.4437 11.8642 74.4791C11.8674 74.5145 11.8607 74.55 11.8449 74.5818C11.829 74.6136 11.8047 74.6404 11.7745 74.6591C11.7443 74.6778 11.7095 74.6878 11.6739 74.6879ZM20.9466 74.5828C20.9028 74.5828 20.8604 74.5677 20.8264 74.5401C20.7924 74.5125 20.7689 74.4741 20.7598 74.4313C20.7507 74.3885 20.7566 74.3439 20.7764 74.3049C20.7962 74.2659 20.8288 74.2348 20.8688 74.217C21.099 74.1148 21.329 74.0083 21.5577 73.8974C21.5803 73.8865 21.6049 73.8801 21.6299 73.8786C21.655 73.8771 21.6801 73.8806 21.7038 73.8888C21.7275 73.897 21.7494 73.9098 21.7682 73.9265C21.787 73.9431 21.8023 73.9634 21.8132 73.9859C21.8242 74.0085 21.8306 74.0331 21.8321 74.0581C21.8336 74.0832 21.8301 74.1083 21.8219 74.132C21.8137 74.1557 21.8009 74.1776 21.7842 74.1964C21.7675 74.2152 21.7473 74.2305 21.7247 74.2414C21.493 74.3536 21.2595 74.462 21.0242 74.5666C20.999 74.5775 20.9724 74.5828 20.9466 74.5828ZM22.3249 73.9169C22.2821 73.9168 22.2407 73.9025 22.2071 73.8761C22.1735 73.8497 22.1497 73.8128 22.1394 73.7714C22.1292 73.7299 22.1332 73.6862 22.1507 73.6472C22.1682 73.6082 22.1982 73.5763 22.236 73.5564C22.4604 73.4389 22.6829 73.3177 22.9033 73.1929C22.9473 73.1691 22.9989 73.1635 23.0471 73.1774C23.0952 73.1912 23.136 73.2233 23.1606 73.2669C23.1853 73.3105 23.1919 73.362 23.1791 73.4104C23.1662 73.4588 23.1349 73.5002 23.0918 73.5257C22.8677 73.6526 22.6415 73.7758 22.4134 73.8952C22.386 73.9094 22.3557 73.9169 22.3249 73.9169ZM11.5267 73.2595C11.4937 73.2595 11.4612 73.2508 11.4325 73.2345C11.4037 73.2181 11.3797 73.1946 11.3628 73.1662C11.3459 73.1378 11.3366 73.1055 11.3359 73.0725C11.3351 73.0394 11.343 73.0067 11.3586 72.9776C11.4755 72.7599 11.65 72.5437 11.8769 72.335C11.9144 72.3018 11.9635 72.2847 12.0135 72.2873C12.0635 72.2898 12.1106 72.3119 12.1445 72.3488C12.1784 72.3857 12.1965 72.4344 12.1949 72.4845C12.1932 72.5346 12.172 72.582 12.1358 72.6166C11.9404 72.7962 11.7923 72.9786 11.6957 73.1587C11.6792 73.1892 11.6548 73.2147 11.6251 73.2324C11.5954 73.2502 11.5614 73.2595 11.5267 73.2595ZM23.6576 73.1618C23.6159 73.1618 23.5754 73.1481 23.5422 73.123C23.5089 73.0978 23.4849 73.0625 23.4736 73.0224C23.4623 72.9823 23.4644 72.9396 23.4795 72.9008C23.4947 72.862 23.5222 72.8292 23.5577 72.8074C23.7735 72.6756 23.9868 72.5398 24.1977 72.4002C24.2186 72.3863 24.2421 72.3766 24.2667 72.3717C24.2914 72.3669 24.3167 72.367 24.3414 72.372C24.366 72.3769 24.3894 72.3867 24.4102 72.4008C24.4311 72.4148 24.4489 72.4329 24.4627 72.4538C24.4766 72.4748 24.4863 72.4982 24.4911 72.5229C24.4959 72.5475 24.4958 72.5729 24.4909 72.5975C24.4859 72.6221 24.4761 72.6455 24.4621 72.6663C24.448 72.6872 24.43 72.705 24.4091 72.7189C24.1954 72.8606 23.9779 72.999 23.7571 73.1341C23.7271 73.1522 23.6926 73.1618 23.6576 73.1618ZM24.934 72.3156C24.8935 72.3157 24.854 72.3029 24.8212 72.2791C24.7885 72.2553 24.7641 72.2217 24.7517 72.1832C24.7392 72.1446 24.7393 72.1031 24.752 72.0647C24.7647 72.0262 24.7892 71.9928 24.8221 71.9691C25.0272 71.8217 25.229 71.6698 25.4276 71.5138C25.4675 71.4825 25.5182 71.4683 25.5686 71.4743C25.6189 71.4803 25.6648 71.5061 25.6962 71.5459C25.7276 71.5858 25.7418 71.6365 25.7358 71.6868C25.7297 71.7372 25.704 71.7831 25.6641 71.8145C25.4614 71.974 25.2552 72.129 25.0457 72.2794C25.0117 72.3039 24.9726 72.3156 24.934 72.3156ZM12.6169 72.2065C12.5755 72.2065 12.5352 72.193 12.502 72.1681C12.4689 72.1432 12.4448 72.1082 12.4332 72.0684C12.4217 72.0286 12.4234 71.9862 12.4381 71.9474C12.4528 71.9087 12.4796 71.8757 12.5146 71.8536C12.8922 71.6153 13.2046 71.4815 13.2177 71.4762C13.2639 71.4586 13.3151 71.4597 13.3606 71.4791C13.406 71.4985 13.4422 71.5347 13.4616 71.5802C13.4809 71.6256 13.4819 71.6768 13.4643 71.723C13.4468 71.7692 13.412 71.8068 13.3673 71.8279C13.1431 71.9286 12.9264 72.0453 12.7189 72.177C12.6884 72.1962 12.653 72.2065 12.6169 72.2065ZM26.1362 71.3687C26.0972 71.3688 26.059 71.357 26.0269 71.3348C25.9948 71.3125 25.9703 71.281 25.9567 71.2444C25.943 71.2078 25.9409 71.168 25.9507 71.1301C25.9604 71.0923 25.9815 71.0584 26.0111 71.033C26.2015 70.8682 26.3874 70.6984 26.5687 70.5236C26.5868 70.5062 26.6081 70.4925 26.6315 70.4833C26.6549 70.4741 26.6798 70.4696 26.7049 70.47C26.73 70.4705 26.7548 70.4759 26.7778 70.4859C26.8009 70.4959 26.8217 70.5104 26.8391 70.5285C26.8565 70.5465 26.8703 70.5679 26.8794 70.5913C26.8886 70.6146 26.8931 70.6396 26.8927 70.6647C26.8922 70.6898 26.8868 70.7146 26.8768 70.7376C26.8668 70.7606 26.8523 70.7814 26.8342 70.7989C26.648 70.9783 26.457 71.1528 26.2614 71.322C26.2266 71.3522 26.1822 71.3688 26.1362 71.3687ZM27.2358 70.3046C27.1986 70.3048 27.1622 70.2941 27.131 70.2739C27.0998 70.2536 27.0752 70.2247 27.0602 70.1907C27.0452 70.1567 27.0405 70.119 27.0467 70.0823C27.0528 70.0457 27.0695 70.0116 27.0948 69.9843C27.2638 69.7997 27.426 69.609 27.5811 69.4125C27.6124 69.3727 27.6583 69.3469 27.7087 69.3409C27.759 69.3349 27.8097 69.3491 27.8495 69.3804C27.8894 69.4118 27.9152 69.4577 27.9212 69.508C27.9272 69.5583 27.913 69.609 27.8816 69.6489C27.7208 69.8529 27.5523 70.0509 27.3767 70.2424C27.3391 70.2835 27.2875 70.3046 27.2358 70.3046ZM28.1781 69.1011C28.1437 69.1011 28.1099 69.0918 28.0804 69.0742C28.0508 69.0565 28.0265 69.0312 28.0102 69.001C27.9938 68.9707 27.9859 68.9366 27.9873 68.9022C27.9887 68.8678 27.9993 68.8344 28.0181 68.8056C28.154 68.5982 28.2784 68.3836 28.3908 68.1627C28.4022 68.1403 28.4178 68.1203 28.4369 68.104C28.456 68.0877 28.478 68.0752 28.5019 68.0675C28.5258 68.0597 28.5509 68.0566 28.576 68.0586C28.601 68.0605 28.6254 68.0673 28.6478 68.0787C28.6702 68.09 28.6901 68.1057 28.7064 68.1248C28.7227 68.1438 28.7352 68.1659 28.743 68.1898C28.7508 68.2136 28.7538 68.2388 28.7519 68.2638C28.7499 68.2888 28.7431 68.3132 28.7317 68.3356C28.613 68.5688 28.4817 68.7955 28.3385 69.0145C28.321 69.0412 28.2973 69.063 28.2693 69.0781C28.2413 69.0933 28.2099 69.1011 28.1781 69.1011ZM28.8611 67.7384C28.8306 67.7384 28.8005 67.7311 28.7734 67.7171C28.7463 67.7031 28.723 67.6828 28.7053 67.658C28.6876 67.6331 28.6762 67.6044 28.6719 67.5742C28.6675 67.544 28.6705 67.5132 28.6805 67.4844C28.7611 67.2539 28.8229 67.0173 28.8655 66.7769C28.8743 66.727 28.9025 66.6826 28.944 66.6535C28.9855 66.6243 29.0368 66.6127 29.0868 66.6213C29.1115 66.6256 29.1352 66.6348 29.1564 66.6482C29.1776 66.6617 29.1959 66.6792 29.2104 66.6997C29.2248 66.7203 29.2351 66.7435 29.2406 66.768C29.2461 66.7925 29.2467 66.8178 29.2424 66.8426C29.1963 67.1033 29.1292 67.3598 29.0419 67.6097C29.0288 67.6473 29.0044 67.6799 28.972 67.7029C28.9397 67.726 28.9009 67.7384 28.8611 67.7384ZM29.114 66.2412C29.0638 66.2412 29.0156 66.2215 28.9799 66.1863C28.9441 66.1511 28.9236 66.1033 28.9227 66.0531C28.9186 65.8109 28.8901 65.5696 28.8378 65.333C28.8289 65.2843 28.8393 65.2341 28.8666 65.1929C28.894 65.1517 28.9363 65.1227 28.9846 65.1119C29.0329 65.1012 29.0835 65.1096 29.1257 65.1353C29.168 65.1611 29.1986 65.2022 29.2113 65.25C29.269 65.5107 29.3006 65.7787 29.3051 66.0466C29.3059 66.0973 29.2866 66.1463 29.2513 66.1828C29.2161 66.2192 29.1678 66.2402 29.1171 66.241L29.114 66.2412ZM28.7875 64.7572C28.7502 64.7572 28.7137 64.7464 28.6825 64.7259C28.6513 64.7055 28.6268 64.6763 28.6119 64.6421C28.5139 64.4183 28.3972 64.203 28.2631 63.9987C28.2493 63.9777 28.2399 63.9542 28.2352 63.9295C28.2306 63.9049 28.2309 63.8795 28.236 63.8549C28.2412 63.8304 28.2511 63.8071 28.2652 63.7863C28.2794 63.7656 28.2975 63.7479 28.3185 63.7341C28.3395 63.7204 28.363 63.711 28.3877 63.7063C28.4124 63.7017 28.4377 63.7019 28.4623 63.7071C28.4869 63.7122 28.5102 63.7222 28.5309 63.7363C28.5516 63.7505 28.5694 63.7686 28.5831 63.7896C28.729 64.0119 28.8559 64.2461 28.9626 64.4897C28.9753 64.5188 28.9805 64.5506 28.9778 64.5822C28.9751 64.6138 28.9647 64.6442 28.9473 64.6708C28.9299 64.6973 28.9062 64.7191 28.8783 64.7342C28.8504 64.7493 28.8192 64.7572 28.7875 64.7572ZM22.9493 21.7146C22.9493 21.7146 13.1762 18.2472 9.16108 23.9053C1.9871 34.0146 14.4874 38.2413 11.1988 42.2412C11.1988 42.2412 16.9138 43.9356 15.4227 37.4998C15.4227 37.4998 18.7058 41.5785 15.5646 44.6586C15.5646 44.6586 19.247 49.0151 21.2557 42.2162C23.2644 35.4174 15.5176 26.545 22.2282 24.4688L22.9493 21.7146Z"
            fill="#241726" />
        <path
            d="M31.0749 23.6437C31.0749 23.6437 35.0213 32.6068 31.3612 37.5119C31.3612 37.5119 14.1795 36.031 24.361 19.1108C24.361 19.1108 29.5183 21.0881 31.0749 23.6437Z"
            fill="#241726" />
        <path
            d="M22.949 21.7145C22.949 21.7145 22.9821 9.29128 33.4878 10.2017C40.1887 10.7825 41.5576 16.1884 43.3753 9.64111C43.3753 9.64111 48.7956 13.488 45.3136 19.2305C42.4636 23.9309 22.6556 32.3282 22.949 21.7145Z"
            fill="#241726" />
        <path
            d="M26.3256 21.5978H26.3222C26.2715 21.5969 26.2232 21.5759 26.188 21.5394C26.1527 21.503 26.1334 21.454 26.1343 21.4033C26.1372 21.2386 26.2298 17.3525 28.3584 15.6842C29.2478 14.9875 30.361 14.7853 31.6674 15.0825C33.3478 15.4649 35.1145 16.2681 36.673 16.9769C38.9813 18.0262 40.9753 18.9327 42.0742 18.3222C42.5652 18.0497 42.8624 17.4736 42.9825 16.5607C42.9856 16.5358 42.9936 16.5117 43.0062 16.4898C43.0187 16.468 43.0354 16.4489 43.0554 16.4335C43.0753 16.4182 43.0982 16.407 43.1225 16.4006C43.1468 16.3942 43.1722 16.3927 43.1971 16.3962C43.2474 16.4029 43.293 16.4292 43.3238 16.4694C43.3547 16.5097 43.3683 16.5606 43.3617 16.6108C43.2245 17.6522 42.8642 18.3212 42.2598 18.6566C40.9911 19.3597 38.9168 18.4171 36.5148 17.3249C34.8975 16.5894 33.2248 15.8291 31.5825 15.4552C30.3941 15.1848 29.3886 15.3629 28.5948 15.9846C26.6093 17.5397 26.5172 21.3715 26.5164 21.4099C26.5156 21.46 26.4952 21.5078 26.4595 21.5429C26.4238 21.5781 26.3757 21.5978 26.3256 21.5978Z"
            fill="#FDFFFF" />
        <path
            d="M28.5178 23.6917C28.489 23.6918 28.4605 23.6853 28.4345 23.6727C28.4086 23.6602 28.3858 23.6419 28.3678 23.6194C28.3499 23.5968 28.3373 23.5704 28.331 23.5423C28.3247 23.5141 28.3248 23.4849 28.3314 23.4568C28.3587 23.3409 29.0259 20.6089 31.3945 19.7215C33.2574 19.0238 35.6088 19.6807 38.3843 21.674C38.4047 21.6886 38.422 21.7071 38.4353 21.7284C38.4485 21.7498 38.4575 21.7735 38.4615 21.7983C38.4656 21.823 38.4648 21.8484 38.4591 21.8728C38.4533 21.8973 38.4429 21.9204 38.4282 21.9408C38.4136 21.9612 38.3951 21.9785 38.3738 21.9918C38.3524 22.005 38.3287 22.0139 38.3039 22.018C38.2791 22.0221 38.2538 22.0213 38.2293 22.0155C38.2049 22.0098 38.1818 21.9994 38.1614 21.9847C35.497 20.071 33.2663 19.4292 31.5311 20.0785C29.3545 20.8921 28.7099 23.5181 28.7038 23.5444C28.6939 23.5863 28.6701 23.6236 28.6364 23.6503C28.6027 23.6771 28.5609 23.6916 28.5178 23.6917ZM29.8358 34.7048C29.7971 34.7048 29.7594 34.693 29.7275 34.6711C28.2502 33.6517 27.5188 31.8134 27.6126 29.3547C27.6825 27.522 28.175 26.0117 28.1959 25.9481C28.2032 25.9236 28.2154 25.9009 28.2317 25.8811C28.248 25.8614 28.2681 25.8452 28.2907 25.8334C28.3134 25.8215 28.3382 25.8144 28.3637 25.8123C28.3892 25.8103 28.4149 25.8133 28.4391 25.8214C28.4634 25.8294 28.4859 25.8422 28.5051 25.859C28.5243 25.8759 28.54 25.8964 28.5512 25.9194C28.5624 25.9424 28.5688 25.9674 28.5702 25.993C28.5715 26.0185 28.5677 26.044 28.559 26.0681C28.5394 26.1279 26.6289 32.0687 29.9447 34.3563C29.9785 34.3793 30.0039 34.4126 30.0173 34.4513C30.0307 34.4899 30.0313 34.5318 30.0191 34.5708C30.0069 34.6098 29.9825 34.6439 29.9495 34.668C29.9165 34.6921 29.8767 34.705 29.8358 34.7048ZM26.7272 34.5308C26.6994 34.5309 26.6719 34.5248 26.6467 34.5132C26.6215 34.5015 26.5991 34.4845 26.5811 34.4632C24.7157 32.2639 23.9454 30.2734 24.2915 28.5471C24.6781 26.6202 26.3135 25.7664 26.3829 25.7311C26.4278 25.71 26.4792 25.7072 26.5261 25.7233C26.573 25.7394 26.6119 25.7731 26.6344 25.8173C26.657 25.8615 26.6615 25.9128 26.647 25.9602C26.6325 26.0077 26.6001 26.0476 26.5566 26.0717C26.5414 26.0794 25.0125 26.8828 24.6655 28.6275C24.3461 30.2324 25.0886 32.1127 26.8726 34.216C26.8963 34.2438 26.9116 34.2777 26.9166 34.3139C26.9216 34.3501 26.9161 34.3869 26.9008 34.4201C26.8855 34.4532 26.861 34.4812 26.8302 34.5009C26.7995 34.5205 26.7637 34.5309 26.7272 34.5308Z"
            fill="#FDFFFF" />
        <path
            d="M31.1793 35.8992C31.1793 35.8992 26.718 33.1418 25.896 37.1759C25.0739 41.21 29.0343 44.8951 32.1633 42.7998C35.2923 40.7047 31.1793 35.8992 31.1793 35.8992Z"
            fill="#F5D450" />
        <path
            d="M31.8007 40.5131C31.7248 40.5131 31.6532 40.4677 31.6233 40.393C30.6246 37.9028 29.9995 37.5826 29.7054 37.6154C29.2058 37.6707 28.8317 38.849 28.7131 39.5789C28.7092 39.6037 28.7004 39.6275 28.6872 39.6489C28.674 39.6704 28.6567 39.689 28.6363 39.7037C28.6159 39.7184 28.5928 39.7289 28.5683 39.7346C28.5438 39.7404 28.5185 39.7412 28.4937 39.7371C28.4436 39.7289 28.3988 39.7012 28.3692 39.66C28.3395 39.6189 28.3274 39.5677 28.3354 39.5176C28.3716 39.295 28.7159 37.3401 29.6633 37.2351C30.3827 37.1539 31.1328 38.1429 31.978 40.2505C31.9874 40.2738 31.9921 40.2987 31.9918 40.3238C31.9915 40.3489 31.9863 40.3737 31.9765 40.3968C31.9666 40.4198 31.9523 40.4407 31.9343 40.4583C31.9164 40.4758 31.8952 40.4897 31.8718 40.499C31.8485 40.5087 31.8244 40.5131 31.8007 40.5131Z"
            fill="#241726" />
        <path
            d="M15.4735 33.0441C15.4334 33.0441 15.3944 33.0315 15.3619 33.0081C15.3294 32.9848 15.305 32.9518 15.2922 32.9139C14.0497 29.2256 14.1335 26.5391 15.5414 24.929C17.5036 22.6846 21.2692 23.3833 21.4292 23.4145C21.5328 23.4344 21.6004 23.5347 21.5804 23.6383C21.5758 23.663 21.5663 23.6866 21.5526 23.7076C21.5388 23.7286 21.5209 23.7467 21.5001 23.7608C21.4793 23.7749 21.4559 23.7847 21.4312 23.7896C21.4066 23.7946 21.3812 23.7946 21.3566 23.7897C21.3193 23.7823 17.6441 23.1029 15.8282 25.1818C14.5172 26.6823 14.4588 29.2426 15.6545 32.7917C15.6643 32.8204 15.6671 32.8511 15.6626 32.8811C15.6582 32.9112 15.6466 32.9397 15.6289 32.9644C15.6112 32.9891 15.5878 33.0092 15.5608 33.0231C15.5338 33.0369 15.5038 33.0441 15.4735 33.0441Z"
            fill="#FDFFFF" />
        <path
            d="M13.4596 37.592C13.4096 37.592 13.3599 37.5725 13.3224 37.5341C13.2681 37.478 7.9211 31.8742 10.6748 25.7943C13.449 19.6687 19.8656 22.0604 19.9303 22.0854C19.9538 22.0944 19.9752 22.108 19.9934 22.1253C20.0116 22.1426 20.0262 22.1633 20.0363 22.1863C20.0465 22.2092 20.0521 22.2339 20.0527 22.259C20.0533 22.2841 20.049 22.3091 20.04 22.3325C20.031 22.356 20.0174 22.3774 20.0001 22.3956C19.9828 22.4138 19.9621 22.4284 19.9391 22.4386C19.9162 22.4487 19.8915 22.4543 19.8664 22.4549C19.8413 22.4556 19.8163 22.4512 19.7929 22.4422C19.5434 22.3464 13.6473 20.1584 11.0232 25.9519C9.91585 28.397 10.0083 31.0398 11.298 33.8074C12.2661 35.8846 13.5834 37.254 13.5967 37.2676C13.6228 37.2946 13.6404 37.3286 13.6473 37.3656C13.6542 37.4025 13.6501 37.4406 13.6355 37.4752C13.6209 37.5098 13.5964 37.5393 13.5651 37.5601C13.5338 37.5808 13.4971 37.5919 13.4596 37.592Z"
            fill="#FDFFFF" />
        <path
            d="M77.0105 26.731C81.6013 22.1401 81.6011 14.6968 77.0102 10.106C72.4192 5.51518 64.9759 5.51531 60.3851 10.1063C55.7943 14.6972 55.7945 22.1405 60.3854 26.7313C64.9764 31.3221 72.4197 31.322 77.0105 26.731Z"
            fill="white" />
        <path
            d="M68.7093 30.3661C68.4843 30.3661 68.2583 30.3599 68.0309 30.3469C64.8446 30.1686 61.9186 28.76 59.7919 26.3809C57.6652 24.002 56.5921 20.937 56.7706 17.7507C57.1373 11.201 62.7432 6.1179 69.3667 6.49043C75.944 6.85874 80.9953 12.5094 80.627 19.0865C80.2729 25.4115 75.0379 30.3661 68.7093 30.3661ZM68.6883 6.85388C62.5625 6.85388 57.4951 11.6496 57.1522 17.7721C56.9794 20.8562 58.0182 23.823 60.0769 26.1261C62.1356 28.4292 64.9679 29.7925 68.052 29.9653C74.4675 30.326 79.89 25.4057 80.245 19.0654C80.6014 12.6987 75.7117 7.229 69.3451 6.87236C69.1264 6.86 68.9074 6.85383 68.6883 6.85388ZM73.0163 32.9744C72.9879 32.9744 72.9598 32.9681 72.9342 32.956C72.9085 32.9438 72.8859 32.9261 72.8679 32.9041C72.85 32.8821 72.8371 32.8564 72.8303 32.8288C72.8236 32.8012 72.823 32.7725 72.8287 32.7447C72.8473 32.6536 73.303 30.5061 74.6396 29.9003C75.2226 29.6361 75.8742 29.705 76.5773 30.1046C76.6692 30.1566 76.7013 30.2733 76.649 30.3653C76.6366 30.3871 76.62 30.4063 76.6002 30.4217C76.5804 30.4372 76.5577 30.4486 76.5335 30.4552C76.5093 30.4619 76.484 30.4637 76.4591 30.4605C76.4342 30.4574 76.4101 30.4494 76.3883 30.4369C75.7977 30.1015 75.2629 30.038 74.7982 30.248C73.6388 30.773 73.2075 32.8011 73.2033 32.8217C73.1945 32.8648 73.171 32.9035 73.1369 32.9313C73.1029 32.9591 73.0602 32.9743 73.0163 32.9744Z"
            fill="#241726" />
        <path
            d="M14.6438 55.3737C14.6438 55.3737 7.03876 51.0714 7.08156 50.3087C7.15094 49.0702 12.6155 51.3081 12.6155 51.3081C12.6155 51.3081 5.23853 47.3079 5.94517 46.6609C6.6518 46.014 12.733 49.2114 12.733 49.2114C12.733 49.2114 5.18407 44.8622 6.99791 44.9638C8.81175 45.0655 15.0462 48.1917 15.0462 48.1917C15.0462 48.1917 9.01212 43.1889 11.2765 43.7945C13.541 44.4002 17.1939 46.4931 18.2989 50.1696C19.4038 53.8463 15.9608 57.3846 14.6438 55.3737Z"
            fill="#F5D450" />
        <path
            d="M16.0188 53.3627C15.9695 53.3626 15.9222 53.3435 15.8866 53.3094C15.8511 53.2753 15.8301 53.2288 15.828 53.1795C15.827 53.1562 15.7144 50.8414 14.4827 50.2069C13.8438 49.878 12.9903 50.0555 11.946 50.7351C11.9249 50.7488 11.9014 50.7582 11.8767 50.7628C11.8521 50.7675 11.8267 50.7672 11.8021 50.762C11.7776 50.7568 11.7543 50.7468 11.7336 50.7327C11.7128 50.7185 11.6951 50.7003 11.6814 50.6793C11.6677 50.6583 11.6583 50.6348 11.6537 50.6101C11.649 50.5854 11.6493 50.5601 11.6545 50.5355C11.6597 50.5109 11.6696 50.4876 11.6838 50.4669C11.698 50.4462 11.7161 50.4285 11.7372 50.4148C12.9052 49.6546 13.8876 49.4698 14.6585 49.8675C16.0874 50.6043 16.2057 53.0596 16.2101 53.1636C16.2122 53.2143 16.1941 53.2637 16.1598 53.3011C16.1255 53.3384 16.0777 53.3606 16.0271 53.3627H16.0188Z"
            fill="#241726" />
        <path
            d="M32.2367 56.3387L29.5757 59.3428C29.5757 59.3428 32.2724 67.6904 33.6065 67.9889C34.9409 68.2872 40.0214 66.1287 39.9661 64.5839C39.9108 63.039 33.3251 55.1101 32.2367 56.3387Z"
            fill="#FDFFFF" />
        <path
            d="M33.902 68.2076C33.7746 68.2076 33.6611 68.1967 33.5647 68.1751C32.1931 67.8684 29.8495 60.8126 29.3936 59.4015C29.3833 59.3698 29.3815 59.336 29.3883 59.3035C29.3951 59.2709 29.4103 59.2407 29.4324 59.2158L32.0934 56.2118C32.2054 56.0853 32.363 56.0186 32.5494 56.0186C34.2969 56.0186 40.0992 62.9586 40.157 64.5768C40.1692 64.9158 39.9873 65.2825 39.6166 65.6667C38.4001 66.9271 35.2665 68.2076 33.902 68.2076ZM29.7913 59.3875C30.8294 62.5809 32.7636 67.604 33.648 67.802C33.7171 67.8172 33.8027 67.8251 33.902 67.8251C35.1824 67.8253 38.2117 66.5715 39.3413 65.401C39.6329 65.0986 39.783 64.8183 39.7749 64.5904C39.7255 63.2109 34.0903 56.4008 32.5494 56.4008C32.4484 56.4008 32.4043 56.4376 32.3798 56.4653L29.7913 59.3875Z"
            fill="#241726" />
        <path
            d="M40.1951 50.0057C40.1951 50.0057 48.1716 61.747 49.4838 59.8764C50.7961 58.0058 48.1207 48.9337 48.1207 48.9337C48.1207 48.9337 56.3065 46.4298 56.837 48.3028C57.3674 50.1758 59.9629 80.8336 59.9629 80.8336L36.2131 83.0002C36.2131 83.0002 38.1908 63.9347 32.1958 57.0629C29.2586 53.6962 40.1951 50.0057 40.1951 50.0057Z"
            fill="#00A7CF" />
        <path
            d="M49.5419 62.5602C49.4727 62.5602 49.4022 62.5575 49.3306 62.552C44.5315 62.1882 38.9137 52.8191 38.6771 52.4203C38.6642 52.3987 38.6558 52.3748 38.6522 52.35C38.6486 52.3252 38.6499 52.2998 38.6561 52.2755C38.6623 52.2512 38.6732 52.2283 38.6882 52.2082C38.7033 52.1881 38.7221 52.1712 38.7437 52.1583C38.7653 52.1455 38.7891 52.1371 38.814 52.1335C38.8388 52.1299 38.8641 52.1312 38.8885 52.1374C38.9128 52.1436 38.9357 52.1545 38.9558 52.1695C38.9759 52.1846 38.9928 52.2034 39.0056 52.225C39.0629 52.3209 44.7579 61.8217 49.3592 62.1705C50.0023 62.2175 50.5102 62.019 50.9077 61.5578C53.0414 59.0811 51.0629 50.268 51.0428 50.1793C51.0371 50.1548 51.0364 50.1295 51.0406 50.1047C51.0448 50.08 51.0538 50.0563 51.0672 50.035C51.0805 50.0138 51.098 49.9954 51.1184 49.9808C51.1389 49.9663 51.1621 49.956 51.1865 49.9504C51.211 49.9446 51.2364 49.9438 51.2612 49.9479C51.2861 49.952 51.3098 49.961 51.3311 49.9744C51.3524 49.9878 51.3708 50.0052 51.3853 50.0258C51.3998 50.0464 51.41 50.0696 51.4154 50.0942C51.4999 50.4641 53.4564 59.185 51.1976 61.8074C50.7668 62.3077 50.2105 62.5602 49.5419 62.5602ZM42.7796 79.5008C40.0987 79.5008 38.1236 79.3867 37.9101 79.3739C37.8595 79.3708 37.8122 79.3478 37.7785 79.3098C37.7449 79.2718 37.7278 79.2221 37.7308 79.1714C37.7343 79.121 37.7575 79.0739 37.7954 79.0404C37.8332 79.0068 37.8828 78.9895 37.9333 78.9921C38.0753 79.0009 52.2143 79.8152 57.4166 76.9969C57.4387 76.9841 57.4632 76.9758 57.4886 76.9726C57.514 76.9694 57.5397 76.9713 57.5644 76.9782C57.589 76.9851 57.612 76.9969 57.632 77.0129C57.652 77.0289 57.6686 77.0487 57.6808 77.0712C57.693 77.0937 57.7005 77.1184 57.703 77.1439C57.7055 77.1694 57.7028 77.1951 57.6951 77.2195C57.6875 77.2439 57.675 77.2665 57.6585 77.2861C57.6419 77.3056 57.6216 77.3216 57.5988 77.3331C54.2347 79.1557 47.441 79.5008 42.7796 79.5008Z"
            fill="#FDFFFF" />
        <path
            d="M55.5835 55.1172C55.5835 55.1172 59.4985 59.8603 61.0257 61.859C62.5529 63.8575 57.2831 68.6426 56.4388 67.6494C55.5945 66.6561 53.7664 57.4999 55.5835 55.1172Z"
            fill="#00A7CF" />
        <path
            d="M41.757 71.0772C40.3756 71.0772 38.9911 70.8963 38.3005 70.2759C36.6812 68.8214 36.8105 61.958 36.8169 61.6666C36.8191 61.561 36.9131 61.4845 37.0122 61.4795C37.0629 61.4806 37.1111 61.5018 37.1462 61.5384C37.1813 61.5751 37.2004 61.6241 37.1993 61.6748C37.1978 61.7445 37.0662 68.6535 38.5558 69.9914C40.0415 71.3259 45.4934 70.3564 45.5479 70.3462C45.5978 70.3373 45.6492 70.3485 45.6909 70.3773C45.7326 70.4062 45.7611 70.4504 45.7703 70.5002C45.7793 70.5501 45.7682 70.6016 45.7393 70.6433C45.7104 70.685 45.6662 70.7135 45.6163 70.7226C45.4832 70.7466 43.623 71.0772 41.757 71.0772Z"
            fill="#FDFFFF" />
        <path
            d="M42.3533 43.2058C41.6305 43.2058 41.1676 43.1366 41.1532 43.1341C41.1048 43.1244 41.062 43.0964 41.0338 43.0558C41.0056 43.0153 40.9941 42.9654 41.0019 42.9166C41.0096 42.8679 41.0359 42.824 41.0753 42.7941C41.1146 42.7643 41.164 42.7509 41.213 42.7566C41.2573 42.7629 45.6618 43.4188 48.57 40.5198C48.6059 40.484 48.6546 40.4639 48.7053 40.464C48.756 40.464 48.8046 40.4842 48.8404 40.5201C48.8763 40.556 48.8963 40.6047 48.8963 40.6554C48.8962 40.7061 48.876 40.7547 48.8401 40.7905C46.7491 42.8746 43.9316 43.2058 42.3533 43.2058ZM60.9917 27.4835C60.9505 27.4837 60.9104 27.4706 60.8773 27.4461C60.8442 27.4217 60.8199 27.3873 60.808 27.3479C60.796 27.3085 60.7971 27.2663 60.8111 27.2277C60.8251 27.189 60.8512 27.1558 60.8855 27.1331C73.1615 18.9623 66.5284 7.0614 66.4599 6.94225C66.4352 6.8983 66.4289 6.84638 66.4423 6.79777C66.4556 6.74916 66.4877 6.70779 66.5314 6.68267C66.5751 6.65755 66.6269 6.65069 66.6757 6.6636C66.7244 6.67652 66.7661 6.70814 66.7916 6.75161C66.8618 6.87417 73.6678 19.0846 61.0972 27.4512C61.066 27.4723 61.0293 27.4835 60.9917 27.4835Z"
            fill="#241726" />
        <path
            d="M79.6198 22.9641C79.5616 22.9641 79.5042 22.9378 79.4664 22.8879C79.4434 22.8572 77.0599 19.8204 67.9503 18.6844C67.9 18.6781 67.8543 18.652 67.8231 18.612C67.792 18.572 67.778 18.5212 67.7843 18.4709C67.7872 18.4459 67.7951 18.4217 67.8075 18.3998C67.8198 18.3778 67.8364 18.3586 67.8563 18.3431C67.8762 18.3277 67.8989 18.3163 67.9232 18.3098C67.9475 18.3032 67.9729 18.3015 67.9978 18.3049C77.3011 19.4654 79.6767 22.5294 79.7731 22.6591C79.7941 22.6876 79.8068 22.7213 79.8098 22.7565C79.8128 22.7917 79.806 22.8271 79.7901 22.8587C79.7743 22.8903 79.7499 22.9169 79.7198 22.9355C79.6898 22.9541 79.6551 22.964 79.6198 22.9641ZM58.7686 24.8988C58.6983 24.8988 58.6303 24.8598 58.5969 24.7925C58.5745 24.747 58.571 24.6945 58.5872 24.6464C58.6034 24.5984 58.638 24.5587 58.6833 24.536C68.4971 19.6732 64.2628 7.66385 64.2191 7.54308C64.2017 7.49544 64.204 7.44287 64.2255 7.39694C64.2469 7.351 64.2857 7.31546 64.3333 7.29813C64.381 7.28081 64.4335 7.28311 64.4795 7.30455C64.5254 7.32598 64.561 7.36478 64.5783 7.41242C64.6235 7.53627 68.9753 19.8631 58.8532 24.8791C58.8269 24.8921 58.798 24.8989 58.7686 24.8988Z"
            fill="#241726" />
        <path
            d="M57.3618 21.7182C57.3213 21.7184 57.2818 21.7057 57.2491 21.682C57.2163 21.6582 57.1919 21.6247 57.1794 21.5862C57.1669 21.5477 57.1669 21.5063 57.1795 21.4678C57.1921 21.4294 57.2166 21.3959 57.2494 21.3723C57.2656 21.3604 58.8922 20.1671 60.0458 18.1795C61.5813 15.5342 61.5961 12.8056 60.0901 10.0695C60.0672 10.0252 60.0625 9.97376 60.0769 9.92606C60.0914 9.87835 60.124 9.83819 60.1676 9.81412C60.2113 9.79005 60.2626 9.78398 60.3107 9.79719C60.3588 9.81041 60.3998 9.84187 60.425 9.88487C64.1833 16.7129 57.5412 21.6329 57.4738 21.6817C57.4413 21.7055 57.402 21.7183 57.3618 21.7182ZM80.4363 19.2671C80.4065 19.2672 80.3772 19.2603 80.3506 19.247C80.3241 19.2338 80.3009 19.2145 80.2831 19.1908C76.9901 14.8094 68.9756 15.351 68.895 15.3565C68.7944 15.3655 68.6981 15.2854 68.6901 15.18C68.6864 15.1294 68.7029 15.0794 68.736 15.041C68.7691 15.0026 68.8161 14.9789 68.8667 14.9751C69.2035 14.9492 77.1696 14.4118 80.589 18.9609C80.6103 18.9893 80.6233 19.0231 80.6265 19.0584C80.6298 19.0938 80.6231 19.1294 80.6072 19.1612C80.5914 19.193 80.567 19.2197 80.5368 19.2384C80.5066 19.2571 80.4718 19.2671 80.4363 19.2671ZM79.1128 13.1549C79.0758 13.1549 79.0386 13.1442 79.0056 13.122C74.0462 9.75891 68.2764 11.3293 68.2189 11.3455C68.1707 11.3572 68.1199 11.3497 68.0771 11.3247C68.0343 11.2997 68.0029 11.259 67.9895 11.2113C67.976 11.1636 67.9816 11.1126 68.005 11.0689C68.0285 11.0252 68.0679 10.9923 68.1151 10.9772C68.1749 10.9608 74.1153 9.34343 79.2204 12.8053C79.2544 12.8282 79.28 12.8615 79.2936 12.9001C79.3072 12.9388 79.308 12.9808 79.296 13.0199C79.2839 13.0591 79.2596 13.0933 79.2266 13.1176C79.1937 13.1419 79.1538 13.155 79.1128 13.1549ZM67.3555 23.3035C66.3739 23.3035 65.7456 23.0384 65.7127 23.0243C65.6897 23.0144 65.6688 23.0001 65.6514 22.9821C65.6339 22.9641 65.6201 22.9429 65.6109 22.9196C65.6016 22.8963 65.597 22.8714 65.5974 22.8464C65.5978 22.8213 65.6031 22.7966 65.613 22.7735C65.6332 22.7271 65.6708 22.6906 65.7178 22.6717C65.7648 22.6529 65.8173 22.6534 65.8639 22.673C66.0152 22.7377 69.6119 24.1999 73.0564 19.3945C73.0707 19.3734 73.0891 19.3553 73.1106 19.3414C73.132 19.3274 73.156 19.318 73.1812 19.3135C73.2063 19.309 73.2321 19.3096 73.257 19.3152C73.282 19.3209 73.3055 19.3314 73.3263 19.3463C73.347 19.3612 73.3646 19.3801 73.378 19.4019C73.3913 19.4237 73.4001 19.448 73.4039 19.4733C73.4078 19.4985 73.4065 19.5243 73.4001 19.5491C73.3938 19.5738 73.3826 19.5971 73.3671 19.6174C71.4771 22.2541 69.5055 23.0433 68.1845 23.2411C67.9101 23.2825 67.633 23.3034 67.3555 23.3035ZM68.1918 27.0626C65.3849 27.0626 63.2721 25.7946 63.162 25.7273C63.1188 25.7008 63.0879 25.6583 63.0759 25.609C63.064 25.5597 63.0721 25.5077 63.0985 25.4644C63.125 25.4212 63.1675 25.3902 63.2168 25.3783C63.2661 25.3664 63.3181 25.3745 63.3614 25.4008C63.3937 25.4206 66.6568 27.3745 70.3553 26.4045C72.9322 25.728 75.116 23.8157 76.8455 20.7207C76.8703 20.6765 76.9116 20.6438 76.9605 20.63C77.0093 20.6162 77.0616 20.6224 77.1059 20.6472C77.1502 20.6719 77.1828 20.7133 77.1966 20.7621C77.2104 20.8109 77.2042 20.8632 77.1795 20.9075C75.3961 24.0985 73.1314 26.0728 70.4479 26.7755C69.7113 26.9675 68.953 27.064 68.1918 27.0626ZM5.20324 23.5682C5.17671 23.5683 5.15047 23.5628 5.12617 23.5521C5.10187 23.5415 5.08005 23.5259 5.06211 23.5064C5.04416 23.4869 5.03047 23.4638 5.02192 23.4387C5.01337 23.4136 5.01014 23.387 5.01244 23.3605C5.01341 23.3487 5.03837 23.0631 5.11473 22.5834C5.11855 22.5585 5.12726 22.5347 5.14036 22.5132C5.15346 22.4918 5.17068 22.4731 5.19104 22.4584C5.21139 22.4436 5.23446 22.433 5.25893 22.4272C5.2834 22.4215 5.30877 22.4206 5.33357 22.4247C5.43797 22.4412 5.50898 22.5393 5.49228 22.6435C5.41836 23.108 5.39372 23.3905 5.39323 23.3933C5.38925 23.4409 5.36751 23.4854 5.33232 23.5178C5.29714 23.5502 5.25107 23.5682 5.20324 23.5682ZM5.44057 22.0499C5.4122 22.05 5.38416 22.0438 5.35849 22.0317C5.33283 22.0196 5.31018 22.002 5.2922 21.98C5.27421 21.9581 5.26135 21.9324 5.25454 21.9049C5.24774 21.8773 5.24716 21.8486 5.25284 21.8208C5.30426 21.568 5.36041 21.3161 5.42128 21.0654C5.43496 21.0179 5.46644 20.9776 5.50916 20.9528C5.55188 20.928 5.60252 20.9207 5.6505 20.9324C5.69849 20.9441 5.7401 20.9739 5.76666 21.0155C5.79321 21.0571 5.80264 21.1074 5.79299 21.1559C5.73312 21.4017 5.6781 21.6487 5.62796 21.8967C5.61915 21.9399 5.59569 21.9787 5.56155 22.0067C5.5274 22.0346 5.48467 22.0498 5.44057 22.0499ZM5.80369 20.5611C5.77411 20.561 5.74493 20.5541 5.71847 20.5409C5.692 20.5277 5.66895 20.5085 5.65114 20.4849C5.63333 20.4613 5.62124 20.4338 5.61581 20.4047C5.61038 20.3757 5.61177 20.3457 5.61986 20.3173C5.69102 20.0691 5.76728 19.8225 5.8486 19.5776C5.86597 19.5312 5.90064 19.4933 5.94532 19.472C5.99001 19.4506 6.04123 19.4474 6.08823 19.463C6.13524 19.4786 6.17436 19.5118 6.19739 19.5557C6.22041 19.5995 6.22555 19.6506 6.21172 19.6982C6.13187 19.9381 6.05706 20.1796 5.98736 20.4226C5.96337 20.5066 5.88685 20.5611 5.80369 20.5611ZM6.28791 19.1078C6.2569 19.1078 6.22634 19.1003 6.19888 19.0859C6.17142 19.0714 6.14788 19.0505 6.1303 19.025C6.11271 18.9995 6.10161 18.97 6.09794 18.9392C6.09428 18.9084 6.09817 18.8772 6.10927 18.8482C6.20161 18.6068 6.29988 18.3677 6.40398 18.1311C6.42528 18.086 6.46334 18.051 6.51004 18.0336C6.55675 18.0161 6.60842 18.0176 6.65404 18.0377C6.69967 18.0578 6.73564 18.0949 6.75431 18.1412C6.77298 18.1874 6.77286 18.2391 6.75398 18.2852C6.65239 18.516 6.5565 18.7492 6.46639 18.9847C6.43721 19.0611 6.36475 19.1078 6.28791 19.1078ZM6.90555 17.7068C6.87288 17.7069 6.84075 17.6985 6.81223 17.6826C6.7837 17.6667 6.75974 17.6437 6.74263 17.6159C6.72552 17.588 6.71584 17.5563 6.7145 17.5236C6.71317 17.491 6.72023 17.4586 6.73501 17.4294C6.85154 17.1982 6.97485 16.9703 7.10478 16.7463C7.11738 16.7246 7.13414 16.7055 7.15411 16.6903C7.17407 16.675 7.19684 16.6638 7.22112 16.6574C7.2454 16.6509 7.27071 16.6493 7.29562 16.6526C7.32052 16.656 7.34453 16.6642 7.36626 16.6768C7.388 16.6894 7.40704 16.7061 7.4223 16.7261C7.43756 16.7461 7.44873 16.7688 7.45519 16.7931C7.46165 16.8174 7.46326 16.8427 7.45994 16.8676C7.45661 16.8925 7.44841 16.9165 7.43581 16.9383C7.30959 17.1558 7.18979 17.377 7.07657 17.6016C7.06057 17.6332 7.03612 17.6598 7.00593 17.6784C6.97574 17.697 6.94099 17.7068 6.90555 17.7068ZM7.67492 16.3843C7.64033 16.3842 7.60642 16.3747 7.57679 16.3568C7.54716 16.339 7.52291 16.3135 7.50662 16.2829C7.49033 16.2524 7.48261 16.2181 7.48427 16.1835C7.48593 16.149 7.49691 16.1155 7.51605 16.0867C7.66063 15.8711 7.81268 15.6606 7.9719 15.4556C8.0037 15.4176 8.04904 15.3933 8.09834 15.3881C8.14765 15.3828 8.19707 15.3969 8.2362 15.4273C8.27532 15.4578 8.30109 15.5023 8.30806 15.5514C8.31504 15.6005 8.30268 15.6503 8.27359 15.6905C8.11983 15.8882 7.97313 16.0914 7.83379 16.2995C7.79699 16.3545 7.73652 16.3843 7.67492 16.3843ZM19.3987 16.1767C19.293 16.1767 19.2043 16.0911 19.2043 15.9854C19.2043 15.8797 19.2865 15.7941 19.3922 15.7941C19.5099 15.7941 19.6365 15.768 19.7752 15.7166C19.864 15.6839 19.951 15.6465 20.0358 15.6046C20.0811 15.5824 20.1335 15.579 20.1813 15.5952C20.2291 15.6115 20.2686 15.646 20.2911 15.6912C20.3136 15.7364 20.3173 15.7887 20.3014 15.8367C20.2855 15.8846 20.2512 15.9243 20.2061 15.9471C20.1154 15.9923 20.0161 16.0351 19.9085 16.0752C19.7268 16.1425 19.5554 16.1767 19.3987 16.1767ZM18.7771 15.7965C18.742 15.7965 18.7076 15.7869 18.6776 15.7687C18.6476 15.7504 18.6232 15.7243 18.6071 15.6931C18.5022 15.4895 18.4487 15.2312 18.4485 14.9255L18.4495 14.8558C18.4523 14.7501 18.5353 14.6715 18.6457 14.6694C18.6964 14.6707 18.7445 14.6921 18.7795 14.7289C18.8144 14.7656 18.8334 14.8148 18.8321 14.8655L18.8311 14.9253C18.8313 15.1661 18.8715 15.371 18.947 15.5175C18.962 15.5467 18.9692 15.5792 18.968 15.6119C18.9668 15.6447 18.9572 15.6766 18.9402 15.7046C18.9231 15.7325 18.8992 15.7557 18.8706 15.7718C18.8421 15.7879 18.8099 15.7964 18.7771 15.7965ZM20.71 15.4926C20.6752 15.4926 20.6411 15.4831 20.6114 15.4651C20.5816 15.4472 20.5573 15.4215 20.541 15.3907C20.5248 15.36 20.5172 15.3254 20.5192 15.2907C20.5211 15.256 20.5325 15.2225 20.5521 15.1938C20.6307 15.0784 20.6704 14.9529 20.6704 14.8208C20.6704 14.7566 20.661 14.6895 20.6429 14.6217C20.6363 14.5975 20.6345 14.5722 20.6377 14.5473C20.6409 14.5224 20.649 14.4984 20.6615 14.4766C20.674 14.4548 20.6906 14.4357 20.7105 14.4203C20.7303 14.405 20.753 14.3937 20.7772 14.3871C20.8015 14.3806 20.8268 14.3788 20.8517 14.382C20.8766 14.3852 20.9006 14.3933 20.9224 14.4057C20.9441 14.4182 20.9633 14.4349 20.9786 14.4547C20.994 14.4746 21.0052 14.4973 21.0118 14.5215C21.0387 14.619 21.0525 14.7196 21.053 14.8208C21.053 15.0309 20.9907 15.2288 20.8685 15.4089C20.8312 15.4632 20.7711 15.4926 20.71 15.4926ZM8.61629 15.1795C8.57919 15.1795 8.54289 15.1687 8.51182 15.1485C8.48074 15.1282 8.45623 15.0993 8.44126 15.0654C8.4263 15.0314 8.42153 14.9939 8.42754 14.9573C8.43354 14.9207 8.45007 14.8866 8.47509 14.8592C8.65079 14.6671 8.83457 14.4825 9.02594 14.3059C9.06344 14.2728 9.11242 14.2557 9.16237 14.2583C9.21233 14.2609 9.25929 14.2829 9.29318 14.3197C9.32708 14.3565 9.34523 14.4051 9.34372 14.4551C9.34222 14.5051 9.3212 14.5525 9.28515 14.5872C9.10174 14.7563 8.92564 14.9332 8.75732 15.1174C8.73943 15.137 8.71764 15.1527 8.69336 15.1634C8.66907 15.1741 8.64282 15.1796 8.61629 15.1795ZM18.7512 14.2964C18.7221 14.2964 18.6934 14.2898 18.6673 14.277C18.6412 14.2643 18.6183 14.2458 18.6004 14.2229C18.5824 14.2 18.57 14.1734 18.5639 14.1449C18.5578 14.1165 18.5583 14.0871 18.5653 14.0589C18.6252 13.8172 18.7078 13.5644 18.8102 13.3072C18.8189 13.283 18.8323 13.2608 18.8497 13.2419C18.8672 13.223 18.8882 13.2078 18.9116 13.1973C18.935 13.1867 18.9603 13.181 18.986 13.1804C19.0117 13.1798 19.0373 13.1844 19.0611 13.1939C19.085 13.2034 19.1067 13.2177 19.1249 13.2357C19.1432 13.2538 19.1576 13.2754 19.1673 13.2992C19.1771 13.3229 19.1819 13.3484 19.1816 13.3741C19.1812 13.3998 19.1757 13.4252 19.1654 13.4487C19.0733 13.6774 18.9968 13.912 18.9365 14.1511C18.9263 14.1925 18.9025 14.2294 18.8689 14.2557C18.8353 14.282 18.7939 14.2964 18.7512 14.2964ZM9.74084 14.1471C9.70084 14.147 9.66186 14.1345 9.62938 14.1111C9.5969 14.0878 9.57255 14.0548 9.55975 14.0169C9.54696 13.979 9.54637 13.9381 9.55806 13.8998C9.56975 13.8616 9.59314 13.828 9.62493 13.8037C9.83243 13.6458 10.0475 13.498 10.2693 13.361C10.3124 13.3364 10.3633 13.3295 10.4114 13.3417C10.4595 13.3539 10.5009 13.3844 10.527 13.4266C10.553 13.4688 10.5617 13.5195 10.5511 13.5679C10.5405 13.6164 10.5115 13.6589 10.4702 13.6863C10.2589 13.817 10.054 13.9578 9.85626 14.1081C9.8219 14.1342 9.78121 14.1471 9.74084 14.1471ZM20.4422 14.1111C20.3901 14.1111 20.3379 14.0898 20.3003 14.0482C20.1556 13.8877 19.9719 13.7303 19.7543 13.5798C19.7126 13.5509 19.6841 13.5067 19.6751 13.4567C19.666 13.4068 19.6771 13.3554 19.706 13.3136C19.7349 13.2719 19.7792 13.2434 19.8291 13.2344C19.879 13.2253 19.9305 13.2364 19.9722 13.2653C20.2139 13.4325 20.4198 13.6095 20.5843 13.7915C20.6092 13.819 20.6255 13.8531 20.6313 13.8897C20.6371 13.9262 20.6322 13.9637 20.6172 13.9975C20.6021 14.0314 20.5776 14.0601 20.5465 14.0803C20.5154 14.1004 20.4792 14.1111 20.4422 14.1111ZM11.0393 13.3474C10.996 13.3474 10.954 13.3327 10.9201 13.3057C10.8862 13.2788 10.8625 13.2411 10.8528 13.1989C10.8431 13.1567 10.848 13.1124 10.8667 13.0734C10.8855 13.0343 10.9169 13.0028 10.9559 12.9839C11.191 12.8703 11.4317 12.7687 11.6771 12.6795C11.7241 12.6645 11.7752 12.6683 11.8195 12.6901C11.8638 12.7119 11.8979 12.75 11.9148 12.7964C11.9317 12.8428 11.93 12.8939 11.91 12.9391C11.8901 12.9843 11.8534 13.0199 11.8077 13.0387C11.5745 13.1235 11.3457 13.2202 11.1223 13.3282C11.0956 13.3412 11.0672 13.3474 11.0393 13.3474ZM19.2022 13.229C19.1738 13.229 19.1451 13.2227 19.1177 13.2094C18.8952 13.1002 18.6667 13.0038 18.4331 12.9207C18.3862 12.903 18.3481 12.8675 18.3271 12.8219C18.306 12.7764 18.3038 12.7244 18.3207 12.6771C18.3377 12.6299 18.3725 12.5912 18.4177 12.5694C18.4629 12.5476 18.5148 12.5445 18.5623 12.5606C18.7658 12.6335 18.9658 12.7155 19.1618 12.8064C19.1375 12.7774 19.1224 12.7418 19.1184 12.7041C19.1144 12.6665 19.1217 12.6285 19.1393 12.595C19.2604 12.3643 19.3915 12.1389 19.5321 11.9195C19.5452 11.8976 19.5627 11.8785 19.5833 11.8634C19.604 11.8483 19.6274 11.8375 19.6523 11.8316C19.6772 11.8258 19.7031 11.825 19.7283 11.8293C19.7535 11.8336 19.7776 11.8429 19.7991 11.8566C19.8207 11.8704 19.8393 11.8884 19.8538 11.9094C19.8683 11.9305 19.8784 11.9543 19.8835 11.9793C19.8887 12.0044 19.8888 12.0302 19.8837 12.0553C19.8787 12.0804 19.8687 12.1042 19.8544 12.1254C19.7197 12.3356 19.5942 12.5515 19.4781 12.7725C19.4428 12.8393 19.3799 12.8735 19.3025 12.875C19.3379 12.8968 19.3653 12.9297 19.3803 12.9684C19.3954 13.0072 19.3974 13.0499 19.3861 13.0899C19.3747 13.1299 19.3506 13.1652 19.3175 13.1903C19.2843 13.2154 19.2438 13.229 19.2022 13.229ZM12.4716 12.8207C12.4253 12.8207 12.3806 12.804 12.3457 12.7735C12.3108 12.7431 12.2882 12.701 12.282 12.6551C12.2758 12.6093 12.2864 12.5627 12.312 12.5241C12.3375 12.4855 12.3762 12.4575 12.4208 12.4452C12.6707 12.3762 12.9229 12.3155 13.1769 12.2635C13.2259 12.255 13.2763 12.2659 13.3174 12.294C13.3584 12.322 13.387 12.3649 13.397 12.4136C13.4069 12.4623 13.3975 12.513 13.3708 12.5549C13.344 12.5968 13.302 12.6267 13.2536 12.6381C13.0081 12.6885 12.7644 12.7472 12.5228 12.8139C12.5061 12.8184 12.4889 12.8206 12.4716 12.8207ZM17.7664 12.7088C17.7507 12.7088 17.7348 12.7069 17.7189 12.7028C17.477 12.6413 17.2326 12.59 16.9863 12.5491C16.9615 12.545 16.9378 12.5361 16.9165 12.5228C16.8952 12.5095 16.8767 12.4922 16.8621 12.4717C16.8475 12.4513 16.8371 12.4282 16.8314 12.4037C16.8257 12.3793 16.8249 12.3539 16.8291 12.3292C16.833 12.3043 16.8418 12.2805 16.8551 12.2591C16.8683 12.2376 16.8856 12.2191 16.9061 12.2044C16.9266 12.1898 16.9498 12.1794 16.9743 12.1738C16.9989 12.1682 17.0243 12.1676 17.0491 12.1719C17.3081 12.215 17.5652 12.269 17.8134 12.3324C17.8589 12.3436 17.8986 12.371 17.9252 12.4096C17.9517 12.4481 17.9632 12.4951 17.9574 12.5415C17.9516 12.588 17.9289 12.6307 17.8937 12.6615C17.8585 12.6923 17.8132 12.7092 17.7664 12.7088ZM13.9691 12.5143C13.9208 12.514 13.8743 12.4954 13.8391 12.4622C13.8038 12.4291 13.7825 12.3838 13.7793 12.3355C13.7762 12.2872 13.7914 12.2396 13.822 12.2021C13.8526 12.1646 13.8962 12.1401 13.9442 12.1335C14.2013 12.0992 14.4595 12.0739 14.7184 12.0576C14.8298 12.0565 14.9149 12.1314 14.9212 12.2368C14.9243 12.2874 14.9072 12.3372 14.8736 12.3752C14.84 12.4132 14.7927 12.4363 14.7421 12.4394C14.4921 12.4549 14.2428 12.4794 13.9946 12.5127C13.986 12.5136 13.9776 12.5143 13.9691 12.5143ZM16.2593 12.4562C16.2537 12.4563 16.2481 12.456 16.2426 12.4554C15.9932 12.4342 15.7432 12.4222 15.493 12.4196C15.4679 12.4194 15.443 12.4142 15.4199 12.4043C15.3968 12.3945 15.3759 12.3801 15.3583 12.3622C15.3408 12.3443 15.3269 12.323 15.3175 12.2997C15.3082 12.2764 15.3035 12.2515 15.3038 12.2264C15.3049 12.1208 15.3915 12.0288 15.497 12.0372C15.7575 12.04 16.0193 12.0524 16.2755 12.0745C16.3251 12.078 16.3715 12.1007 16.4047 12.1378C16.4378 12.1749 16.4552 12.2235 16.4531 12.2733C16.451 12.323 16.4296 12.37 16.3934 12.4041C16.3572 12.4383 16.309 12.457 16.2593 12.4562ZM20.1296 11.5856C20.0941 11.5855 20.0593 11.5756 20.0292 11.5569C19.999 11.5382 19.9746 11.5114 19.9588 11.4797C19.9429 11.4479 19.9362 11.4124 19.9394 11.377C19.9426 11.3417 19.9556 11.3079 19.9769 11.2795C20.133 11.0722 20.2962 10.8703 20.4662 10.6742C20.4995 10.636 20.5466 10.6125 20.5971 10.6089C20.6477 10.6053 20.6977 10.6218 20.7361 10.6549C20.8158 10.7241 20.8244 10.845 20.7554 10.9248C20.591 11.114 20.4334 11.3089 20.2828 11.5092C20.2649 11.5329 20.2418 11.5522 20.2152 11.5654C20.1886 11.5787 20.1593 11.5856 20.1296 11.5856ZM21.1298 10.4294C21.0921 10.4294 21.0553 10.4182 21.0239 10.3973C20.9925 10.3764 20.968 10.3467 20.9535 10.3119C20.9389 10.2772 20.935 10.2388 20.9421 10.2018C20.9493 10.1648 20.9672 10.1307 20.9937 10.1039C21.1754 9.91964 21.3628 9.74102 21.5555 9.56827C21.5742 9.55142 21.596 9.53843 21.6197 9.53004C21.6434 9.52165 21.6685 9.51802 21.6936 9.51938C21.7187 9.52074 21.7433 9.52704 21.7659 9.53794C21.7886 9.54883 21.8089 9.5641 21.8256 9.58286C21.8424 9.60155 21.8553 9.62336 21.8637 9.64705C21.8721 9.67074 21.8757 9.69584 21.8743 9.72092C21.8729 9.74601 21.8667 9.77058 21.8558 9.79323C21.8449 9.81588 21.8297 9.83617 21.811 9.85294C21.6241 10.0206 21.4423 10.1939 21.2658 10.3725C21.2481 10.3906 21.2269 10.4049 21.2036 10.4147C21.1802 10.4244 21.1552 10.4294 21.1298 10.4294ZM22.2675 9.40762C22.2278 9.40765 22.1891 9.39533 22.1567 9.37238C22.1244 9.34943 22.0999 9.31698 22.0868 9.27952C22.0737 9.24206 22.0726 9.20146 22.0836 9.16333C22.0946 9.1252 22.1172 9.09143 22.1482 9.06671C22.3503 8.90562 22.5569 8.75015 22.7676 8.60048C22.8091 8.57133 22.8603 8.55973 22.9103 8.56821C22.9602 8.57668 23.0048 8.60453 23.0343 8.64571C23.0637 8.68707 23.0754 8.7384 23.0669 8.78841C23.0584 8.83841 23.0304 8.88301 22.9891 8.91238C22.7841 9.05799 22.5831 9.20924 22.3865 9.36596C22.3527 9.39297 22.3108 9.40767 22.2675 9.40762ZM23.5138 8.5225C23.4724 8.52248 23.4321 8.50902 23.399 8.48414C23.3659 8.45927 23.3418 8.42433 23.3302 8.38457C23.3187 8.34481 23.3204 8.30237 23.335 8.26364C23.3496 8.2249 23.3764 8.19196 23.4114 8.16975C23.6295 8.03173 23.8513 7.8994 24.0763 7.77291C24.1204 7.75044 24.1714 7.74587 24.2187 7.76016C24.266 7.77445 24.306 7.8065 24.3302 7.84958C24.3545 7.89267 24.3611 7.94346 24.3487 7.99132C24.3364 8.03918 24.306 8.08041 24.2639 8.10637C24.0445 8.22954 23.8284 8.35835 23.6156 8.49268C23.5853 8.51221 23.5499 8.52257 23.5138 8.5225ZM24.8457 7.77259C24.8027 7.77253 24.7609 7.75795 24.7271 7.7312C24.6934 7.70445 24.6697 7.66711 24.6598 7.6252C24.6499 7.58329 24.6544 7.53927 24.6727 7.50027C24.6909 7.46127 24.7218 7.42956 24.7603 7.41027C24.9911 7.2952 25.2245 7.18553 25.4604 7.08135C25.5066 7.06247 25.5583 7.06235 25.6045 7.08102C25.6507 7.09968 25.6878 7.13566 25.7079 7.18128C25.728 7.22691 25.7295 7.27858 25.7121 7.32528C25.6946 7.37199 25.6597 7.41005 25.6146 7.43135C25.3842 7.53284 25.1562 7.63986 24.931 7.75232C24.9036 7.7661 24.8742 7.77259 24.8457 7.77259ZM26.2441 7.15544C26.1995 7.1553 26.1564 7.13963 26.1222 7.11112C26.088 7.08262 26.0648 7.04307 26.0566 6.99929C26.0484 6.95552 26.0558 6.91026 26.0774 6.87132C26.099 6.83238 26.1335 6.8022 26.175 6.78599C26.4152 6.69306 26.6574 6.60534 26.9014 6.52288C26.949 6.50827 27.0005 6.5128 27.0448 6.53552C27.0891 6.55824 27.1228 6.59735 27.1388 6.64453C27.1547 6.69172 27.1516 6.74326 27.1302 6.78821C27.1087 6.83315 27.0705 6.86795 27.0238 6.8852C26.785 6.96579 26.5481 7.05167 26.3131 7.14279C26.2904 7.15122 26.2671 7.15544 26.2441 7.15544ZM27.6922 6.66587C27.6462 6.66574 27.6018 6.64908 27.5672 6.61891C27.5325 6.58875 27.5098 6.54711 27.5033 6.50161C27.4968 6.4561 27.5069 6.40978 27.5318 6.37112C27.5567 6.33246 27.5946 6.30404 27.6387 6.29107C27.8819 6.22006 28.1302 6.15328 28.3842 6.08989C28.4335 6.07782 28.4855 6.08573 28.5289 6.11188C28.5724 6.13803 28.6037 6.1803 28.616 6.22947C28.6282 6.27871 28.6204 6.33079 28.5942 6.37426C28.5681 6.41772 28.5257 6.44902 28.4765 6.46128C28.2276 6.52305 27.9841 6.58886 27.7458 6.65825C27.7284 6.66328 27.7103 6.66585 27.6922 6.66587ZM29.1755 6.29755C29.1282 6.29741 29.0827 6.27977 29.0476 6.24802C29.0126 6.21628 28.9906 6.17269 28.9858 6.12566C28.981 6.07863 28.9938 6.03149 29.0217 5.99333C29.0496 5.95518 29.0906 5.92871 29.1369 5.91903C29.3848 5.86764 29.6377 5.81982 29.8951 5.77637C29.9451 5.76814 29.9963 5.78 30.0377 5.80935C30.079 5.83871 30.107 5.88319 30.1157 5.93313C30.1241 5.98317 30.1123 6.0345 30.083 6.07586C30.0536 6.11722 30.009 6.14523 29.959 6.15376C29.7059 6.19656 29.4579 6.24325 29.2146 6.29382C29.2017 6.29618 29.1886 6.29743 29.1755 6.29755ZM30.6826 6.04174C30.6338 6.04211 30.5868 6.02382 30.5511 5.99061C30.5153 5.9574 30.4937 5.9118 30.4905 5.86313C30.4873 5.81446 30.5028 5.76641 30.5339 5.72882C30.565 5.69123 30.6093 5.66695 30.6577 5.66095C30.9123 5.62705 31.1676 5.59749 31.4233 5.57228C31.5326 5.56401 31.6222 5.6389 31.6324 5.74379C31.6349 5.76879 31.6324 5.79404 31.6251 5.81808C31.6178 5.84212 31.6058 5.86449 31.5899 5.88391C31.574 5.90333 31.5543 5.91942 31.5322 5.93126C31.51 5.9431 31.4857 5.95045 31.4607 5.95291C31.2054 5.9782 30.9546 6.00738 30.7079 6.04012C30.6993 6.04126 30.691 6.04174 30.6826 6.04174ZM32.204 5.89098C32.1545 5.89074 32.1071 5.87133 32.0716 5.83684C32.0361 5.80236 32.0154 5.75547 32.0138 5.70602C32.0121 5.65658 32.0297 5.60842 32.0628 5.57166C32.096 5.53491 32.142 5.51241 32.1914 5.50889C32.4441 5.49203 32.7004 5.47874 32.9609 5.4695C33.0655 5.46269 33.1549 5.54796 33.1588 5.65365C33.1598 5.67875 33.1557 5.70378 33.147 5.72732C33.1382 5.75086 33.1249 5.77243 33.1078 5.79082C33.0907 5.80921 33.0701 5.82404 33.0473 5.83446C33.0245 5.84489 32.9998 5.85071 32.9747 5.85159C32.7182 5.86099 32.4657 5.8738 32.217 5.89066L32.204 5.89098ZM33.7324 5.8357C33.683 5.83384 33.6362 5.81296 33.6019 5.77743C33.5676 5.74189 33.5483 5.69445 33.5481 5.64504C33.548 5.59562 33.5669 5.54805 33.601 5.51228C33.6351 5.47652 33.6817 5.45532 33.7311 5.45313L33.8094 5.45264H33.8104C33.8611 5.45242 33.9098 5.47237 33.9459 5.50809C33.9819 5.54381 34.0022 5.59238 34.0025 5.64312C34.0027 5.69385 33.9827 5.74259 33.947 5.77862C33.9113 5.81464 33.8627 5.835 33.812 5.83522L33.7337 5.8357H33.7324Z"
            fill="#241726" />
    </g>
    <defs>
        <clipPath id="clip0_222_5205">
            <rect width="83" height="83" fill="white" />
        </clipPath>
    </defs>
</svg>
